<?xml version="1.0" encoding="utf-8" standalone="no"?>
<!DOCTYPE svg PUBLIC "-//W3C//DTD SVG 1.1//EN"
  "http://www.w3.org/Graphics/SVG/1.1/DTD/svg11.dtd">
<!-- Created with matplotlib (https://matplotlib.org/) -->
<svg height="634.267858pt" version="1.1" viewBox="0 0 1055.4425 634.267858" width="1055.4425pt" xmlns="http://www.w3.org/2000/svg" xmlns:xlink="http://www.w3.org/1999/xlink">
 <defs>
  <style type="text/css">
*{stroke-linecap:butt;stroke-linejoin:round;}
  </style>
 </defs>
 <g id="figure_1">
  <g id="patch_1">
   <path d="M 0 634.267858 
L 1055.4425 634.267858 
L 1055.4425 0 
L 0 0 
z
" style="fill:#ffffff;opacity:0.7;"/>
  </g>
  <g id="axes_1">
   <g id="patch_2">
    <path d="M 76.1375 527.41 
L 968.9375 527.41 
L 968.9375 38.17 
L 76.1375 38.17 
z
" style="fill:#ffffff;"/>
   </g>
   <g id="matplotlib.axis_1">
    <g id="xtick_1">
     <g id="line2d_1">
      <path clip-path="url(#pab02f4ee2d)" d="M 86.853802 527.41 
L 86.853802 38.17 
" style="fill:none;stroke:#b0b0b0;stroke-linecap:square;stroke-width:0.8;"/>
     </g>
     <g id="line2d_2">
      <defs>
       <path d="M 0 0 
L 0 3.5 
" id="me05b16b649" style="stroke:#000000;stroke-width:0.8;"/>
      </defs>
      <g>
       <use style="stroke:#000000;stroke-width:0.8;" x="86.853802" xlink:href="#me05b16b649" y="527.41"/>
      </g>
     </g>
     <g id="text_1">
      <!-- Feb 2016 -->
      <defs>
       <path d="M 9.8125 72.90625 
L 51.703125 72.90625 
L 51.703125 64.59375 
L 19.671875 64.59375 
L 19.671875 43.109375 
L 48.578125 43.109375 
L 48.578125 34.8125 
L 19.671875 34.8125 
L 19.671875 0 
L 9.8125 0 
z
" id="DejaVuSans-70"/>
       <path d="M 56.203125 29.59375 
L 56.203125 25.203125 
L 14.890625 25.203125 
Q 15.484375 15.921875 20.484375 11.0625 
Q 25.484375 6.203125 34.421875 6.203125 
Q 39.59375 6.203125 44.453125 7.46875 
Q 49.3125 8.734375 54.109375 11.28125 
L 54.109375 2.78125 
Q 49.265625 0.734375 44.1875 -0.34375 
Q 39.109375 -1.421875 33.890625 -1.421875 
Q 20.796875 -1.421875 13.15625 6.1875 
Q 5.515625 13.8125 5.515625 26.8125 
Q 5.515625 40.234375 12.765625 48.109375 
Q 20.015625 56 32.328125 56 
Q 43.359375 56 49.78125 48.890625 
Q 56.203125 41.796875 56.203125 29.59375 
z
M 47.21875 32.234375 
Q 47.125 39.59375 43.09375 43.984375 
Q 39.0625 48.390625 32.421875 48.390625 
Q 24.90625 48.390625 20.390625 44.140625 
Q 15.875 39.890625 15.1875 32.171875 
z
" id="DejaVuSans-101"/>
       <path d="M 48.6875 27.296875 
Q 48.6875 37.203125 44.609375 42.84375 
Q 40.53125 48.484375 33.40625 48.484375 
Q 26.265625 48.484375 22.1875 42.84375 
Q 18.109375 37.203125 18.109375 27.296875 
Q 18.109375 17.390625 22.1875 11.75 
Q 26.265625 6.109375 33.40625 6.109375 
Q 40.53125 6.109375 44.609375 11.75 
Q 48.6875 17.390625 48.6875 27.296875 
z
M 18.109375 46.390625 
Q 20.953125 51.265625 25.265625 53.625 
Q 29.59375 56 35.59375 56 
Q 45.5625 56 51.78125 48.09375 
Q 58.015625 40.1875 58.015625 27.296875 
Q 58.015625 14.40625 51.78125 6.484375 
Q 45.5625 -1.421875 35.59375 -1.421875 
Q 29.59375 -1.421875 25.265625 0.953125 
Q 20.953125 3.328125 18.109375 8.203125 
L 18.109375 0 
L 9.078125 0 
L 9.078125 75.984375 
L 18.109375 75.984375 
z
" id="DejaVuSans-98"/>
       <path id="DejaVuSans-32"/>
       <path d="M 19.1875 8.296875 
L 53.609375 8.296875 
L 53.609375 0 
L 7.328125 0 
L 7.328125 8.296875 
Q 12.9375 14.109375 22.625 23.890625 
Q 32.328125 33.6875 34.8125 36.53125 
Q 39.546875 41.84375 41.421875 45.53125 
Q 43.3125 49.21875 43.3125 52.78125 
Q 43.3125 58.59375 39.234375 62.25 
Q 35.15625 65.921875 28.609375 65.921875 
Q 23.96875 65.921875 18.8125 64.3125 
Q 13.671875 62.703125 7.8125 59.421875 
L 7.8125 69.390625 
Q 13.765625 71.78125 18.9375 73 
Q 24.125 74.21875 28.421875 74.21875 
Q 39.75 74.21875 46.484375 68.546875 
Q 53.21875 62.890625 53.21875 53.421875 
Q 53.21875 48.921875 51.53125 44.890625 
Q 49.859375 40.875 45.40625 35.40625 
Q 44.1875 33.984375 37.640625 27.21875 
Q 31.109375 20.453125 19.1875 8.296875 
z
" id="DejaVuSans-50"/>
       <path d="M 31.78125 66.40625 
Q 24.171875 66.40625 20.328125 58.90625 
Q 16.5 51.421875 16.5 36.375 
Q 16.5 21.390625 20.328125 13.890625 
Q 24.171875 6.390625 31.78125 6.390625 
Q 39.453125 6.390625 43.28125 13.890625 
Q 47.125 21.390625 47.125 36.375 
Q 47.125 51.421875 43.28125 58.90625 
Q 39.453125 66.40625 31.78125 66.40625 
z
M 31.78125 74.21875 
Q 44.046875 74.21875 50.515625 64.515625 
Q 56.984375 54.828125 56.984375 36.375 
Q 56.984375 17.96875 50.515625 8.265625 
Q 44.046875 -1.421875 31.78125 -1.421875 
Q 19.53125 -1.421875 13.0625 8.265625 
Q 6.59375 17.96875 6.59375 36.375 
Q 6.59375 54.828125 13.0625 64.515625 
Q 19.53125 74.21875 31.78125 74.21875 
z
" id="DejaVuSans-48"/>
       <path d="M 12.40625 8.296875 
L 28.515625 8.296875 
L 28.515625 63.921875 
L 10.984375 60.40625 
L 10.984375 69.390625 
L 28.421875 72.90625 
L 38.28125 72.90625 
L 38.28125 8.296875 
L 54.390625 8.296875 
L 54.390625 0 
L 12.40625 0 
z
" id="DejaVuSans-49"/>
       <path d="M 33.015625 40.375 
Q 26.375 40.375 22.484375 35.828125 
Q 18.609375 31.296875 18.609375 23.390625 
Q 18.609375 15.53125 22.484375 10.953125 
Q 26.375 6.390625 33.015625 6.390625 
Q 39.65625 6.390625 43.53125 10.953125 
Q 47.40625 15.53125 47.40625 23.390625 
Q 47.40625 31.296875 43.53125 35.828125 
Q 39.65625 40.375 33.015625 40.375 
z
M 52.59375 71.296875 
L 52.59375 62.3125 
Q 48.875 64.0625 45.09375 64.984375 
Q 41.3125 65.921875 37.59375 65.921875 
Q 27.828125 65.921875 22.671875 59.328125 
Q 17.53125 52.734375 16.796875 39.40625 
Q 19.671875 43.65625 24.015625 45.921875 
Q 28.375 48.1875 33.59375 48.1875 
Q 44.578125 48.1875 50.953125 41.515625 
Q 57.328125 34.859375 57.328125 23.390625 
Q 57.328125 12.15625 50.6875 5.359375 
Q 44.046875 -1.421875 33.015625 -1.421875 
Q 20.359375 -1.421875 13.671875 8.265625 
Q 6.984375 17.96875 6.984375 36.375 
Q 6.984375 53.65625 15.1875 63.9375 
Q 23.390625 74.21875 37.203125 74.21875 
Q 40.921875 74.21875 44.703125 73.484375 
Q 48.484375 72.75 52.59375 71.296875 
z
" id="DejaVuSans-54"/>
      </defs>
      <g transform="translate(63.460058 596.037892)rotate(-45)scale(0.16 -0.16)">
       <use xlink:href="#DejaVuSans-70"/>
       <use x="57.441406" xlink:href="#DejaVuSans-101"/>
       <use x="118.964844" xlink:href="#DejaVuSans-98"/>
       <use x="182.441406" xlink:href="#DejaVuSans-32"/>
       <use x="214.228516" xlink:href="#DejaVuSans-50"/>
       <use x="277.851562" xlink:href="#DejaVuSans-48"/>
       <use x="341.474609" xlink:href="#DejaVuSans-49"/>
       <use x="405.097656" xlink:href="#DejaVuSans-54"/>
      </g>
     </g>
    </g>
    <g id="xtick_2">
     <g id="line2d_3">
      <path clip-path="url(#pab02f4ee2d)" d="M 156.540007 527.41 
L 156.540007 38.17 
" style="fill:none;stroke:#b0b0b0;stroke-linecap:square;stroke-width:0.8;"/>
     </g>
     <g id="line2d_4">
      <g>
       <use style="stroke:#000000;stroke-width:0.8;" x="156.540007" xlink:href="#me05b16b649" y="527.41"/>
      </g>
     </g>
     <g id="text_2">
      <!-- Aug 2016 -->
      <defs>
       <path d="M 34.1875 63.1875 
L 20.796875 26.90625 
L 47.609375 26.90625 
z
M 28.609375 72.90625 
L 39.796875 72.90625 
L 67.578125 0 
L 57.328125 0 
L 50.6875 18.703125 
L 17.828125 18.703125 
L 11.1875 0 
L 0.78125 0 
z
" id="DejaVuSans-65"/>
       <path d="M 8.5 21.578125 
L 8.5 54.6875 
L 17.484375 54.6875 
L 17.484375 21.921875 
Q 17.484375 14.15625 20.5 10.265625 
Q 23.53125 6.390625 29.59375 6.390625 
Q 36.859375 6.390625 41.078125 11.03125 
Q 45.3125 15.671875 45.3125 23.6875 
L 45.3125 54.6875 
L 54.296875 54.6875 
L 54.296875 0 
L 45.3125 0 
L 45.3125 8.40625 
Q 42.046875 3.421875 37.71875 1 
Q 33.40625 -1.421875 27.6875 -1.421875 
Q 18.265625 -1.421875 13.375 4.4375 
Q 8.5 10.296875 8.5 21.578125 
z
M 31.109375 56 
z
" id="DejaVuSans-117"/>
       <path d="M 45.40625 27.984375 
Q 45.40625 37.75 41.375 43.109375 
Q 37.359375 48.484375 30.078125 48.484375 
Q 22.859375 48.484375 18.828125 43.109375 
Q 14.796875 37.75 14.796875 27.984375 
Q 14.796875 18.265625 18.828125 12.890625 
Q 22.859375 7.515625 30.078125 7.515625 
Q 37.359375 7.515625 41.375 12.890625 
Q 45.40625 18.265625 45.40625 27.984375 
z
M 54.390625 6.78125 
Q 54.390625 -7.171875 48.1875 -13.984375 
Q 42 -20.796875 29.203125 -20.796875 
Q 24.46875 -20.796875 20.265625 -20.09375 
Q 16.0625 -19.390625 12.109375 -17.921875 
L 12.109375 -9.1875 
Q 16.0625 -11.328125 19.921875 -12.34375 
Q 23.78125 -13.375 27.78125 -13.375 
Q 36.625 -13.375 41.015625 -8.765625 
Q 45.40625 -4.15625 45.40625 5.171875 
L 45.40625 9.625 
Q 42.625 4.78125 38.28125 2.390625 
Q 33.9375 0 27.875 0 
Q 17.828125 0 11.671875 7.65625 
Q 5.515625 15.328125 5.515625 27.984375 
Q 5.515625 40.671875 11.671875 48.328125 
Q 17.828125 56 27.875 56 
Q 33.9375 56 38.28125 53.609375 
Q 42.625 51.21875 45.40625 46.390625 
L 45.40625 54.6875 
L 54.390625 54.6875 
z
" id="DejaVuSans-103"/>
      </defs>
      <g transform="translate(132.421479 597.48746)rotate(-45)scale(0.16 -0.16)">
       <use xlink:href="#DejaVuSans-65"/>
       <use x="68.408203" xlink:href="#DejaVuSans-117"/>
       <use x="131.787109" xlink:href="#DejaVuSans-103"/>
       <use x="195.263672" xlink:href="#DejaVuSans-32"/>
       <use x="227.050781" xlink:href="#DejaVuSans-50"/>
       <use x="290.673828" xlink:href="#DejaVuSans-48"/>
       <use x="354.296875" xlink:href="#DejaVuSans-49"/>
       <use x="417.919922" xlink:href="#DejaVuSans-54"/>
      </g>
     </g>
    </g>
    <g id="xtick_3">
     <g id="line2d_5">
      <path clip-path="url(#pab02f4ee2d)" d="M 226.991995 527.41 
L 226.991995 38.17 
" style="fill:none;stroke:#b0b0b0;stroke-linecap:square;stroke-width:0.8;"/>
     </g>
     <g id="line2d_6">
      <g>
       <use style="stroke:#000000;stroke-width:0.8;" x="226.991995" xlink:href="#me05b16b649" y="527.41"/>
      </g>
     </g>
     <g id="text_3">
      <!-- Feb 2017 -->
      <defs>
       <path d="M 8.203125 72.90625 
L 55.078125 72.90625 
L 55.078125 68.703125 
L 28.609375 0 
L 18.3125 0 
L 43.21875 64.59375 
L 8.203125 64.59375 
z
" id="DejaVuSans-55"/>
      </defs>
      <g transform="translate(203.598251 596.037892)rotate(-45)scale(0.16 -0.16)">
       <use xlink:href="#DejaVuSans-70"/>
       <use x="57.441406" xlink:href="#DejaVuSans-101"/>
       <use x="118.964844" xlink:href="#DejaVuSans-98"/>
       <use x="182.441406" xlink:href="#DejaVuSans-32"/>
       <use x="214.228516" xlink:href="#DejaVuSans-50"/>
       <use x="277.851562" xlink:href="#DejaVuSans-48"/>
       <use x="341.474609" xlink:href="#DejaVuSans-49"/>
       <use x="405.097656" xlink:href="#DejaVuSans-55"/>
      </g>
     </g>
    </g>
    <g id="xtick_4">
     <g id="line2d_7">
      <path clip-path="url(#pab02f4ee2d)" d="M 296.295309 527.41 
L 296.295309 38.17 
" style="fill:none;stroke:#b0b0b0;stroke-linecap:square;stroke-width:0.8;"/>
     </g>
     <g id="line2d_8">
      <g>
       <use style="stroke:#000000;stroke-width:0.8;" x="296.295309" xlink:href="#me05b16b649" y="527.41"/>
      </g>
     </g>
     <g id="text_4">
      <!-- Aug 2017 -->
      <g transform="translate(272.176781 597.48746)rotate(-45)scale(0.16 -0.16)">
       <use xlink:href="#DejaVuSans-65"/>
       <use x="68.408203" xlink:href="#DejaVuSans-117"/>
       <use x="131.787109" xlink:href="#DejaVuSans-103"/>
       <use x="195.263672" xlink:href="#DejaVuSans-32"/>
       <use x="227.050781" xlink:href="#DejaVuSans-50"/>
       <use x="290.673828" xlink:href="#DejaVuSans-48"/>
       <use x="354.296875" xlink:href="#DejaVuSans-49"/>
       <use x="417.919922" xlink:href="#DejaVuSans-55"/>
      </g>
     </g>
    </g>
    <g id="xtick_5">
     <g id="line2d_9">
      <path clip-path="url(#pab02f4ee2d)" d="M 366.747297 527.41 
L 366.747297 38.17 
" style="fill:none;stroke:#b0b0b0;stroke-linecap:square;stroke-width:0.8;"/>
     </g>
     <g id="line2d_10">
      <g>
       <use style="stroke:#000000;stroke-width:0.8;" x="366.747297" xlink:href="#me05b16b649" y="527.41"/>
      </g>
     </g>
     <g id="text_5">
      <!-- Feb 2018 -->
      <defs>
       <path d="M 31.78125 34.625 
Q 24.75 34.625 20.71875 30.859375 
Q 16.703125 27.09375 16.703125 20.515625 
Q 16.703125 13.921875 20.71875 10.15625 
Q 24.75 6.390625 31.78125 6.390625 
Q 38.8125 6.390625 42.859375 10.171875 
Q 46.921875 13.96875 46.921875 20.515625 
Q 46.921875 27.09375 42.890625 30.859375 
Q 38.875 34.625 31.78125 34.625 
z
M 21.921875 38.8125 
Q 15.578125 40.375 12.03125 44.71875 
Q 8.5 49.078125 8.5 55.328125 
Q 8.5 64.0625 14.71875 69.140625 
Q 20.953125 74.21875 31.78125 74.21875 
Q 42.671875 74.21875 48.875 69.140625 
Q 55.078125 64.0625 55.078125 55.328125 
Q 55.078125 49.078125 51.53125 44.71875 
Q 48 40.375 41.703125 38.8125 
Q 48.828125 37.15625 52.796875 32.3125 
Q 56.78125 27.484375 56.78125 20.515625 
Q 56.78125 9.90625 50.3125 4.234375 
Q 43.84375 -1.421875 31.78125 -1.421875 
Q 19.734375 -1.421875 13.25 4.234375 
Q 6.78125 9.90625 6.78125 20.515625 
Q 6.78125 27.484375 10.78125 32.3125 
Q 14.796875 37.15625 21.921875 38.8125 
z
M 18.3125 54.390625 
Q 18.3125 48.734375 21.84375 45.5625 
Q 25.390625 42.390625 31.78125 42.390625 
Q 38.140625 42.390625 41.71875 45.5625 
Q 45.3125 48.734375 45.3125 54.390625 
Q 45.3125 60.0625 41.71875 63.234375 
Q 38.140625 66.40625 31.78125 66.40625 
Q 25.390625 66.40625 21.84375 63.234375 
Q 18.3125 60.0625 18.3125 54.390625 
z
" id="DejaVuSans-56"/>
      </defs>
      <g transform="translate(343.353554 596.037892)rotate(-45)scale(0.16 -0.16)">
       <use xlink:href="#DejaVuSans-70"/>
       <use x="57.441406" xlink:href="#DejaVuSans-101"/>
       <use x="118.964844" xlink:href="#DejaVuSans-98"/>
       <use x="182.441406" xlink:href="#DejaVuSans-32"/>
       <use x="214.228516" xlink:href="#DejaVuSans-50"/>
       <use x="277.851562" xlink:href="#DejaVuSans-48"/>
       <use x="341.474609" xlink:href="#DejaVuSans-49"/>
       <use x="405.097656" xlink:href="#DejaVuSans-56"/>
      </g>
     </g>
    </g>
    <g id="xtick_6">
     <g id="line2d_11">
      <path clip-path="url(#pab02f4ee2d)" d="M 436.050612 527.41 
L 436.050612 38.17 
" style="fill:none;stroke:#b0b0b0;stroke-linecap:square;stroke-width:0.8;"/>
     </g>
     <g id="line2d_12">
      <g>
       <use style="stroke:#000000;stroke-width:0.8;" x="436.050612" xlink:href="#me05b16b649" y="527.41"/>
      </g>
     </g>
     <g id="text_6">
      <!-- Aug 2018 -->
      <g transform="translate(411.932083 597.48746)rotate(-45)scale(0.16 -0.16)">
       <use xlink:href="#DejaVuSans-65"/>
       <use x="68.408203" xlink:href="#DejaVuSans-117"/>
       <use x="131.787109" xlink:href="#DejaVuSans-103"/>
       <use x="195.263672" xlink:href="#DejaVuSans-32"/>
       <use x="227.050781" xlink:href="#DejaVuSans-50"/>
       <use x="290.673828" xlink:href="#DejaVuSans-48"/>
       <use x="354.296875" xlink:href="#DejaVuSans-49"/>
       <use x="417.919922" xlink:href="#DejaVuSans-56"/>
      </g>
     </g>
    </g>
    <g id="xtick_7">
     <g id="line2d_13">
      <path clip-path="url(#pab02f4ee2d)" d="M 506.5026 527.41 
L 506.5026 38.17 
" style="fill:none;stroke:#b0b0b0;stroke-linecap:square;stroke-width:0.8;"/>
     </g>
     <g id="line2d_14">
      <g>
       <use style="stroke:#000000;stroke-width:0.8;" x="506.5026" xlink:href="#me05b16b649" y="527.41"/>
      </g>
     </g>
     <g id="text_7">
      <!-- Feb 2019 -->
      <defs>
       <path d="M 10.984375 1.515625 
L 10.984375 10.5 
Q 14.703125 8.734375 18.5 7.8125 
Q 22.3125 6.890625 25.984375 6.890625 
Q 35.75 6.890625 40.890625 13.453125 
Q 46.046875 20.015625 46.78125 33.40625 
Q 43.953125 29.203125 39.59375 26.953125 
Q 35.25 24.703125 29.984375 24.703125 
Q 19.046875 24.703125 12.671875 31.3125 
Q 6.296875 37.9375 6.296875 49.421875 
Q 6.296875 60.640625 12.9375 67.421875 
Q 19.578125 74.21875 30.609375 74.21875 
Q 43.265625 74.21875 49.921875 64.515625 
Q 56.59375 54.828125 56.59375 36.375 
Q 56.59375 19.140625 48.40625 8.859375 
Q 40.234375 -1.421875 26.421875 -1.421875 
Q 22.703125 -1.421875 18.890625 -0.6875 
Q 15.09375 0.046875 10.984375 1.515625 
z
M 30.609375 32.421875 
Q 37.25 32.421875 41.125 36.953125 
Q 45.015625 41.5 45.015625 49.421875 
Q 45.015625 57.28125 41.125 61.84375 
Q 37.25 66.40625 30.609375 66.40625 
Q 23.96875 66.40625 20.09375 61.84375 
Q 16.21875 57.28125 16.21875 49.421875 
Q 16.21875 41.5 20.09375 36.953125 
Q 23.96875 32.421875 30.609375 32.421875 
z
" id="DejaVuSans-57"/>
      </defs>
      <g transform="translate(483.108856 596.037892)rotate(-45)scale(0.16 -0.16)">
       <use xlink:href="#DejaVuSans-70"/>
       <use x="57.441406" xlink:href="#DejaVuSans-101"/>
       <use x="118.964844" xlink:href="#DejaVuSans-98"/>
       <use x="182.441406" xlink:href="#DejaVuSans-32"/>
       <use x="214.228516" xlink:href="#DejaVuSans-50"/>
       <use x="277.851562" xlink:href="#DejaVuSans-48"/>
       <use x="341.474609" xlink:href="#DejaVuSans-49"/>
       <use x="405.097656" xlink:href="#DejaVuSans-57"/>
      </g>
     </g>
    </g>
    <g id="xtick_8">
     <g id="line2d_15">
      <path clip-path="url(#pab02f4ee2d)" d="M 575.805914 527.41 
L 575.805914 38.17 
" style="fill:none;stroke:#b0b0b0;stroke-linecap:square;stroke-width:0.8;"/>
     </g>
     <g id="line2d_16">
      <g>
       <use style="stroke:#000000;stroke-width:0.8;" x="575.805914" xlink:href="#me05b16b649" y="527.41"/>
      </g>
     </g>
     <g id="text_8">
      <!-- Aug 2019 -->
      <g transform="translate(551.687386 597.48746)rotate(-45)scale(0.16 -0.16)">
       <use xlink:href="#DejaVuSans-65"/>
       <use x="68.408203" xlink:href="#DejaVuSans-117"/>
       <use x="131.787109" xlink:href="#DejaVuSans-103"/>
       <use x="195.263672" xlink:href="#DejaVuSans-32"/>
       <use x="227.050781" xlink:href="#DejaVuSans-50"/>
       <use x="290.673828" xlink:href="#DejaVuSans-48"/>
       <use x="354.296875" xlink:href="#DejaVuSans-49"/>
       <use x="417.919922" xlink:href="#DejaVuSans-57"/>
      </g>
     </g>
    </g>
    <g id="xtick_9">
     <g id="line2d_17">
      <path clip-path="url(#pab02f4ee2d)" d="M 646.257902 527.41 
L 646.257902 38.17 
" style="fill:none;stroke:#b0b0b0;stroke-linecap:square;stroke-width:0.8;"/>
     </g>
     <g id="line2d_18">
      <g>
       <use style="stroke:#000000;stroke-width:0.8;" x="646.257902" xlink:href="#me05b16b649" y="527.41"/>
      </g>
     </g>
     <g id="text_9">
      <!-- Feb 2020 -->
      <g transform="translate(622.864158 596.037892)rotate(-45)scale(0.16 -0.16)">
       <use xlink:href="#DejaVuSans-70"/>
       <use x="57.441406" xlink:href="#DejaVuSans-101"/>
       <use x="118.964844" xlink:href="#DejaVuSans-98"/>
       <use x="182.441406" xlink:href="#DejaVuSans-32"/>
       <use x="214.228516" xlink:href="#DejaVuSans-50"/>
       <use x="277.851562" xlink:href="#DejaVuSans-48"/>
       <use x="341.474609" xlink:href="#DejaVuSans-50"/>
       <use x="405.097656" xlink:href="#DejaVuSans-48"/>
      </g>
     </g>
    </g>
    <g id="xtick_10">
     <g id="line2d_19">
      <path clip-path="url(#pab02f4ee2d)" d="M 715.944108 527.41 
L 715.944108 38.17 
" style="fill:none;stroke:#b0b0b0;stroke-linecap:square;stroke-width:0.8;"/>
     </g>
     <g id="line2d_20">
      <g>
       <use style="stroke:#000000;stroke-width:0.8;" x="715.944108" xlink:href="#me05b16b649" y="527.41"/>
      </g>
     </g>
     <g id="text_10">
      <!-- Aug 2020 -->
      <g transform="translate(691.825579 597.48746)rotate(-45)scale(0.16 -0.16)">
       <use xlink:href="#DejaVuSans-65"/>
       <use x="68.408203" xlink:href="#DejaVuSans-117"/>
       <use x="131.787109" xlink:href="#DejaVuSans-103"/>
       <use x="195.263672" xlink:href="#DejaVuSans-32"/>
       <use x="227.050781" xlink:href="#DejaVuSans-50"/>
       <use x="290.673828" xlink:href="#DejaVuSans-48"/>
       <use x="354.296875" xlink:href="#DejaVuSans-50"/>
       <use x="417.919922" xlink:href="#DejaVuSans-48"/>
      </g>
     </g>
    </g>
    <g id="xtick_11">
     <g id="line2d_21">
      <path clip-path="url(#pab02f4ee2d)" d="M 786.396096 527.41 
L 786.396096 38.17 
" style="fill:none;stroke:#b0b0b0;stroke-linecap:square;stroke-width:0.8;"/>
     </g>
     <g id="line2d_22">
      <g>
       <use style="stroke:#000000;stroke-width:0.8;" x="786.396096" xlink:href="#me05b16b649" y="527.41"/>
      </g>
     </g>
     <g id="text_11">
      <!-- Feb 2021 -->
      <g transform="translate(763.002352 596.037892)rotate(-45)scale(0.16 -0.16)">
       <use xlink:href="#DejaVuSans-70"/>
       <use x="57.441406" xlink:href="#DejaVuSans-101"/>
       <use x="118.964844" xlink:href="#DejaVuSans-98"/>
       <use x="182.441406" xlink:href="#DejaVuSans-32"/>
       <use x="214.228516" xlink:href="#DejaVuSans-50"/>
       <use x="277.851562" xlink:href="#DejaVuSans-48"/>
       <use x="341.474609" xlink:href="#DejaVuSans-50"/>
       <use x="405.097656" xlink:href="#DejaVuSans-49"/>
      </g>
     </g>
    </g>
    <g id="xtick_12">
     <g id="line2d_23">
      <path clip-path="url(#pab02f4ee2d)" d="M 855.69941 527.41 
L 855.69941 38.17 
" style="fill:none;stroke:#b0b0b0;stroke-linecap:square;stroke-width:0.8;"/>
     </g>
     <g id="line2d_24">
      <g>
       <use style="stroke:#000000;stroke-width:0.8;" x="855.69941" xlink:href="#me05b16b649" y="527.41"/>
      </g>
     </g>
     <g id="text_12">
      <!-- Aug 2021 -->
      <g transform="translate(831.580882 597.48746)rotate(-45)scale(0.16 -0.16)">
       <use xlink:href="#DejaVuSans-65"/>
       <use x="68.408203" xlink:href="#DejaVuSans-117"/>
       <use x="131.787109" xlink:href="#DejaVuSans-103"/>
       <use x="195.263672" xlink:href="#DejaVuSans-32"/>
       <use x="227.050781" xlink:href="#DejaVuSans-50"/>
       <use x="290.673828" xlink:href="#DejaVuSans-48"/>
       <use x="354.296875" xlink:href="#DejaVuSans-50"/>
       <use x="417.919922" xlink:href="#DejaVuSans-49"/>
      </g>
     </g>
    </g>
    <g id="xtick_13">
     <g id="line2d_25">
      <path clip-path="url(#pab02f4ee2d)" d="M 926.151398 527.41 
L 926.151398 38.17 
" style="fill:none;stroke:#b0b0b0;stroke-linecap:square;stroke-width:0.8;"/>
     </g>
     <g id="line2d_26">
      <g>
       <use style="stroke:#000000;stroke-width:0.8;" x="926.151398" xlink:href="#me05b16b649" y="527.41"/>
      </g>
     </g>
     <g id="text_13">
      <!-- Feb 2022 -->
      <g transform="translate(902.757654 596.037892)rotate(-45)scale(0.16 -0.16)">
       <use xlink:href="#DejaVuSans-70"/>
       <use x="57.441406" xlink:href="#DejaVuSans-101"/>
       <use x="118.964844" xlink:href="#DejaVuSans-98"/>
       <use x="182.441406" xlink:href="#DejaVuSans-32"/>
       <use x="214.228516" xlink:href="#DejaVuSans-50"/>
       <use x="277.851562" xlink:href="#DejaVuSans-48"/>
       <use x="341.474609" xlink:href="#DejaVuSans-50"/>
       <use x="405.097656" xlink:href="#DejaVuSans-50"/>
      </g>
     </g>
    </g>
    <g id="xtick_14">
     <g id="line2d_27">
      <path clip-path="url(#pab02f4ee2d)" d="M 104.275353 527.41 
L 104.275353 38.17 
" style="fill:none;stroke:#999999;stroke-linecap:square;stroke-opacity:0.2;stroke-width:0.8;"/>
     </g>
     <g id="line2d_28">
      <defs>
       <path d="M 0 0 
L 0 2 
" id="mae6b8c758f" style="stroke:#000000;stroke-width:0.6;"/>
      </defs>
      <g>
       <use style="stroke:#000000;stroke-width:0.6;" x="104.275353" xlink:href="#mae6b8c758f" y="527.41"/>
      </g>
     </g>
    </g>
    <g id="xtick_15">
     <g id="line2d_29">
      <path clip-path="url(#pab02f4ee2d)" d="M 121.696904 527.41 
L 121.696904 38.17 
" style="fill:none;stroke:#999999;stroke-linecap:square;stroke-opacity:0.2;stroke-width:0.8;"/>
     </g>
     <g id="line2d_30">
      <g>
       <use style="stroke:#000000;stroke-width:0.6;" x="121.696904" xlink:href="#mae6b8c758f" y="527.41"/>
      </g>
     </g>
    </g>
    <g id="xtick_16">
     <g id="line2d_31">
      <path clip-path="url(#pab02f4ee2d)" d="M 139.118456 527.41 
L 139.118456 38.17 
" style="fill:none;stroke:#999999;stroke-linecap:square;stroke-opacity:0.2;stroke-width:0.8;"/>
     </g>
     <g id="line2d_32">
      <g>
       <use style="stroke:#000000;stroke-width:0.6;" x="139.118456" xlink:href="#mae6b8c758f" y="527.41"/>
      </g>
     </g>
    </g>
    <g id="xtick_17">
     <g id="line2d_33">
      <path clip-path="url(#pab02f4ee2d)" d="M 173.961558 527.41 
L 173.961558 38.17 
" style="fill:none;stroke:#999999;stroke-linecap:square;stroke-opacity:0.2;stroke-width:0.8;"/>
     </g>
     <g id="line2d_34">
      <g>
       <use style="stroke:#000000;stroke-width:0.6;" x="173.961558" xlink:href="#mae6b8c758f" y="527.41"/>
      </g>
     </g>
    </g>
    <g id="xtick_18">
     <g id="line2d_35">
      <path clip-path="url(#pab02f4ee2d)" d="M 191.38311 527.41 
L 191.38311 38.17 
" style="fill:none;stroke:#999999;stroke-linecap:square;stroke-opacity:0.2;stroke-width:0.8;"/>
     </g>
     <g id="line2d_36">
      <g>
       <use style="stroke:#000000;stroke-width:0.6;" x="191.38311" xlink:href="#mae6b8c758f" y="527.41"/>
      </g>
     </g>
    </g>
    <g id="xtick_19">
     <g id="line2d_37">
      <path clip-path="url(#pab02f4ee2d)" d="M 208.804661 527.41 
L 208.804661 38.17 
" style="fill:none;stroke:#999999;stroke-linecap:square;stroke-opacity:0.2;stroke-width:0.8;"/>
     </g>
     <g id="line2d_38">
      <g>
       <use style="stroke:#000000;stroke-width:0.6;" x="208.804661" xlink:href="#mae6b8c758f" y="527.41"/>
      </g>
     </g>
    </g>
    <g id="xtick_20">
     <g id="line2d_39">
      <path clip-path="url(#pab02f4ee2d)" d="M 226.226213 527.41 
L 226.226213 38.17 
" style="fill:none;stroke:#999999;stroke-linecap:square;stroke-opacity:0.2;stroke-width:0.8;"/>
     </g>
     <g id="line2d_40">
      <g>
       <use style="stroke:#000000;stroke-width:0.6;" x="226.226213" xlink:href="#mae6b8c758f" y="527.41"/>
      </g>
     </g>
    </g>
    <g id="xtick_21">
     <g id="line2d_41">
      <path clip-path="url(#pab02f4ee2d)" d="M 243.647764 527.41 
L 243.647764 38.17 
" style="fill:none;stroke:#999999;stroke-linecap:square;stroke-opacity:0.2;stroke-width:0.8;"/>
     </g>
     <g id="line2d_42">
      <g>
       <use style="stroke:#000000;stroke-width:0.6;" x="243.647764" xlink:href="#mae6b8c758f" y="527.41"/>
      </g>
     </g>
    </g>
    <g id="xtick_22">
     <g id="line2d_43">
      <path clip-path="url(#pab02f4ee2d)" d="M 261.069315 527.41 
L 261.069315 38.17 
" style="fill:none;stroke:#999999;stroke-linecap:square;stroke-opacity:0.2;stroke-width:0.8;"/>
     </g>
     <g id="line2d_44">
      <g>
       <use style="stroke:#000000;stroke-width:0.6;" x="261.069315" xlink:href="#mae6b8c758f" y="527.41"/>
      </g>
     </g>
    </g>
    <g id="xtick_23">
     <g id="line2d_45">
      <path clip-path="url(#pab02f4ee2d)" d="M 278.490867 527.41 
L 278.490867 38.17 
" style="fill:none;stroke:#999999;stroke-linecap:square;stroke-opacity:0.2;stroke-width:0.8;"/>
     </g>
     <g id="line2d_46">
      <g>
       <use style="stroke:#000000;stroke-width:0.6;" x="278.490867" xlink:href="#mae6b8c758f" y="527.41"/>
      </g>
     </g>
    </g>
    <g id="xtick_24">
     <g id="line2d_47">
      <path clip-path="url(#pab02f4ee2d)" d="M 295.912418 527.41 
L 295.912418 38.17 
" style="fill:none;stroke:#999999;stroke-linecap:square;stroke-opacity:0.2;stroke-width:0.8;"/>
     </g>
     <g id="line2d_48">
      <g>
       <use style="stroke:#000000;stroke-width:0.6;" x="295.912418" xlink:href="#mae6b8c758f" y="527.41"/>
      </g>
     </g>
    </g>
    <g id="xtick_25">
     <g id="line2d_49">
      <path clip-path="url(#pab02f4ee2d)" d="M 313.33397 527.41 
L 313.33397 38.17 
" style="fill:none;stroke:#999999;stroke-linecap:square;stroke-opacity:0.2;stroke-width:0.8;"/>
     </g>
     <g id="line2d_50">
      <g>
       <use style="stroke:#000000;stroke-width:0.6;" x="313.33397" xlink:href="#mae6b8c758f" y="527.41"/>
      </g>
     </g>
    </g>
    <g id="xtick_26">
     <g id="line2d_51">
      <path clip-path="url(#pab02f4ee2d)" d="M 330.755521 527.41 
L 330.755521 38.17 
" style="fill:none;stroke:#999999;stroke-linecap:square;stroke-opacity:0.2;stroke-width:0.8;"/>
     </g>
     <g id="line2d_52">
      <g>
       <use style="stroke:#000000;stroke-width:0.6;" x="330.755521" xlink:href="#mae6b8c758f" y="527.41"/>
      </g>
     </g>
    </g>
    <g id="xtick_27">
     <g id="line2d_53">
      <path clip-path="url(#pab02f4ee2d)" d="M 348.177072 527.41 
L 348.177072 38.17 
" style="fill:none;stroke:#999999;stroke-linecap:square;stroke-opacity:0.2;stroke-width:0.8;"/>
     </g>
     <g id="line2d_54">
      <g>
       <use style="stroke:#000000;stroke-width:0.6;" x="348.177072" xlink:href="#mae6b8c758f" y="527.41"/>
      </g>
     </g>
    </g>
    <g id="xtick_28">
     <g id="line2d_55">
      <path clip-path="url(#pab02f4ee2d)" d="M 365.598624 527.41 
L 365.598624 38.17 
" style="fill:none;stroke:#999999;stroke-linecap:square;stroke-opacity:0.2;stroke-width:0.8;"/>
     </g>
     <g id="line2d_56">
      <g>
       <use style="stroke:#000000;stroke-width:0.6;" x="365.598624" xlink:href="#mae6b8c758f" y="527.41"/>
      </g>
     </g>
    </g>
    <g id="xtick_29">
     <g id="line2d_57">
      <path clip-path="url(#pab02f4ee2d)" d="M 383.020175 527.41 
L 383.020175 38.17 
" style="fill:none;stroke:#999999;stroke-linecap:square;stroke-opacity:0.2;stroke-width:0.8;"/>
     </g>
     <g id="line2d_58">
      <g>
       <use style="stroke:#000000;stroke-width:0.6;" x="383.020175" xlink:href="#mae6b8c758f" y="527.41"/>
      </g>
     </g>
    </g>
    <g id="xtick_30">
     <g id="line2d_59">
      <path clip-path="url(#pab02f4ee2d)" d="M 400.441727 527.41 
L 400.441727 38.17 
" style="fill:none;stroke:#999999;stroke-linecap:square;stroke-opacity:0.2;stroke-width:0.8;"/>
     </g>
     <g id="line2d_60">
      <g>
       <use style="stroke:#000000;stroke-width:0.6;" x="400.441727" xlink:href="#mae6b8c758f" y="527.41"/>
      </g>
     </g>
    </g>
    <g id="xtick_31">
     <g id="line2d_61">
      <path clip-path="url(#pab02f4ee2d)" d="M 417.863278 527.41 
L 417.863278 38.17 
" style="fill:none;stroke:#999999;stroke-linecap:square;stroke-opacity:0.2;stroke-width:0.8;"/>
     </g>
     <g id="line2d_62">
      <g>
       <use style="stroke:#000000;stroke-width:0.6;" x="417.863278" xlink:href="#mae6b8c758f" y="527.41"/>
      </g>
     </g>
    </g>
    <g id="xtick_32">
     <g id="line2d_63">
      <path clip-path="url(#pab02f4ee2d)" d="M 435.284829 527.41 
L 435.284829 38.17 
" style="fill:none;stroke:#999999;stroke-linecap:square;stroke-opacity:0.2;stroke-width:0.8;"/>
     </g>
     <g id="line2d_64">
      <g>
       <use style="stroke:#000000;stroke-width:0.6;" x="435.284829" xlink:href="#mae6b8c758f" y="527.41"/>
      </g>
     </g>
    </g>
    <g id="xtick_33">
     <g id="line2d_65">
      <path clip-path="url(#pab02f4ee2d)" d="M 452.706381 527.41 
L 452.706381 38.17 
" style="fill:none;stroke:#999999;stroke-linecap:square;stroke-opacity:0.2;stroke-width:0.8;"/>
     </g>
     <g id="line2d_66">
      <g>
       <use style="stroke:#000000;stroke-width:0.6;" x="452.706381" xlink:href="#mae6b8c758f" y="527.41"/>
      </g>
     </g>
    </g>
    <g id="xtick_34">
     <g id="line2d_67">
      <path clip-path="url(#pab02f4ee2d)" d="M 470.127932 527.41 
L 470.127932 38.17 
" style="fill:none;stroke:#999999;stroke-linecap:square;stroke-opacity:0.2;stroke-width:0.8;"/>
     </g>
     <g id="line2d_68">
      <g>
       <use style="stroke:#000000;stroke-width:0.6;" x="470.127932" xlink:href="#mae6b8c758f" y="527.41"/>
      </g>
     </g>
    </g>
    <g id="xtick_35">
     <g id="line2d_69">
      <path clip-path="url(#pab02f4ee2d)" d="M 487.549484 527.41 
L 487.549484 38.17 
" style="fill:none;stroke:#999999;stroke-linecap:square;stroke-opacity:0.2;stroke-width:0.8;"/>
     </g>
     <g id="line2d_70">
      <g>
       <use style="stroke:#000000;stroke-width:0.6;" x="487.549484" xlink:href="#mae6b8c758f" y="527.41"/>
      </g>
     </g>
    </g>
    <g id="xtick_36">
     <g id="line2d_71">
      <path clip-path="url(#pab02f4ee2d)" d="M 504.971035 527.41 
L 504.971035 38.17 
" style="fill:none;stroke:#999999;stroke-linecap:square;stroke-opacity:0.2;stroke-width:0.8;"/>
     </g>
     <g id="line2d_72">
      <g>
       <use style="stroke:#000000;stroke-width:0.6;" x="504.971035" xlink:href="#mae6b8c758f" y="527.41"/>
      </g>
     </g>
    </g>
    <g id="xtick_37">
     <g id="line2d_73">
      <path clip-path="url(#pab02f4ee2d)" d="M 522.392586 527.41 
L 522.392586 38.17 
" style="fill:none;stroke:#999999;stroke-linecap:square;stroke-opacity:0.2;stroke-width:0.8;"/>
     </g>
     <g id="line2d_74">
      <g>
       <use style="stroke:#000000;stroke-width:0.6;" x="522.392586" xlink:href="#mae6b8c758f" y="527.41"/>
      </g>
     </g>
    </g>
    <g id="xtick_38">
     <g id="line2d_75">
      <path clip-path="url(#pab02f4ee2d)" d="M 539.814138 527.41 
L 539.814138 38.17 
" style="fill:none;stroke:#999999;stroke-linecap:square;stroke-opacity:0.2;stroke-width:0.8;"/>
     </g>
     <g id="line2d_76">
      <g>
       <use style="stroke:#000000;stroke-width:0.6;" x="539.814138" xlink:href="#mae6b8c758f" y="527.41"/>
      </g>
     </g>
    </g>
    <g id="xtick_39">
     <g id="line2d_77">
      <path clip-path="url(#pab02f4ee2d)" d="M 557.235689 527.41 
L 557.235689 38.17 
" style="fill:none;stroke:#999999;stroke-linecap:square;stroke-opacity:0.2;stroke-width:0.8;"/>
     </g>
     <g id="line2d_78">
      <g>
       <use style="stroke:#000000;stroke-width:0.6;" x="557.235689" xlink:href="#mae6b8c758f" y="527.41"/>
      </g>
     </g>
    </g>
    <g id="xtick_40">
     <g id="line2d_79">
      <path clip-path="url(#pab02f4ee2d)" d="M 574.65724 527.41 
L 574.65724 38.17 
" style="fill:none;stroke:#999999;stroke-linecap:square;stroke-opacity:0.2;stroke-width:0.8;"/>
     </g>
     <g id="line2d_80">
      <g>
       <use style="stroke:#000000;stroke-width:0.6;" x="574.65724" xlink:href="#mae6b8c758f" y="527.41"/>
      </g>
     </g>
    </g>
    <g id="xtick_41">
     <g id="line2d_81">
      <path clip-path="url(#pab02f4ee2d)" d="M 592.078792 527.41 
L 592.078792 38.17 
" style="fill:none;stroke:#999999;stroke-linecap:square;stroke-opacity:0.2;stroke-width:0.8;"/>
     </g>
     <g id="line2d_82">
      <g>
       <use style="stroke:#000000;stroke-width:0.6;" x="592.078792" xlink:href="#mae6b8c758f" y="527.41"/>
      </g>
     </g>
    </g>
    <g id="xtick_42">
     <g id="line2d_83">
      <path clip-path="url(#pab02f4ee2d)" d="M 609.500343 527.41 
L 609.500343 38.17 
" style="fill:none;stroke:#999999;stroke-linecap:square;stroke-opacity:0.2;stroke-width:0.8;"/>
     </g>
     <g id="line2d_84">
      <g>
       <use style="stroke:#000000;stroke-width:0.6;" x="609.500343" xlink:href="#mae6b8c758f" y="527.41"/>
      </g>
     </g>
    </g>
    <g id="xtick_43">
     <g id="line2d_85">
      <path clip-path="url(#pab02f4ee2d)" d="M 626.921895 527.41 
L 626.921895 38.17 
" style="fill:none;stroke:#999999;stroke-linecap:square;stroke-opacity:0.2;stroke-width:0.8;"/>
     </g>
     <g id="line2d_86">
      <g>
       <use style="stroke:#000000;stroke-width:0.6;" x="626.921895" xlink:href="#mae6b8c758f" y="527.41"/>
      </g>
     </g>
    </g>
    <g id="xtick_44">
     <g id="line2d_87">
      <path clip-path="url(#pab02f4ee2d)" d="M 644.343446 527.41 
L 644.343446 38.17 
" style="fill:none;stroke:#999999;stroke-linecap:square;stroke-opacity:0.2;stroke-width:0.8;"/>
     </g>
     <g id="line2d_88">
      <g>
       <use style="stroke:#000000;stroke-width:0.6;" x="644.343446" xlink:href="#mae6b8c758f" y="527.41"/>
      </g>
     </g>
    </g>
    <g id="xtick_45">
     <g id="line2d_89">
      <path clip-path="url(#pab02f4ee2d)" d="M 661.764997 527.41 
L 661.764997 38.17 
" style="fill:none;stroke:#999999;stroke-linecap:square;stroke-opacity:0.2;stroke-width:0.8;"/>
     </g>
     <g id="line2d_90">
      <g>
       <use style="stroke:#000000;stroke-width:0.6;" x="661.764997" xlink:href="#mae6b8c758f" y="527.41"/>
      </g>
     </g>
    </g>
    <g id="xtick_46">
     <g id="line2d_91">
      <path clip-path="url(#pab02f4ee2d)" d="M 679.186549 527.41 
L 679.186549 38.17 
" style="fill:none;stroke:#999999;stroke-linecap:square;stroke-opacity:0.2;stroke-width:0.8;"/>
     </g>
     <g id="line2d_92">
      <g>
       <use style="stroke:#000000;stroke-width:0.6;" x="679.186549" xlink:href="#mae6b8c758f" y="527.41"/>
      </g>
     </g>
    </g>
    <g id="xtick_47">
     <g id="line2d_93">
      <path clip-path="url(#pab02f4ee2d)" d="M 696.6081 527.41 
L 696.6081 38.17 
" style="fill:none;stroke:#999999;stroke-linecap:square;stroke-opacity:0.2;stroke-width:0.8;"/>
     </g>
     <g id="line2d_94">
      <g>
       <use style="stroke:#000000;stroke-width:0.6;" x="696.6081" xlink:href="#mae6b8c758f" y="527.41"/>
      </g>
     </g>
    </g>
    <g id="xtick_48">
     <g id="line2d_95">
      <path clip-path="url(#pab02f4ee2d)" d="M 714.029652 527.41 
L 714.029652 38.17 
" style="fill:none;stroke:#999999;stroke-linecap:square;stroke-opacity:0.2;stroke-width:0.8;"/>
     </g>
     <g id="line2d_96">
      <g>
       <use style="stroke:#000000;stroke-width:0.6;" x="714.029652" xlink:href="#mae6b8c758f" y="527.41"/>
      </g>
     </g>
    </g>
    <g id="xtick_49">
     <g id="line2d_97">
      <path clip-path="url(#pab02f4ee2d)" d="M 731.451203 527.41 
L 731.451203 38.17 
" style="fill:none;stroke:#999999;stroke-linecap:square;stroke-opacity:0.2;stroke-width:0.8;"/>
     </g>
     <g id="line2d_98">
      <g>
       <use style="stroke:#000000;stroke-width:0.6;" x="731.451203" xlink:href="#mae6b8c758f" y="527.41"/>
      </g>
     </g>
    </g>
    <g id="xtick_50">
     <g id="line2d_99">
      <path clip-path="url(#pab02f4ee2d)" d="M 748.872754 527.41 
L 748.872754 38.17 
" style="fill:none;stroke:#999999;stroke-linecap:square;stroke-opacity:0.2;stroke-width:0.8;"/>
     </g>
     <g id="line2d_100">
      <g>
       <use style="stroke:#000000;stroke-width:0.6;" x="748.872754" xlink:href="#mae6b8c758f" y="527.41"/>
      </g>
     </g>
    </g>
    <g id="xtick_51">
     <g id="line2d_101">
      <path clip-path="url(#pab02f4ee2d)" d="M 766.294306 527.41 
L 766.294306 38.17 
" style="fill:none;stroke:#999999;stroke-linecap:square;stroke-opacity:0.2;stroke-width:0.8;"/>
     </g>
     <g id="line2d_102">
      <g>
       <use style="stroke:#000000;stroke-width:0.6;" x="766.294306" xlink:href="#mae6b8c758f" y="527.41"/>
      </g>
     </g>
    </g>
    <g id="xtick_52">
     <g id="line2d_103">
      <path clip-path="url(#pab02f4ee2d)" d="M 783.715857 527.41 
L 783.715857 38.17 
" style="fill:none;stroke:#999999;stroke-linecap:square;stroke-opacity:0.2;stroke-width:0.8;"/>
     </g>
     <g id="line2d_104">
      <g>
       <use style="stroke:#000000;stroke-width:0.6;" x="783.715857" xlink:href="#mae6b8c758f" y="527.41"/>
      </g>
     </g>
    </g>
    <g id="xtick_53">
     <g id="line2d_105">
      <path clip-path="url(#pab02f4ee2d)" d="M 801.137409 527.41 
L 801.137409 38.17 
" style="fill:none;stroke:#999999;stroke-linecap:square;stroke-opacity:0.2;stroke-width:0.8;"/>
     </g>
     <g id="line2d_106">
      <g>
       <use style="stroke:#000000;stroke-width:0.6;" x="801.137409" xlink:href="#mae6b8c758f" y="527.41"/>
      </g>
     </g>
    </g>
    <g id="xtick_54">
     <g id="line2d_107">
      <path clip-path="url(#pab02f4ee2d)" d="M 818.55896 527.41 
L 818.55896 38.17 
" style="fill:none;stroke:#999999;stroke-linecap:square;stroke-opacity:0.2;stroke-width:0.8;"/>
     </g>
     <g id="line2d_108">
      <g>
       <use style="stroke:#000000;stroke-width:0.6;" x="818.55896" xlink:href="#mae6b8c758f" y="527.41"/>
      </g>
     </g>
    </g>
    <g id="xtick_55">
     <g id="line2d_109">
      <path clip-path="url(#pab02f4ee2d)" d="M 835.980511 527.41 
L 835.980511 38.17 
" style="fill:none;stroke:#999999;stroke-linecap:square;stroke-opacity:0.2;stroke-width:0.8;"/>
     </g>
     <g id="line2d_110">
      <g>
       <use style="stroke:#000000;stroke-width:0.6;" x="835.980511" xlink:href="#mae6b8c758f" y="527.41"/>
      </g>
     </g>
    </g>
    <g id="xtick_56">
     <g id="line2d_111">
      <path clip-path="url(#pab02f4ee2d)" d="M 853.402063 527.41 
L 853.402063 38.17 
" style="fill:none;stroke:#999999;stroke-linecap:square;stroke-opacity:0.2;stroke-width:0.8;"/>
     </g>
     <g id="line2d_112">
      <g>
       <use style="stroke:#000000;stroke-width:0.6;" x="853.402063" xlink:href="#mae6b8c758f" y="527.41"/>
      </g>
     </g>
    </g>
    <g id="xtick_57">
     <g id="line2d_113">
      <path clip-path="url(#pab02f4ee2d)" d="M 870.823614 527.41 
L 870.823614 38.17 
" style="fill:none;stroke:#999999;stroke-linecap:square;stroke-opacity:0.2;stroke-width:0.8;"/>
     </g>
     <g id="line2d_114">
      <g>
       <use style="stroke:#000000;stroke-width:0.6;" x="870.823614" xlink:href="#mae6b8c758f" y="527.41"/>
      </g>
     </g>
    </g>
    <g id="xtick_58">
     <g id="line2d_115">
      <path clip-path="url(#pab02f4ee2d)" d="M 888.245166 527.41 
L 888.245166 38.17 
" style="fill:none;stroke:#999999;stroke-linecap:square;stroke-opacity:0.2;stroke-width:0.8;"/>
     </g>
     <g id="line2d_116">
      <g>
       <use style="stroke:#000000;stroke-width:0.6;" x="888.245166" xlink:href="#mae6b8c758f" y="527.41"/>
      </g>
     </g>
    </g>
    <g id="xtick_59">
     <g id="line2d_117">
      <path clip-path="url(#pab02f4ee2d)" d="M 905.666717 527.41 
L 905.666717 38.17 
" style="fill:none;stroke:#999999;stroke-linecap:square;stroke-opacity:0.2;stroke-width:0.8;"/>
     </g>
     <g id="line2d_118">
      <g>
       <use style="stroke:#000000;stroke-width:0.6;" x="905.666717" xlink:href="#mae6b8c758f" y="527.41"/>
      </g>
     </g>
    </g>
    <g id="xtick_60">
     <g id="line2d_119">
      <path clip-path="url(#pab02f4ee2d)" d="M 923.088268 527.41 
L 923.088268 38.17 
" style="fill:none;stroke:#999999;stroke-linecap:square;stroke-opacity:0.2;stroke-width:0.8;"/>
     </g>
     <g id="line2d_120">
      <g>
       <use style="stroke:#000000;stroke-width:0.6;" x="923.088268" xlink:href="#mae6b8c758f" y="527.41"/>
      </g>
     </g>
    </g>
    <g id="xtick_61">
     <g id="line2d_121">
      <path clip-path="url(#pab02f4ee2d)" d="M 940.50982 527.41 
L 940.50982 38.17 
" style="fill:none;stroke:#999999;stroke-linecap:square;stroke-opacity:0.2;stroke-width:0.8;"/>
     </g>
     <g id="line2d_122">
      <g>
       <use style="stroke:#000000;stroke-width:0.6;" x="940.50982" xlink:href="#mae6b8c758f" y="527.41"/>
      </g>
     </g>
    </g>
    <g id="xtick_62">
     <g id="line2d_123">
      <path clip-path="url(#pab02f4ee2d)" d="M 957.931371 527.41 
L 957.931371 38.17 
" style="fill:none;stroke:#999999;stroke-linecap:square;stroke-opacity:0.2;stroke-width:0.8;"/>
     </g>
     <g id="line2d_124">
      <g>
       <use style="stroke:#000000;stroke-width:0.6;" x="957.931371" xlink:href="#mae6b8c758f" y="527.41"/>
      </g>
     </g>
    </g>
    <g id="text_14">
     <!-- Time -->
     <defs>
      <path d="M 0.484375 72.90625 
L 67.671875 72.90625 
L 67.671875 58.6875 
L 43.5 58.6875 
L 43.5 0 
L 24.703125 0 
L 24.703125 58.6875 
L 0.484375 58.6875 
z
" id="DejaVuSans-Bold-84"/>
      <path d="M 8.40625 54.6875 
L 25.875 54.6875 
L 25.875 0 
L 8.40625 0 
z
M 8.40625 75.984375 
L 25.875 75.984375 
L 25.875 61.71875 
L 8.40625 61.71875 
z
" id="DejaVuSans-Bold-105"/>
      <path d="M 59.078125 45.609375 
Q 62.40625 50.6875 66.96875 53.34375 
Q 71.53125 56 77 56 
Q 86.421875 56 91.359375 50.1875 
Q 96.296875 44.390625 96.296875 33.296875 
L 96.296875 0 
L 78.71875 0 
L 78.71875 28.515625 
Q 78.765625 29.15625 78.78125 29.828125 
Q 78.8125 30.515625 78.8125 31.78125 
Q 78.8125 37.59375 77.09375 40.203125 
Q 75.390625 42.828125 71.578125 42.828125 
Q 66.609375 42.828125 63.890625 38.71875 
Q 61.1875 34.625 61.078125 26.859375 
L 61.078125 0 
L 43.5 0 
L 43.5 28.515625 
Q 43.5 37.59375 41.9375 40.203125 
Q 40.375 42.828125 36.375 42.828125 
Q 31.34375 42.828125 28.609375 38.703125 
Q 25.875 34.578125 25.875 26.90625 
L 25.875 0 
L 8.296875 0 
L 8.296875 54.6875 
L 25.875 54.6875 
L 25.875 46.6875 
Q 29.109375 51.3125 33.28125 53.65625 
Q 37.453125 56 42.484375 56 
Q 48.140625 56 52.484375 53.265625 
Q 56.84375 50.53125 59.078125 45.609375 
z
" id="DejaVuSans-Bold-109"/>
      <path d="M 62.984375 27.484375 
L 62.984375 22.515625 
L 22.125 22.515625 
Q 22.75 16.359375 26.5625 13.28125 
Q 30.375 10.203125 37.203125 10.203125 
Q 42.71875 10.203125 48.5 11.84375 
Q 54.296875 13.484375 60.40625 16.796875 
L 60.40625 3.328125 
Q 54.203125 0.984375 48 -0.21875 
Q 41.796875 -1.421875 35.59375 -1.421875 
Q 20.75 -1.421875 12.515625 6.125 
Q 4.296875 13.671875 4.296875 27.296875 
Q 4.296875 40.671875 12.375 48.328125 
Q 20.453125 56 34.625 56 
Q 47.515625 56 55.25 48.234375 
Q 62.984375 40.484375 62.984375 27.484375 
z
M 45.015625 33.296875 
Q 45.015625 38.28125 42.109375 41.328125 
Q 39.203125 44.390625 34.515625 44.390625 
Q 29.4375 44.390625 26.265625 41.53125 
Q 23.09375 38.671875 22.3125 33.296875 
z
" id="DejaVuSans-Bold-101"/>
     </defs>
     <g transform="translate(489.59375 622.076608)scale(0.24 -0.24)">
      <use xlink:href="#DejaVuSans-Bold-84"/>
      <use x="68.212891" xlink:href="#DejaVuSans-Bold-105"/>
      <use x="102.490234" xlink:href="#DejaVuSans-Bold-109"/>
      <use x="206.689453" xlink:href="#DejaVuSans-Bold-101"/>
     </g>
    </g>
   </g>
   <g id="matplotlib.axis_2">
    <g id="ytick_1">
     <g id="line2d_125">
      <path clip-path="url(#pab02f4ee2d)" d="M 76.1375 523.661657 
L 968.9375 523.661657 
" style="fill:none;stroke:#b0b0b0;stroke-linecap:square;stroke-width:0.8;"/>
     </g>
     <g id="line2d_126">
      <defs>
       <path d="M 0 0 
L -3.5 0 
" id="mdf137b3f2f" style="stroke:#000000;stroke-width:0.8;"/>
      </defs>
      <g>
       <use style="stroke:#000000;stroke-width:0.8;" x="76.1375" xlink:href="#mdf137b3f2f" y="523.661657"/>
      </g>
     </g>
     <g id="text_15">
      <!-- 10 k -->
      <defs>
       <path d="M 9.078125 75.984375 
L 18.109375 75.984375 
L 18.109375 31.109375 
L 44.921875 54.6875 
L 56.390625 54.6875 
L 27.390625 29.109375 
L 57.625 0 
L 45.90625 0 
L 18.109375 26.703125 
L 18.109375 0 
L 9.078125 0 
z
" id="DejaVuSans-107"/>
      </defs>
      <g transform="translate(34.4275 529.740407)scale(0.16 -0.16)">
       <use xlink:href="#DejaVuSans-49"/>
       <use x="63.623047" xlink:href="#DejaVuSans-48"/>
       <use x="127.246094" xlink:href="#DejaVuSans-32"/>
       <use x="159.033203" xlink:href="#DejaVuSans-107"/>
      </g>
     </g>
    </g>
    <g id="ytick_2">
     <g id="line2d_127">
      <path clip-path="url(#pab02f4ee2d)" d="M 76.1375 443.060791 
L 968.9375 443.060791 
" style="fill:none;stroke:#b0b0b0;stroke-linecap:square;stroke-width:0.8;"/>
     </g>
     <g id="line2d_128">
      <g>
       <use style="stroke:#000000;stroke-width:0.8;" x="76.1375" xlink:href="#mdf137b3f2f" y="443.060791"/>
      </g>
     </g>
     <g id="text_16">
      <!-- 20 k -->
      <g transform="translate(34.4275 449.139541)scale(0.16 -0.16)">
       <use xlink:href="#DejaVuSans-50"/>
       <use x="63.623047" xlink:href="#DejaVuSans-48"/>
       <use x="127.246094" xlink:href="#DejaVuSans-32"/>
       <use x="159.033203" xlink:href="#DejaVuSans-107"/>
      </g>
     </g>
    </g>
    <g id="ytick_3">
     <g id="line2d_129">
      <path clip-path="url(#pab02f4ee2d)" d="M 76.1375 362.459926 
L 968.9375 362.459926 
" style="fill:none;stroke:#b0b0b0;stroke-linecap:square;stroke-width:0.8;"/>
     </g>
     <g id="line2d_130">
      <g>
       <use style="stroke:#000000;stroke-width:0.8;" x="76.1375" xlink:href="#mdf137b3f2f" y="362.459926"/>
      </g>
     </g>
     <g id="text_17">
      <!-- 30 k -->
      <defs>
       <path d="M 40.578125 39.3125 
Q 47.65625 37.796875 51.625 33 
Q 55.609375 28.21875 55.609375 21.1875 
Q 55.609375 10.40625 48.1875 4.484375 
Q 40.765625 -1.421875 27.09375 -1.421875 
Q 22.515625 -1.421875 17.65625 -0.515625 
Q 12.796875 0.390625 7.625 2.203125 
L 7.625 11.71875 
Q 11.71875 9.328125 16.59375 8.109375 
Q 21.484375 6.890625 26.8125 6.890625 
Q 36.078125 6.890625 40.9375 10.546875 
Q 45.796875 14.203125 45.796875 21.1875 
Q 45.796875 27.640625 41.28125 31.265625 
Q 36.765625 34.90625 28.71875 34.90625 
L 20.21875 34.90625 
L 20.21875 43.015625 
L 29.109375 43.015625 
Q 36.375 43.015625 40.234375 45.921875 
Q 44.09375 48.828125 44.09375 54.296875 
Q 44.09375 59.90625 40.109375 62.90625 
Q 36.140625 65.921875 28.71875 65.921875 
Q 24.65625 65.921875 20.015625 65.03125 
Q 15.375 64.15625 9.8125 62.3125 
L 9.8125 71.09375 
Q 15.4375 72.65625 20.34375 73.4375 
Q 25.25 74.21875 29.59375 74.21875 
Q 40.828125 74.21875 47.359375 69.109375 
Q 53.90625 64.015625 53.90625 55.328125 
Q 53.90625 49.265625 50.4375 45.09375 
Q 46.96875 40.921875 40.578125 39.3125 
z
" id="DejaVuSans-51"/>
      </defs>
      <g transform="translate(34.4275 368.538676)scale(0.16 -0.16)">
       <use xlink:href="#DejaVuSans-51"/>
       <use x="63.623047" xlink:href="#DejaVuSans-48"/>
       <use x="127.246094" xlink:href="#DejaVuSans-32"/>
       <use x="159.033203" xlink:href="#DejaVuSans-107"/>
      </g>
     </g>
    </g>
    <g id="ytick_4">
     <g id="line2d_131">
      <path clip-path="url(#pab02f4ee2d)" d="M 76.1375 281.85906 
L 968.9375 281.85906 
" style="fill:none;stroke:#b0b0b0;stroke-linecap:square;stroke-width:0.8;"/>
     </g>
     <g id="line2d_132">
      <g>
       <use style="stroke:#000000;stroke-width:0.8;" x="76.1375" xlink:href="#mdf137b3f2f" y="281.85906"/>
      </g>
     </g>
     <g id="text_18">
      <!-- 40 k -->
      <defs>
       <path d="M 37.796875 64.3125 
L 12.890625 25.390625 
L 37.796875 25.390625 
z
M 35.203125 72.90625 
L 47.609375 72.90625 
L 47.609375 25.390625 
L 58.015625 25.390625 
L 58.015625 17.1875 
L 47.609375 17.1875 
L 47.609375 0 
L 37.796875 0 
L 37.796875 17.1875 
L 4.890625 17.1875 
L 4.890625 26.703125 
z
" id="DejaVuSans-52"/>
      </defs>
      <g transform="translate(34.4275 287.93781)scale(0.16 -0.16)">
       <use xlink:href="#DejaVuSans-52"/>
       <use x="63.623047" xlink:href="#DejaVuSans-48"/>
       <use x="127.246094" xlink:href="#DejaVuSans-32"/>
       <use x="159.033203" xlink:href="#DejaVuSans-107"/>
      </g>
     </g>
    </g>
    <g id="ytick_5">
     <g id="line2d_133">
      <path clip-path="url(#pab02f4ee2d)" d="M 76.1375 201.258194 
L 968.9375 201.258194 
" style="fill:none;stroke:#b0b0b0;stroke-linecap:square;stroke-width:0.8;"/>
     </g>
     <g id="line2d_134">
      <g>
       <use style="stroke:#000000;stroke-width:0.8;" x="76.1375" xlink:href="#mdf137b3f2f" y="201.258194"/>
      </g>
     </g>
     <g id="text_19">
      <!-- 50 k -->
      <defs>
       <path d="M 10.796875 72.90625 
L 49.515625 72.90625 
L 49.515625 64.59375 
L 19.828125 64.59375 
L 19.828125 46.734375 
Q 21.96875 47.46875 24.109375 47.828125 
Q 26.265625 48.1875 28.421875 48.1875 
Q 40.625 48.1875 47.75 41.5 
Q 54.890625 34.8125 54.890625 23.390625 
Q 54.890625 11.625 47.5625 5.09375 
Q 40.234375 -1.421875 26.90625 -1.421875 
Q 22.3125 -1.421875 17.546875 -0.640625 
Q 12.796875 0.140625 7.71875 1.703125 
L 7.71875 11.625 
Q 12.109375 9.234375 16.796875 8.0625 
Q 21.484375 6.890625 26.703125 6.890625 
Q 35.15625 6.890625 40.078125 11.328125 
Q 45.015625 15.765625 45.015625 23.390625 
Q 45.015625 31 40.078125 35.4375 
Q 35.15625 39.890625 26.703125 39.890625 
Q 22.75 39.890625 18.8125 39.015625 
Q 14.890625 38.140625 10.796875 36.28125 
z
" id="DejaVuSans-53"/>
      </defs>
      <g transform="translate(34.4275 207.336944)scale(0.16 -0.16)">
       <use xlink:href="#DejaVuSans-53"/>
       <use x="63.623047" xlink:href="#DejaVuSans-48"/>
       <use x="127.246094" xlink:href="#DejaVuSans-32"/>
       <use x="159.033203" xlink:href="#DejaVuSans-107"/>
      </g>
     </g>
    </g>
    <g id="ytick_6">
     <g id="line2d_135">
      <path clip-path="url(#pab02f4ee2d)" d="M 76.1375 120.657329 
L 968.9375 120.657329 
" style="fill:none;stroke:#b0b0b0;stroke-linecap:square;stroke-width:0.8;"/>
     </g>
     <g id="line2d_136">
      <g>
       <use style="stroke:#000000;stroke-width:0.8;" x="76.1375" xlink:href="#mdf137b3f2f" y="120.657329"/>
      </g>
     </g>
     <g id="text_20">
      <!-- 60 k -->
      <g transform="translate(34.4275 126.736079)scale(0.16 -0.16)">
       <use xlink:href="#DejaVuSans-54"/>
       <use x="63.623047" xlink:href="#DejaVuSans-48"/>
       <use x="127.246094" xlink:href="#DejaVuSans-32"/>
       <use x="159.033203" xlink:href="#DejaVuSans-107"/>
      </g>
     </g>
    </g>
    <g id="ytick_7">
     <g id="line2d_137">
      <path clip-path="url(#pab02f4ee2d)" d="M 76.1375 40.056463 
L 968.9375 40.056463 
" style="fill:none;stroke:#b0b0b0;stroke-linecap:square;stroke-width:0.8;"/>
     </g>
     <g id="line2d_138">
      <g>
       <use style="stroke:#000000;stroke-width:0.8;" x="76.1375" xlink:href="#mdf137b3f2f" y="40.056463"/>
      </g>
     </g>
     <g id="text_21">
      <!-- 70 k -->
      <g transform="translate(34.4275 46.135213)scale(0.16 -0.16)">
       <use xlink:href="#DejaVuSans-55"/>
       <use x="63.623047" xlink:href="#DejaVuSans-48"/>
       <use x="127.246094" xlink:href="#DejaVuSans-32"/>
       <use x="159.033203" xlink:href="#DejaVuSans-107"/>
      </g>
     </g>
    </g>
    <g id="ytick_8">
     <g id="line2d_139">
      <path clip-path="url(#pab02f4ee2d)" d="M 76.1375 507.541484 
L 968.9375 507.541484 
" style="fill:none;stroke:#999999;stroke-linecap:square;stroke-opacity:0.2;stroke-width:0.8;"/>
     </g>
     <g id="line2d_140">
      <defs>
       <path d="M 0 0 
L -2 0 
" id="m9842b83a11" style="stroke:#000000;stroke-width:0.6;"/>
      </defs>
      <g>
       <use style="stroke:#000000;stroke-width:0.6;" x="76.1375" xlink:href="#m9842b83a11" y="507.541484"/>
      </g>
     </g>
    </g>
    <g id="ytick_9">
     <g id="line2d_141">
      <path clip-path="url(#pab02f4ee2d)" d="M 76.1375 491.421311 
L 968.9375 491.421311 
" style="fill:none;stroke:#999999;stroke-linecap:square;stroke-opacity:0.2;stroke-width:0.8;"/>
     </g>
     <g id="line2d_142">
      <g>
       <use style="stroke:#000000;stroke-width:0.6;" x="76.1375" xlink:href="#m9842b83a11" y="491.421311"/>
      </g>
     </g>
    </g>
    <g id="ytick_10">
     <g id="line2d_143">
      <path clip-path="url(#pab02f4ee2d)" d="M 76.1375 475.301137 
L 968.9375 475.301137 
" style="fill:none;stroke:#999999;stroke-linecap:square;stroke-opacity:0.2;stroke-width:0.8;"/>
     </g>
     <g id="line2d_144">
      <g>
       <use style="stroke:#000000;stroke-width:0.6;" x="76.1375" xlink:href="#m9842b83a11" y="475.301137"/>
      </g>
     </g>
    </g>
    <g id="ytick_11">
     <g id="line2d_145">
      <path clip-path="url(#pab02f4ee2d)" d="M 76.1375 459.180964 
L 968.9375 459.180964 
" style="fill:none;stroke:#999999;stroke-linecap:square;stroke-opacity:0.2;stroke-width:0.8;"/>
     </g>
     <g id="line2d_146">
      <g>
       <use style="stroke:#000000;stroke-width:0.6;" x="76.1375" xlink:href="#m9842b83a11" y="459.180964"/>
      </g>
     </g>
    </g>
    <g id="ytick_12">
     <g id="line2d_147">
      <path clip-path="url(#pab02f4ee2d)" d="M 76.1375 426.940618 
L 968.9375 426.940618 
" style="fill:none;stroke:#999999;stroke-linecap:square;stroke-opacity:0.2;stroke-width:0.8;"/>
     </g>
     <g id="line2d_148">
      <g>
       <use style="stroke:#000000;stroke-width:0.6;" x="76.1375" xlink:href="#m9842b83a11" y="426.940618"/>
      </g>
     </g>
    </g>
    <g id="ytick_13">
     <g id="line2d_149">
      <path clip-path="url(#pab02f4ee2d)" d="M 76.1375 410.820445 
L 968.9375 410.820445 
" style="fill:none;stroke:#999999;stroke-linecap:square;stroke-opacity:0.2;stroke-width:0.8;"/>
     </g>
     <g id="line2d_150">
      <g>
       <use style="stroke:#000000;stroke-width:0.6;" x="76.1375" xlink:href="#m9842b83a11" y="410.820445"/>
      </g>
     </g>
    </g>
    <g id="ytick_14">
     <g id="line2d_151">
      <path clip-path="url(#pab02f4ee2d)" d="M 76.1375 394.700272 
L 968.9375 394.700272 
" style="fill:none;stroke:#999999;stroke-linecap:square;stroke-opacity:0.2;stroke-width:0.8;"/>
     </g>
     <g id="line2d_152">
      <g>
       <use style="stroke:#000000;stroke-width:0.6;" x="76.1375" xlink:href="#m9842b83a11" y="394.700272"/>
      </g>
     </g>
    </g>
    <g id="ytick_15">
     <g id="line2d_153">
      <path clip-path="url(#pab02f4ee2d)" d="M 76.1375 378.580099 
L 968.9375 378.580099 
" style="fill:none;stroke:#999999;stroke-linecap:square;stroke-opacity:0.2;stroke-width:0.8;"/>
     </g>
     <g id="line2d_154">
      <g>
       <use style="stroke:#000000;stroke-width:0.6;" x="76.1375" xlink:href="#m9842b83a11" y="378.580099"/>
      </g>
     </g>
    </g>
    <g id="ytick_16">
     <g id="line2d_155">
      <path clip-path="url(#pab02f4ee2d)" d="M 76.1375 346.339752 
L 968.9375 346.339752 
" style="fill:none;stroke:#999999;stroke-linecap:square;stroke-opacity:0.2;stroke-width:0.8;"/>
     </g>
     <g id="line2d_156">
      <g>
       <use style="stroke:#000000;stroke-width:0.6;" x="76.1375" xlink:href="#m9842b83a11" y="346.339752"/>
      </g>
     </g>
    </g>
    <g id="ytick_17">
     <g id="line2d_157">
      <path clip-path="url(#pab02f4ee2d)" d="M 76.1375 330.219579 
L 968.9375 330.219579 
" style="fill:none;stroke:#999999;stroke-linecap:square;stroke-opacity:0.2;stroke-width:0.8;"/>
     </g>
     <g id="line2d_158">
      <g>
       <use style="stroke:#000000;stroke-width:0.6;" x="76.1375" xlink:href="#m9842b83a11" y="330.219579"/>
      </g>
     </g>
    </g>
    <g id="ytick_18">
     <g id="line2d_159">
      <path clip-path="url(#pab02f4ee2d)" d="M 76.1375 314.099406 
L 968.9375 314.099406 
" style="fill:none;stroke:#999999;stroke-linecap:square;stroke-opacity:0.2;stroke-width:0.8;"/>
     </g>
     <g id="line2d_160">
      <g>
       <use style="stroke:#000000;stroke-width:0.6;" x="76.1375" xlink:href="#m9842b83a11" y="314.099406"/>
      </g>
     </g>
    </g>
    <g id="ytick_19">
     <g id="line2d_161">
      <path clip-path="url(#pab02f4ee2d)" d="M 76.1375 297.979233 
L 968.9375 297.979233 
" style="fill:none;stroke:#999999;stroke-linecap:square;stroke-opacity:0.2;stroke-width:0.8;"/>
     </g>
     <g id="line2d_162">
      <g>
       <use style="stroke:#000000;stroke-width:0.6;" x="76.1375" xlink:href="#m9842b83a11" y="297.979233"/>
      </g>
     </g>
    </g>
    <g id="ytick_20">
     <g id="line2d_163">
      <path clip-path="url(#pab02f4ee2d)" d="M 76.1375 265.738887 
L 968.9375 265.738887 
" style="fill:none;stroke:#999999;stroke-linecap:square;stroke-opacity:0.2;stroke-width:0.8;"/>
     </g>
     <g id="line2d_164">
      <g>
       <use style="stroke:#000000;stroke-width:0.6;" x="76.1375" xlink:href="#m9842b83a11" y="265.738887"/>
      </g>
     </g>
    </g>
    <g id="ytick_21">
     <g id="line2d_165">
      <path clip-path="url(#pab02f4ee2d)" d="M 76.1375 249.618714 
L 968.9375 249.618714 
" style="fill:none;stroke:#999999;stroke-linecap:square;stroke-opacity:0.2;stroke-width:0.8;"/>
     </g>
     <g id="line2d_166">
      <g>
       <use style="stroke:#000000;stroke-width:0.6;" x="76.1375" xlink:href="#m9842b83a11" y="249.618714"/>
      </g>
     </g>
    </g>
    <g id="ytick_22">
     <g id="line2d_167">
      <path clip-path="url(#pab02f4ee2d)" d="M 76.1375 233.498541 
L 968.9375 233.498541 
" style="fill:none;stroke:#999999;stroke-linecap:square;stroke-opacity:0.2;stroke-width:0.8;"/>
     </g>
     <g id="line2d_168">
      <g>
       <use style="stroke:#000000;stroke-width:0.6;" x="76.1375" xlink:href="#m9842b83a11" y="233.498541"/>
      </g>
     </g>
    </g>
    <g id="ytick_23">
     <g id="line2d_169">
      <path clip-path="url(#pab02f4ee2d)" d="M 76.1375 217.378368 
L 968.9375 217.378368 
" style="fill:none;stroke:#999999;stroke-linecap:square;stroke-opacity:0.2;stroke-width:0.8;"/>
     </g>
     <g id="line2d_170">
      <g>
       <use style="stroke:#000000;stroke-width:0.6;" x="76.1375" xlink:href="#m9842b83a11" y="217.378368"/>
      </g>
     </g>
    </g>
    <g id="ytick_24">
     <g id="line2d_171">
      <path clip-path="url(#pab02f4ee2d)" d="M 76.1375 185.138021 
L 968.9375 185.138021 
" style="fill:none;stroke:#999999;stroke-linecap:square;stroke-opacity:0.2;stroke-width:0.8;"/>
     </g>
     <g id="line2d_172">
      <g>
       <use style="stroke:#000000;stroke-width:0.6;" x="76.1375" xlink:href="#m9842b83a11" y="185.138021"/>
      </g>
     </g>
    </g>
    <g id="ytick_25">
     <g id="line2d_173">
      <path clip-path="url(#pab02f4ee2d)" d="M 76.1375 169.017848 
L 968.9375 169.017848 
" style="fill:none;stroke:#999999;stroke-linecap:square;stroke-opacity:0.2;stroke-width:0.8;"/>
     </g>
     <g id="line2d_174">
      <g>
       <use style="stroke:#000000;stroke-width:0.6;" x="76.1375" xlink:href="#m9842b83a11" y="169.017848"/>
      </g>
     </g>
    </g>
    <g id="ytick_26">
     <g id="line2d_175">
      <path clip-path="url(#pab02f4ee2d)" d="M 76.1375 152.897675 
L 968.9375 152.897675 
" style="fill:none;stroke:#999999;stroke-linecap:square;stroke-opacity:0.2;stroke-width:0.8;"/>
     </g>
     <g id="line2d_176">
      <g>
       <use style="stroke:#000000;stroke-width:0.6;" x="76.1375" xlink:href="#m9842b83a11" y="152.897675"/>
      </g>
     </g>
    </g>
    <g id="ytick_27">
     <g id="line2d_177">
      <path clip-path="url(#pab02f4ee2d)" d="M 76.1375 136.777502 
L 968.9375 136.777502 
" style="fill:none;stroke:#999999;stroke-linecap:square;stroke-opacity:0.2;stroke-width:0.8;"/>
     </g>
     <g id="line2d_178">
      <g>
       <use style="stroke:#000000;stroke-width:0.6;" x="76.1375" xlink:href="#m9842b83a11" y="136.777502"/>
      </g>
     </g>
    </g>
    <g id="ytick_28">
     <g id="line2d_179">
      <path clip-path="url(#pab02f4ee2d)" d="M 76.1375 104.537156 
L 968.9375 104.537156 
" style="fill:none;stroke:#999999;stroke-linecap:square;stroke-opacity:0.2;stroke-width:0.8;"/>
     </g>
     <g id="line2d_180">
      <g>
       <use style="stroke:#000000;stroke-width:0.6;" x="76.1375" xlink:href="#m9842b83a11" y="104.537156"/>
      </g>
     </g>
    </g>
    <g id="ytick_29">
     <g id="line2d_181">
      <path clip-path="url(#pab02f4ee2d)" d="M 76.1375 88.416983 
L 968.9375 88.416983 
" style="fill:none;stroke:#999999;stroke-linecap:square;stroke-opacity:0.2;stroke-width:0.8;"/>
     </g>
     <g id="line2d_182">
      <g>
       <use style="stroke:#000000;stroke-width:0.6;" x="76.1375" xlink:href="#m9842b83a11" y="88.416983"/>
      </g>
     </g>
    </g>
    <g id="ytick_30">
     <g id="line2d_183">
      <path clip-path="url(#pab02f4ee2d)" d="M 76.1375 72.296809 
L 968.9375 72.296809 
" style="fill:none;stroke:#999999;stroke-linecap:square;stroke-opacity:0.2;stroke-width:0.8;"/>
     </g>
     <g id="line2d_184">
      <g>
       <use style="stroke:#000000;stroke-width:0.6;" x="76.1375" xlink:href="#m9842b83a11" y="72.296809"/>
      </g>
     </g>
    </g>
    <g id="ytick_31">
     <g id="line2d_185">
      <path clip-path="url(#pab02f4ee2d)" d="M 76.1375 56.176636 
L 968.9375 56.176636 
" style="fill:none;stroke:#999999;stroke-linecap:square;stroke-opacity:0.2;stroke-width:0.8;"/>
     </g>
     <g id="line2d_186">
      <g>
       <use style="stroke:#000000;stroke-width:0.6;" x="76.1375" xlink:href="#m9842b83a11" y="56.176636"/>
      </g>
     </g>
    </g>
    <g id="text_22">
     <!-- Experience [xp] -->
     <defs>
      <path d="M 9.1875 72.90625 
L 59.90625 72.90625 
L 59.90625 58.6875 
L 27.984375 58.6875 
L 27.984375 45.125 
L 58.015625 45.125 
L 58.015625 30.90625 
L 27.984375 30.90625 
L 27.984375 14.203125 
L 60.984375 14.203125 
L 60.984375 0 
L 9.1875 0 
z
" id="DejaVuSans-Bold-69"/>
      <path d="M 22.21875 27.984375 
L 2.484375 54.6875 
L 21 54.6875 
L 32.171875 38.484375 
L 43.5 54.6875 
L 62.015625 54.6875 
L 42.28125 28.078125 
L 62.984375 0 
L 44.484375 0 
L 32.171875 17.28125 
L 20.015625 0 
L 1.515625 0 
z
" id="DejaVuSans-Bold-120"/>
      <path d="M 25.875 7.90625 
L 25.875 -20.796875 
L 8.40625 -20.796875 
L 8.40625 54.6875 
L 25.875 54.6875 
L 25.875 46.6875 
Q 29.5 51.46875 33.890625 53.734375 
Q 38.28125 56 44 56 
Q 54.109375 56 60.59375 47.96875 
Q 67.09375 39.9375 67.09375 27.296875 
Q 67.09375 14.65625 60.59375 6.609375 
Q 54.109375 -1.421875 44 -1.421875 
Q 38.28125 -1.421875 33.890625 0.84375 
Q 29.5 3.125 25.875 7.90625 
z
M 37.5 43.3125 
Q 31.890625 43.3125 28.875 39.1875 
Q 25.875 35.0625 25.875 27.296875 
Q 25.875 19.53125 28.875 15.40625 
Q 31.890625 11.28125 37.5 11.28125 
Q 43.109375 11.28125 46.0625 15.375 
Q 49.03125 19.484375 49.03125 27.296875 
Q 49.03125 35.109375 46.0625 39.203125 
Q 43.109375 43.3125 37.5 43.3125 
z
" id="DejaVuSans-Bold-112"/>
      <path d="M 49.03125 39.796875 
Q 46.734375 40.875 44.453125 41.375 
Q 42.1875 41.890625 39.890625 41.890625 
Q 33.15625 41.890625 29.515625 37.5625 
Q 25.875 33.25 25.875 25.203125 
L 25.875 0 
L 8.40625 0 
L 8.40625 54.6875 
L 25.875 54.6875 
L 25.875 45.703125 
Q 29.25 51.078125 33.609375 53.53125 
Q 37.984375 56 44.09375 56 
Q 44.96875 56 45.984375 55.921875 
Q 47.015625 55.859375 48.96875 55.609375 
z
" id="DejaVuSans-Bold-114"/>
      <path d="M 63.375 33.296875 
L 63.375 0 
L 45.796875 0 
L 45.796875 5.421875 
L 45.796875 25.484375 
Q 45.796875 32.5625 45.484375 35.25 
Q 45.171875 37.9375 44.390625 39.203125 
Q 43.359375 40.921875 41.59375 41.875 
Q 39.84375 42.828125 37.59375 42.828125 
Q 32.125 42.828125 29 38.59375 
Q 25.875 34.375 25.875 26.90625 
L 25.875 0 
L 8.40625 0 
L 8.40625 54.6875 
L 25.875 54.6875 
L 25.875 46.6875 
Q 29.828125 51.46875 34.265625 53.734375 
Q 38.71875 56 44.09375 56 
Q 53.5625 56 58.46875 50.1875 
Q 63.375 44.390625 63.375 33.296875 
z
" id="DejaVuSans-Bold-110"/>
      <path d="M 52.59375 52.984375 
L 52.59375 38.71875 
Q 49.03125 41.15625 45.4375 42.328125 
Q 41.84375 43.5 37.984375 43.5 
Q 30.671875 43.5 26.59375 39.234375 
Q 22.515625 34.96875 22.515625 27.296875 
Q 22.515625 19.625 26.59375 15.34375 
Q 30.671875 11.078125 37.984375 11.078125 
Q 42.09375 11.078125 45.78125 12.296875 
Q 49.46875 13.53125 52.59375 15.921875 
L 52.59375 1.609375 
Q 48.484375 0.09375 44.265625 -0.65625 
Q 40.046875 -1.421875 35.796875 -1.421875 
Q 21 -1.421875 12.640625 6.171875 
Q 4.296875 13.765625 4.296875 27.296875 
Q 4.296875 40.828125 12.640625 48.40625 
Q 21 56 35.796875 56 
Q 40.09375 56 44.265625 55.25 
Q 48.4375 54.5 52.59375 52.984375 
z
" id="DejaVuSans-Bold-99"/>
      <path id="DejaVuSans-Bold-32"/>
      <path d="M 8.59375 75.984375 
L 38.921875 75.984375 
L 38.921875 64.984375 
L 25.203125 64.984375 
L 25.203125 -2.203125 
L 38.921875 -2.203125 
L 38.921875 -13.1875 
L 8.59375 -13.1875 
z
" id="DejaVuSans-Bold-91"/>
      <path d="M 37.109375 -13.1875 
L 6.78125 -13.1875 
L 6.78125 -2.203125 
L 20.515625 -2.203125 
L 20.515625 64.984375 
L 6.78125 64.984375 
L 6.78125 75.984375 
L 37.109375 75.984375 
z
" id="DejaVuSans-Bold-93"/>
     </defs>
     <g transform="translate(25.43625 388.898125)rotate(-90)scale(0.24 -0.24)">
      <use xlink:href="#DejaVuSans-Bold-69"/>
      <use x="68.310547" xlink:href="#DejaVuSans-Bold-120"/>
      <use x="132.8125" xlink:href="#DejaVuSans-Bold-112"/>
      <use x="204.394531" xlink:href="#DejaVuSans-Bold-101"/>
      <use x="272.216797" xlink:href="#DejaVuSans-Bold-114"/>
      <use x="321.533203" xlink:href="#DejaVuSans-Bold-105"/>
      <use x="355.810547" xlink:href="#DejaVuSans-Bold-101"/>
      <use x="423.632812" xlink:href="#DejaVuSans-Bold-110"/>
      <use x="494.824219" xlink:href="#DejaVuSans-Bold-99"/>
      <use x="554.101562" xlink:href="#DejaVuSans-Bold-101"/>
      <use x="621.923828" xlink:href="#DejaVuSans-Bold-32"/>
      <use x="656.738281" xlink:href="#DejaVuSans-Bold-91"/>
      <use x="702.441406" xlink:href="#DejaVuSans-Bold-120"/>
      <use x="766.943359" xlink:href="#DejaVuSans-Bold-112"/>
      <use x="838.525391" xlink:href="#DejaVuSans-Bold-93"/>
     </g>
    </g>
   </g>
   <g id="line2d_187">
    <path clip-path="url(#pab02f4ee2d)" d="M 116.719318 505.171818 
L 117.102209 503.930565 
L 117.485101 503.656522 
L 117.867992 502.673191 
L 118.250883 502.270187 
L 119.399557 500.400247 
L 119.782448 500.376067 
L 120.165339 500.158444 
L 121.314013 501.60926 
L 124.760034 501.512539 
L 125.525817 501.415818 
L 125.908708 500.899972 
L 126.291599 500.843552 
L 129.354729 499.827981 
L 132.034968 499.271835 
L 134.715206 498.981672 
L 135.098098 498.151483 
L 135.480989 498.087002 
L 137.778336 495.693156 
L 138.92701 494.854907 
L 140.075684 493.500813 
L 143.521705 490.969946 
L 144.287487 492.243439 
L 145.436161 493.21871 
L 145.819052 492.872126 
L 146.967726 493.960238 
L 158.837355 492.396581 
L 160.751811 492.009697 
L 254.560164 478.057687 
L 284.808572 477.936786 
L 285.191464 477.767524 
L 287.10592 477.638562 
L 289.786158 476.534331 
L 292.849288 475.825043 
L 298.209766 474.58379 
L 300.507113 474.084064 
L 301.655787 474.027644 
L 302.421569 473.818081 
L 332.669977 467.748836 
L 338.652653 460.551179 
L 338.792249 459.060063 
L 339.015602 458.995582 
L 339.023579 456.392174 
L 340.969942 453.788766 
L 341.460522 453.780706 
L 341.468499 453.20038 
L 343.263301 453.16008 
L 343.271278 453.893547 
L 343.606308 453.885487 
L 343.614285 453.24068 
L 344.080934 452.217049 
L 344.336195 452.217049 
L 344.340183 453.692045 
L 378.114381 434.976524 
L 392.361126 432.792241 
L 403.054162 423.176558 
L 582.881425 391.363396 
L 589.566068 390.920091 
L 604.450965 390.79113 
L 604.841833 390.081842 
L 620.149506 353.60189 
L 622.761941 349.757229 
L 625.406283 344.921177 
L 625.198884 345.445083 
L 625.964667 340.584851 
L 754.081671 159.797109 
L 774.119645 153.478001 
L 775.671153 152.325409 
L 778.74226 151.301778 
L 781.027642 149.883203 
L 783.691926 148.932112 
L 785.239445 147.860121 
L 787.393208 146.586627 
L 791.652873 144.555485 
L 791.756573 143.709176 
L 793.59126 142.451803 
L 803.24331 133.714669 
L 805.732103 132.570137 
L 812.755765 126.903896 
L 816.496931 122.156505 
L 818.49674 118.739028 
L 818.751469 118.698728 
L 818.75333 118.150642 
L 818.938129 117.93302 
L 819.195251 117.852419 
L 819.286453 117.795998 
L 819.288846 117.530015 
L 819.524431 117.530015 
L 819.529217 117.151191 
L 820.366526 115.748736 
L 821.15225 115.740676 
L 821.162089 115.087809 
L 821.447662 114.668685 
L 821.975732 113.588633 
L 823.028417 112.935766 
L 823.528037 111.541371 
L 823.788882 111.202847 
L 824.189057 111.041646 
L 825.372031 110.904624 
L 825.427072 110.106676 
L 826.551549 108.389877 
L 826.884717 108.277036 
L 827.308025 106.995482 
L 827.554511 106.737559 
L 827.716708 105.979911 
L 828.10731 105.713928 
L 828.4793 103.739207 
L 828.872029 103.07022 
L 829.291082 102.10301 
L 829.543418 103.223362 
L 829.867812 103.005739 
L 831.911494 103.610246 
L 832.596976 102.425413 
L 834.623641 101.667765 
L 834.84593 101.377602 
L 834.848323 100.789215 
L 835.22111 100.490992 
L 835.754765 99.813945 
L 836.514698 99.499602 
L 836.744964 98.975696 
L 837.867048 98.209988 
L 838.3095 98.105207 
L 838.683085 97.48458 
L 840.954375 95.380897 
L 841.486966 94.308906 
L 843.433064 93.551258 
L 846.006146 88.425043 
L 848.803645 86.32942 
L 849.043218 85.910296 
L 849.051727 85.112347 
L 849.409624 85.112347 
L 850.554309 81.944733 
L 851.051536 80.058673 
L 854.802807 72.175908 
L 855.984717 70.44299 
L 857.950492 68.331247 
L 864.849447 66.71923 
L 864.849447 66.71923 
L 882.328432 63.446834 
L 885.479308 63.05995 
L 898.886085 62.648886 
L 901.081594 62.463504 
L 902.775356 62.07662 
L 906.547899 61.996019 
L 914.113723 61.625255 
L 917.288264 61.536594 
L 920.295024 61.327032 
L 923.012222 61.278671 
L 927.896744 60.738645 
L 928.355682 60.408182 
L 928.355682 60.408182 
" style="fill:none;stroke:#000000;stroke-linecap:square;stroke-width:1.5;"/>
   </g>
   <g id="patch_3">
    <path d="M 76.1375 527.41 
L 76.1375 38.17 
" style="fill:none;stroke:#000000;stroke-linecap:square;stroke-linejoin:miter;stroke-width:0.8;"/>
   </g>
   <g id="patch_4">
    <path d="M 968.9375 527.41 
L 968.9375 38.17 
" style="fill:none;stroke:#000000;stroke-linecap:square;stroke-linejoin:miter;stroke-width:0.8;"/>
   </g>
   <g id="patch_5">
    <path d="M 76.1375 527.41 
L 968.9375 527.41 
" style="fill:none;stroke:#000000;stroke-linecap:square;stroke-linejoin:miter;stroke-width:0.8;"/>
   </g>
   <g id="patch_6">
    <path d="M 76.1375 38.17 
L 968.9375 38.17 
" style="fill:none;stroke:#000000;stroke-linecap:square;stroke-linejoin:miter;stroke-width:0.8;"/>
   </g>
   <g id="text_23">
    <!-- All Data -->
    <defs>
     <path d="M 53.421875 13.28125 
L 24.03125 13.28125 
L 19.390625 0 
L 0.484375 0 
L 27.484375 72.90625 
L 49.90625 72.90625 
L 76.90625 0 
L 58.015625 0 
z
M 28.71875 26.8125 
L 48.6875 26.8125 
L 38.71875 55.8125 
z
" id="DejaVuSans-Bold-65"/>
     <path d="M 8.40625 75.984375 
L 25.875 75.984375 
L 25.875 0 
L 8.40625 0 
z
" id="DejaVuSans-Bold-108"/>
     <path d="M 27.984375 58.6875 
L 27.984375 14.203125 
L 34.71875 14.203125 
Q 46.234375 14.203125 52.3125 19.921875 
Q 58.40625 25.640625 58.40625 36.53125 
Q 58.40625 47.359375 52.34375 53.015625 
Q 46.296875 58.6875 34.71875 58.6875 
z
M 9.1875 72.90625 
L 29 72.90625 
Q 45.609375 72.90625 53.734375 70.53125 
Q 61.859375 68.171875 67.671875 62.5 
Q 72.796875 57.5625 75.28125 51.109375 
Q 77.78125 44.671875 77.78125 36.53125 
Q 77.78125 28.265625 75.28125 21.796875 
Q 72.796875 15.328125 67.671875 10.40625 
Q 61.8125 4.734375 53.609375 2.359375 
Q 45.40625 0 29 0 
L 9.1875 0 
z
" id="DejaVuSans-Bold-68"/>
     <path d="M 32.90625 24.609375 
Q 27.4375 24.609375 24.671875 22.75 
Q 21.921875 20.90625 21.921875 17.28125 
Q 21.921875 13.96875 24.140625 12.078125 
Q 26.375 10.203125 30.328125 10.203125 
Q 35.25 10.203125 38.625 13.734375 
Q 42 17.28125 42 22.609375 
L 42 24.609375 
z
M 59.625 31.203125 
L 59.625 0 
L 42 0 
L 42 8.109375 
Q 38.484375 3.125 34.078125 0.84375 
Q 29.6875 -1.421875 23.390625 -1.421875 
Q 14.890625 -1.421875 9.59375 3.53125 
Q 4.296875 8.5 4.296875 16.40625 
Q 4.296875 26.03125 10.90625 30.515625 
Q 17.53125 35.015625 31.6875 35.015625 
L 42 35.015625 
L 42 36.375 
Q 42 40.53125 38.71875 42.453125 
Q 35.453125 44.390625 28.515625 44.390625 
Q 22.90625 44.390625 18.0625 43.265625 
Q 13.234375 42.140625 9.078125 39.890625 
L 9.078125 53.21875 
Q 14.703125 54.59375 20.359375 55.296875 
Q 26.03125 56 31.6875 56 
Q 46.484375 56 53.046875 50.171875 
Q 59.625 44.34375 59.625 31.203125 
z
" id="DejaVuSans-Bold-97"/>
     <path d="M 27.484375 70.21875 
L 27.484375 54.6875 
L 45.515625 54.6875 
L 45.515625 42.1875 
L 27.484375 42.1875 
L 27.484375 19 
Q 27.484375 15.1875 29 13.84375 
Q 30.515625 12.5 35.015625 12.5 
L 44 12.5 
L 44 0 
L 29 0 
Q 18.65625 0 14.328125 4.3125 
Q 10.015625 8.640625 10.015625 19 
L 10.015625 42.1875 
L 1.3125 42.1875 
L 1.3125 54.6875 
L 10.015625 54.6875 
L 10.015625 70.21875 
z
" id="DejaVuSans-Bold-116"/>
    </defs>
    <g transform="translate(451.09 31.515)scale(0.32 -0.32)">
     <use xlink:href="#DejaVuSans-Bold-65"/>
     <use x="77.392578" xlink:href="#DejaVuSans-Bold-108"/>
     <use x="111.669922" xlink:href="#DejaVuSans-Bold-108"/>
     <use x="145.947266" xlink:href="#DejaVuSans-Bold-32"/>
     <use x="180.761719" xlink:href="#DejaVuSans-Bold-68"/>
     <use x="263.769531" xlink:href="#DejaVuSans-Bold-97"/>
     <use x="331.25" xlink:href="#DejaVuSans-Bold-116"/>
     <use x="379.052734" xlink:href="#DejaVuSans-Bold-97"/>
    </g>
   </g>
  </g>
  <g id="axes_2">
   <g id="matplotlib.axis_3">
    <g id="ytick_32">
     <g id="line2d_188">
      <defs>
       <path d="M 0 0 
L 3.5 0 
" id="mc6b9b9d36f" style="stroke:#000000;stroke-width:0.8;"/>
      </defs>
      <g>
       <use style="stroke:#000000;stroke-width:0.8;" x="968.9375" xlink:href="#mc6b9b9d36f" y="493.247972"/>
      </g>
     </g>
     <g id="text_24">
      <!-- 200 k -->
      <g style="fill:#ff0000;" transform="translate(975.9375 499.326722)scale(0.16 -0.16)">
       <use xlink:href="#DejaVuSans-50"/>
       <use x="63.623047" xlink:href="#DejaVuSans-48"/>
       <use x="127.246094" xlink:href="#DejaVuSans-48"/>
       <use x="190.869141" xlink:href="#DejaVuSans-32"/>
       <use x="222.65625" xlink:href="#DejaVuSans-107"/>
      </g>
     </g>
    </g>
    <g id="ytick_33">
     <g id="line2d_189">
      <g>
       <use style="stroke:#000000;stroke-width:0.8;" x="968.9375" xlink:href="#mc6b9b9d36f" y="401.782881"/>
      </g>
     </g>
     <g id="text_25">
      <!-- 400 k -->
      <g style="fill:#ff0000;" transform="translate(975.9375 407.861631)scale(0.16 -0.16)">
       <use xlink:href="#DejaVuSans-52"/>
       <use x="63.623047" xlink:href="#DejaVuSans-48"/>
       <use x="127.246094" xlink:href="#DejaVuSans-48"/>
       <use x="190.869141" xlink:href="#DejaVuSans-32"/>
       <use x="222.65625" xlink:href="#DejaVuSans-107"/>
      </g>
     </g>
    </g>
    <g id="ytick_34">
     <g id="line2d_190">
      <g>
       <use style="stroke:#000000;stroke-width:0.8;" x="968.9375" xlink:href="#mc6b9b9d36f" y="310.317791"/>
      </g>
     </g>
     <g id="text_26">
      <!-- 600 k -->
      <g style="fill:#ff0000;" transform="translate(975.9375 316.396541)scale(0.16 -0.16)">
       <use xlink:href="#DejaVuSans-54"/>
       <use x="63.623047" xlink:href="#DejaVuSans-48"/>
       <use x="127.246094" xlink:href="#DejaVuSans-48"/>
       <use x="190.869141" xlink:href="#DejaVuSans-32"/>
       <use x="222.65625" xlink:href="#DejaVuSans-107"/>
      </g>
     </g>
    </g>
    <g id="ytick_35">
     <g id="line2d_191">
      <g>
       <use style="stroke:#000000;stroke-width:0.8;" x="968.9375" xlink:href="#mc6b9b9d36f" y="218.852701"/>
      </g>
     </g>
     <g id="text_27">
      <!-- 800 k -->
      <g style="fill:#ff0000;" transform="translate(975.9375 224.931451)scale(0.16 -0.16)">
       <use xlink:href="#DejaVuSans-56"/>
       <use x="63.623047" xlink:href="#DejaVuSans-48"/>
       <use x="127.246094" xlink:href="#DejaVuSans-48"/>
       <use x="190.869141" xlink:href="#DejaVuSans-32"/>
       <use x="222.65625" xlink:href="#DejaVuSans-107"/>
      </g>
     </g>
    </g>
    <g id="ytick_36">
     <g id="line2d_192">
      <g>
       <use style="stroke:#000000;stroke-width:0.8;" x="968.9375" xlink:href="#mc6b9b9d36f" y="127.38761"/>
      </g>
     </g>
     <g id="text_28">
      <!-- 1 M -->
      <defs>
       <path d="M 9.8125 72.90625 
L 24.515625 72.90625 
L 43.109375 23.296875 
L 61.8125 72.90625 
L 76.515625 72.90625 
L 76.515625 0 
L 66.890625 0 
L 66.890625 64.015625 
L 48.09375 14.015625 
L 38.1875 14.015625 
L 19.390625 64.015625 
L 19.390625 0 
L 9.8125 0 
z
" id="DejaVuSans-77"/>
      </defs>
      <g style="fill:#ff0000;" transform="translate(975.9375 133.46636)scale(0.16 -0.16)">
       <use xlink:href="#DejaVuSans-49"/>
       <use x="63.623047" xlink:href="#DejaVuSans-32"/>
       <use x="95.410156" xlink:href="#DejaVuSans-77"/>
      </g>
     </g>
    </g>
    <g id="text_29">
     <!-- Total Assets [gm] -->
     <defs>
      <path d="M 34.421875 43.5 
Q 28.609375 43.5 25.5625 39.328125 
Q 22.515625 35.15625 22.515625 27.296875 
Q 22.515625 19.4375 25.5625 15.25 
Q 28.609375 11.078125 34.421875 11.078125 
Q 40.140625 11.078125 43.15625 15.25 
Q 46.1875 19.4375 46.1875 27.296875 
Q 46.1875 35.15625 43.15625 39.328125 
Q 40.140625 43.5 34.421875 43.5 
z
M 34.421875 56 
Q 48.53125 56 56.46875 48.375 
Q 64.40625 40.765625 64.40625 27.296875 
Q 64.40625 13.8125 56.46875 6.1875 
Q 48.53125 -1.421875 34.421875 -1.421875 
Q 20.265625 -1.421875 12.28125 6.1875 
Q 4.296875 13.8125 4.296875 27.296875 
Q 4.296875 40.765625 12.28125 48.375 
Q 20.265625 56 34.421875 56 
z
" id="DejaVuSans-Bold-111"/>
      <path d="M 51.125 52.984375 
L 51.125 39.703125 
Q 45.515625 42.046875 40.28125 43.21875 
Q 35.0625 44.390625 30.421875 44.390625 
Q 25.4375 44.390625 23.015625 43.140625 
Q 20.609375 41.890625 20.609375 39.3125 
Q 20.609375 37.203125 22.4375 36.078125 
Q 24.265625 34.96875 29 34.421875 
L 32.078125 33.984375 
Q 45.515625 32.28125 50.140625 28.375 
Q 54.78125 24.46875 54.78125 16.109375 
Q 54.78125 7.375 48.328125 2.96875 
Q 41.890625 -1.421875 29.109375 -1.421875 
Q 23.6875 -1.421875 17.890625 -0.5625 
Q 12.109375 0.296875 6 2 
L 6 15.28125 
Q 11.234375 12.75 16.71875 11.46875 
Q 22.21875 10.203125 27.875 10.203125 
Q 33.015625 10.203125 35.59375 11.609375 
Q 38.1875 13.03125 38.1875 15.828125 
Q 38.1875 18.171875 36.40625 19.3125 
Q 34.625 20.453125 29.296875 21.09375 
L 26.21875 21.484375 
Q 14.546875 22.953125 9.859375 26.90625 
Q 5.171875 30.859375 5.171875 38.921875 
Q 5.171875 47.609375 11.125 51.796875 
Q 17.09375 56 29.390625 56 
Q 34.234375 56 39.546875 55.265625 
Q 44.875 54.546875 51.125 52.984375 
z
" id="DejaVuSans-Bold-115"/>
      <path d="M 45.609375 9.28125 
Q 42 4.5 37.640625 2.25 
Q 33.296875 0 27.59375 0 
Q 17.578125 0 11.03125 7.875 
Q 4.5 15.765625 4.5 27.984375 
Q 4.5 40.234375 11.03125 48.0625 
Q 17.578125 55.90625 27.59375 55.90625 
Q 33.296875 55.90625 37.640625 53.65625 
Q 42 51.421875 45.609375 46.578125 
L 45.609375 54.6875 
L 63.1875 54.6875 
L 63.1875 5.515625 
Q 63.1875 -7.671875 54.859375 -14.625 
Q 46.53125 -21.578125 30.71875 -21.578125 
Q 25.59375 -21.578125 20.796875 -20.796875 
Q 16.015625 -20.015625 11.1875 -18.40625 
L 11.1875 -4.78125 
Q 15.765625 -7.421875 20.15625 -8.71875 
Q 24.5625 -10.015625 29 -10.015625 
Q 37.59375 -10.015625 41.59375 -6.25 
Q 45.609375 -2.484375 45.609375 5.515625 
z
M 34.078125 43.3125 
Q 28.65625 43.3125 25.625 39.296875 
Q 22.609375 35.296875 22.609375 27.984375 
Q 22.609375 20.453125 25.53125 16.578125 
Q 28.46875 12.703125 34.078125 12.703125 
Q 39.546875 12.703125 42.578125 16.703125 
Q 45.609375 20.703125 45.609375 27.984375 
Q 45.609375 35.296875 42.578125 39.296875 
Q 39.546875 43.3125 34.078125 43.3125 
z
" id="DejaVuSans-Bold-103"/>
     </defs>
     <g style="fill:#ff0000;" transform="translate(1043.06375 402.14875)rotate(-90)scale(0.24 -0.24)">
      <use xlink:href="#DejaVuSans-Bold-84"/>
      <use x="68.009766" xlink:href="#DejaVuSans-Bold-111"/>
      <use x="136.710938" xlink:href="#DejaVuSans-Bold-116"/>
      <use x="184.513672" xlink:href="#DejaVuSans-Bold-97"/>
      <use x="251.994141" xlink:href="#DejaVuSans-Bold-108"/>
      <use x="286.271484" xlink:href="#DejaVuSans-Bold-32"/>
      <use x="321.085938" xlink:href="#DejaVuSans-Bold-65"/>
      <use x="398.478516" xlink:href="#DejaVuSans-Bold-115"/>
      <use x="458" xlink:href="#DejaVuSans-Bold-115"/>
      <use x="517.521484" xlink:href="#DejaVuSans-Bold-101"/>
      <use x="585.34375" xlink:href="#DejaVuSans-Bold-116"/>
      <use x="633.146484" xlink:href="#DejaVuSans-Bold-115"/>
      <use x="692.667969" xlink:href="#DejaVuSans-Bold-32"/>
      <use x="727.482422" xlink:href="#DejaVuSans-Bold-91"/>
      <use x="773.185547" xlink:href="#DejaVuSans-Bold-103"/>
      <use x="844.767578" xlink:href="#DejaVuSans-Bold-109"/>
      <use x="948.966797" xlink:href="#DejaVuSans-Bold-93"/>
     </g>
    </g>
   </g>
   <g id="line2d_193">
    <path clip-path="url(#pab02f4ee2d)" d="M 116.719318 253.429249 
L 117.102209 259.558324 
L 117.485101 241.891385 
L 117.867992 275.888502 
L 118.250883 275.573404 
L 118.633774 280.673955 
L 119.016666 272.260081 
L 119.399557 286.460951 
L 119.782448 284.90513 
L 120.165339 281.737237 
L 121.314013 290.78725 
L 121.696904 292.241088 
L 124.760034 270.142665 
L 125.525817 270.465994 
L 125.908708 256.201098 
L 126.291599 256.201098 
L 128.971838 259.772353 
L 129.354729 260.931673 
L 132.034968 247.19133 
L 134.715206 252.490817 
L 135.098098 233.422632 
L 135.480989 226.790041 
L 136.246771 241.414394 
L 137.778336 218.885171 
L 138.92701 226.675252 
L 140.075684 219.877567 
L 143.521705 223.302935 
L 144.287487 251.993247 
L 145.436161 214.260238 
L 145.819052 221.97166 
L 146.967726 215.160712 
L 158.837355 179.830492 
L 160.751811 192.165931 
L 254.560164 272.486 
L 266.812684 232.581611 
L 267.195575 223.89014 
L 274.8534 223.97063 
L 276.002074 212.44054 
L 276.384965 205.860542 
L 278.299421 196.619366 
L 283.277007 189.512986 
L 284.808572 189.253683 
L 285.191464 192.555115 
L 285.957246 193.45879 
L 287.10592 209.745064 
L 287.488811 211.620556 
L 288.254593 200.233609 
L 289.786158 172.510541 
L 290.551941 167.52798 
L 292.849288 151.61031 
L 297.826874 151.980286 
L 298.209766 171.140393 
L 300.507113 173.772759 
L 301.655787 142.012878 
L 302.421569 152.661244 
L 332.669977 60.408182 
L 338.792249 101.599485 
L 339.015602 108.761202 
L 339.023579 124.355542 
L 340.957977 127.259559 
L 340.969942 128.412019 
L 341.46451 114.77183 
L 341.468499 117.79338 
L 343.271278 129.382006 
L 343.606308 135.610322 
L 343.614285 140.524741 
L 344.080934 123.18982 
L 344.336195 133.373086 
L 344.340183 132.868656 
L 378.114381 120.3137 
L 392.361126 148.975201 
L 403.054162 172.814205 
L 582.881425 231.643179 
L 589.566068 223.956453 
L 604.450965 196.185365 
L 604.841833 204.35091 
L 620.149506 356.493484 
L 622.757952 415.273982 
L 622.761941 423.994264 
L 625.406283 456.536171 
L 625.198884 383.491235 
L 625.964667 422.936927 
L 754.081671 413.709472 
L 774.119645 461.921636 
L 775.671153 455.857957 
L 777.55769 446.655197 
L 778.74226 443.849963 
L 781.027642 468.608191 
L 783.691926 468.363522 
L 785.239445 481.634192 
L 787.393208 473.241355 
L 791.652873 458.809993 
L 791.756573 455.016936 
L 793.59126 460.838689 
L 802.645043 472.615277 
L 803.24331 468.202086 
L 805.732103 452.62741 
L 812.755765 450.966404 
L 816.496931 463.11434 
L 818.080346 474.106615 
L 818.11571 473.793347 
L 818.49674 472.918941 
L 818.75333 473.051108 
L 818.938129 471.069974 
L 819.170256 470.401364 
L 819.286453 468.595843 
L 819.288846 469.969192 
L 819.524431 469.811872 
L 819.529217 468.562916 
L 819.68583 465.237245 
L 819.873287 465.551885 
L 819.986825 445.304715 
L 820.312017 445.246178 
L 820.366526 444.735345 
L 821.15225 442.926166 
L 821.162089 440.759815 
L 821.975732 434.572202 
L 823.028417 428.896793 
L 823.528037 426.848432 
L 823.788882 424.29244 
L 824.127634 422.570152 
L 824.189057 423.039368 
L 825.427072 409.516712 
L 826.092611 405.886005 
L 826.551549 403.335959 
L 826.884717 402.386551 
L 827.308025 399.209511 
L 827.554511 400.400844 
L 827.716708 397.91528 
L 828.10731 396.679587 
L 828.4793 396.248329 
L 828.872029 394.032587 
L 829.291082 401.744923 
L 829.867812 397.42457 
L 831.911494 420.284897 
L 832.226848 431.091498 
L 832.596976 425.545054 
L 834.619652 408.858163 
L 834.623641 450.724022 
L 834.84593 447.657197 
L 834.848323 474.875836 
L 835.22111 483.694443 
L 835.754765 479.007772 
L 836.744964 455.536458 
L 837.867048 487.256094 
L 838.3095 482.794426 
L 838.683085 481.130219 
L 840.954375 470.42423 
L 841.486966 467.159384 
L 841.901499 466.133146 
L 843.433064 458.939416 
L 845.627509 489.452628 
L 846.006146 485.658198 
L 848.801252 383.383764 
L 848.803645 505.171818 
L 849.048004 473.090895 
L 849.051727 500.590789 
L 849.409624 496.050919 
L 850.554309 484.902697 
L 851.051536 484.867483 
L 852.887287 472.863147 
L 853.394884 471.111133 
L 854.802807 462.286581 
L 855.984717 501.867184 
L 857.950492 491.79825 
L 864.849447 461.519189 
L 864.849447 461.519189 
L 877.884767 473.722462 
L 882.328432 464.650039 
L 885.478245 448.866823 
L 885.479308 499.565465 
L 885.479308 499.536654 
L 898.886085 483.087115 
L 901.081594 475.46167 
L 902.775356 468.351174 
L 906.547899 460.894483 
L 912.613002 477.378321 
L 914.900246 470.930032 
L 917.288264 468.206202 
L 917.604947 464.337686 
L 918.816372 461.57041 
L 920.291301 457.791987 
L 920.295024 485.508653 
L 923.012222 482.053102 
L 927.895149 468.157725 
L 927.896744 466.595044 
L 928.355682 465.279776 
L 928.355682 465.279776 
" style="fill:none;stroke:#ff0000;stroke-linecap:square;stroke-width:1.5;"/>
   </g>
   <g id="patch_7">
    <path d="M 76.1375 527.41 
L 76.1375 38.17 
" style="fill:none;stroke:#000000;stroke-linecap:square;stroke-linejoin:miter;stroke-width:0.8;"/>
   </g>
   <g id="patch_8">
    <path d="M 968.9375 527.41 
L 968.9375 38.17 
" style="fill:none;stroke:#000000;stroke-linecap:square;stroke-linejoin:miter;stroke-width:0.8;"/>
   </g>
   <g id="patch_9">
    <path d="M 76.1375 527.41 
L 968.9375 527.41 
" style="fill:none;stroke:#000000;stroke-linecap:square;stroke-linejoin:miter;stroke-width:0.8;"/>
   </g>
   <g id="patch_10">
    <path d="M 76.1375 38.17 
L 968.9375 38.17 
" style="fill:none;stroke:#000000;stroke-linecap:square;stroke-linejoin:miter;stroke-width:0.8;"/>
   </g>
  </g>
 </g>
 <defs>
  <clipPath id="pab02f4ee2d">
   <rect height="489.24" width="892.8" x="76.1375" y="38.17"/>
  </clipPath>
 </defs>
</svg>
