<?xml version="1.0" encoding="utf-8" standalone="no"?>
<!DOCTYPE svg PUBLIC "-//W3C//DTD SVG 1.1//EN"
  "http://www.w3.org/Graphics/SVG/1.1/DTD/svg11.dtd">
<!-- Created with matplotlib (https://matplotlib.org/) -->
<svg height="635.567167pt" version="1.1" viewBox="0 0 1055.4425 635.567167" width="1055.4425pt" xmlns="http://www.w3.org/2000/svg" xmlns:xlink="http://www.w3.org/1999/xlink">
 <defs>
  <style type="text/css">
*{stroke-linecap:butt;stroke-linejoin:round;}
  </style>
 </defs>
 <g id="figure_1">
  <g id="patch_1">
   <path d="M 0 635.567167 
L 1055.4425 635.567167 
L 1055.4425 0 
L 0 0 
z
" style="fill:#ffffff;opacity:0.7;"/>
  </g>
  <g id="axes_1">
   <g id="patch_2">
    <path d="M 76.1375 527.41 
L 968.9375 527.41 
L 968.9375 38.17 
L 76.1375 38.17 
z
" style="fill:#ffffff;"/>
   </g>
   <g id="matplotlib.axis_1">
    <g id="xtick_1">
     <g id="line2d_1">
      <path clip-path="url(#p21fa28c991)" d="M 121.887378 527.41 
L 121.887378 38.17 
" style="fill:none;stroke:#b0b0b0;stroke-linecap:square;stroke-width:0.8;"/>
     </g>
     <g id="line2d_2">
      <defs>
       <path d="M 0 0 
L 0 3.5 
" id="m80add08afd" style="stroke:#000000;stroke-width:0.8;"/>
      </defs>
      <g>
       <use style="stroke:#000000;stroke-width:0.8;" x="121.887378" xlink:href="#m80add08afd" y="527.41"/>
      </g>
     </g>
     <g id="text_1">
      <!-- May 2016 -->
      <defs>
       <path d="M 9.8125 72.90625 
L 24.515625 72.90625 
L 43.109375 23.296875 
L 61.8125 72.90625 
L 76.515625 72.90625 
L 76.515625 0 
L 66.890625 0 
L 66.890625 64.015625 
L 48.09375 14.015625 
L 38.1875 14.015625 
L 19.390625 64.015625 
L 19.390625 0 
L 9.8125 0 
z
" id="DejaVuSans-77"/>
       <path d="M 34.28125 27.484375 
Q 23.390625 27.484375 19.1875 25 
Q 14.984375 22.515625 14.984375 16.5 
Q 14.984375 11.71875 18.140625 8.90625 
Q 21.296875 6.109375 26.703125 6.109375 
Q 34.1875 6.109375 38.703125 11.40625 
Q 43.21875 16.703125 43.21875 25.484375 
L 43.21875 27.484375 
z
M 52.203125 31.203125 
L 52.203125 0 
L 43.21875 0 
L 43.21875 8.296875 
Q 40.140625 3.328125 35.546875 0.953125 
Q 30.953125 -1.421875 24.3125 -1.421875 
Q 15.921875 -1.421875 10.953125 3.296875 
Q 6 8.015625 6 15.921875 
Q 6 25.140625 12.171875 29.828125 
Q 18.359375 34.515625 30.609375 34.515625 
L 43.21875 34.515625 
L 43.21875 35.40625 
Q 43.21875 41.609375 39.140625 45 
Q 35.0625 48.390625 27.6875 48.390625 
Q 23 48.390625 18.546875 47.265625 
Q 14.109375 46.140625 10.015625 43.890625 
L 10.015625 52.203125 
Q 14.9375 54.109375 19.578125 55.046875 
Q 24.21875 56 28.609375 56 
Q 40.484375 56 46.34375 49.84375 
Q 52.203125 43.703125 52.203125 31.203125 
z
" id="DejaVuSans-97"/>
       <path d="M 32.171875 -5.078125 
Q 28.375 -14.84375 24.75 -17.8125 
Q 21.140625 -20.796875 15.09375 -20.796875 
L 7.90625 -20.796875 
L 7.90625 -13.28125 
L 13.1875 -13.28125 
Q 16.890625 -13.28125 18.9375 -11.515625 
Q 21 -9.765625 23.484375 -3.21875 
L 25.09375 0.875 
L 2.984375 54.6875 
L 12.5 54.6875 
L 29.59375 11.921875 
L 46.6875 54.6875 
L 56.203125 54.6875 
z
" id="DejaVuSans-121"/>
       <path id="DejaVuSans-32"/>
       <path d="M 19.1875 8.296875 
L 53.609375 8.296875 
L 53.609375 0 
L 7.328125 0 
L 7.328125 8.296875 
Q 12.9375 14.109375 22.625 23.890625 
Q 32.328125 33.6875 34.8125 36.53125 
Q 39.546875 41.84375 41.421875 45.53125 
Q 43.3125 49.21875 43.3125 52.78125 
Q 43.3125 58.59375 39.234375 62.25 
Q 35.15625 65.921875 28.609375 65.921875 
Q 23.96875 65.921875 18.8125 64.3125 
Q 13.671875 62.703125 7.8125 59.421875 
L 7.8125 69.390625 
Q 13.765625 71.78125 18.9375 73 
Q 24.125 74.21875 28.421875 74.21875 
Q 39.75 74.21875 46.484375 68.546875 
Q 53.21875 62.890625 53.21875 53.421875 
Q 53.21875 48.921875 51.53125 44.890625 
Q 49.859375 40.875 45.40625 35.40625 
Q 44.1875 33.984375 37.640625 27.21875 
Q 31.109375 20.453125 19.1875 8.296875 
z
" id="DejaVuSans-50"/>
       <path d="M 31.78125 66.40625 
Q 24.171875 66.40625 20.328125 58.90625 
Q 16.5 51.421875 16.5 36.375 
Q 16.5 21.390625 20.328125 13.890625 
Q 24.171875 6.390625 31.78125 6.390625 
Q 39.453125 6.390625 43.28125 13.890625 
Q 47.125 21.390625 47.125 36.375 
Q 47.125 51.421875 43.28125 58.90625 
Q 39.453125 66.40625 31.78125 66.40625 
z
M 31.78125 74.21875 
Q 44.046875 74.21875 50.515625 64.515625 
Q 56.984375 54.828125 56.984375 36.375 
Q 56.984375 17.96875 50.515625 8.265625 
Q 44.046875 -1.421875 31.78125 -1.421875 
Q 19.53125 -1.421875 13.0625 8.265625 
Q 6.59375 17.96875 6.59375 36.375 
Q 6.59375 54.828125 13.0625 64.515625 
Q 19.53125 74.21875 31.78125 74.21875 
z
" id="DejaVuSans-48"/>
       <path d="M 12.40625 8.296875 
L 28.515625 8.296875 
L 28.515625 63.921875 
L 10.984375 60.40625 
L 10.984375 69.390625 
L 28.421875 72.90625 
L 38.28125 72.90625 
L 38.28125 8.296875 
L 54.390625 8.296875 
L 54.390625 0 
L 12.40625 0 
z
" id="DejaVuSans-49"/>
       <path d="M 33.015625 40.375 
Q 26.375 40.375 22.484375 35.828125 
Q 18.609375 31.296875 18.609375 23.390625 
Q 18.609375 15.53125 22.484375 10.953125 
Q 26.375 6.390625 33.015625 6.390625 
Q 39.65625 6.390625 43.53125 10.953125 
Q 47.40625 15.53125 47.40625 23.390625 
Q 47.40625 31.296875 43.53125 35.828125 
Q 39.65625 40.375 33.015625 40.375 
z
M 52.59375 71.296875 
L 52.59375 62.3125 
Q 48.875 64.0625 45.09375 64.984375 
Q 41.3125 65.921875 37.59375 65.921875 
Q 27.828125 65.921875 22.671875 59.328125 
Q 17.53125 52.734375 16.796875 39.40625 
Q 19.671875 43.65625 24.015625 45.921875 
Q 28.375 48.1875 33.59375 48.1875 
Q 44.578125 48.1875 50.953125 41.515625 
Q 57.328125 34.859375 57.328125 23.390625 
Q 57.328125 12.15625 50.6875 5.359375 
Q 44.046875 -1.421875 33.015625 -1.421875 
Q 20.359375 -1.421875 13.671875 8.265625 
Q 6.984375 17.96875 6.984375 36.375 
Q 6.984375 53.65625 15.1875 63.9375 
Q 23.390625 74.21875 37.203125 74.21875 
Q 40.921875 74.21875 44.703125 73.484375 
Q 48.484375 72.75 52.59375 71.296875 
z
" id="DejaVuSans-54"/>
      </defs>
      <g transform="translate(97.119196 598.786769)rotate(-45)scale(0.16 -0.16)">
       <use xlink:href="#DejaVuSans-77"/>
       <use x="86.279297" xlink:href="#DejaVuSans-97"/>
       <use x="147.558594" xlink:href="#DejaVuSans-121"/>
       <use x="206.738281" xlink:href="#DejaVuSans-32"/>
       <use x="238.525391" xlink:href="#DejaVuSans-50"/>
       <use x="302.148438" xlink:href="#DejaVuSans-48"/>
       <use x="365.771484" xlink:href="#DejaVuSans-49"/>
       <use x="429.394531" xlink:href="#DejaVuSans-54"/>
      </g>
     </g>
    </g>
    <g id="xtick_2">
     <g id="line2d_3">
      <path clip-path="url(#p21fa28c991)" d="M 201.130967 527.41 
L 201.130967 38.17 
" style="fill:none;stroke:#b0b0b0;stroke-linecap:square;stroke-width:0.8;"/>
     </g>
     <g id="line2d_4">
      <g>
       <use style="stroke:#000000;stroke-width:0.8;" x="201.130967" xlink:href="#m80add08afd" y="527.41"/>
      </g>
     </g>
     <g id="text_2">
      <!-- Nov 2016 -->
      <defs>
       <path d="M 9.8125 72.90625 
L 23.09375 72.90625 
L 55.421875 11.921875 
L 55.421875 72.90625 
L 64.984375 72.90625 
L 64.984375 0 
L 51.703125 0 
L 19.390625 60.984375 
L 19.390625 0 
L 9.8125 0 
z
" id="DejaVuSans-78"/>
       <path d="M 30.609375 48.390625 
Q 23.390625 48.390625 19.1875 42.75 
Q 14.984375 37.109375 14.984375 27.296875 
Q 14.984375 17.484375 19.15625 11.84375 
Q 23.34375 6.203125 30.609375 6.203125 
Q 37.796875 6.203125 41.984375 11.859375 
Q 46.1875 17.53125 46.1875 27.296875 
Q 46.1875 37.015625 41.984375 42.703125 
Q 37.796875 48.390625 30.609375 48.390625 
z
M 30.609375 56 
Q 42.328125 56 49.015625 48.375 
Q 55.71875 40.765625 55.71875 27.296875 
Q 55.71875 13.875 49.015625 6.21875 
Q 42.328125 -1.421875 30.609375 -1.421875 
Q 18.84375 -1.421875 12.171875 6.21875 
Q 5.515625 13.875 5.515625 27.296875 
Q 5.515625 40.765625 12.171875 48.375 
Q 18.84375 56 30.609375 56 
z
" id="DejaVuSans-111"/>
       <path d="M 2.984375 54.6875 
L 12.5 54.6875 
L 29.59375 8.796875 
L 46.6875 54.6875 
L 56.203125 54.6875 
L 35.6875 0 
L 23.484375 0 
z
" id="DejaVuSans-118"/>
      </defs>
      <g transform="translate(177.016858 597.478622)rotate(-45)scale(0.16 -0.16)">
       <use xlink:href="#DejaVuSans-78"/>
       <use x="74.804688" xlink:href="#DejaVuSans-111"/>
       <use x="135.986328" xlink:href="#DejaVuSans-118"/>
       <use x="195.166016" xlink:href="#DejaVuSans-32"/>
       <use x="226.953125" xlink:href="#DejaVuSans-50"/>
       <use x="290.576172" xlink:href="#DejaVuSans-48"/>
       <use x="354.199219" xlink:href="#DejaVuSans-49"/>
       <use x="417.822266" xlink:href="#DejaVuSans-54"/>
      </g>
     </g>
    </g>
    <g id="xtick_3">
     <g id="line2d_5">
      <path clip-path="url(#p21fa28c991)" d="M 279.08254 527.41 
L 279.08254 38.17 
" style="fill:none;stroke:#b0b0b0;stroke-linecap:square;stroke-width:0.8;"/>
     </g>
     <g id="line2d_6">
      <g>
       <use style="stroke:#000000;stroke-width:0.8;" x="279.08254" xlink:href="#m80add08afd" y="527.41"/>
      </g>
     </g>
     <g id="text_3">
      <!-- May 2017 -->
      <defs>
       <path d="M 8.203125 72.90625 
L 55.078125 72.90625 
L 55.078125 68.703125 
L 28.609375 0 
L 18.3125 0 
L 43.21875 64.59375 
L 8.203125 64.59375 
z
" id="DejaVuSans-55"/>
      </defs>
      <g transform="translate(254.314357 598.786769)rotate(-45)scale(0.16 -0.16)">
       <use xlink:href="#DejaVuSans-77"/>
       <use x="86.279297" xlink:href="#DejaVuSans-97"/>
       <use x="147.558594" xlink:href="#DejaVuSans-121"/>
       <use x="206.738281" xlink:href="#DejaVuSans-32"/>
       <use x="238.525391" xlink:href="#DejaVuSans-50"/>
       <use x="302.148438" xlink:href="#DejaVuSans-48"/>
       <use x="365.771484" xlink:href="#DejaVuSans-49"/>
       <use x="429.394531" xlink:href="#DejaVuSans-55"/>
      </g>
     </g>
    </g>
    <g id="xtick_4">
     <g id="line2d_7">
      <path clip-path="url(#p21fa28c991)" d="M 358.326128 527.41 
L 358.326128 38.17 
" style="fill:none;stroke:#b0b0b0;stroke-linecap:square;stroke-width:0.8;"/>
     </g>
     <g id="line2d_8">
      <g>
       <use style="stroke:#000000;stroke-width:0.8;" x="358.326128" xlink:href="#m80add08afd" y="527.41"/>
      </g>
     </g>
     <g id="text_4">
      <!-- Nov 2017 -->
      <g transform="translate(334.212019 597.478622)rotate(-45)scale(0.16 -0.16)">
       <use xlink:href="#DejaVuSans-78"/>
       <use x="74.804688" xlink:href="#DejaVuSans-111"/>
       <use x="135.986328" xlink:href="#DejaVuSans-118"/>
       <use x="195.166016" xlink:href="#DejaVuSans-32"/>
       <use x="226.953125" xlink:href="#DejaVuSans-50"/>
       <use x="290.576172" xlink:href="#DejaVuSans-48"/>
       <use x="354.199219" xlink:href="#DejaVuSans-49"/>
       <use x="417.822266" xlink:href="#DejaVuSans-55"/>
      </g>
     </g>
    </g>
    <g id="xtick_5">
     <g id="line2d_9">
      <path clip-path="url(#p21fa28c991)" d="M 436.277702 527.41 
L 436.277702 38.17 
" style="fill:none;stroke:#b0b0b0;stroke-linecap:square;stroke-width:0.8;"/>
     </g>
     <g id="line2d_10">
      <g>
       <use style="stroke:#000000;stroke-width:0.8;" x="436.277702" xlink:href="#m80add08afd" y="527.41"/>
      </g>
     </g>
     <g id="text_5">
      <!-- May 2018 -->
      <defs>
       <path d="M 31.78125 34.625 
Q 24.75 34.625 20.71875 30.859375 
Q 16.703125 27.09375 16.703125 20.515625 
Q 16.703125 13.921875 20.71875 10.15625 
Q 24.75 6.390625 31.78125 6.390625 
Q 38.8125 6.390625 42.859375 10.171875 
Q 46.921875 13.96875 46.921875 20.515625 
Q 46.921875 27.09375 42.890625 30.859375 
Q 38.875 34.625 31.78125 34.625 
z
M 21.921875 38.8125 
Q 15.578125 40.375 12.03125 44.71875 
Q 8.5 49.078125 8.5 55.328125 
Q 8.5 64.0625 14.71875 69.140625 
Q 20.953125 74.21875 31.78125 74.21875 
Q 42.671875 74.21875 48.875 69.140625 
Q 55.078125 64.0625 55.078125 55.328125 
Q 55.078125 49.078125 51.53125 44.71875 
Q 48 40.375 41.703125 38.8125 
Q 48.828125 37.15625 52.796875 32.3125 
Q 56.78125 27.484375 56.78125 20.515625 
Q 56.78125 9.90625 50.3125 4.234375 
Q 43.84375 -1.421875 31.78125 -1.421875 
Q 19.734375 -1.421875 13.25 4.234375 
Q 6.78125 9.90625 6.78125 20.515625 
Q 6.78125 27.484375 10.78125 32.3125 
Q 14.796875 37.15625 21.921875 38.8125 
z
M 18.3125 54.390625 
Q 18.3125 48.734375 21.84375 45.5625 
Q 25.390625 42.390625 31.78125 42.390625 
Q 38.140625 42.390625 41.71875 45.5625 
Q 45.3125 48.734375 45.3125 54.390625 
Q 45.3125 60.0625 41.71875 63.234375 
Q 38.140625 66.40625 31.78125 66.40625 
Q 25.390625 66.40625 21.84375 63.234375 
Q 18.3125 60.0625 18.3125 54.390625 
z
" id="DejaVuSans-56"/>
      </defs>
      <g transform="translate(411.509519 598.786769)rotate(-45)scale(0.16 -0.16)">
       <use xlink:href="#DejaVuSans-77"/>
       <use x="86.279297" xlink:href="#DejaVuSans-97"/>
       <use x="147.558594" xlink:href="#DejaVuSans-121"/>
       <use x="206.738281" xlink:href="#DejaVuSans-32"/>
       <use x="238.525391" xlink:href="#DejaVuSans-50"/>
       <use x="302.148438" xlink:href="#DejaVuSans-48"/>
       <use x="365.771484" xlink:href="#DejaVuSans-49"/>
       <use x="429.394531" xlink:href="#DejaVuSans-56"/>
      </g>
     </g>
    </g>
    <g id="xtick_6">
     <g id="line2d_11">
      <path clip-path="url(#p21fa28c991)" d="M 515.52129 527.41 
L 515.52129 38.17 
" style="fill:none;stroke:#b0b0b0;stroke-linecap:square;stroke-width:0.8;"/>
     </g>
     <g id="line2d_12">
      <g>
       <use style="stroke:#000000;stroke-width:0.8;" x="515.52129" xlink:href="#m80add08afd" y="527.41"/>
      </g>
     </g>
     <g id="text_6">
      <!-- Nov 2018 -->
      <g transform="translate(491.407181 597.478622)rotate(-45)scale(0.16 -0.16)">
       <use xlink:href="#DejaVuSans-78"/>
       <use x="74.804688" xlink:href="#DejaVuSans-111"/>
       <use x="135.986328" xlink:href="#DejaVuSans-118"/>
       <use x="195.166016" xlink:href="#DejaVuSans-32"/>
       <use x="226.953125" xlink:href="#DejaVuSans-50"/>
       <use x="290.576172" xlink:href="#DejaVuSans-48"/>
       <use x="354.199219" xlink:href="#DejaVuSans-49"/>
       <use x="417.822266" xlink:href="#DejaVuSans-56"/>
      </g>
     </g>
    </g>
    <g id="xtick_7">
     <g id="line2d_13">
      <path clip-path="url(#p21fa28c991)" d="M 593.472864 527.41 
L 593.472864 38.17 
" style="fill:none;stroke:#b0b0b0;stroke-linecap:square;stroke-width:0.8;"/>
     </g>
     <g id="line2d_14">
      <g>
       <use style="stroke:#000000;stroke-width:0.8;" x="593.472864" xlink:href="#m80add08afd" y="527.41"/>
      </g>
     </g>
     <g id="text_7">
      <!-- May 2019 -->
      <defs>
       <path d="M 10.984375 1.515625 
L 10.984375 10.5 
Q 14.703125 8.734375 18.5 7.8125 
Q 22.3125 6.890625 25.984375 6.890625 
Q 35.75 6.890625 40.890625 13.453125 
Q 46.046875 20.015625 46.78125 33.40625 
Q 43.953125 29.203125 39.59375 26.953125 
Q 35.25 24.703125 29.984375 24.703125 
Q 19.046875 24.703125 12.671875 31.3125 
Q 6.296875 37.9375 6.296875 49.421875 
Q 6.296875 60.640625 12.9375 67.421875 
Q 19.578125 74.21875 30.609375 74.21875 
Q 43.265625 74.21875 49.921875 64.515625 
Q 56.59375 54.828125 56.59375 36.375 
Q 56.59375 19.140625 48.40625 8.859375 
Q 40.234375 -1.421875 26.421875 -1.421875 
Q 22.703125 -1.421875 18.890625 -0.6875 
Q 15.09375 0.046875 10.984375 1.515625 
z
M 30.609375 32.421875 
Q 37.25 32.421875 41.125 36.953125 
Q 45.015625 41.5 45.015625 49.421875 
Q 45.015625 57.28125 41.125 61.84375 
Q 37.25 66.40625 30.609375 66.40625 
Q 23.96875 66.40625 20.09375 61.84375 
Q 16.21875 57.28125 16.21875 49.421875 
Q 16.21875 41.5 20.09375 36.953125 
Q 23.96875 32.421875 30.609375 32.421875 
z
" id="DejaVuSans-57"/>
      </defs>
      <g transform="translate(568.704681 598.786769)rotate(-45)scale(0.16 -0.16)">
       <use xlink:href="#DejaVuSans-77"/>
       <use x="86.279297" xlink:href="#DejaVuSans-97"/>
       <use x="147.558594" xlink:href="#DejaVuSans-121"/>
       <use x="206.738281" xlink:href="#DejaVuSans-32"/>
       <use x="238.525391" xlink:href="#DejaVuSans-50"/>
       <use x="302.148438" xlink:href="#DejaVuSans-48"/>
       <use x="365.771484" xlink:href="#DejaVuSans-49"/>
       <use x="429.394531" xlink:href="#DejaVuSans-57"/>
      </g>
     </g>
    </g>
    <g id="xtick_8">
     <g id="line2d_15">
      <path clip-path="url(#p21fa28c991)" d="M 672.716452 527.41 
L 672.716452 38.17 
" style="fill:none;stroke:#b0b0b0;stroke-linecap:square;stroke-width:0.8;"/>
     </g>
     <g id="line2d_16">
      <g>
       <use style="stroke:#000000;stroke-width:0.8;" x="672.716452" xlink:href="#m80add08afd" y="527.41"/>
      </g>
     </g>
     <g id="text_8">
      <!-- Nov 2019 -->
      <g transform="translate(648.602343 597.478622)rotate(-45)scale(0.16 -0.16)">
       <use xlink:href="#DejaVuSans-78"/>
       <use x="74.804688" xlink:href="#DejaVuSans-111"/>
       <use x="135.986328" xlink:href="#DejaVuSans-118"/>
       <use x="195.166016" xlink:href="#DejaVuSans-32"/>
       <use x="226.953125" xlink:href="#DejaVuSans-50"/>
       <use x="290.576172" xlink:href="#DejaVuSans-48"/>
       <use x="354.199219" xlink:href="#DejaVuSans-49"/>
       <use x="417.822266" xlink:href="#DejaVuSans-57"/>
      </g>
     </g>
    </g>
    <g id="xtick_9">
     <g id="line2d_17">
      <path clip-path="url(#p21fa28c991)" d="M 751.098697 527.41 
L 751.098697 38.17 
" style="fill:none;stroke:#b0b0b0;stroke-linecap:square;stroke-width:0.8;"/>
     </g>
     <g id="line2d_18">
      <g>
       <use style="stroke:#000000;stroke-width:0.8;" x="751.098697" xlink:href="#m80add08afd" y="527.41"/>
      </g>
     </g>
     <g id="text_9">
      <!-- May 2020 -->
      <g transform="translate(726.330514 598.786769)rotate(-45)scale(0.16 -0.16)">
       <use xlink:href="#DejaVuSans-77"/>
       <use x="86.279297" xlink:href="#DejaVuSans-97"/>
       <use x="147.558594" xlink:href="#DejaVuSans-121"/>
       <use x="206.738281" xlink:href="#DejaVuSans-32"/>
       <use x="238.525391" xlink:href="#DejaVuSans-50"/>
       <use x="302.148438" xlink:href="#DejaVuSans-48"/>
       <use x="365.771484" xlink:href="#DejaVuSans-50"/>
       <use x="429.394531" xlink:href="#DejaVuSans-48"/>
      </g>
     </g>
    </g>
    <g id="xtick_10">
     <g id="line2d_19">
      <path clip-path="url(#p21fa28c991)" d="M 830.342285 527.41 
L 830.342285 38.17 
" style="fill:none;stroke:#b0b0b0;stroke-linecap:square;stroke-width:0.8;"/>
     </g>
     <g id="line2d_20">
      <g>
       <use style="stroke:#000000;stroke-width:0.8;" x="830.342285" xlink:href="#m80add08afd" y="527.41"/>
      </g>
     </g>
     <g id="text_10">
      <!-- Nov 2020 -->
      <g transform="translate(806.228176 597.478622)rotate(-45)scale(0.16 -0.16)">
       <use xlink:href="#DejaVuSans-78"/>
       <use x="74.804688" xlink:href="#DejaVuSans-111"/>
       <use x="135.986328" xlink:href="#DejaVuSans-118"/>
       <use x="195.166016" xlink:href="#DejaVuSans-32"/>
       <use x="226.953125" xlink:href="#DejaVuSans-50"/>
       <use x="290.576172" xlink:href="#DejaVuSans-48"/>
       <use x="354.199219" xlink:href="#DejaVuSans-50"/>
       <use x="417.822266" xlink:href="#DejaVuSans-48"/>
      </g>
     </g>
    </g>
    <g id="xtick_11">
     <g id="line2d_21">
      <path clip-path="url(#p21fa28c991)" d="M 908.293859 527.41 
L 908.293859 38.17 
" style="fill:none;stroke:#b0b0b0;stroke-linecap:square;stroke-width:0.8;"/>
     </g>
     <g id="line2d_22">
      <g>
       <use style="stroke:#000000;stroke-width:0.8;" x="908.293859" xlink:href="#m80add08afd" y="527.41"/>
      </g>
     </g>
     <g id="text_11">
      <!-- May 2021 -->
      <g transform="translate(883.525676 598.786769)rotate(-45)scale(0.16 -0.16)">
       <use xlink:href="#DejaVuSans-77"/>
       <use x="86.279297" xlink:href="#DejaVuSans-97"/>
       <use x="147.558594" xlink:href="#DejaVuSans-121"/>
       <use x="206.738281" xlink:href="#DejaVuSans-32"/>
       <use x="238.525391" xlink:href="#DejaVuSans-50"/>
       <use x="302.148438" xlink:href="#DejaVuSans-48"/>
       <use x="365.771484" xlink:href="#DejaVuSans-50"/>
       <use x="429.394531" xlink:href="#DejaVuSans-49"/>
      </g>
     </g>
    </g>
    <g id="xtick_12">
     <g id="line2d_23">
      <path clip-path="url(#p21fa28c991)" d="M 82.265584 527.41 
L 82.265584 38.17 
" style="fill:none;stroke:#999999;stroke-linecap:square;stroke-opacity:0.2;stroke-width:0.8;"/>
     </g>
     <g id="line2d_24">
      <defs>
       <path d="M 0 0 
L 0 2 
" id="m06500e3532" style="stroke:#000000;stroke-width:0.6;"/>
      </defs>
      <g>
       <use style="stroke:#000000;stroke-width:0.6;" x="82.265584" xlink:href="#m06500e3532" y="527.41"/>
      </g>
     </g>
    </g>
    <g id="xtick_13">
     <g id="line2d_25">
      <path clip-path="url(#p21fa28c991)" d="M 102.076481 527.41 
L 102.076481 38.17 
" style="fill:none;stroke:#999999;stroke-linecap:square;stroke-opacity:0.2;stroke-width:0.8;"/>
     </g>
     <g id="line2d_26">
      <g>
       <use style="stroke:#000000;stroke-width:0.6;" x="102.076481" xlink:href="#m06500e3532" y="527.41"/>
      </g>
     </g>
    </g>
    <g id="xtick_14">
     <g id="line2d_27">
      <path clip-path="url(#p21fa28c991)" d="M 141.698275 527.41 
L 141.698275 38.17 
" style="fill:none;stroke:#999999;stroke-linecap:square;stroke-opacity:0.2;stroke-width:0.8;"/>
     </g>
     <g id="line2d_28">
      <g>
       <use style="stroke:#000000;stroke-width:0.6;" x="141.698275" xlink:href="#m06500e3532" y="527.41"/>
      </g>
     </g>
    </g>
    <g id="xtick_15">
     <g id="line2d_29">
      <path clip-path="url(#p21fa28c991)" d="M 161.509172 527.41 
L 161.509172 38.17 
" style="fill:none;stroke:#999999;stroke-linecap:square;stroke-opacity:0.2;stroke-width:0.8;"/>
     </g>
     <g id="line2d_30">
      <g>
       <use style="stroke:#000000;stroke-width:0.6;" x="161.509172" xlink:href="#m06500e3532" y="527.41"/>
      </g>
     </g>
    </g>
    <g id="xtick_16">
     <g id="line2d_31">
      <path clip-path="url(#p21fa28c991)" d="M 181.32007 527.41 
L 181.32007 38.17 
" style="fill:none;stroke:#999999;stroke-linecap:square;stroke-opacity:0.2;stroke-width:0.8;"/>
     </g>
     <g id="line2d_32">
      <g>
       <use style="stroke:#000000;stroke-width:0.6;" x="181.32007" xlink:href="#m06500e3532" y="527.41"/>
      </g>
     </g>
    </g>
    <g id="xtick_17">
     <g id="line2d_33">
      <path clip-path="url(#p21fa28c991)" d="M 220.941864 527.41 
L 220.941864 38.17 
" style="fill:none;stroke:#999999;stroke-linecap:square;stroke-opacity:0.2;stroke-width:0.8;"/>
     </g>
     <g id="line2d_34">
      <g>
       <use style="stroke:#000000;stroke-width:0.6;" x="220.941864" xlink:href="#m06500e3532" y="527.41"/>
      </g>
     </g>
    </g>
    <g id="xtick_18">
     <g id="line2d_35">
      <path clip-path="url(#p21fa28c991)" d="M 240.752761 527.41 
L 240.752761 38.17 
" style="fill:none;stroke:#999999;stroke-linecap:square;stroke-opacity:0.2;stroke-width:0.8;"/>
     </g>
     <g id="line2d_36">
      <g>
       <use style="stroke:#000000;stroke-width:0.6;" x="240.752761" xlink:href="#m06500e3532" y="527.41"/>
      </g>
     </g>
    </g>
    <g id="xtick_19">
     <g id="line2d_37">
      <path clip-path="url(#p21fa28c991)" d="M 260.563658 527.41 
L 260.563658 38.17 
" style="fill:none;stroke:#999999;stroke-linecap:square;stroke-opacity:0.2;stroke-width:0.8;"/>
     </g>
     <g id="line2d_38">
      <g>
       <use style="stroke:#000000;stroke-width:0.6;" x="260.563658" xlink:href="#m06500e3532" y="527.41"/>
      </g>
     </g>
    </g>
    <g id="xtick_20">
     <g id="line2d_39">
      <path clip-path="url(#p21fa28c991)" d="M 280.374555 527.41 
L 280.374555 38.17 
" style="fill:none;stroke:#999999;stroke-linecap:square;stroke-opacity:0.2;stroke-width:0.8;"/>
     </g>
     <g id="line2d_40">
      <g>
       <use style="stroke:#000000;stroke-width:0.6;" x="280.374555" xlink:href="#m06500e3532" y="527.41"/>
      </g>
     </g>
    </g>
    <g id="xtick_21">
     <g id="line2d_41">
      <path clip-path="url(#p21fa28c991)" d="M 300.185452 527.41 
L 300.185452 38.17 
" style="fill:none;stroke:#999999;stroke-linecap:square;stroke-opacity:0.2;stroke-width:0.8;"/>
     </g>
     <g id="line2d_42">
      <g>
       <use style="stroke:#000000;stroke-width:0.6;" x="300.185452" xlink:href="#m06500e3532" y="527.41"/>
      </g>
     </g>
    </g>
    <g id="xtick_22">
     <g id="line2d_43">
      <path clip-path="url(#p21fa28c991)" d="M 319.996349 527.41 
L 319.996349 38.17 
" style="fill:none;stroke:#999999;stroke-linecap:square;stroke-opacity:0.2;stroke-width:0.8;"/>
     </g>
     <g id="line2d_44">
      <g>
       <use style="stroke:#000000;stroke-width:0.6;" x="319.996349" xlink:href="#m06500e3532" y="527.41"/>
      </g>
     </g>
    </g>
    <g id="xtick_23">
     <g id="line2d_45">
      <path clip-path="url(#p21fa28c991)" d="M 339.807246 527.41 
L 339.807246 38.17 
" style="fill:none;stroke:#999999;stroke-linecap:square;stroke-opacity:0.2;stroke-width:0.8;"/>
     </g>
     <g id="line2d_46">
      <g>
       <use style="stroke:#000000;stroke-width:0.6;" x="339.807246" xlink:href="#m06500e3532" y="527.41"/>
      </g>
     </g>
    </g>
    <g id="xtick_24">
     <g id="line2d_47">
      <path clip-path="url(#p21fa28c991)" d="M 359.618143 527.41 
L 359.618143 38.17 
" style="fill:none;stroke:#999999;stroke-linecap:square;stroke-opacity:0.2;stroke-width:0.8;"/>
     </g>
     <g id="line2d_48">
      <g>
       <use style="stroke:#000000;stroke-width:0.6;" x="359.618143" xlink:href="#m06500e3532" y="527.41"/>
      </g>
     </g>
    </g>
    <g id="xtick_25">
     <g id="line2d_49">
      <path clip-path="url(#p21fa28c991)" d="M 379.429041 527.41 
L 379.429041 38.17 
" style="fill:none;stroke:#999999;stroke-linecap:square;stroke-opacity:0.2;stroke-width:0.8;"/>
     </g>
     <g id="line2d_50">
      <g>
       <use style="stroke:#000000;stroke-width:0.6;" x="379.429041" xlink:href="#m06500e3532" y="527.41"/>
      </g>
     </g>
    </g>
    <g id="xtick_26">
     <g id="line2d_51">
      <path clip-path="url(#p21fa28c991)" d="M 399.239938 527.41 
L 399.239938 38.17 
" style="fill:none;stroke:#999999;stroke-linecap:square;stroke-opacity:0.2;stroke-width:0.8;"/>
     </g>
     <g id="line2d_52">
      <g>
       <use style="stroke:#000000;stroke-width:0.6;" x="399.239938" xlink:href="#m06500e3532" y="527.41"/>
      </g>
     </g>
    </g>
    <g id="xtick_27">
     <g id="line2d_53">
      <path clip-path="url(#p21fa28c991)" d="M 419.050835 527.41 
L 419.050835 38.17 
" style="fill:none;stroke:#999999;stroke-linecap:square;stroke-opacity:0.2;stroke-width:0.8;"/>
     </g>
     <g id="line2d_54">
      <g>
       <use style="stroke:#000000;stroke-width:0.6;" x="419.050835" xlink:href="#m06500e3532" y="527.41"/>
      </g>
     </g>
    </g>
    <g id="xtick_28">
     <g id="line2d_55">
      <path clip-path="url(#p21fa28c991)" d="M 438.861732 527.41 
L 438.861732 38.17 
" style="fill:none;stroke:#999999;stroke-linecap:square;stroke-opacity:0.2;stroke-width:0.8;"/>
     </g>
     <g id="line2d_56">
      <g>
       <use style="stroke:#000000;stroke-width:0.6;" x="438.861732" xlink:href="#m06500e3532" y="527.41"/>
      </g>
     </g>
    </g>
    <g id="xtick_29">
     <g id="line2d_57">
      <path clip-path="url(#p21fa28c991)" d="M 458.672629 527.41 
L 458.672629 38.17 
" style="fill:none;stroke:#999999;stroke-linecap:square;stroke-opacity:0.2;stroke-width:0.8;"/>
     </g>
     <g id="line2d_58">
      <g>
       <use style="stroke:#000000;stroke-width:0.6;" x="458.672629" xlink:href="#m06500e3532" y="527.41"/>
      </g>
     </g>
    </g>
    <g id="xtick_30">
     <g id="line2d_59">
      <path clip-path="url(#p21fa28c991)" d="M 478.483526 527.41 
L 478.483526 38.17 
" style="fill:none;stroke:#999999;stroke-linecap:square;stroke-opacity:0.2;stroke-width:0.8;"/>
     </g>
     <g id="line2d_60">
      <g>
       <use style="stroke:#000000;stroke-width:0.6;" x="478.483526" xlink:href="#m06500e3532" y="527.41"/>
      </g>
     </g>
    </g>
    <g id="xtick_31">
     <g id="line2d_61">
      <path clip-path="url(#p21fa28c991)" d="M 498.294423 527.41 
L 498.294423 38.17 
" style="fill:none;stroke:#999999;stroke-linecap:square;stroke-opacity:0.2;stroke-width:0.8;"/>
     </g>
     <g id="line2d_62">
      <g>
       <use style="stroke:#000000;stroke-width:0.6;" x="498.294423" xlink:href="#m06500e3532" y="527.41"/>
      </g>
     </g>
    </g>
    <g id="xtick_32">
     <g id="line2d_63">
      <path clip-path="url(#p21fa28c991)" d="M 518.10532 527.41 
L 518.10532 38.17 
" style="fill:none;stroke:#999999;stroke-linecap:square;stroke-opacity:0.2;stroke-width:0.8;"/>
     </g>
     <g id="line2d_64">
      <g>
       <use style="stroke:#000000;stroke-width:0.6;" x="518.10532" xlink:href="#m06500e3532" y="527.41"/>
      </g>
     </g>
    </g>
    <g id="xtick_33">
     <g id="line2d_65">
      <path clip-path="url(#p21fa28c991)" d="M 537.916217 527.41 
L 537.916217 38.17 
" style="fill:none;stroke:#999999;stroke-linecap:square;stroke-opacity:0.2;stroke-width:0.8;"/>
     </g>
     <g id="line2d_66">
      <g>
       <use style="stroke:#000000;stroke-width:0.6;" x="537.916217" xlink:href="#m06500e3532" y="527.41"/>
      </g>
     </g>
    </g>
    <g id="xtick_34">
     <g id="line2d_67">
      <path clip-path="url(#p21fa28c991)" d="M 557.727114 527.41 
L 557.727114 38.17 
" style="fill:none;stroke:#999999;stroke-linecap:square;stroke-opacity:0.2;stroke-width:0.8;"/>
     </g>
     <g id="line2d_68">
      <g>
       <use style="stroke:#000000;stroke-width:0.6;" x="557.727114" xlink:href="#m06500e3532" y="527.41"/>
      </g>
     </g>
    </g>
    <g id="xtick_35">
     <g id="line2d_69">
      <path clip-path="url(#p21fa28c991)" d="M 577.538011 527.41 
L 577.538011 38.17 
" style="fill:none;stroke:#999999;stroke-linecap:square;stroke-opacity:0.2;stroke-width:0.8;"/>
     </g>
     <g id="line2d_70">
      <g>
       <use style="stroke:#000000;stroke-width:0.6;" x="577.538011" xlink:href="#m06500e3532" y="527.41"/>
      </g>
     </g>
    </g>
    <g id="xtick_36">
     <g id="line2d_71">
      <path clip-path="url(#p21fa28c991)" d="M 597.348909 527.41 
L 597.348909 38.17 
" style="fill:none;stroke:#999999;stroke-linecap:square;stroke-opacity:0.2;stroke-width:0.8;"/>
     </g>
     <g id="line2d_72">
      <g>
       <use style="stroke:#000000;stroke-width:0.6;" x="597.348909" xlink:href="#m06500e3532" y="527.41"/>
      </g>
     </g>
    </g>
    <g id="xtick_37">
     <g id="line2d_73">
      <path clip-path="url(#p21fa28c991)" d="M 617.159806 527.41 
L 617.159806 38.17 
" style="fill:none;stroke:#999999;stroke-linecap:square;stroke-opacity:0.2;stroke-width:0.8;"/>
     </g>
     <g id="line2d_74">
      <g>
       <use style="stroke:#000000;stroke-width:0.6;" x="617.159806" xlink:href="#m06500e3532" y="527.41"/>
      </g>
     </g>
    </g>
    <g id="xtick_38">
     <g id="line2d_75">
      <path clip-path="url(#p21fa28c991)" d="M 636.970703 527.41 
L 636.970703 38.17 
" style="fill:none;stroke:#999999;stroke-linecap:square;stroke-opacity:0.2;stroke-width:0.8;"/>
     </g>
     <g id="line2d_76">
      <g>
       <use style="stroke:#000000;stroke-width:0.6;" x="636.970703" xlink:href="#m06500e3532" y="527.41"/>
      </g>
     </g>
    </g>
    <g id="xtick_39">
     <g id="line2d_77">
      <path clip-path="url(#p21fa28c991)" d="M 656.7816 527.41 
L 656.7816 38.17 
" style="fill:none;stroke:#999999;stroke-linecap:square;stroke-opacity:0.2;stroke-width:0.8;"/>
     </g>
     <g id="line2d_78">
      <g>
       <use style="stroke:#000000;stroke-width:0.6;" x="656.7816" xlink:href="#m06500e3532" y="527.41"/>
      </g>
     </g>
    </g>
    <g id="xtick_40">
     <g id="line2d_79">
      <path clip-path="url(#p21fa28c991)" d="M 676.592497 527.41 
L 676.592497 38.17 
" style="fill:none;stroke:#999999;stroke-linecap:square;stroke-opacity:0.2;stroke-width:0.8;"/>
     </g>
     <g id="line2d_80">
      <g>
       <use style="stroke:#000000;stroke-width:0.6;" x="676.592497" xlink:href="#m06500e3532" y="527.41"/>
      </g>
     </g>
    </g>
    <g id="xtick_41">
     <g id="line2d_81">
      <path clip-path="url(#p21fa28c991)" d="M 696.403394 527.41 
L 696.403394 38.17 
" style="fill:none;stroke:#999999;stroke-linecap:square;stroke-opacity:0.2;stroke-width:0.8;"/>
     </g>
     <g id="line2d_82">
      <g>
       <use style="stroke:#000000;stroke-width:0.6;" x="696.403394" xlink:href="#m06500e3532" y="527.41"/>
      </g>
     </g>
    </g>
    <g id="xtick_42">
     <g id="line2d_83">
      <path clip-path="url(#p21fa28c991)" d="M 716.214291 527.41 
L 716.214291 38.17 
" style="fill:none;stroke:#999999;stroke-linecap:square;stroke-opacity:0.2;stroke-width:0.8;"/>
     </g>
     <g id="line2d_84">
      <g>
       <use style="stroke:#000000;stroke-width:0.6;" x="716.214291" xlink:href="#m06500e3532" y="527.41"/>
      </g>
     </g>
    </g>
    <g id="xtick_43">
     <g id="line2d_85">
      <path clip-path="url(#p21fa28c991)" d="M 736.025188 527.41 
L 736.025188 38.17 
" style="fill:none;stroke:#999999;stroke-linecap:square;stroke-opacity:0.2;stroke-width:0.8;"/>
     </g>
     <g id="line2d_86">
      <g>
       <use style="stroke:#000000;stroke-width:0.6;" x="736.025188" xlink:href="#m06500e3532" y="527.41"/>
      </g>
     </g>
    </g>
    <g id="xtick_44">
     <g id="line2d_87">
      <path clip-path="url(#p21fa28c991)" d="M 755.836085 527.41 
L 755.836085 38.17 
" style="fill:none;stroke:#999999;stroke-linecap:square;stroke-opacity:0.2;stroke-width:0.8;"/>
     </g>
     <g id="line2d_88">
      <g>
       <use style="stroke:#000000;stroke-width:0.6;" x="755.836085" xlink:href="#m06500e3532" y="527.41"/>
      </g>
     </g>
    </g>
    <g id="xtick_45">
     <g id="line2d_89">
      <path clip-path="url(#p21fa28c991)" d="M 775.646982 527.41 
L 775.646982 38.17 
" style="fill:none;stroke:#999999;stroke-linecap:square;stroke-opacity:0.2;stroke-width:0.8;"/>
     </g>
     <g id="line2d_90">
      <g>
       <use style="stroke:#000000;stroke-width:0.6;" x="775.646982" xlink:href="#m06500e3532" y="527.41"/>
      </g>
     </g>
    </g>
    <g id="xtick_46">
     <g id="line2d_91">
      <path clip-path="url(#p21fa28c991)" d="M 795.45788 527.41 
L 795.45788 38.17 
" style="fill:none;stroke:#999999;stroke-linecap:square;stroke-opacity:0.2;stroke-width:0.8;"/>
     </g>
     <g id="line2d_92">
      <g>
       <use style="stroke:#000000;stroke-width:0.6;" x="795.45788" xlink:href="#m06500e3532" y="527.41"/>
      </g>
     </g>
    </g>
    <g id="xtick_47">
     <g id="line2d_93">
      <path clip-path="url(#p21fa28c991)" d="M 815.268777 527.41 
L 815.268777 38.17 
" style="fill:none;stroke:#999999;stroke-linecap:square;stroke-opacity:0.2;stroke-width:0.8;"/>
     </g>
     <g id="line2d_94">
      <g>
       <use style="stroke:#000000;stroke-width:0.6;" x="815.268777" xlink:href="#m06500e3532" y="527.41"/>
      </g>
     </g>
    </g>
    <g id="xtick_48">
     <g id="line2d_95">
      <path clip-path="url(#p21fa28c991)" d="M 835.079674 527.41 
L 835.079674 38.17 
" style="fill:none;stroke:#999999;stroke-linecap:square;stroke-opacity:0.2;stroke-width:0.8;"/>
     </g>
     <g id="line2d_96">
      <g>
       <use style="stroke:#000000;stroke-width:0.6;" x="835.079674" xlink:href="#m06500e3532" y="527.41"/>
      </g>
     </g>
    </g>
    <g id="xtick_49">
     <g id="line2d_97">
      <path clip-path="url(#p21fa28c991)" d="M 854.890571 527.41 
L 854.890571 38.17 
" style="fill:none;stroke:#999999;stroke-linecap:square;stroke-opacity:0.2;stroke-width:0.8;"/>
     </g>
     <g id="line2d_98">
      <g>
       <use style="stroke:#000000;stroke-width:0.6;" x="854.890571" xlink:href="#m06500e3532" y="527.41"/>
      </g>
     </g>
    </g>
    <g id="xtick_50">
     <g id="line2d_99">
      <path clip-path="url(#p21fa28c991)" d="M 874.701468 527.41 
L 874.701468 38.17 
" style="fill:none;stroke:#999999;stroke-linecap:square;stroke-opacity:0.2;stroke-width:0.8;"/>
     </g>
     <g id="line2d_100">
      <g>
       <use style="stroke:#000000;stroke-width:0.6;" x="874.701468" xlink:href="#m06500e3532" y="527.41"/>
      </g>
     </g>
    </g>
    <g id="xtick_51">
     <g id="line2d_101">
      <path clip-path="url(#p21fa28c991)" d="M 894.512365 527.41 
L 894.512365 38.17 
" style="fill:none;stroke:#999999;stroke-linecap:square;stroke-opacity:0.2;stroke-width:0.8;"/>
     </g>
     <g id="line2d_102">
      <g>
       <use style="stroke:#000000;stroke-width:0.6;" x="894.512365" xlink:href="#m06500e3532" y="527.41"/>
      </g>
     </g>
    </g>
    <g id="xtick_52">
     <g id="line2d_103">
      <path clip-path="url(#p21fa28c991)" d="M 914.323262 527.41 
L 914.323262 38.17 
" style="fill:none;stroke:#999999;stroke-linecap:square;stroke-opacity:0.2;stroke-width:0.8;"/>
     </g>
     <g id="line2d_104">
      <g>
       <use style="stroke:#000000;stroke-width:0.6;" x="914.323262" xlink:href="#m06500e3532" y="527.41"/>
      </g>
     </g>
    </g>
    <g id="xtick_53">
     <g id="line2d_105">
      <path clip-path="url(#p21fa28c991)" d="M 934.134159 527.41 
L 934.134159 38.17 
" style="fill:none;stroke:#999999;stroke-linecap:square;stroke-opacity:0.2;stroke-width:0.8;"/>
     </g>
     <g id="line2d_106">
      <g>
       <use style="stroke:#000000;stroke-width:0.6;" x="934.134159" xlink:href="#m06500e3532" y="527.41"/>
      </g>
     </g>
    </g>
    <g id="xtick_54">
     <g id="line2d_107">
      <path clip-path="url(#p21fa28c991)" d="M 953.945056 527.41 
L 953.945056 38.17 
" style="fill:none;stroke:#999999;stroke-linecap:square;stroke-opacity:0.2;stroke-width:0.8;"/>
     </g>
     <g id="line2d_108">
      <g>
       <use style="stroke:#000000;stroke-width:0.6;" x="953.945056" xlink:href="#m06500e3532" y="527.41"/>
      </g>
     </g>
    </g>
    <g id="text_12">
     <!-- Time -->
     <defs>
      <path d="M 0.484375 72.90625 
L 67.671875 72.90625 
L 67.671875 58.6875 
L 43.5 58.6875 
L 43.5 0 
L 24.703125 0 
L 24.703125 58.6875 
L 0.484375 58.6875 
z
" id="DejaVuSans-Bold-84"/>
      <path d="M 8.40625 54.6875 
L 25.875 54.6875 
L 25.875 0 
L 8.40625 0 
z
M 8.40625 75.984375 
L 25.875 75.984375 
L 25.875 61.71875 
L 8.40625 61.71875 
z
" id="DejaVuSans-Bold-105"/>
      <path d="M 59.078125 45.609375 
Q 62.40625 50.6875 66.96875 53.34375 
Q 71.53125 56 77 56 
Q 86.421875 56 91.359375 50.1875 
Q 96.296875 44.390625 96.296875 33.296875 
L 96.296875 0 
L 78.71875 0 
L 78.71875 28.515625 
Q 78.765625 29.15625 78.78125 29.828125 
Q 78.8125 30.515625 78.8125 31.78125 
Q 78.8125 37.59375 77.09375 40.203125 
Q 75.390625 42.828125 71.578125 42.828125 
Q 66.609375 42.828125 63.890625 38.71875 
Q 61.1875 34.625 61.078125 26.859375 
L 61.078125 0 
L 43.5 0 
L 43.5 28.515625 
Q 43.5 37.59375 41.9375 40.203125 
Q 40.375 42.828125 36.375 42.828125 
Q 31.34375 42.828125 28.609375 38.703125 
Q 25.875 34.578125 25.875 26.90625 
L 25.875 0 
L 8.296875 0 
L 8.296875 54.6875 
L 25.875 54.6875 
L 25.875 46.6875 
Q 29.109375 51.3125 33.28125 53.65625 
Q 37.453125 56 42.484375 56 
Q 48.140625 56 52.484375 53.265625 
Q 56.84375 50.53125 59.078125 45.609375 
z
" id="DejaVuSans-Bold-109"/>
      <path d="M 62.984375 27.484375 
L 62.984375 22.515625 
L 22.125 22.515625 
Q 22.75 16.359375 26.5625 13.28125 
Q 30.375 10.203125 37.203125 10.203125 
Q 42.71875 10.203125 48.5 11.84375 
Q 54.296875 13.484375 60.40625 16.796875 
L 60.40625 3.328125 
Q 54.203125 0.984375 48 -0.21875 
Q 41.796875 -1.421875 35.59375 -1.421875 
Q 20.75 -1.421875 12.515625 6.125 
Q 4.296875 13.671875 4.296875 27.296875 
Q 4.296875 40.671875 12.375 48.328125 
Q 20.453125 56 34.625 56 
Q 47.515625 56 55.25 48.234375 
Q 62.984375 40.484375 62.984375 27.484375 
z
M 45.015625 33.296875 
Q 45.015625 38.28125 42.109375 41.328125 
Q 39.203125 44.390625 34.515625 44.390625 
Q 29.4375 44.390625 26.265625 41.53125 
Q 23.09375 38.671875 22.3125 33.296875 
z
" id="DejaVuSans-Bold-101"/>
     </defs>
     <g transform="translate(489.59375 623.375917)scale(0.24 -0.24)">
      <use xlink:href="#DejaVuSans-Bold-84"/>
      <use x="68.212891" xlink:href="#DejaVuSans-Bold-105"/>
      <use x="102.490234" xlink:href="#DejaVuSans-Bold-109"/>
      <use x="206.689453" xlink:href="#DejaVuSans-Bold-101"/>
     </g>
    </g>
   </g>
   <g id="matplotlib.axis_2">
    <g id="ytick_1">
     <g id="line2d_109">
      <path clip-path="url(#p21fa28c991)" d="M 76.1375 525.373936 
L 968.9375 525.373936 
" style="fill:none;stroke:#b0b0b0;stroke-linecap:square;stroke-width:0.8;"/>
     </g>
     <g id="line2d_110">
      <defs>
       <path d="M 0 0 
L -3.5 0 
" id="m16c60751f7" style="stroke:#000000;stroke-width:0.8;"/>
      </defs>
      <g>
       <use style="stroke:#000000;stroke-width:0.8;" x="76.1375" xlink:href="#m16c60751f7" y="525.373936"/>
      </g>
     </g>
     <g id="text_13">
      <!-- 10 k -->
      <defs>
       <path d="M 9.078125 75.984375 
L 18.109375 75.984375 
L 18.109375 31.109375 
L 44.921875 54.6875 
L 56.390625 54.6875 
L 27.390625 29.109375 
L 57.625 0 
L 45.90625 0 
L 18.109375 26.703125 
L 18.109375 0 
L 9.078125 0 
z
" id="DejaVuSans-107"/>
      </defs>
      <g transform="translate(34.4275 531.452686)scale(0.16 -0.16)">
       <use xlink:href="#DejaVuSans-49"/>
       <use x="63.623047" xlink:href="#DejaVuSans-48"/>
       <use x="127.246094" xlink:href="#DejaVuSans-32"/>
       <use x="159.033203" xlink:href="#DejaVuSans-107"/>
      </g>
     </g>
    </g>
    <g id="ytick_2">
     <g id="line2d_111">
      <path clip-path="url(#p21fa28c991)" d="M 76.1375 437.308905 
L 968.9375 437.308905 
" style="fill:none;stroke:#b0b0b0;stroke-linecap:square;stroke-width:0.8;"/>
     </g>
     <g id="line2d_112">
      <g>
       <use style="stroke:#000000;stroke-width:0.8;" x="76.1375" xlink:href="#m16c60751f7" y="437.308905"/>
      </g>
     </g>
     <g id="text_14">
      <!-- 20 k -->
      <g transform="translate(34.4275 443.387655)scale(0.16 -0.16)">
       <use xlink:href="#DejaVuSans-50"/>
       <use x="63.623047" xlink:href="#DejaVuSans-48"/>
       <use x="127.246094" xlink:href="#DejaVuSans-32"/>
       <use x="159.033203" xlink:href="#DejaVuSans-107"/>
      </g>
     </g>
    </g>
    <g id="ytick_3">
     <g id="line2d_113">
      <path clip-path="url(#p21fa28c991)" d="M 76.1375 349.243873 
L 968.9375 349.243873 
" style="fill:none;stroke:#b0b0b0;stroke-linecap:square;stroke-width:0.8;"/>
     </g>
     <g id="line2d_114">
      <g>
       <use style="stroke:#000000;stroke-width:0.8;" x="76.1375" xlink:href="#m16c60751f7" y="349.243873"/>
      </g>
     </g>
     <g id="text_15">
      <!-- 30 k -->
      <defs>
       <path d="M 40.578125 39.3125 
Q 47.65625 37.796875 51.625 33 
Q 55.609375 28.21875 55.609375 21.1875 
Q 55.609375 10.40625 48.1875 4.484375 
Q 40.765625 -1.421875 27.09375 -1.421875 
Q 22.515625 -1.421875 17.65625 -0.515625 
Q 12.796875 0.390625 7.625 2.203125 
L 7.625 11.71875 
Q 11.71875 9.328125 16.59375 8.109375 
Q 21.484375 6.890625 26.8125 6.890625 
Q 36.078125 6.890625 40.9375 10.546875 
Q 45.796875 14.203125 45.796875 21.1875 
Q 45.796875 27.640625 41.28125 31.265625 
Q 36.765625 34.90625 28.71875 34.90625 
L 20.21875 34.90625 
L 20.21875 43.015625 
L 29.109375 43.015625 
Q 36.375 43.015625 40.234375 45.921875 
Q 44.09375 48.828125 44.09375 54.296875 
Q 44.09375 59.90625 40.109375 62.90625 
Q 36.140625 65.921875 28.71875 65.921875 
Q 24.65625 65.921875 20.015625 65.03125 
Q 15.375 64.15625 9.8125 62.3125 
L 9.8125 71.09375 
Q 15.4375 72.65625 20.34375 73.4375 
Q 25.25 74.21875 29.59375 74.21875 
Q 40.828125 74.21875 47.359375 69.109375 
Q 53.90625 64.015625 53.90625 55.328125 
Q 53.90625 49.265625 50.4375 45.09375 
Q 46.96875 40.921875 40.578125 39.3125 
z
" id="DejaVuSans-51"/>
      </defs>
      <g transform="translate(34.4275 355.322623)scale(0.16 -0.16)">
       <use xlink:href="#DejaVuSans-51"/>
       <use x="63.623047" xlink:href="#DejaVuSans-48"/>
       <use x="127.246094" xlink:href="#DejaVuSans-32"/>
       <use x="159.033203" xlink:href="#DejaVuSans-107"/>
      </g>
     </g>
    </g>
    <g id="ytick_4">
     <g id="line2d_115">
      <path clip-path="url(#p21fa28c991)" d="M 76.1375 261.178841 
L 968.9375 261.178841 
" style="fill:none;stroke:#b0b0b0;stroke-linecap:square;stroke-width:0.8;"/>
     </g>
     <g id="line2d_116">
      <g>
       <use style="stroke:#000000;stroke-width:0.8;" x="76.1375" xlink:href="#m16c60751f7" y="261.178841"/>
      </g>
     </g>
     <g id="text_16">
      <!-- 40 k -->
      <defs>
       <path d="M 37.796875 64.3125 
L 12.890625 25.390625 
L 37.796875 25.390625 
z
M 35.203125 72.90625 
L 47.609375 72.90625 
L 47.609375 25.390625 
L 58.015625 25.390625 
L 58.015625 17.1875 
L 47.609375 17.1875 
L 47.609375 0 
L 37.796875 0 
L 37.796875 17.1875 
L 4.890625 17.1875 
L 4.890625 26.703125 
z
" id="DejaVuSans-52"/>
      </defs>
      <g transform="translate(34.4275 267.257591)scale(0.16 -0.16)">
       <use xlink:href="#DejaVuSans-52"/>
       <use x="63.623047" xlink:href="#DejaVuSans-48"/>
       <use x="127.246094" xlink:href="#DejaVuSans-32"/>
       <use x="159.033203" xlink:href="#DejaVuSans-107"/>
      </g>
     </g>
    </g>
    <g id="ytick_5">
     <g id="line2d_117">
      <path clip-path="url(#p21fa28c991)" d="M 76.1375 173.113809 
L 968.9375 173.113809 
" style="fill:none;stroke:#b0b0b0;stroke-linecap:square;stroke-width:0.8;"/>
     </g>
     <g id="line2d_118">
      <g>
       <use style="stroke:#000000;stroke-width:0.8;" x="76.1375" xlink:href="#m16c60751f7" y="173.113809"/>
      </g>
     </g>
     <g id="text_17">
      <!-- 50 k -->
      <defs>
       <path d="M 10.796875 72.90625 
L 49.515625 72.90625 
L 49.515625 64.59375 
L 19.828125 64.59375 
L 19.828125 46.734375 
Q 21.96875 47.46875 24.109375 47.828125 
Q 26.265625 48.1875 28.421875 48.1875 
Q 40.625 48.1875 47.75 41.5 
Q 54.890625 34.8125 54.890625 23.390625 
Q 54.890625 11.625 47.5625 5.09375 
Q 40.234375 -1.421875 26.90625 -1.421875 
Q 22.3125 -1.421875 17.546875 -0.640625 
Q 12.796875 0.140625 7.71875 1.703125 
L 7.71875 11.625 
Q 12.109375 9.234375 16.796875 8.0625 
Q 21.484375 6.890625 26.703125 6.890625 
Q 35.15625 6.890625 40.078125 11.328125 
Q 45.015625 15.765625 45.015625 23.390625 
Q 45.015625 31 40.078125 35.4375 
Q 35.15625 39.890625 26.703125 39.890625 
Q 22.75 39.890625 18.8125 39.015625 
Q 14.890625 38.140625 10.796875 36.28125 
z
" id="DejaVuSans-53"/>
      </defs>
      <g transform="translate(34.4275 179.192559)scale(0.16 -0.16)">
       <use xlink:href="#DejaVuSans-53"/>
       <use x="63.623047" xlink:href="#DejaVuSans-48"/>
       <use x="127.246094" xlink:href="#DejaVuSans-32"/>
       <use x="159.033203" xlink:href="#DejaVuSans-107"/>
      </g>
     </g>
    </g>
    <g id="ytick_6">
     <g id="line2d_119">
      <path clip-path="url(#p21fa28c991)" d="M 76.1375 85.048778 
L 968.9375 85.048778 
" style="fill:none;stroke:#b0b0b0;stroke-linecap:square;stroke-width:0.8;"/>
     </g>
     <g id="line2d_120">
      <g>
       <use style="stroke:#000000;stroke-width:0.8;" x="76.1375" xlink:href="#m16c60751f7" y="85.048778"/>
      </g>
     </g>
     <g id="text_18">
      <!-- 60 k -->
      <g transform="translate(34.4275 91.127528)scale(0.16 -0.16)">
       <use xlink:href="#DejaVuSans-54"/>
       <use x="63.623047" xlink:href="#DejaVuSans-48"/>
       <use x="127.246094" xlink:href="#DejaVuSans-32"/>
       <use x="159.033203" xlink:href="#DejaVuSans-107"/>
      </g>
     </g>
    </g>
    <g id="ytick_7">
     <g id="line2d_121">
      <path clip-path="url(#p21fa28c991)" d="M 76.1375 507.76093 
L 968.9375 507.76093 
" style="fill:none;stroke:#999999;stroke-linecap:square;stroke-opacity:0.2;stroke-width:0.8;"/>
     </g>
     <g id="line2d_122">
      <defs>
       <path d="M 0 0 
L -2 0 
" id="md7bb99c407" style="stroke:#000000;stroke-width:0.6;"/>
      </defs>
      <g>
       <use style="stroke:#000000;stroke-width:0.6;" x="76.1375" xlink:href="#md7bb99c407" y="507.76093"/>
      </g>
     </g>
    </g>
    <g id="ytick_8">
     <g id="line2d_123">
      <path clip-path="url(#p21fa28c991)" d="M 76.1375 490.147924 
L 968.9375 490.147924 
" style="fill:none;stroke:#999999;stroke-linecap:square;stroke-opacity:0.2;stroke-width:0.8;"/>
     </g>
     <g id="line2d_124">
      <g>
       <use style="stroke:#000000;stroke-width:0.6;" x="76.1375" xlink:href="#md7bb99c407" y="490.147924"/>
      </g>
     </g>
    </g>
    <g id="ytick_9">
     <g id="line2d_125">
      <path clip-path="url(#p21fa28c991)" d="M 76.1375 472.534917 
L 968.9375 472.534917 
" style="fill:none;stroke:#999999;stroke-linecap:square;stroke-opacity:0.2;stroke-width:0.8;"/>
     </g>
     <g id="line2d_126">
      <g>
       <use style="stroke:#000000;stroke-width:0.6;" x="76.1375" xlink:href="#md7bb99c407" y="472.534917"/>
      </g>
     </g>
    </g>
    <g id="ytick_10">
     <g id="line2d_127">
      <path clip-path="url(#p21fa28c991)" d="M 76.1375 454.921911 
L 968.9375 454.921911 
" style="fill:none;stroke:#999999;stroke-linecap:square;stroke-opacity:0.2;stroke-width:0.8;"/>
     </g>
     <g id="line2d_128">
      <g>
       <use style="stroke:#000000;stroke-width:0.6;" x="76.1375" xlink:href="#md7bb99c407" y="454.921911"/>
      </g>
     </g>
    </g>
    <g id="ytick_11">
     <g id="line2d_129">
      <path clip-path="url(#p21fa28c991)" d="M 76.1375 419.695898 
L 968.9375 419.695898 
" style="fill:none;stroke:#999999;stroke-linecap:square;stroke-opacity:0.2;stroke-width:0.8;"/>
     </g>
     <g id="line2d_130">
      <g>
       <use style="stroke:#000000;stroke-width:0.6;" x="76.1375" xlink:href="#md7bb99c407" y="419.695898"/>
      </g>
     </g>
    </g>
    <g id="ytick_12">
     <g id="line2d_131">
      <path clip-path="url(#p21fa28c991)" d="M 76.1375 402.082892 
L 968.9375 402.082892 
" style="fill:none;stroke:#999999;stroke-linecap:square;stroke-opacity:0.2;stroke-width:0.8;"/>
     </g>
     <g id="line2d_132">
      <g>
       <use style="stroke:#000000;stroke-width:0.6;" x="76.1375" xlink:href="#md7bb99c407" y="402.082892"/>
      </g>
     </g>
    </g>
    <g id="ytick_13">
     <g id="line2d_133">
      <path clip-path="url(#p21fa28c991)" d="M 76.1375 384.469886 
L 968.9375 384.469886 
" style="fill:none;stroke:#999999;stroke-linecap:square;stroke-opacity:0.2;stroke-width:0.8;"/>
     </g>
     <g id="line2d_134">
      <g>
       <use style="stroke:#000000;stroke-width:0.6;" x="76.1375" xlink:href="#md7bb99c407" y="384.469886"/>
      </g>
     </g>
    </g>
    <g id="ytick_14">
     <g id="line2d_135">
      <path clip-path="url(#p21fa28c991)" d="M 76.1375 366.856879 
L 968.9375 366.856879 
" style="fill:none;stroke:#999999;stroke-linecap:square;stroke-opacity:0.2;stroke-width:0.8;"/>
     </g>
     <g id="line2d_136">
      <g>
       <use style="stroke:#000000;stroke-width:0.6;" x="76.1375" xlink:href="#md7bb99c407" y="366.856879"/>
      </g>
     </g>
    </g>
    <g id="ytick_15">
     <g id="line2d_137">
      <path clip-path="url(#p21fa28c991)" d="M 76.1375 331.630867 
L 968.9375 331.630867 
" style="fill:none;stroke:#999999;stroke-linecap:square;stroke-opacity:0.2;stroke-width:0.8;"/>
     </g>
     <g id="line2d_138">
      <g>
       <use style="stroke:#000000;stroke-width:0.6;" x="76.1375" xlink:href="#md7bb99c407" y="331.630867"/>
      </g>
     </g>
    </g>
    <g id="ytick_16">
     <g id="line2d_139">
      <path clip-path="url(#p21fa28c991)" d="M 76.1375 314.01786 
L 968.9375 314.01786 
" style="fill:none;stroke:#999999;stroke-linecap:square;stroke-opacity:0.2;stroke-width:0.8;"/>
     </g>
     <g id="line2d_140">
      <g>
       <use style="stroke:#000000;stroke-width:0.6;" x="76.1375" xlink:href="#md7bb99c407" y="314.01786"/>
      </g>
     </g>
    </g>
    <g id="ytick_17">
     <g id="line2d_141">
      <path clip-path="url(#p21fa28c991)" d="M 76.1375 296.404854 
L 968.9375 296.404854 
" style="fill:none;stroke:#999999;stroke-linecap:square;stroke-opacity:0.2;stroke-width:0.8;"/>
     </g>
     <g id="line2d_142">
      <g>
       <use style="stroke:#000000;stroke-width:0.6;" x="76.1375" xlink:href="#md7bb99c407" y="296.404854"/>
      </g>
     </g>
    </g>
    <g id="ytick_18">
     <g id="line2d_143">
      <path clip-path="url(#p21fa28c991)" d="M 76.1375 278.791848 
L 968.9375 278.791848 
" style="fill:none;stroke:#999999;stroke-linecap:square;stroke-opacity:0.2;stroke-width:0.8;"/>
     </g>
     <g id="line2d_144">
      <g>
       <use style="stroke:#000000;stroke-width:0.6;" x="76.1375" xlink:href="#md7bb99c407" y="278.791848"/>
      </g>
     </g>
    </g>
    <g id="ytick_19">
     <g id="line2d_145">
      <path clip-path="url(#p21fa28c991)" d="M 76.1375 243.565835 
L 968.9375 243.565835 
" style="fill:none;stroke:#999999;stroke-linecap:square;stroke-opacity:0.2;stroke-width:0.8;"/>
     </g>
     <g id="line2d_146">
      <g>
       <use style="stroke:#000000;stroke-width:0.6;" x="76.1375" xlink:href="#md7bb99c407" y="243.565835"/>
      </g>
     </g>
    </g>
    <g id="ytick_20">
     <g id="line2d_147">
      <path clip-path="url(#p21fa28c991)" d="M 76.1375 225.952829 
L 968.9375 225.952829 
" style="fill:none;stroke:#999999;stroke-linecap:square;stroke-opacity:0.2;stroke-width:0.8;"/>
     </g>
     <g id="line2d_148">
      <g>
       <use style="stroke:#000000;stroke-width:0.6;" x="76.1375" xlink:href="#md7bb99c407" y="225.952829"/>
      </g>
     </g>
    </g>
    <g id="ytick_21">
     <g id="line2d_149">
      <path clip-path="url(#p21fa28c991)" d="M 76.1375 208.339822 
L 968.9375 208.339822 
" style="fill:none;stroke:#999999;stroke-linecap:square;stroke-opacity:0.2;stroke-width:0.8;"/>
     </g>
     <g id="line2d_150">
      <g>
       <use style="stroke:#000000;stroke-width:0.6;" x="76.1375" xlink:href="#md7bb99c407" y="208.339822"/>
      </g>
     </g>
    </g>
    <g id="ytick_22">
     <g id="line2d_151">
      <path clip-path="url(#p21fa28c991)" d="M 76.1375 190.726816 
L 968.9375 190.726816 
" style="fill:none;stroke:#999999;stroke-linecap:square;stroke-opacity:0.2;stroke-width:0.8;"/>
     </g>
     <g id="line2d_152">
      <g>
       <use style="stroke:#000000;stroke-width:0.6;" x="76.1375" xlink:href="#md7bb99c407" y="190.726816"/>
      </g>
     </g>
    </g>
    <g id="ytick_23">
     <g id="line2d_153">
      <path clip-path="url(#p21fa28c991)" d="M 76.1375 155.500803 
L 968.9375 155.500803 
" style="fill:none;stroke:#999999;stroke-linecap:square;stroke-opacity:0.2;stroke-width:0.8;"/>
     </g>
     <g id="line2d_154">
      <g>
       <use style="stroke:#000000;stroke-width:0.6;" x="76.1375" xlink:href="#md7bb99c407" y="155.500803"/>
      </g>
     </g>
    </g>
    <g id="ytick_24">
     <g id="line2d_155">
      <path clip-path="url(#p21fa28c991)" d="M 76.1375 137.887797 
L 968.9375 137.887797 
" style="fill:none;stroke:#999999;stroke-linecap:square;stroke-opacity:0.2;stroke-width:0.8;"/>
     </g>
     <g id="line2d_156">
      <g>
       <use style="stroke:#000000;stroke-width:0.6;" x="76.1375" xlink:href="#md7bb99c407" y="137.887797"/>
      </g>
     </g>
    </g>
    <g id="ytick_25">
     <g id="line2d_157">
      <path clip-path="url(#p21fa28c991)" d="M 76.1375 120.27479 
L 968.9375 120.27479 
" style="fill:none;stroke:#999999;stroke-linecap:square;stroke-opacity:0.2;stroke-width:0.8;"/>
     </g>
     <g id="line2d_158">
      <g>
       <use style="stroke:#000000;stroke-width:0.6;" x="76.1375" xlink:href="#md7bb99c407" y="120.27479"/>
      </g>
     </g>
    </g>
    <g id="ytick_26">
     <g id="line2d_159">
      <path clip-path="url(#p21fa28c991)" d="M 76.1375 102.661784 
L 968.9375 102.661784 
" style="fill:none;stroke:#999999;stroke-linecap:square;stroke-opacity:0.2;stroke-width:0.8;"/>
     </g>
     <g id="line2d_160">
      <g>
       <use style="stroke:#000000;stroke-width:0.6;" x="76.1375" xlink:href="#md7bb99c407" y="102.661784"/>
      </g>
     </g>
    </g>
    <g id="ytick_27">
     <g id="line2d_161">
      <path clip-path="url(#p21fa28c991)" d="M 76.1375 67.435771 
L 968.9375 67.435771 
" style="fill:none;stroke:#999999;stroke-linecap:square;stroke-opacity:0.2;stroke-width:0.8;"/>
     </g>
     <g id="line2d_162">
      <g>
       <use style="stroke:#000000;stroke-width:0.6;" x="76.1375" xlink:href="#md7bb99c407" y="67.435771"/>
      </g>
     </g>
    </g>
    <g id="ytick_28">
     <g id="line2d_163">
      <path clip-path="url(#p21fa28c991)" d="M 76.1375 49.822765 
L 968.9375 49.822765 
" style="fill:none;stroke:#999999;stroke-linecap:square;stroke-opacity:0.2;stroke-width:0.8;"/>
     </g>
     <g id="line2d_164">
      <g>
       <use style="stroke:#000000;stroke-width:0.6;" x="76.1375" xlink:href="#md7bb99c407" y="49.822765"/>
      </g>
     </g>
    </g>
    <g id="text_19">
     <!-- Experience [xp] -->
     <defs>
      <path d="M 9.1875 72.90625 
L 59.90625 72.90625 
L 59.90625 58.6875 
L 27.984375 58.6875 
L 27.984375 45.125 
L 58.015625 45.125 
L 58.015625 30.90625 
L 27.984375 30.90625 
L 27.984375 14.203125 
L 60.984375 14.203125 
L 60.984375 0 
L 9.1875 0 
z
" id="DejaVuSans-Bold-69"/>
      <path d="M 22.21875 27.984375 
L 2.484375 54.6875 
L 21 54.6875 
L 32.171875 38.484375 
L 43.5 54.6875 
L 62.015625 54.6875 
L 42.28125 28.078125 
L 62.984375 0 
L 44.484375 0 
L 32.171875 17.28125 
L 20.015625 0 
L 1.515625 0 
z
" id="DejaVuSans-Bold-120"/>
      <path d="M 25.875 7.90625 
L 25.875 -20.796875 
L 8.40625 -20.796875 
L 8.40625 54.6875 
L 25.875 54.6875 
L 25.875 46.6875 
Q 29.5 51.46875 33.890625 53.734375 
Q 38.28125 56 44 56 
Q 54.109375 56 60.59375 47.96875 
Q 67.09375 39.9375 67.09375 27.296875 
Q 67.09375 14.65625 60.59375 6.609375 
Q 54.109375 -1.421875 44 -1.421875 
Q 38.28125 -1.421875 33.890625 0.84375 
Q 29.5 3.125 25.875 7.90625 
z
M 37.5 43.3125 
Q 31.890625 43.3125 28.875 39.1875 
Q 25.875 35.0625 25.875 27.296875 
Q 25.875 19.53125 28.875 15.40625 
Q 31.890625 11.28125 37.5 11.28125 
Q 43.109375 11.28125 46.0625 15.375 
Q 49.03125 19.484375 49.03125 27.296875 
Q 49.03125 35.109375 46.0625 39.203125 
Q 43.109375 43.3125 37.5 43.3125 
z
" id="DejaVuSans-Bold-112"/>
      <path d="M 49.03125 39.796875 
Q 46.734375 40.875 44.453125 41.375 
Q 42.1875 41.890625 39.890625 41.890625 
Q 33.15625 41.890625 29.515625 37.5625 
Q 25.875 33.25 25.875 25.203125 
L 25.875 0 
L 8.40625 0 
L 8.40625 54.6875 
L 25.875 54.6875 
L 25.875 45.703125 
Q 29.25 51.078125 33.609375 53.53125 
Q 37.984375 56 44.09375 56 
Q 44.96875 56 45.984375 55.921875 
Q 47.015625 55.859375 48.96875 55.609375 
z
" id="DejaVuSans-Bold-114"/>
      <path d="M 63.375 33.296875 
L 63.375 0 
L 45.796875 0 
L 45.796875 5.421875 
L 45.796875 25.484375 
Q 45.796875 32.5625 45.484375 35.25 
Q 45.171875 37.9375 44.390625 39.203125 
Q 43.359375 40.921875 41.59375 41.875 
Q 39.84375 42.828125 37.59375 42.828125 
Q 32.125 42.828125 29 38.59375 
Q 25.875 34.375 25.875 26.90625 
L 25.875 0 
L 8.40625 0 
L 8.40625 54.6875 
L 25.875 54.6875 
L 25.875 46.6875 
Q 29.828125 51.46875 34.265625 53.734375 
Q 38.71875 56 44.09375 56 
Q 53.5625 56 58.46875 50.1875 
Q 63.375 44.390625 63.375 33.296875 
z
" id="DejaVuSans-Bold-110"/>
      <path d="M 52.59375 52.984375 
L 52.59375 38.71875 
Q 49.03125 41.15625 45.4375 42.328125 
Q 41.84375 43.5 37.984375 43.5 
Q 30.671875 43.5 26.59375 39.234375 
Q 22.515625 34.96875 22.515625 27.296875 
Q 22.515625 19.625 26.59375 15.34375 
Q 30.671875 11.078125 37.984375 11.078125 
Q 42.09375 11.078125 45.78125 12.296875 
Q 49.46875 13.53125 52.59375 15.921875 
L 52.59375 1.609375 
Q 48.484375 0.09375 44.265625 -0.65625 
Q 40.046875 -1.421875 35.796875 -1.421875 
Q 21 -1.421875 12.640625 6.171875 
Q 4.296875 13.765625 4.296875 27.296875 
Q 4.296875 40.828125 12.640625 48.40625 
Q 21 56 35.796875 56 
Q 40.09375 56 44.265625 55.25 
Q 48.4375 54.5 52.59375 52.984375 
z
" id="DejaVuSans-Bold-99"/>
      <path id="DejaVuSans-Bold-32"/>
      <path d="M 8.59375 75.984375 
L 38.921875 75.984375 
L 38.921875 64.984375 
L 25.203125 64.984375 
L 25.203125 -2.203125 
L 38.921875 -2.203125 
L 38.921875 -13.1875 
L 8.59375 -13.1875 
z
" id="DejaVuSans-Bold-91"/>
      <path d="M 37.109375 -13.1875 
L 6.78125 -13.1875 
L 6.78125 -2.203125 
L 20.515625 -2.203125 
L 20.515625 64.984375 
L 6.78125 64.984375 
L 6.78125 75.984375 
L 37.109375 75.984375 
z
" id="DejaVuSans-Bold-93"/>
     </defs>
     <g transform="translate(25.43625 388.898125)rotate(-90)scale(0.24 -0.24)">
      <use xlink:href="#DejaVuSans-Bold-69"/>
      <use x="68.310547" xlink:href="#DejaVuSans-Bold-120"/>
      <use x="132.8125" xlink:href="#DejaVuSans-Bold-112"/>
      <use x="204.394531" xlink:href="#DejaVuSans-Bold-101"/>
      <use x="272.216797" xlink:href="#DejaVuSans-Bold-114"/>
      <use x="321.533203" xlink:href="#DejaVuSans-Bold-105"/>
      <use x="355.810547" xlink:href="#DejaVuSans-Bold-101"/>
      <use x="423.632812" xlink:href="#DejaVuSans-Bold-110"/>
      <use x="494.824219" xlink:href="#DejaVuSans-Bold-99"/>
      <use x="554.101562" xlink:href="#DejaVuSans-Bold-101"/>
      <use x="621.923828" xlink:href="#DejaVuSans-Bold-32"/>
      <use x="656.738281" xlink:href="#DejaVuSans-Bold-91"/>
      <use x="702.441406" xlink:href="#DejaVuSans-Bold-120"/>
      <use x="766.943359" xlink:href="#DejaVuSans-Bold-112"/>
      <use x="838.525391" xlink:href="#DejaVuSans-Bold-93"/>
     </g>
    </g>
   </g>
   <g id="line2d_165">
    <path clip-path="url(#p21fa28c991)" d="M 116.719318 505.171818 
L 117.14999 503.815617 
L 117.580662 503.516196 
L 118.011333 502.441802 
L 118.442005 502.001477 
L 119.73402 499.958368 
L 120.164692 499.931949 
L 120.595363 499.694173 
L 121.887378 501.279344 
L 125.763423 501.173666 
L 126.624767 501.067988 
L 127.055438 500.504371 
L 127.48611 500.442726 
L 130.931483 499.333107 
L 133.946185 498.725458 
L 136.960887 498.408424 
L 137.391559 497.501354 
L 137.82223 497.430902 
L 140.40626 494.81537 
L 141.698275 493.899494 
L 142.99029 492.420002 
L 146.866336 489.65476 
L 147.727679 491.046187 
L 149.019694 492.111774 
L 149.450366 491.733094 
L 150.742381 492.921972 
L 164.093203 491.213511 
L 166.246561 490.790798 
L 271.761122 475.546742 
L 305.784184 475.414644 
L 306.214856 475.229707 
L 308.368214 475.088803 
L 311.382916 473.882312 
L 314.828289 473.10734 
L 320.427021 471.953688 
L 320.857693 471.751139 
L 323.441723 471.205135 
L 324.733738 471.14349 
L 325.595081 470.914521 
L 359.618143 464.283224 
L 366.347388 456.419017 
L 366.504404 454.789814 
L 366.755629 454.719361 
L 366.764602 451.874861 
L 368.953849 449.03036 
L 369.505647 449.021554 
L 369.51462 448.387486 
L 371.533393 448.343453 
L 371.542365 449.144845 
L 371.919203 449.136038 
L 371.928176 448.431518 
L 372.453057 447.313092 
L 372.740171 447.313092 
L 372.744657 448.924682 
L 410.733488 428.475982 
L 426.758063 426.08942 
L 438.785467 415.583261 
L 641.053111 380.823993 
L 648.571921 380.339636 
L 665.314282 380.198732 
L 665.753926 379.423759 
L 682.971821 339.565526 
L 685.910258 335.364824 
L 688.884584 330.080922 
L 688.651304 330.653345 
L 689.512647 325.343023 
L 833.617185 127.813157 
L 856.155669 120.908859 
L 857.900786 119.649529 
L 861.355132 118.531103 
L 863.925704 116.981158 
L 866.922461 115.941991 
L 868.663092 114.770726 
L 871.08562 113.379298 
L 875.876843 111.16006 
L 875.993483 110.235377 
L 878.057118 108.861562 
L 888.913633 99.315313 
L 891.712999 98.064789 
L 899.613133 91.873818 
L 903.821154 86.686787 
L 906.070516 82.95283 
L 906.357032 82.908797 
L 906.359126 82.309955 
L 906.566985 82.07218 
L 906.856193 81.984115 
L 906.958776 81.922469 
L 906.961468 81.631854 
L 907.226451 81.631854 
L 907.231834 81.217949 
L 907.407991 80.96256 
L 907.618841 80.865689 
L 907.620336 80.478203 
L 907.746547 80.43417 
L 908.173629 79.685617 
L 909.057404 79.676811 
L 909.06847 78.963484 
L 909.389679 78.505546 
L 909.983647 77.325474 
L 911.167695 76.612148 
L 911.729662 75.088623 
L 912.023057 74.718749 
L 912.473168 74.542619 
L 913.803764 74.392909 
L 913.865673 73.521065 
L 915.130472 71.64528 
L 915.505217 71.521989 
L 915.981348 70.121755 
L 916.258593 69.839947 
L 916.44103 69.012135 
L 916.880375 68.721521 
L 917.298785 66.563928 
L 917.740522 65.832988 
L 918.211868 64.776207 
L 918.495693 66.000311 
L 918.860568 65.762536 
L 921.159278 66.423023 
L 921.9303 65.128468 
L 924.209869 64.300656 
L 924.459898 63.983622 
L 924.462589 63.340747 
L 924.881896 63.014907 
L 925.482145 62.27516 
L 926.336908 61.931707 
L 926.592919 61.561834 
L 926.595909 61.359284 
L 927.858017 60.522666 
L 928.355682 60.408182 
L 928.355682 60.408182 
" style="fill:none;stroke:#000000;stroke-linecap:square;stroke-width:1.5;"/>
   </g>
   <g id="patch_3">
    <path d="M 76.1375 527.41 
L 76.1375 38.17 
" style="fill:none;stroke:#000000;stroke-linecap:square;stroke-linejoin:miter;stroke-width:0.8;"/>
   </g>
   <g id="patch_4">
    <path d="M 968.9375 527.41 
L 968.9375 38.17 
" style="fill:none;stroke:#000000;stroke-linecap:square;stroke-linejoin:miter;stroke-width:0.8;"/>
   </g>
   <g id="patch_5">
    <path d="M 76.1375 527.41 
L 968.9375 527.41 
" style="fill:none;stroke:#000000;stroke-linecap:square;stroke-linejoin:miter;stroke-width:0.8;"/>
   </g>
   <g id="patch_6">
    <path d="M 76.1375 38.17 
L 968.9375 38.17 
" style="fill:none;stroke:#000000;stroke-linecap:square;stroke-linejoin:miter;stroke-width:0.8;"/>
   </g>
   <g id="text_20">
    <!-- All Data -->
    <defs>
     <path d="M 53.421875 13.28125 
L 24.03125 13.28125 
L 19.390625 0 
L 0.484375 0 
L 27.484375 72.90625 
L 49.90625 72.90625 
L 76.90625 0 
L 58.015625 0 
z
M 28.71875 26.8125 
L 48.6875 26.8125 
L 38.71875 55.8125 
z
" id="DejaVuSans-Bold-65"/>
     <path d="M 8.40625 75.984375 
L 25.875 75.984375 
L 25.875 0 
L 8.40625 0 
z
" id="DejaVuSans-Bold-108"/>
     <path d="M 27.984375 58.6875 
L 27.984375 14.203125 
L 34.71875 14.203125 
Q 46.234375 14.203125 52.3125 19.921875 
Q 58.40625 25.640625 58.40625 36.53125 
Q 58.40625 47.359375 52.34375 53.015625 
Q 46.296875 58.6875 34.71875 58.6875 
z
M 9.1875 72.90625 
L 29 72.90625 
Q 45.609375 72.90625 53.734375 70.53125 
Q 61.859375 68.171875 67.671875 62.5 
Q 72.796875 57.5625 75.28125 51.109375 
Q 77.78125 44.671875 77.78125 36.53125 
Q 77.78125 28.265625 75.28125 21.796875 
Q 72.796875 15.328125 67.671875 10.40625 
Q 61.8125 4.734375 53.609375 2.359375 
Q 45.40625 0 29 0 
L 9.1875 0 
z
" id="DejaVuSans-Bold-68"/>
     <path d="M 32.90625 24.609375 
Q 27.4375 24.609375 24.671875 22.75 
Q 21.921875 20.90625 21.921875 17.28125 
Q 21.921875 13.96875 24.140625 12.078125 
Q 26.375 10.203125 30.328125 10.203125 
Q 35.25 10.203125 38.625 13.734375 
Q 42 17.28125 42 22.609375 
L 42 24.609375 
z
M 59.625 31.203125 
L 59.625 0 
L 42 0 
L 42 8.109375 
Q 38.484375 3.125 34.078125 0.84375 
Q 29.6875 -1.421875 23.390625 -1.421875 
Q 14.890625 -1.421875 9.59375 3.53125 
Q 4.296875 8.5 4.296875 16.40625 
Q 4.296875 26.03125 10.90625 30.515625 
Q 17.53125 35.015625 31.6875 35.015625 
L 42 35.015625 
L 42 36.375 
Q 42 40.53125 38.71875 42.453125 
Q 35.453125 44.390625 28.515625 44.390625 
Q 22.90625 44.390625 18.0625 43.265625 
Q 13.234375 42.140625 9.078125 39.890625 
L 9.078125 53.21875 
Q 14.703125 54.59375 20.359375 55.296875 
Q 26.03125 56 31.6875 56 
Q 46.484375 56 53.046875 50.171875 
Q 59.625 44.34375 59.625 31.203125 
z
" id="DejaVuSans-Bold-97"/>
     <path d="M 27.484375 70.21875 
L 27.484375 54.6875 
L 45.515625 54.6875 
L 45.515625 42.1875 
L 27.484375 42.1875 
L 27.484375 19 
Q 27.484375 15.1875 29 13.84375 
Q 30.515625 12.5 35.015625 12.5 
L 44 12.5 
L 44 0 
L 29 0 
Q 18.65625 0 14.328125 4.3125 
Q 10.015625 8.640625 10.015625 19 
L 10.015625 42.1875 
L 1.3125 42.1875 
L 1.3125 54.6875 
L 10.015625 54.6875 
L 10.015625 70.21875 
z
" id="DejaVuSans-Bold-116"/>
    </defs>
    <g transform="translate(451.09 31.515)scale(0.32 -0.32)">
     <use xlink:href="#DejaVuSans-Bold-65"/>
     <use x="77.392578" xlink:href="#DejaVuSans-Bold-108"/>
     <use x="111.669922" xlink:href="#DejaVuSans-Bold-108"/>
     <use x="145.947266" xlink:href="#DejaVuSans-Bold-32"/>
     <use x="180.761719" xlink:href="#DejaVuSans-Bold-68"/>
     <use x="263.769531" xlink:href="#DejaVuSans-Bold-97"/>
     <use x="331.25" xlink:href="#DejaVuSans-Bold-116"/>
     <use x="379.052734" xlink:href="#DejaVuSans-Bold-97"/>
    </g>
   </g>
  </g>
  <g id="axes_2">
   <g id="matplotlib.axis_3">
    <g id="ytick_29">
     <g id="line2d_166">
      <defs>
       <path d="M 0 0 
L 3.5 0 
" id="m2a4bc12f61" style="stroke:#000000;stroke-width:0.8;"/>
      </defs>
      <g>
       <use style="stroke:#000000;stroke-width:0.8;" x="968.9375" xlink:href="#m2a4bc12f61" y="511.415188"/>
      </g>
     </g>
     <g id="text_21">
      <!-- 200 k -->
      <g style="fill:#ff0000;" transform="translate(975.9375 517.493938)scale(0.16 -0.16)">
       <use xlink:href="#DejaVuSans-50"/>
       <use x="63.623047" xlink:href="#DejaVuSans-48"/>
       <use x="127.246094" xlink:href="#DejaVuSans-48"/>
       <use x="190.869141" xlink:href="#DejaVuSans-32"/>
       <use x="222.65625" xlink:href="#DejaVuSans-107"/>
      </g>
     </g>
    </g>
    <g id="ytick_30">
     <g id="line2d_167">
      <g>
       <use style="stroke:#000000;stroke-width:0.8;" x="968.9375" xlink:href="#m2a4bc12f61" y="416.111111"/>
      </g>
     </g>
     <g id="text_22">
      <!-- 400 k -->
      <g style="fill:#ff0000;" transform="translate(975.9375 422.189861)scale(0.16 -0.16)">
       <use xlink:href="#DejaVuSans-52"/>
       <use x="63.623047" xlink:href="#DejaVuSans-48"/>
       <use x="127.246094" xlink:href="#DejaVuSans-48"/>
       <use x="190.869141" xlink:href="#DejaVuSans-32"/>
       <use x="222.65625" xlink:href="#DejaVuSans-107"/>
      </g>
     </g>
    </g>
    <g id="ytick_31">
     <g id="line2d_168">
      <g>
       <use style="stroke:#000000;stroke-width:0.8;" x="968.9375" xlink:href="#m2a4bc12f61" y="320.807035"/>
      </g>
     </g>
     <g id="text_23">
      <!-- 600 k -->
      <g style="fill:#ff0000;" transform="translate(975.9375 326.885785)scale(0.16 -0.16)">
       <use xlink:href="#DejaVuSans-54"/>
       <use x="63.623047" xlink:href="#DejaVuSans-48"/>
       <use x="127.246094" xlink:href="#DejaVuSans-48"/>
       <use x="190.869141" xlink:href="#DejaVuSans-32"/>
       <use x="222.65625" xlink:href="#DejaVuSans-107"/>
      </g>
     </g>
    </g>
    <g id="ytick_32">
     <g id="line2d_169">
      <g>
       <use style="stroke:#000000;stroke-width:0.8;" x="968.9375" xlink:href="#m2a4bc12f61" y="225.502958"/>
      </g>
     </g>
     <g id="text_24">
      <!-- 800 k -->
      <g style="fill:#ff0000;" transform="translate(975.9375 231.581708)scale(0.16 -0.16)">
       <use xlink:href="#DejaVuSans-56"/>
       <use x="63.623047" xlink:href="#DejaVuSans-48"/>
       <use x="127.246094" xlink:href="#DejaVuSans-48"/>
       <use x="190.869141" xlink:href="#DejaVuSans-32"/>
       <use x="222.65625" xlink:href="#DejaVuSans-107"/>
      </g>
     </g>
    </g>
    <g id="ytick_33">
     <g id="line2d_170">
      <g>
       <use style="stroke:#000000;stroke-width:0.8;" x="968.9375" xlink:href="#m2a4bc12f61" y="130.198881"/>
      </g>
     </g>
     <g id="text_25">
      <!-- 1 M -->
      <g style="fill:#ff0000;" transform="translate(975.9375 136.277631)scale(0.16 -0.16)">
       <use xlink:href="#DejaVuSans-49"/>
       <use x="63.623047" xlink:href="#DejaVuSans-32"/>
       <use x="95.410156" xlink:href="#DejaVuSans-77"/>
      </g>
     </g>
    </g>
    <g id="text_26">
     <!-- Total Assets [gm] -->
     <defs>
      <path d="M 34.421875 43.5 
Q 28.609375 43.5 25.5625 39.328125 
Q 22.515625 35.15625 22.515625 27.296875 
Q 22.515625 19.4375 25.5625 15.25 
Q 28.609375 11.078125 34.421875 11.078125 
Q 40.140625 11.078125 43.15625 15.25 
Q 46.1875 19.4375 46.1875 27.296875 
Q 46.1875 35.15625 43.15625 39.328125 
Q 40.140625 43.5 34.421875 43.5 
z
M 34.421875 56 
Q 48.53125 56 56.46875 48.375 
Q 64.40625 40.765625 64.40625 27.296875 
Q 64.40625 13.8125 56.46875 6.1875 
Q 48.53125 -1.421875 34.421875 -1.421875 
Q 20.265625 -1.421875 12.28125 6.1875 
Q 4.296875 13.8125 4.296875 27.296875 
Q 4.296875 40.765625 12.28125 48.375 
Q 20.265625 56 34.421875 56 
z
" id="DejaVuSans-Bold-111"/>
      <path d="M 51.125 52.984375 
L 51.125 39.703125 
Q 45.515625 42.046875 40.28125 43.21875 
Q 35.0625 44.390625 30.421875 44.390625 
Q 25.4375 44.390625 23.015625 43.140625 
Q 20.609375 41.890625 20.609375 39.3125 
Q 20.609375 37.203125 22.4375 36.078125 
Q 24.265625 34.96875 29 34.421875 
L 32.078125 33.984375 
Q 45.515625 32.28125 50.140625 28.375 
Q 54.78125 24.46875 54.78125 16.109375 
Q 54.78125 7.375 48.328125 2.96875 
Q 41.890625 -1.421875 29.109375 -1.421875 
Q 23.6875 -1.421875 17.890625 -0.5625 
Q 12.109375 0.296875 6 2 
L 6 15.28125 
Q 11.234375 12.75 16.71875 11.46875 
Q 22.21875 10.203125 27.875 10.203125 
Q 33.015625 10.203125 35.59375 11.609375 
Q 38.1875 13.03125 38.1875 15.828125 
Q 38.1875 18.171875 36.40625 19.3125 
Q 34.625 20.453125 29.296875 21.09375 
L 26.21875 21.484375 
Q 14.546875 22.953125 9.859375 26.90625 
Q 5.171875 30.859375 5.171875 38.921875 
Q 5.171875 47.609375 11.125 51.796875 
Q 17.09375 56 29.390625 56 
Q 34.234375 56 39.546875 55.265625 
Q 44.875 54.546875 51.125 52.984375 
z
" id="DejaVuSans-Bold-115"/>
      <path d="M 45.609375 9.28125 
Q 42 4.5 37.640625 2.25 
Q 33.296875 0 27.59375 0 
Q 17.578125 0 11.03125 7.875 
Q 4.5 15.765625 4.5 27.984375 
Q 4.5 40.234375 11.03125 48.0625 
Q 17.578125 55.90625 27.59375 55.90625 
Q 33.296875 55.90625 37.640625 53.65625 
Q 42 51.421875 45.609375 46.578125 
L 45.609375 54.6875 
L 63.1875 54.6875 
L 63.1875 5.515625 
Q 63.1875 -7.671875 54.859375 -14.625 
Q 46.53125 -21.578125 30.71875 -21.578125 
Q 25.59375 -21.578125 20.796875 -20.796875 
Q 16.015625 -20.015625 11.1875 -18.40625 
L 11.1875 -4.78125 
Q 15.765625 -7.421875 20.15625 -8.71875 
Q 24.5625 -10.015625 29 -10.015625 
Q 37.59375 -10.015625 41.59375 -6.25 
Q 45.609375 -2.484375 45.609375 5.515625 
z
M 34.078125 43.3125 
Q 28.65625 43.3125 25.625 39.296875 
Q 22.609375 35.296875 22.609375 27.984375 
Q 22.609375 20.453125 25.53125 16.578125 
Q 28.46875 12.703125 34.078125 12.703125 
Q 39.546875 12.703125 42.578125 16.703125 
Q 45.609375 20.703125 45.609375 27.984375 
Q 45.609375 35.296875 42.578125 39.296875 
Q 39.546875 43.3125 34.078125 43.3125 
z
" id="DejaVuSans-Bold-103"/>
     </defs>
     <g style="fill:#ff0000;" transform="translate(1043.06375 402.14875)rotate(-90)scale(0.24 -0.24)">
      <use xlink:href="#DejaVuSans-Bold-84"/>
      <use x="68.009766" xlink:href="#DejaVuSans-Bold-111"/>
      <use x="136.710938" xlink:href="#DejaVuSans-Bold-116"/>
      <use x="184.513672" xlink:href="#DejaVuSans-Bold-97"/>
      <use x="251.994141" xlink:href="#DejaVuSans-Bold-108"/>
      <use x="286.271484" xlink:href="#DejaVuSans-Bold-32"/>
      <use x="321.085938" xlink:href="#DejaVuSans-Bold-65"/>
      <use x="398.478516" xlink:href="#DejaVuSans-Bold-115"/>
      <use x="458" xlink:href="#DejaVuSans-Bold-115"/>
      <use x="517.521484" xlink:href="#DejaVuSans-Bold-101"/>
      <use x="585.34375" xlink:href="#DejaVuSans-Bold-116"/>
      <use x="633.146484" xlink:href="#DejaVuSans-Bold-115"/>
      <use x="692.667969" xlink:href="#DejaVuSans-Bold-32"/>
      <use x="727.482422" xlink:href="#DejaVuSans-Bold-91"/>
      <use x="773.185547" xlink:href="#DejaVuSans-Bold-103"/>
      <use x="844.767578" xlink:href="#DejaVuSans-Bold-109"/>
      <use x="948.966797" xlink:href="#DejaVuSans-Bold-93"/>
     </g>
    </g>
   </g>
   <g id="line2d_171">
    <path clip-path="url(#p21fa28c991)" d="M 116.719318 261.530758 
L 117.14999 267.917084 
L 117.580662 249.508625 
L 118.011333 284.932674 
L 118.442005 284.604351 
L 118.872677 289.918983 
L 119.303348 281.151961 
L 119.73402 295.948872 
L 120.164692 294.32775 
L 120.595363 291.026893 
L 121.887378 300.456755 
L 122.31805 301.971613 
L 125.763423 278.945672 
L 126.624767 279.282572 
L 127.055438 264.418948 
L 127.48611 264.418948 
L 130.500812 268.140096 
L 130.931483 269.348075 
L 133.946185 255.03102 
L 136.960887 260.552938 
L 137.391559 240.684421 
L 137.82223 233.773445 
L 138.683574 249.011614 
L 140.40626 225.536791 
L 141.698275 233.653839 
L 142.99029 226.57084 
L 146.866336 230.139978 
L 147.727679 260.034484 
L 149.019694 220.71774 
L 149.450366 228.752827 
L 150.742381 221.656009 
L 164.093203 184.842903 
L 166.246561 197.696087 
L 271.761122 281.387362 
L 285.542615 239.8081 
L 285.973287 230.75183 
L 294.58672 230.835697 
L 295.878735 218.821665 
L 296.309407 211.96549 
L 298.462765 202.336443 
L 304.061497 194.931792 
L 305.784184 194.661605 
L 306.214856 198.101606 
L 307.076199 199.04321 
L 308.368214 216.013054 
L 308.798886 217.967264 
L 309.660229 206.102383 
L 311.382916 177.215718 
L 312.244259 172.024028 
L 314.828289 155.438259 
L 320.427021 155.823764 
L 320.857693 175.788062 
L 323.441723 178.530914 
L 324.733738 145.438003 
L 325.595081 156.533303 
L 359.618143 60.408182 
L 366.347388 102.442521 
L 366.499918 102.672204 
L 366.504404 103.328373 
L 366.755629 110.790682 
L 366.764602 127.039551 
L 368.940391 130.065455 
L 368.953849 131.266286 
L 369.510133 117.053589 
L 369.51462 120.20196 
L 371.542365 132.276986 
L 371.919203 138.766717 
L 371.928176 143.887405 
L 372.453057 125.8249 
L 372.740171 136.43558 
L 372.744657 135.909978 
L 410.733488 122.828063 
L 426.758063 152.692549 
L 438.785467 177.532127 
L 641.053111 238.83028 
L 648.571921 230.820925 
L 665.314282 201.884225 
L 665.753926 210.392496 
L 682.971821 368.920821 
L 685.905772 430.168463 
L 685.910258 439.254753 
L 688.884584 473.162514 
L 688.651304 397.051726 
L 689.512647 438.153038 
L 833.617185 428.538286 
L 856.155669 478.774018 
L 857.900786 472.455835 
L 860.022742 462.866815 
L 861.355132 459.943839 
L 863.925704 485.741223 
L 866.922461 485.486285 
L 868.663092 499.313953 
L 871.08562 490.568851 
L 875.876843 475.531774 
L 875.993483 471.579514 
L 878.057118 477.645618 
L 888.240709 489.916495 
L 888.913633 485.318073 
L 891.712999 469.089695 
L 899.613133 467.358973 
L 903.821154 480.016784 
L 905.602161 491.470428 
L 905.641938 491.144011 
L 906.070516 490.232904 
L 906.359126 490.370619 
L 906.566985 488.306332 
L 906.82808 487.609659 
L 906.910924 485.949939 
L 906.958776 485.728357 
L 906.961468 487.159348 
L 907.226451 486.995425 
L 907.231834 485.694047 
L 907.407991 482.228791 
L 907.618841 482.556637 
L 907.746547 461.45965 
L 908.112319 461.398656 
L 908.173629 460.866382 
L 909.057404 458.981268 
L 909.06847 456.723991 
L 909.983647 450.27667 
L 911.167695 444.363052 
L 911.729662 442.228717 
L 912.023057 439.565445 
L 912.404081 437.770869 
L 912.473168 438.259779 
L 913.865673 424.169548 
L 914.614265 420.386452 
L 915.130472 417.729375 
L 915.505217 416.740118 
L 915.981348 413.429731 
L 916.258593 414.671067 
L 916.44103 412.081178 
L 916.880375 410.79362 
L 917.298785 410.344262 
L 917.740522 408.03552 
L 918.211868 416.07156 
L 918.495693 414.402309 
L 918.860568 411.569872 
L 921.159278 435.389697 
L 921.513984 446.649873 
L 921.9303 440.870634 
L 924.205383 423.483358 
L 924.209869 467.106417 
L 924.459898 463.910871 
L 924.462589 492.271935 
L 924.881896 501.460677 
L 925.482145 496.577297 
L 926.336908 475.981609 
L 926.595909 472.120841 
L 927.858017 505.171818 
L 928.355682 500.522885 
L 928.355682 500.522885 
" style="fill:none;stroke:#ff0000;stroke-linecap:square;stroke-width:1.5;"/>
   </g>
   <g id="patch_7">
    <path d="M 76.1375 527.41 
L 76.1375 38.17 
" style="fill:none;stroke:#000000;stroke-linecap:square;stroke-linejoin:miter;stroke-width:0.8;"/>
   </g>
   <g id="patch_8">
    <path d="M 968.9375 527.41 
L 968.9375 38.17 
" style="fill:none;stroke:#000000;stroke-linecap:square;stroke-linejoin:miter;stroke-width:0.8;"/>
   </g>
   <g id="patch_9">
    <path d="M 76.1375 527.41 
L 968.9375 527.41 
" style="fill:none;stroke:#000000;stroke-linecap:square;stroke-linejoin:miter;stroke-width:0.8;"/>
   </g>
   <g id="patch_10">
    <path d="M 76.1375 38.17 
L 968.9375 38.17 
" style="fill:none;stroke:#000000;stroke-linecap:square;stroke-linejoin:miter;stroke-width:0.8;"/>
   </g>
  </g>
 </g>
 <defs>
  <clipPath id="p21fa28c991">
   <rect height="489.24" width="892.8" x="76.1375" y="38.17"/>
  </clipPath>
 </defs>
</svg>
