<?xml version="1.0" encoding="utf-8" standalone="no"?>
<!DOCTYPE svg PUBLIC "-//W3C//DTD SVG 1.1//EN"
  "http://www.w3.org/Graphics/SVG/1.1/DTD/svg11.dtd">
<!-- Created with matplotlib (https://matplotlib.org/) -->
<svg height="631.74879pt" version="1.1" viewBox="0 0 1055.4425 631.74879" width="1055.4425pt" xmlns="http://www.w3.org/2000/svg" xmlns:xlink="http://www.w3.org/1999/xlink">
 <defs>
  <style type="text/css">
*{stroke-linecap:butt;stroke-linejoin:round;}
  </style>
 </defs>
 <g id="figure_1">
  <g id="patch_1">
   <path d="M 0 631.74879 
L 1055.4425 631.74879 
L 1055.4425 0 
L 0 0 
z
" style="fill:#ffffff;opacity:0.7;"/>
  </g>
  <g id="axes_1">
   <g id="patch_2">
    <path d="M 76.1375 527.41 
L 968.9375 527.41 
L 968.9375 38.17 
L 76.1375 38.17 
z
" style="fill:#ffffff;"/>
   </g>
   <g id="matplotlib.axis_1">
    <g id="xtick_1">
     <g id="line2d_1">
      <path clip-path="url(#p98171acd82)" d="M 109.045057 527.41 
L 109.045057 38.17 
" style="fill:none;stroke:#b0b0b0;stroke-linecap:square;stroke-width:0.8;"/>
     </g>
     <g id="line2d_2">
      <defs>
       <path d="M 0 0 
L 0 3.5 
" id="md06675f844" style="stroke:#000000;stroke-width:0.8;"/>
      </defs>
      <g>
       <use style="stroke:#000000;stroke-width:0.8;" x="109.045057" xlink:href="#md06675f844" y="527.41"/>
      </g>
     </g>
     <g id="text_1">
      <!-- Apr 2016 -->
      <defs>
       <path d="M 34.1875 63.1875 
L 20.796875 26.90625 
L 47.609375 26.90625 
z
M 28.609375 72.90625 
L 39.796875 72.90625 
L 67.578125 0 
L 57.328125 0 
L 50.6875 18.703125 
L 17.828125 18.703125 
L 11.1875 0 
L 0.78125 0 
z
" id="DejaVuSans-65"/>
       <path d="M 18.109375 8.203125 
L 18.109375 -20.796875 
L 9.078125 -20.796875 
L 9.078125 54.6875 
L 18.109375 54.6875 
L 18.109375 46.390625 
Q 20.953125 51.265625 25.265625 53.625 
Q 29.59375 56 35.59375 56 
Q 45.5625 56 51.78125 48.09375 
Q 58.015625 40.1875 58.015625 27.296875 
Q 58.015625 14.40625 51.78125 6.484375 
Q 45.5625 -1.421875 35.59375 -1.421875 
Q 29.59375 -1.421875 25.265625 0.953125 
Q 20.953125 3.328125 18.109375 8.203125 
z
M 48.6875 27.296875 
Q 48.6875 37.203125 44.609375 42.84375 
Q 40.53125 48.484375 33.40625 48.484375 
Q 26.265625 48.484375 22.1875 42.84375 
Q 18.109375 37.203125 18.109375 27.296875 
Q 18.109375 17.390625 22.1875 11.75 
Q 26.265625 6.109375 33.40625 6.109375 
Q 40.53125 6.109375 44.609375 11.75 
Q 48.6875 17.390625 48.6875 27.296875 
z
" id="DejaVuSans-112"/>
       <path d="M 41.109375 46.296875 
Q 39.59375 47.171875 37.8125 47.578125 
Q 36.03125 48 33.890625 48 
Q 26.265625 48 22.1875 43.046875 
Q 18.109375 38.09375 18.109375 28.8125 
L 18.109375 0 
L 9.078125 0 
L 9.078125 54.6875 
L 18.109375 54.6875 
L 18.109375 46.1875 
Q 20.953125 51.171875 25.484375 53.578125 
Q 30.03125 56 36.53125 56 
Q 37.453125 56 38.578125 55.875 
Q 39.703125 55.765625 41.0625 55.515625 
z
" id="DejaVuSans-114"/>
       <path id="DejaVuSans-32"/>
       <path d="M 19.1875 8.296875 
L 53.609375 8.296875 
L 53.609375 0 
L 7.328125 0 
L 7.328125 8.296875 
Q 12.9375 14.109375 22.625 23.890625 
Q 32.328125 33.6875 34.8125 36.53125 
Q 39.546875 41.84375 41.421875 45.53125 
Q 43.3125 49.21875 43.3125 52.78125 
Q 43.3125 58.59375 39.234375 62.25 
Q 35.15625 65.921875 28.609375 65.921875 
Q 23.96875 65.921875 18.8125 64.3125 
Q 13.671875 62.703125 7.8125 59.421875 
L 7.8125 69.390625 
Q 13.765625 71.78125 18.9375 73 
Q 24.125 74.21875 28.421875 74.21875 
Q 39.75 74.21875 46.484375 68.546875 
Q 53.21875 62.890625 53.21875 53.421875 
Q 53.21875 48.921875 51.53125 44.890625 
Q 49.859375 40.875 45.40625 35.40625 
Q 44.1875 33.984375 37.640625 27.21875 
Q 31.109375 20.453125 19.1875 8.296875 
z
" id="DejaVuSans-50"/>
       <path d="M 31.78125 66.40625 
Q 24.171875 66.40625 20.328125 58.90625 
Q 16.5 51.421875 16.5 36.375 
Q 16.5 21.390625 20.328125 13.890625 
Q 24.171875 6.390625 31.78125 6.390625 
Q 39.453125 6.390625 43.28125 13.890625 
Q 47.125 21.390625 47.125 36.375 
Q 47.125 51.421875 43.28125 58.90625 
Q 39.453125 66.40625 31.78125 66.40625 
z
M 31.78125 74.21875 
Q 44.046875 74.21875 50.515625 64.515625 
Q 56.984375 54.828125 56.984375 36.375 
Q 56.984375 17.96875 50.515625 8.265625 
Q 44.046875 -1.421875 31.78125 -1.421875 
Q 19.53125 -1.421875 13.0625 8.265625 
Q 6.59375 17.96875 6.59375 36.375 
Q 6.59375 54.828125 13.0625 64.515625 
Q 19.53125 74.21875 31.78125 74.21875 
z
" id="DejaVuSans-48"/>
       <path d="M 12.40625 8.296875 
L 28.515625 8.296875 
L 28.515625 63.921875 
L 10.984375 60.40625 
L 10.984375 69.390625 
L 28.421875 72.90625 
L 38.28125 72.90625 
L 38.28125 8.296875 
L 54.390625 8.296875 
L 54.390625 0 
L 12.40625 0 
z
" id="DejaVuSans-49"/>
       <path d="M 33.015625 40.375 
Q 26.375 40.375 22.484375 35.828125 
Q 18.609375 31.296875 18.609375 23.390625 
Q 18.609375 15.53125 22.484375 10.953125 
Q 26.375 6.390625 33.015625 6.390625 
Q 39.65625 6.390625 43.53125 10.953125 
Q 47.40625 15.53125 47.40625 23.390625 
Q 47.40625 31.296875 43.53125 35.828125 
Q 39.65625 40.375 33.015625 40.375 
z
M 52.59375 71.296875 
L 52.59375 62.3125 
Q 48.875 64.0625 45.09375 64.984375 
Q 41.3125 65.921875 37.59375 65.921875 
Q 27.828125 65.921875 22.671875 59.328125 
Q 17.53125 52.734375 16.796875 39.40625 
Q 19.671875 43.65625 24.015625 45.921875 
Q 28.375 48.1875 33.59375 48.1875 
Q 44.578125 48.1875 50.953125 41.515625 
Q 57.328125 34.859375 57.328125 23.390625 
Q 57.328125 12.15625 50.6875 5.359375 
Q 44.046875 -1.421875 33.015625 -1.421875 
Q 20.359375 -1.421875 13.671875 8.265625 
Q 6.984375 17.96875 6.984375 36.375 
Q 6.984375 53.65625 15.1875 63.9375 
Q 23.390625 74.21875 37.203125 74.21875 
Q 40.921875 74.21875 44.703125 73.484375 
Q 48.484375 72.75 52.59375 71.296875 
z
" id="DejaVuSans-54"/>
      </defs>
      <g transform="translate(86.186062 594.968393)rotate(-45)scale(0.16 -0.16)">
       <use xlink:href="#DejaVuSans-65"/>
       <use x="68.408203" xlink:href="#DejaVuSans-112"/>
       <use x="131.884766" xlink:href="#DejaVuSans-114"/>
       <use x="172.998047" xlink:href="#DejaVuSans-32"/>
       <use x="204.785156" xlink:href="#DejaVuSans-50"/>
       <use x="268.408203" xlink:href="#DejaVuSans-48"/>
       <use x="332.03125" xlink:href="#DejaVuSans-49"/>
       <use x="395.654297" xlink:href="#DejaVuSans-54"/>
      </g>
     </g>
    </g>
    <g id="xtick_2">
     <g id="line2d_3">
      <path clip-path="url(#p98171acd82)" d="M 187.066716 527.41 
L 187.066716 38.17 
" style="fill:none;stroke:#b0b0b0;stroke-linecap:square;stroke-width:0.8;"/>
     </g>
     <g id="line2d_4">
      <g>
       <use style="stroke:#000000;stroke-width:0.8;" x="187.066716" xlink:href="#md06675f844" y="527.41"/>
      </g>
     </g>
     <g id="text_2">
      <!-- Oct 2016 -->
      <defs>
       <path d="M 39.40625 66.21875 
Q 28.65625 66.21875 22.328125 58.203125 
Q 16.015625 50.203125 16.015625 36.375 
Q 16.015625 22.609375 22.328125 14.59375 
Q 28.65625 6.59375 39.40625 6.59375 
Q 50.140625 6.59375 56.421875 14.59375 
Q 62.703125 22.609375 62.703125 36.375 
Q 62.703125 50.203125 56.421875 58.203125 
Q 50.140625 66.21875 39.40625 66.21875 
z
M 39.40625 74.21875 
Q 54.734375 74.21875 63.90625 63.9375 
Q 73.09375 53.65625 73.09375 36.375 
Q 73.09375 19.140625 63.90625 8.859375 
Q 54.734375 -1.421875 39.40625 -1.421875 
Q 24.03125 -1.421875 14.8125 8.828125 
Q 5.609375 19.09375 5.609375 36.375 
Q 5.609375 53.65625 14.8125 63.9375 
Q 24.03125 74.21875 39.40625 74.21875 
z
" id="DejaVuSans-79"/>
       <path d="M 48.78125 52.59375 
L 48.78125 44.1875 
Q 44.96875 46.296875 41.140625 47.34375 
Q 37.3125 48.390625 33.40625 48.390625 
Q 24.65625 48.390625 19.8125 42.84375 
Q 14.984375 37.3125 14.984375 27.296875 
Q 14.984375 17.28125 19.8125 11.734375 
Q 24.65625 6.203125 33.40625 6.203125 
Q 37.3125 6.203125 41.140625 7.25 
Q 44.96875 8.296875 48.78125 10.40625 
L 48.78125 2.09375 
Q 45.015625 0.34375 40.984375 -0.53125 
Q 36.96875 -1.421875 32.421875 -1.421875 
Q 20.0625 -1.421875 12.78125 6.34375 
Q 5.515625 14.109375 5.515625 27.296875 
Q 5.515625 40.671875 12.859375 48.328125 
Q 20.21875 56 33.015625 56 
Q 37.15625 56 41.109375 55.140625 
Q 45.0625 54.296875 48.78125 52.59375 
z
" id="DejaVuSans-99"/>
       <path d="M 18.3125 70.21875 
L 18.3125 54.6875 
L 36.8125 54.6875 
L 36.8125 47.703125 
L 18.3125 47.703125 
L 18.3125 18.015625 
Q 18.3125 11.328125 20.140625 9.421875 
Q 21.96875 7.515625 27.59375 7.515625 
L 36.8125 7.515625 
L 36.8125 0 
L 27.59375 0 
Q 17.1875 0 13.234375 3.875 
Q 9.28125 7.765625 9.28125 18.015625 
L 9.28125 47.703125 
L 2.6875 47.703125 
L 2.6875 54.6875 
L 9.28125 54.6875 
L 9.28125 70.21875 
z
" id="DejaVuSans-116"/>
      </defs>
      <g transform="translate(164.213025 594.957786)rotate(-45)scale(0.16 -0.16)">
       <use xlink:href="#DejaVuSans-79"/>
       <use x="78.710938" xlink:href="#DejaVuSans-99"/>
       <use x="133.691406" xlink:href="#DejaVuSans-116"/>
       <use x="172.900391" xlink:href="#DejaVuSans-32"/>
       <use x="204.6875" xlink:href="#DejaVuSans-50"/>
       <use x="268.310547" xlink:href="#DejaVuSans-48"/>
       <use x="331.933594" xlink:href="#DejaVuSans-49"/>
       <use x="395.556641" xlink:href="#DejaVuSans-54"/>
      </g>
     </g>
    </g>
    <g id="xtick_3">
     <g id="line2d_5">
      <path clip-path="url(#p98171acd82)" d="M 264.662028 527.41 
L 264.662028 38.17 
" style="fill:none;stroke:#b0b0b0;stroke-linecap:square;stroke-width:0.8;"/>
     </g>
     <g id="line2d_6">
      <g>
       <use style="stroke:#000000;stroke-width:0.8;" x="264.662028" xlink:href="#md06675f844" y="527.41"/>
      </g>
     </g>
     <g id="text_3">
      <!-- Apr 2017 -->
      <defs>
       <path d="M 8.203125 72.90625 
L 55.078125 72.90625 
L 55.078125 68.703125 
L 28.609375 0 
L 18.3125 0 
L 43.21875 64.59375 
L 8.203125 64.59375 
z
" id="DejaVuSans-55"/>
      </defs>
      <g transform="translate(241.803034 594.968393)rotate(-45)scale(0.16 -0.16)">
       <use xlink:href="#DejaVuSans-65"/>
       <use x="68.408203" xlink:href="#DejaVuSans-112"/>
       <use x="131.884766" xlink:href="#DejaVuSans-114"/>
       <use x="172.998047" xlink:href="#DejaVuSans-32"/>
       <use x="204.785156" xlink:href="#DejaVuSans-50"/>
       <use x="268.408203" xlink:href="#DejaVuSans-48"/>
       <use x="332.03125" xlink:href="#DejaVuSans-49"/>
       <use x="395.654297" xlink:href="#DejaVuSans-55"/>
      </g>
     </g>
    </g>
    <g id="xtick_4">
     <g id="line2d_7">
      <path clip-path="url(#p98171acd82)" d="M 342.683688 527.41 
L 342.683688 38.17 
" style="fill:none;stroke:#b0b0b0;stroke-linecap:square;stroke-width:0.8;"/>
     </g>
     <g id="line2d_8">
      <g>
       <use style="stroke:#000000;stroke-width:0.8;" x="342.683688" xlink:href="#md06675f844" y="527.41"/>
      </g>
     </g>
     <g id="text_4">
      <!-- Oct 2017 -->
      <g transform="translate(319.829997 594.957786)rotate(-45)scale(0.16 -0.16)">
       <use xlink:href="#DejaVuSans-79"/>
       <use x="78.710938" xlink:href="#DejaVuSans-99"/>
       <use x="133.691406" xlink:href="#DejaVuSans-116"/>
       <use x="172.900391" xlink:href="#DejaVuSans-32"/>
       <use x="204.6875" xlink:href="#DejaVuSans-50"/>
       <use x="268.310547" xlink:href="#DejaVuSans-48"/>
       <use x="331.933594" xlink:href="#DejaVuSans-49"/>
       <use x="395.556641" xlink:href="#DejaVuSans-55"/>
      </g>
     </g>
    </g>
    <g id="xtick_5">
     <g id="line2d_9">
      <path clip-path="url(#p98171acd82)" d="M 420.279 527.41 
L 420.279 38.17 
" style="fill:none;stroke:#b0b0b0;stroke-linecap:square;stroke-width:0.8;"/>
     </g>
     <g id="line2d_10">
      <g>
       <use style="stroke:#000000;stroke-width:0.8;" x="420.279" xlink:href="#md06675f844" y="527.41"/>
      </g>
     </g>
     <g id="text_5">
      <!-- Apr 2018 -->
      <defs>
       <path d="M 31.78125 34.625 
Q 24.75 34.625 20.71875 30.859375 
Q 16.703125 27.09375 16.703125 20.515625 
Q 16.703125 13.921875 20.71875 10.15625 
Q 24.75 6.390625 31.78125 6.390625 
Q 38.8125 6.390625 42.859375 10.171875 
Q 46.921875 13.96875 46.921875 20.515625 
Q 46.921875 27.09375 42.890625 30.859375 
Q 38.875 34.625 31.78125 34.625 
z
M 21.921875 38.8125 
Q 15.578125 40.375 12.03125 44.71875 
Q 8.5 49.078125 8.5 55.328125 
Q 8.5 64.0625 14.71875 69.140625 
Q 20.953125 74.21875 31.78125 74.21875 
Q 42.671875 74.21875 48.875 69.140625 
Q 55.078125 64.0625 55.078125 55.328125 
Q 55.078125 49.078125 51.53125 44.71875 
Q 48 40.375 41.703125 38.8125 
Q 48.828125 37.15625 52.796875 32.3125 
Q 56.78125 27.484375 56.78125 20.515625 
Q 56.78125 9.90625 50.3125 4.234375 
Q 43.84375 -1.421875 31.78125 -1.421875 
Q 19.734375 -1.421875 13.25 4.234375 
Q 6.78125 9.90625 6.78125 20.515625 
Q 6.78125 27.484375 10.78125 32.3125 
Q 14.796875 37.15625 21.921875 38.8125 
z
M 18.3125 54.390625 
Q 18.3125 48.734375 21.84375 45.5625 
Q 25.390625 42.390625 31.78125 42.390625 
Q 38.140625 42.390625 41.71875 45.5625 
Q 45.3125 48.734375 45.3125 54.390625 
Q 45.3125 60.0625 41.71875 63.234375 
Q 38.140625 66.40625 31.78125 66.40625 
Q 25.390625 66.40625 21.84375 63.234375 
Q 18.3125 60.0625 18.3125 54.390625 
z
" id="DejaVuSans-56"/>
      </defs>
      <g transform="translate(397.420006 594.968393)rotate(-45)scale(0.16 -0.16)">
       <use xlink:href="#DejaVuSans-65"/>
       <use x="68.408203" xlink:href="#DejaVuSans-112"/>
       <use x="131.884766" xlink:href="#DejaVuSans-114"/>
       <use x="172.998047" xlink:href="#DejaVuSans-32"/>
       <use x="204.785156" xlink:href="#DejaVuSans-50"/>
       <use x="268.408203" xlink:href="#DejaVuSans-48"/>
       <use x="332.03125" xlink:href="#DejaVuSans-49"/>
       <use x="395.654297" xlink:href="#DejaVuSans-56"/>
      </g>
     </g>
    </g>
    <g id="xtick_6">
     <g id="line2d_11">
      <path clip-path="url(#p98171acd82)" d="M 498.30066 527.41 
L 498.30066 38.17 
" style="fill:none;stroke:#b0b0b0;stroke-linecap:square;stroke-width:0.8;"/>
     </g>
     <g id="line2d_12">
      <g>
       <use style="stroke:#000000;stroke-width:0.8;" x="498.30066" xlink:href="#md06675f844" y="527.41"/>
      </g>
     </g>
     <g id="text_6">
      <!-- Oct 2018 -->
      <g transform="translate(475.446969 594.957786)rotate(-45)scale(0.16 -0.16)">
       <use xlink:href="#DejaVuSans-79"/>
       <use x="78.710938" xlink:href="#DejaVuSans-99"/>
       <use x="133.691406" xlink:href="#DejaVuSans-116"/>
       <use x="172.900391" xlink:href="#DejaVuSans-32"/>
       <use x="204.6875" xlink:href="#DejaVuSans-50"/>
       <use x="268.310547" xlink:href="#DejaVuSans-48"/>
       <use x="331.933594" xlink:href="#DejaVuSans-49"/>
       <use x="395.556641" xlink:href="#DejaVuSans-56"/>
      </g>
     </g>
    </g>
    <g id="xtick_7">
     <g id="line2d_13">
      <path clip-path="url(#p98171acd82)" d="M 575.895972 527.41 
L 575.895972 38.17 
" style="fill:none;stroke:#b0b0b0;stroke-linecap:square;stroke-width:0.8;"/>
     </g>
     <g id="line2d_14">
      <g>
       <use style="stroke:#000000;stroke-width:0.8;" x="575.895972" xlink:href="#md06675f844" y="527.41"/>
      </g>
     </g>
     <g id="text_7">
      <!-- Apr 2019 -->
      <defs>
       <path d="M 10.984375 1.515625 
L 10.984375 10.5 
Q 14.703125 8.734375 18.5 7.8125 
Q 22.3125 6.890625 25.984375 6.890625 
Q 35.75 6.890625 40.890625 13.453125 
Q 46.046875 20.015625 46.78125 33.40625 
Q 43.953125 29.203125 39.59375 26.953125 
Q 35.25 24.703125 29.984375 24.703125 
Q 19.046875 24.703125 12.671875 31.3125 
Q 6.296875 37.9375 6.296875 49.421875 
Q 6.296875 60.640625 12.9375 67.421875 
Q 19.578125 74.21875 30.609375 74.21875 
Q 43.265625 74.21875 49.921875 64.515625 
Q 56.59375 54.828125 56.59375 36.375 
Q 56.59375 19.140625 48.40625 8.859375 
Q 40.234375 -1.421875 26.421875 -1.421875 
Q 22.703125 -1.421875 18.890625 -0.6875 
Q 15.09375 0.046875 10.984375 1.515625 
z
M 30.609375 32.421875 
Q 37.25 32.421875 41.125 36.953125 
Q 45.015625 41.5 45.015625 49.421875 
Q 45.015625 57.28125 41.125 61.84375 
Q 37.25 66.40625 30.609375 66.40625 
Q 23.96875 66.40625 20.09375 61.84375 
Q 16.21875 57.28125 16.21875 49.421875 
Q 16.21875 41.5 20.09375 36.953125 
Q 23.96875 32.421875 30.609375 32.421875 
z
" id="DejaVuSans-57"/>
      </defs>
      <g transform="translate(553.036977 594.968393)rotate(-45)scale(0.16 -0.16)">
       <use xlink:href="#DejaVuSans-65"/>
       <use x="68.408203" xlink:href="#DejaVuSans-112"/>
       <use x="131.884766" xlink:href="#DejaVuSans-114"/>
       <use x="172.998047" xlink:href="#DejaVuSans-32"/>
       <use x="204.785156" xlink:href="#DejaVuSans-50"/>
       <use x="268.408203" xlink:href="#DejaVuSans-48"/>
       <use x="332.03125" xlink:href="#DejaVuSans-49"/>
       <use x="395.654297" xlink:href="#DejaVuSans-57"/>
      </g>
     </g>
    </g>
    <g id="xtick_8">
     <g id="line2d_15">
      <path clip-path="url(#p98171acd82)" d="M 653.917632 527.41 
L 653.917632 38.17 
" style="fill:none;stroke:#b0b0b0;stroke-linecap:square;stroke-width:0.8;"/>
     </g>
     <g id="line2d_16">
      <g>
       <use style="stroke:#000000;stroke-width:0.8;" x="653.917632" xlink:href="#md06675f844" y="527.41"/>
      </g>
     </g>
     <g id="text_8">
      <!-- Oct 2019 -->
      <g transform="translate(631.063941 594.957786)rotate(-45)scale(0.16 -0.16)">
       <use xlink:href="#DejaVuSans-79"/>
       <use x="78.710938" xlink:href="#DejaVuSans-99"/>
       <use x="133.691406" xlink:href="#DejaVuSans-116"/>
       <use x="172.900391" xlink:href="#DejaVuSans-32"/>
       <use x="204.6875" xlink:href="#DejaVuSans-50"/>
       <use x="268.310547" xlink:href="#DejaVuSans-48"/>
       <use x="331.933594" xlink:href="#DejaVuSans-49"/>
       <use x="395.556641" xlink:href="#DejaVuSans-57"/>
      </g>
     </g>
    </g>
    <g id="xtick_9">
     <g id="line2d_17">
      <path clip-path="url(#p98171acd82)" d="M 731.939292 527.41 
L 731.939292 38.17 
" style="fill:none;stroke:#b0b0b0;stroke-linecap:square;stroke-width:0.8;"/>
     </g>
     <g id="line2d_18">
      <g>
       <use style="stroke:#000000;stroke-width:0.8;" x="731.939292" xlink:href="#md06675f844" y="527.41"/>
      </g>
     </g>
     <g id="text_9">
      <!-- Apr 2020 -->
      <g transform="translate(709.080297 594.968393)rotate(-45)scale(0.16 -0.16)">
       <use xlink:href="#DejaVuSans-65"/>
       <use x="68.408203" xlink:href="#DejaVuSans-112"/>
       <use x="131.884766" xlink:href="#DejaVuSans-114"/>
       <use x="172.998047" xlink:href="#DejaVuSans-32"/>
       <use x="204.785156" xlink:href="#DejaVuSans-50"/>
       <use x="268.408203" xlink:href="#DejaVuSans-48"/>
       <use x="332.03125" xlink:href="#DejaVuSans-50"/>
       <use x="395.654297" xlink:href="#DejaVuSans-48"/>
      </g>
     </g>
    </g>
    <g id="xtick_10">
     <g id="line2d_19">
      <path clip-path="url(#p98171acd82)" d="M 809.960951 527.41 
L 809.960951 38.17 
" style="fill:none;stroke:#b0b0b0;stroke-linecap:square;stroke-width:0.8;"/>
     </g>
     <g id="line2d_20">
      <g>
       <use style="stroke:#000000;stroke-width:0.8;" x="809.960951" xlink:href="#md06675f844" y="527.41"/>
      </g>
     </g>
     <g id="text_10">
      <!-- Oct 2020 -->
      <g transform="translate(787.10726 594.957786)rotate(-45)scale(0.16 -0.16)">
       <use xlink:href="#DejaVuSans-79"/>
       <use x="78.710938" xlink:href="#DejaVuSans-99"/>
       <use x="133.691406" xlink:href="#DejaVuSans-116"/>
       <use x="172.900391" xlink:href="#DejaVuSans-32"/>
       <use x="204.6875" xlink:href="#DejaVuSans-50"/>
       <use x="268.310547" xlink:href="#DejaVuSans-48"/>
       <use x="331.933594" xlink:href="#DejaVuSans-50"/>
       <use x="395.556641" xlink:href="#DejaVuSans-48"/>
      </g>
     </g>
    </g>
    <g id="xtick_11">
     <g id="line2d_21">
      <path clip-path="url(#p98171acd82)" d="M 887.556263 527.41 
L 887.556263 38.17 
" style="fill:none;stroke:#b0b0b0;stroke-linecap:square;stroke-width:0.8;"/>
     </g>
     <g id="line2d_22">
      <g>
       <use style="stroke:#000000;stroke-width:0.8;" x="887.556263" xlink:href="#md06675f844" y="527.41"/>
      </g>
     </g>
     <g id="text_11">
      <!-- Apr 2021 -->
      <g transform="translate(864.697269 594.968393)rotate(-45)scale(0.16 -0.16)">
       <use xlink:href="#DejaVuSans-65"/>
       <use x="68.408203" xlink:href="#DejaVuSans-112"/>
       <use x="131.884766" xlink:href="#DejaVuSans-114"/>
       <use x="172.998047" xlink:href="#DejaVuSans-32"/>
       <use x="204.785156" xlink:href="#DejaVuSans-50"/>
       <use x="268.408203" xlink:href="#DejaVuSans-48"/>
       <use x="332.03125" xlink:href="#DejaVuSans-50"/>
       <use x="395.654297" xlink:href="#DejaVuSans-49"/>
      </g>
     </g>
    </g>
    <g id="xtick_12">
     <g id="line2d_23">
      <path clip-path="url(#p98171acd82)" d="M 965.577923 527.41 
L 965.577923 38.17 
" style="fill:none;stroke:#b0b0b0;stroke-linecap:square;stroke-width:0.8;"/>
     </g>
     <g id="line2d_24">
      <g>
       <use style="stroke:#000000;stroke-width:0.8;" x="965.577923" xlink:href="#md06675f844" y="527.41"/>
      </g>
     </g>
     <g id="text_12">
      <!-- Oct 2021 -->
      <g transform="translate(942.724232 594.957786)rotate(-45)scale(0.16 -0.16)">
       <use xlink:href="#DejaVuSans-79"/>
       <use x="78.710938" xlink:href="#DejaVuSans-99"/>
       <use x="133.691406" xlink:href="#DejaVuSans-116"/>
       <use x="172.900391" xlink:href="#DejaVuSans-32"/>
       <use x="204.6875" xlink:href="#DejaVuSans-50"/>
       <use x="268.310547" xlink:href="#DejaVuSans-48"/>
       <use x="331.933594" xlink:href="#DejaVuSans-50"/>
       <use x="395.556641" xlink:href="#DejaVuSans-49"/>
      </g>
     </g>
    </g>
    <g id="xtick_13">
     <g id="line2d_25">
      <path clip-path="url(#p98171acd82)" d="M 89.539642 527.41 
L 89.539642 38.17 
" style="fill:none;stroke:#999999;stroke-linecap:square;stroke-opacity:0.2;stroke-width:0.8;"/>
     </g>
     <g id="line2d_26">
      <defs>
       <path d="M 0 0 
L 0 2 
" id="mfe3f7910ac" style="stroke:#000000;stroke-width:0.6;"/>
      </defs>
      <g>
       <use style="stroke:#000000;stroke-width:0.6;" x="89.539642" xlink:href="#mfe3f7910ac" y="527.41"/>
      </g>
     </g>
    </g>
    <g id="xtick_14">
     <g id="line2d_27">
      <path clip-path="url(#p98171acd82)" d="M 128.550472 527.41 
L 128.550472 38.17 
" style="fill:none;stroke:#999999;stroke-linecap:square;stroke-opacity:0.2;stroke-width:0.8;"/>
     </g>
     <g id="line2d_28">
      <g>
       <use style="stroke:#000000;stroke-width:0.6;" x="128.550472" xlink:href="#mfe3f7910ac" y="527.41"/>
      </g>
     </g>
    </g>
    <g id="xtick_15">
     <g id="line2d_29">
      <path clip-path="url(#p98171acd82)" d="M 148.055886 527.41 
L 148.055886 38.17 
" style="fill:none;stroke:#999999;stroke-linecap:square;stroke-opacity:0.2;stroke-width:0.8;"/>
     </g>
     <g id="line2d_30">
      <g>
       <use style="stroke:#000000;stroke-width:0.6;" x="148.055886" xlink:href="#mfe3f7910ac" y="527.41"/>
      </g>
     </g>
    </g>
    <g id="xtick_16">
     <g id="line2d_31">
      <path clip-path="url(#p98171acd82)" d="M 167.561301 527.41 
L 167.561301 38.17 
" style="fill:none;stroke:#999999;stroke-linecap:square;stroke-opacity:0.2;stroke-width:0.8;"/>
     </g>
     <g id="line2d_32">
      <g>
       <use style="stroke:#000000;stroke-width:0.6;" x="167.561301" xlink:href="#mfe3f7910ac" y="527.41"/>
      </g>
     </g>
    </g>
    <g id="xtick_17">
     <g id="line2d_33">
      <path clip-path="url(#p98171acd82)" d="M 206.572131 527.41 
L 206.572131 38.17 
" style="fill:none;stroke:#999999;stroke-linecap:square;stroke-opacity:0.2;stroke-width:0.8;"/>
     </g>
     <g id="line2d_34">
      <g>
       <use style="stroke:#000000;stroke-width:0.6;" x="206.572131" xlink:href="#mfe3f7910ac" y="527.41"/>
      </g>
     </g>
    </g>
    <g id="xtick_18">
     <g id="line2d_35">
      <path clip-path="url(#p98171acd82)" d="M 226.077546 527.41 
L 226.077546 38.17 
" style="fill:none;stroke:#999999;stroke-linecap:square;stroke-opacity:0.2;stroke-width:0.8;"/>
     </g>
     <g id="line2d_36">
      <g>
       <use style="stroke:#000000;stroke-width:0.6;" x="226.077546" xlink:href="#mfe3f7910ac" y="527.41"/>
      </g>
     </g>
    </g>
    <g id="xtick_19">
     <g id="line2d_37">
      <path clip-path="url(#p98171acd82)" d="M 245.582961 527.41 
L 245.582961 38.17 
" style="fill:none;stroke:#999999;stroke-linecap:square;stroke-opacity:0.2;stroke-width:0.8;"/>
     </g>
     <g id="line2d_38">
      <g>
       <use style="stroke:#000000;stroke-width:0.6;" x="245.582961" xlink:href="#mfe3f7910ac" y="527.41"/>
      </g>
     </g>
    </g>
    <g id="xtick_20">
     <g id="line2d_39">
      <path clip-path="url(#p98171acd82)" d="M 265.088376 527.41 
L 265.088376 38.17 
" style="fill:none;stroke:#999999;stroke-linecap:square;stroke-opacity:0.2;stroke-width:0.8;"/>
     </g>
     <g id="line2d_40">
      <g>
       <use style="stroke:#000000;stroke-width:0.6;" x="265.088376" xlink:href="#mfe3f7910ac" y="527.41"/>
      </g>
     </g>
    </g>
    <g id="xtick_21">
     <g id="line2d_41">
      <path clip-path="url(#p98171acd82)" d="M 284.593791 527.41 
L 284.593791 38.17 
" style="fill:none;stroke:#999999;stroke-linecap:square;stroke-opacity:0.2;stroke-width:0.8;"/>
     </g>
     <g id="line2d_42">
      <g>
       <use style="stroke:#000000;stroke-width:0.6;" x="284.593791" xlink:href="#mfe3f7910ac" y="527.41"/>
      </g>
     </g>
    </g>
    <g id="xtick_22">
     <g id="line2d_43">
      <path clip-path="url(#p98171acd82)" d="M 304.099206 527.41 
L 304.099206 38.17 
" style="fill:none;stroke:#999999;stroke-linecap:square;stroke-opacity:0.2;stroke-width:0.8;"/>
     </g>
     <g id="line2d_44">
      <g>
       <use style="stroke:#000000;stroke-width:0.6;" x="304.099206" xlink:href="#mfe3f7910ac" y="527.41"/>
      </g>
     </g>
    </g>
    <g id="xtick_23">
     <g id="line2d_45">
      <path clip-path="url(#p98171acd82)" d="M 323.604621 527.41 
L 323.604621 38.17 
" style="fill:none;stroke:#999999;stroke-linecap:square;stroke-opacity:0.2;stroke-width:0.8;"/>
     </g>
     <g id="line2d_46">
      <g>
       <use style="stroke:#000000;stroke-width:0.6;" x="323.604621" xlink:href="#mfe3f7910ac" y="527.41"/>
      </g>
     </g>
    </g>
    <g id="xtick_24">
     <g id="line2d_47">
      <path clip-path="url(#p98171acd82)" d="M 343.110036 527.41 
L 343.110036 38.17 
" style="fill:none;stroke:#999999;stroke-linecap:square;stroke-opacity:0.2;stroke-width:0.8;"/>
     </g>
     <g id="line2d_48">
      <g>
       <use style="stroke:#000000;stroke-width:0.6;" x="343.110036" xlink:href="#mfe3f7910ac" y="527.41"/>
      </g>
     </g>
    </g>
    <g id="xtick_25">
     <g id="line2d_49">
      <path clip-path="url(#p98171acd82)" d="M 362.615451 527.41 
L 362.615451 38.17 
" style="fill:none;stroke:#999999;stroke-linecap:square;stroke-opacity:0.2;stroke-width:0.8;"/>
     </g>
     <g id="line2d_50">
      <g>
       <use style="stroke:#000000;stroke-width:0.6;" x="362.615451" xlink:href="#mfe3f7910ac" y="527.41"/>
      </g>
     </g>
    </g>
    <g id="xtick_26">
     <g id="line2d_51">
      <path clip-path="url(#p98171acd82)" d="M 382.120866 527.41 
L 382.120866 38.17 
" style="fill:none;stroke:#999999;stroke-linecap:square;stroke-opacity:0.2;stroke-width:0.8;"/>
     </g>
     <g id="line2d_52">
      <g>
       <use style="stroke:#000000;stroke-width:0.6;" x="382.120866" xlink:href="#mfe3f7910ac" y="527.41"/>
      </g>
     </g>
    </g>
    <g id="xtick_27">
     <g id="line2d_53">
      <path clip-path="url(#p98171acd82)" d="M 401.626281 527.41 
L 401.626281 38.17 
" style="fill:none;stroke:#999999;stroke-linecap:square;stroke-opacity:0.2;stroke-width:0.8;"/>
     </g>
     <g id="line2d_54">
      <g>
       <use style="stroke:#000000;stroke-width:0.6;" x="401.626281" xlink:href="#mfe3f7910ac" y="527.41"/>
      </g>
     </g>
    </g>
    <g id="xtick_28">
     <g id="line2d_55">
      <path clip-path="url(#p98171acd82)" d="M 421.131696 527.41 
L 421.131696 38.17 
" style="fill:none;stroke:#999999;stroke-linecap:square;stroke-opacity:0.2;stroke-width:0.8;"/>
     </g>
     <g id="line2d_56">
      <g>
       <use style="stroke:#000000;stroke-width:0.6;" x="421.131696" xlink:href="#mfe3f7910ac" y="527.41"/>
      </g>
     </g>
    </g>
    <g id="xtick_29">
     <g id="line2d_57">
      <path clip-path="url(#p98171acd82)" d="M 440.637111 527.41 
L 440.637111 38.17 
" style="fill:none;stroke:#999999;stroke-linecap:square;stroke-opacity:0.2;stroke-width:0.8;"/>
     </g>
     <g id="line2d_58">
      <g>
       <use style="stroke:#000000;stroke-width:0.6;" x="440.637111" xlink:href="#mfe3f7910ac" y="527.41"/>
      </g>
     </g>
    </g>
    <g id="xtick_30">
     <g id="line2d_59">
      <path clip-path="url(#p98171acd82)" d="M 460.142526 527.41 
L 460.142526 38.17 
" style="fill:none;stroke:#999999;stroke-linecap:square;stroke-opacity:0.2;stroke-width:0.8;"/>
     </g>
     <g id="line2d_60">
      <g>
       <use style="stroke:#000000;stroke-width:0.6;" x="460.142526" xlink:href="#mfe3f7910ac" y="527.41"/>
      </g>
     </g>
    </g>
    <g id="xtick_31">
     <g id="line2d_61">
      <path clip-path="url(#p98171acd82)" d="M 479.647941 527.41 
L 479.647941 38.17 
" style="fill:none;stroke:#999999;stroke-linecap:square;stroke-opacity:0.2;stroke-width:0.8;"/>
     </g>
     <g id="line2d_62">
      <g>
       <use style="stroke:#000000;stroke-width:0.6;" x="479.647941" xlink:href="#mfe3f7910ac" y="527.41"/>
      </g>
     </g>
    </g>
    <g id="xtick_32">
     <g id="line2d_63">
      <path clip-path="url(#p98171acd82)" d="M 499.153356 527.41 
L 499.153356 38.17 
" style="fill:none;stroke:#999999;stroke-linecap:square;stroke-opacity:0.2;stroke-width:0.8;"/>
     </g>
     <g id="line2d_64">
      <g>
       <use style="stroke:#000000;stroke-width:0.6;" x="499.153356" xlink:href="#mfe3f7910ac" y="527.41"/>
      </g>
     </g>
    </g>
    <g id="xtick_33">
     <g id="line2d_65">
      <path clip-path="url(#p98171acd82)" d="M 518.658771 527.41 
L 518.658771 38.17 
" style="fill:none;stroke:#999999;stroke-linecap:square;stroke-opacity:0.2;stroke-width:0.8;"/>
     </g>
     <g id="line2d_66">
      <g>
       <use style="stroke:#000000;stroke-width:0.6;" x="518.658771" xlink:href="#mfe3f7910ac" y="527.41"/>
      </g>
     </g>
    </g>
    <g id="xtick_34">
     <g id="line2d_67">
      <path clip-path="url(#p98171acd82)" d="M 538.164186 527.41 
L 538.164186 38.17 
" style="fill:none;stroke:#999999;stroke-linecap:square;stroke-opacity:0.2;stroke-width:0.8;"/>
     </g>
     <g id="line2d_68">
      <g>
       <use style="stroke:#000000;stroke-width:0.6;" x="538.164186" xlink:href="#mfe3f7910ac" y="527.41"/>
      </g>
     </g>
    </g>
    <g id="xtick_35">
     <g id="line2d_69">
      <path clip-path="url(#p98171acd82)" d="M 557.669601 527.41 
L 557.669601 38.17 
" style="fill:none;stroke:#999999;stroke-linecap:square;stroke-opacity:0.2;stroke-width:0.8;"/>
     </g>
     <g id="line2d_70">
      <g>
       <use style="stroke:#000000;stroke-width:0.6;" x="557.669601" xlink:href="#mfe3f7910ac" y="527.41"/>
      </g>
     </g>
    </g>
    <g id="xtick_36">
     <g id="line2d_71">
      <path clip-path="url(#p98171acd82)" d="M 577.175016 527.41 
L 577.175016 38.17 
" style="fill:none;stroke:#999999;stroke-linecap:square;stroke-opacity:0.2;stroke-width:0.8;"/>
     </g>
     <g id="line2d_72">
      <g>
       <use style="stroke:#000000;stroke-width:0.6;" x="577.175016" xlink:href="#mfe3f7910ac" y="527.41"/>
      </g>
     </g>
    </g>
    <g id="xtick_37">
     <g id="line2d_73">
      <path clip-path="url(#p98171acd82)" d="M 596.68043 527.41 
L 596.68043 38.17 
" style="fill:none;stroke:#999999;stroke-linecap:square;stroke-opacity:0.2;stroke-width:0.8;"/>
     </g>
     <g id="line2d_74">
      <g>
       <use style="stroke:#000000;stroke-width:0.6;" x="596.68043" xlink:href="#mfe3f7910ac" y="527.41"/>
      </g>
     </g>
    </g>
    <g id="xtick_38">
     <g id="line2d_75">
      <path clip-path="url(#p98171acd82)" d="M 616.185845 527.41 
L 616.185845 38.17 
" style="fill:none;stroke:#999999;stroke-linecap:square;stroke-opacity:0.2;stroke-width:0.8;"/>
     </g>
     <g id="line2d_76">
      <g>
       <use style="stroke:#000000;stroke-width:0.6;" x="616.185845" xlink:href="#mfe3f7910ac" y="527.41"/>
      </g>
     </g>
    </g>
    <g id="xtick_39">
     <g id="line2d_77">
      <path clip-path="url(#p98171acd82)" d="M 635.69126 527.41 
L 635.69126 38.17 
" style="fill:none;stroke:#999999;stroke-linecap:square;stroke-opacity:0.2;stroke-width:0.8;"/>
     </g>
     <g id="line2d_78">
      <g>
       <use style="stroke:#000000;stroke-width:0.6;" x="635.69126" xlink:href="#mfe3f7910ac" y="527.41"/>
      </g>
     </g>
    </g>
    <g id="xtick_40">
     <g id="line2d_79">
      <path clip-path="url(#p98171acd82)" d="M 655.196675 527.41 
L 655.196675 38.17 
" style="fill:none;stroke:#999999;stroke-linecap:square;stroke-opacity:0.2;stroke-width:0.8;"/>
     </g>
     <g id="line2d_80">
      <g>
       <use style="stroke:#000000;stroke-width:0.6;" x="655.196675" xlink:href="#mfe3f7910ac" y="527.41"/>
      </g>
     </g>
    </g>
    <g id="xtick_41">
     <g id="line2d_81">
      <path clip-path="url(#p98171acd82)" d="M 674.70209 527.41 
L 674.70209 38.17 
" style="fill:none;stroke:#999999;stroke-linecap:square;stroke-opacity:0.2;stroke-width:0.8;"/>
     </g>
     <g id="line2d_82">
      <g>
       <use style="stroke:#000000;stroke-width:0.6;" x="674.70209" xlink:href="#mfe3f7910ac" y="527.41"/>
      </g>
     </g>
    </g>
    <g id="xtick_42">
     <g id="line2d_83">
      <path clip-path="url(#p98171acd82)" d="M 694.207505 527.41 
L 694.207505 38.17 
" style="fill:none;stroke:#999999;stroke-linecap:square;stroke-opacity:0.2;stroke-width:0.8;"/>
     </g>
     <g id="line2d_84">
      <g>
       <use style="stroke:#000000;stroke-width:0.6;" x="694.207505" xlink:href="#mfe3f7910ac" y="527.41"/>
      </g>
     </g>
    </g>
    <g id="xtick_43">
     <g id="line2d_85">
      <path clip-path="url(#p98171acd82)" d="M 713.71292 527.41 
L 713.71292 38.17 
" style="fill:none;stroke:#999999;stroke-linecap:square;stroke-opacity:0.2;stroke-width:0.8;"/>
     </g>
     <g id="line2d_86">
      <g>
       <use style="stroke:#000000;stroke-width:0.6;" x="713.71292" xlink:href="#mfe3f7910ac" y="527.41"/>
      </g>
     </g>
    </g>
    <g id="xtick_44">
     <g id="line2d_87">
      <path clip-path="url(#p98171acd82)" d="M 733.218335 527.41 
L 733.218335 38.17 
" style="fill:none;stroke:#999999;stroke-linecap:square;stroke-opacity:0.2;stroke-width:0.8;"/>
     </g>
     <g id="line2d_88">
      <g>
       <use style="stroke:#000000;stroke-width:0.6;" x="733.218335" xlink:href="#mfe3f7910ac" y="527.41"/>
      </g>
     </g>
    </g>
    <g id="xtick_45">
     <g id="line2d_89">
      <path clip-path="url(#p98171acd82)" d="M 752.72375 527.41 
L 752.72375 38.17 
" style="fill:none;stroke:#999999;stroke-linecap:square;stroke-opacity:0.2;stroke-width:0.8;"/>
     </g>
     <g id="line2d_90">
      <g>
       <use style="stroke:#000000;stroke-width:0.6;" x="752.72375" xlink:href="#mfe3f7910ac" y="527.41"/>
      </g>
     </g>
    </g>
    <g id="xtick_46">
     <g id="line2d_91">
      <path clip-path="url(#p98171acd82)" d="M 772.229165 527.41 
L 772.229165 38.17 
" style="fill:none;stroke:#999999;stroke-linecap:square;stroke-opacity:0.2;stroke-width:0.8;"/>
     </g>
     <g id="line2d_92">
      <g>
       <use style="stroke:#000000;stroke-width:0.6;" x="772.229165" xlink:href="#mfe3f7910ac" y="527.41"/>
      </g>
     </g>
    </g>
    <g id="xtick_47">
     <g id="line2d_93">
      <path clip-path="url(#p98171acd82)" d="M 791.73458 527.41 
L 791.73458 38.17 
" style="fill:none;stroke:#999999;stroke-linecap:square;stroke-opacity:0.2;stroke-width:0.8;"/>
     </g>
     <g id="line2d_94">
      <g>
       <use style="stroke:#000000;stroke-width:0.6;" x="791.73458" xlink:href="#mfe3f7910ac" y="527.41"/>
      </g>
     </g>
    </g>
    <g id="xtick_48">
     <g id="line2d_95">
      <path clip-path="url(#p98171acd82)" d="M 811.239995 527.41 
L 811.239995 38.17 
" style="fill:none;stroke:#999999;stroke-linecap:square;stroke-opacity:0.2;stroke-width:0.8;"/>
     </g>
     <g id="line2d_96">
      <g>
       <use style="stroke:#000000;stroke-width:0.6;" x="811.239995" xlink:href="#mfe3f7910ac" y="527.41"/>
      </g>
     </g>
    </g>
    <g id="xtick_49">
     <g id="line2d_97">
      <path clip-path="url(#p98171acd82)" d="M 830.74541 527.41 
L 830.74541 38.17 
" style="fill:none;stroke:#999999;stroke-linecap:square;stroke-opacity:0.2;stroke-width:0.8;"/>
     </g>
     <g id="line2d_98">
      <g>
       <use style="stroke:#000000;stroke-width:0.6;" x="830.74541" xlink:href="#mfe3f7910ac" y="527.41"/>
      </g>
     </g>
    </g>
    <g id="xtick_50">
     <g id="line2d_99">
      <path clip-path="url(#p98171acd82)" d="M 850.250825 527.41 
L 850.250825 38.17 
" style="fill:none;stroke:#999999;stroke-linecap:square;stroke-opacity:0.2;stroke-width:0.8;"/>
     </g>
     <g id="line2d_100">
      <g>
       <use style="stroke:#000000;stroke-width:0.6;" x="850.250825" xlink:href="#mfe3f7910ac" y="527.41"/>
      </g>
     </g>
    </g>
    <g id="xtick_51">
     <g id="line2d_101">
      <path clip-path="url(#p98171acd82)" d="M 869.75624 527.41 
L 869.75624 38.17 
" style="fill:none;stroke:#999999;stroke-linecap:square;stroke-opacity:0.2;stroke-width:0.8;"/>
     </g>
     <g id="line2d_102">
      <g>
       <use style="stroke:#000000;stroke-width:0.6;" x="869.75624" xlink:href="#mfe3f7910ac" y="527.41"/>
      </g>
     </g>
    </g>
    <g id="xtick_52">
     <g id="line2d_103">
      <path clip-path="url(#p98171acd82)" d="M 889.261655 527.41 
L 889.261655 38.17 
" style="fill:none;stroke:#999999;stroke-linecap:square;stroke-opacity:0.2;stroke-width:0.8;"/>
     </g>
     <g id="line2d_104">
      <g>
       <use style="stroke:#000000;stroke-width:0.6;" x="889.261655" xlink:href="#mfe3f7910ac" y="527.41"/>
      </g>
     </g>
    </g>
    <g id="xtick_53">
     <g id="line2d_105">
      <path clip-path="url(#p98171acd82)" d="M 908.76707 527.41 
L 908.76707 38.17 
" style="fill:none;stroke:#999999;stroke-linecap:square;stroke-opacity:0.2;stroke-width:0.8;"/>
     </g>
     <g id="line2d_106">
      <g>
       <use style="stroke:#000000;stroke-width:0.6;" x="908.76707" xlink:href="#mfe3f7910ac" y="527.41"/>
      </g>
     </g>
    </g>
    <g id="xtick_54">
     <g id="line2d_107">
      <path clip-path="url(#p98171acd82)" d="M 928.272485 527.41 
L 928.272485 38.17 
" style="fill:none;stroke:#999999;stroke-linecap:square;stroke-opacity:0.2;stroke-width:0.8;"/>
     </g>
     <g id="line2d_108">
      <g>
       <use style="stroke:#000000;stroke-width:0.6;" x="928.272485" xlink:href="#mfe3f7910ac" y="527.41"/>
      </g>
     </g>
    </g>
    <g id="xtick_55">
     <g id="line2d_109">
      <path clip-path="url(#p98171acd82)" d="M 947.7779 527.41 
L 947.7779 38.17 
" style="fill:none;stroke:#999999;stroke-linecap:square;stroke-opacity:0.2;stroke-width:0.8;"/>
     </g>
     <g id="line2d_110">
      <g>
       <use style="stroke:#000000;stroke-width:0.6;" x="947.7779" xlink:href="#mfe3f7910ac" y="527.41"/>
      </g>
     </g>
    </g>
    <g id="xtick_56">
     <g id="line2d_111">
      <path clip-path="url(#p98171acd82)" d="M 967.283315 527.41 
L 967.283315 38.17 
" style="fill:none;stroke:#999999;stroke-linecap:square;stroke-opacity:0.2;stroke-width:0.8;"/>
     </g>
     <g id="line2d_112">
      <g>
       <use style="stroke:#000000;stroke-width:0.6;" x="967.283315" xlink:href="#mfe3f7910ac" y="527.41"/>
      </g>
     </g>
    </g>
    <g id="text_13">
     <!-- Time -->
     <defs>
      <path d="M 0.484375 72.90625 
L 67.671875 72.90625 
L 67.671875 58.6875 
L 43.5 58.6875 
L 43.5 0 
L 24.703125 0 
L 24.703125 58.6875 
L 0.484375 58.6875 
z
" id="DejaVuSans-Bold-84"/>
      <path d="M 8.40625 54.6875 
L 25.875 54.6875 
L 25.875 0 
L 8.40625 0 
z
M 8.40625 75.984375 
L 25.875 75.984375 
L 25.875 61.71875 
L 8.40625 61.71875 
z
" id="DejaVuSans-Bold-105"/>
      <path d="M 59.078125 45.609375 
Q 62.40625 50.6875 66.96875 53.34375 
Q 71.53125 56 77 56 
Q 86.421875 56 91.359375 50.1875 
Q 96.296875 44.390625 96.296875 33.296875 
L 96.296875 0 
L 78.71875 0 
L 78.71875 28.515625 
Q 78.765625 29.15625 78.78125 29.828125 
Q 78.8125 30.515625 78.8125 31.78125 
Q 78.8125 37.59375 77.09375 40.203125 
Q 75.390625 42.828125 71.578125 42.828125 
Q 66.609375 42.828125 63.890625 38.71875 
Q 61.1875 34.625 61.078125 26.859375 
L 61.078125 0 
L 43.5 0 
L 43.5 28.515625 
Q 43.5 37.59375 41.9375 40.203125 
Q 40.375 42.828125 36.375 42.828125 
Q 31.34375 42.828125 28.609375 38.703125 
Q 25.875 34.578125 25.875 26.90625 
L 25.875 0 
L 8.296875 0 
L 8.296875 54.6875 
L 25.875 54.6875 
L 25.875 46.6875 
Q 29.109375 51.3125 33.28125 53.65625 
Q 37.453125 56 42.484375 56 
Q 48.140625 56 52.484375 53.265625 
Q 56.84375 50.53125 59.078125 45.609375 
z
" id="DejaVuSans-Bold-109"/>
      <path d="M 62.984375 27.484375 
L 62.984375 22.515625 
L 22.125 22.515625 
Q 22.75 16.359375 26.5625 13.28125 
Q 30.375 10.203125 37.203125 10.203125 
Q 42.71875 10.203125 48.5 11.84375 
Q 54.296875 13.484375 60.40625 16.796875 
L 60.40625 3.328125 
Q 54.203125 0.984375 48 -0.21875 
Q 41.796875 -1.421875 35.59375 -1.421875 
Q 20.75 -1.421875 12.515625 6.125 
Q 4.296875 13.671875 4.296875 27.296875 
Q 4.296875 40.671875 12.375 48.328125 
Q 20.453125 56 34.625 56 
Q 47.515625 56 55.25 48.234375 
Q 62.984375 40.484375 62.984375 27.484375 
z
M 45.015625 33.296875 
Q 45.015625 38.28125 42.109375 41.328125 
Q 39.203125 44.390625 34.515625 44.390625 
Q 29.4375 44.390625 26.265625 41.53125 
Q 23.09375 38.671875 22.3125 33.296875 
z
" id="DejaVuSans-Bold-101"/>
     </defs>
     <g transform="translate(489.59375 619.55754)scale(0.24 -0.24)">
      <use xlink:href="#DejaVuSans-Bold-84"/>
      <use x="68.212891" xlink:href="#DejaVuSans-Bold-105"/>
      <use x="102.490234" xlink:href="#DejaVuSans-Bold-109"/>
      <use x="206.689453" xlink:href="#DejaVuSans-Bold-101"/>
     </g>
    </g>
   </g>
   <g id="matplotlib.axis_2">
    <g id="ytick_1">
     <g id="line2d_113">
      <path clip-path="url(#p98171acd82)" d="M 76.1375 524.94752 
L 968.9375 524.94752 
" style="fill:none;stroke:#b0b0b0;stroke-linecap:square;stroke-width:0.8;"/>
     </g>
     <g id="line2d_114">
      <defs>
       <path d="M 0 0 
L -3.5 0 
" id="m8b3b4db24b" style="stroke:#000000;stroke-width:0.8;"/>
      </defs>
      <g>
       <use style="stroke:#000000;stroke-width:0.8;" x="76.1375" xlink:href="#m8b3b4db24b" y="524.94752"/>
      </g>
     </g>
     <g id="text_14">
      <!-- 10 k -->
      <defs>
       <path d="M 9.078125 75.984375 
L 18.109375 75.984375 
L 18.109375 31.109375 
L 44.921875 54.6875 
L 56.390625 54.6875 
L 27.390625 29.109375 
L 57.625 0 
L 45.90625 0 
L 18.109375 26.703125 
L 18.109375 0 
L 9.078125 0 
z
" id="DejaVuSans-107"/>
      </defs>
      <g transform="translate(34.4275 531.02627)scale(0.16 -0.16)">
       <use xlink:href="#DejaVuSans-49"/>
       <use x="63.623047" xlink:href="#DejaVuSans-48"/>
       <use x="127.246094" xlink:href="#DejaVuSans-32"/>
       <use x="159.033203" xlink:href="#DejaVuSans-107"/>
      </g>
     </g>
    </g>
    <g id="ytick_2">
     <g id="line2d_115">
      <path clip-path="url(#p98171acd82)" d="M 76.1375 438.741322 
L 968.9375 438.741322 
" style="fill:none;stroke:#b0b0b0;stroke-linecap:square;stroke-width:0.8;"/>
     </g>
     <g id="line2d_116">
      <g>
       <use style="stroke:#000000;stroke-width:0.8;" x="76.1375" xlink:href="#m8b3b4db24b" y="438.741322"/>
      </g>
     </g>
     <g id="text_15">
      <!-- 20 k -->
      <g transform="translate(34.4275 444.820072)scale(0.16 -0.16)">
       <use xlink:href="#DejaVuSans-50"/>
       <use x="63.623047" xlink:href="#DejaVuSans-48"/>
       <use x="127.246094" xlink:href="#DejaVuSans-32"/>
       <use x="159.033203" xlink:href="#DejaVuSans-107"/>
      </g>
     </g>
    </g>
    <g id="ytick_3">
     <g id="line2d_117">
      <path clip-path="url(#p98171acd82)" d="M 76.1375 352.535124 
L 968.9375 352.535124 
" style="fill:none;stroke:#b0b0b0;stroke-linecap:square;stroke-width:0.8;"/>
     </g>
     <g id="line2d_118">
      <g>
       <use style="stroke:#000000;stroke-width:0.8;" x="76.1375" xlink:href="#m8b3b4db24b" y="352.535124"/>
      </g>
     </g>
     <g id="text_16">
      <!-- 30 k -->
      <defs>
       <path d="M 40.578125 39.3125 
Q 47.65625 37.796875 51.625 33 
Q 55.609375 28.21875 55.609375 21.1875 
Q 55.609375 10.40625 48.1875 4.484375 
Q 40.765625 -1.421875 27.09375 -1.421875 
Q 22.515625 -1.421875 17.65625 -0.515625 
Q 12.796875 0.390625 7.625 2.203125 
L 7.625 11.71875 
Q 11.71875 9.328125 16.59375 8.109375 
Q 21.484375 6.890625 26.8125 6.890625 
Q 36.078125 6.890625 40.9375 10.546875 
Q 45.796875 14.203125 45.796875 21.1875 
Q 45.796875 27.640625 41.28125 31.265625 
Q 36.765625 34.90625 28.71875 34.90625 
L 20.21875 34.90625 
L 20.21875 43.015625 
L 29.109375 43.015625 
Q 36.375 43.015625 40.234375 45.921875 
Q 44.09375 48.828125 44.09375 54.296875 
Q 44.09375 59.90625 40.109375 62.90625 
Q 36.140625 65.921875 28.71875 65.921875 
Q 24.65625 65.921875 20.015625 65.03125 
Q 15.375 64.15625 9.8125 62.3125 
L 9.8125 71.09375 
Q 15.4375 72.65625 20.34375 73.4375 
Q 25.25 74.21875 29.59375 74.21875 
Q 40.828125 74.21875 47.359375 69.109375 
Q 53.90625 64.015625 53.90625 55.328125 
Q 53.90625 49.265625 50.4375 45.09375 
Q 46.96875 40.921875 40.578125 39.3125 
z
" id="DejaVuSans-51"/>
      </defs>
      <g transform="translate(34.4275 358.613874)scale(0.16 -0.16)">
       <use xlink:href="#DejaVuSans-51"/>
       <use x="63.623047" xlink:href="#DejaVuSans-48"/>
       <use x="127.246094" xlink:href="#DejaVuSans-32"/>
       <use x="159.033203" xlink:href="#DejaVuSans-107"/>
      </g>
     </g>
    </g>
    <g id="ytick_4">
     <g id="line2d_119">
      <path clip-path="url(#p98171acd82)" d="M 76.1375 266.328927 
L 968.9375 266.328927 
" style="fill:none;stroke:#b0b0b0;stroke-linecap:square;stroke-width:0.8;"/>
     </g>
     <g id="line2d_120">
      <g>
       <use style="stroke:#000000;stroke-width:0.8;" x="76.1375" xlink:href="#m8b3b4db24b" y="266.328927"/>
      </g>
     </g>
     <g id="text_17">
      <!-- 40 k -->
      <defs>
       <path d="M 37.796875 64.3125 
L 12.890625 25.390625 
L 37.796875 25.390625 
z
M 35.203125 72.90625 
L 47.609375 72.90625 
L 47.609375 25.390625 
L 58.015625 25.390625 
L 58.015625 17.1875 
L 47.609375 17.1875 
L 47.609375 0 
L 37.796875 0 
L 37.796875 17.1875 
L 4.890625 17.1875 
L 4.890625 26.703125 
z
" id="DejaVuSans-52"/>
      </defs>
      <g transform="translate(34.4275 272.407677)scale(0.16 -0.16)">
       <use xlink:href="#DejaVuSans-52"/>
       <use x="63.623047" xlink:href="#DejaVuSans-48"/>
       <use x="127.246094" xlink:href="#DejaVuSans-32"/>
       <use x="159.033203" xlink:href="#DejaVuSans-107"/>
      </g>
     </g>
    </g>
    <g id="ytick_5">
     <g id="line2d_121">
      <path clip-path="url(#p98171acd82)" d="M 76.1375 180.122729 
L 968.9375 180.122729 
" style="fill:none;stroke:#b0b0b0;stroke-linecap:square;stroke-width:0.8;"/>
     </g>
     <g id="line2d_122">
      <g>
       <use style="stroke:#000000;stroke-width:0.8;" x="76.1375" xlink:href="#m8b3b4db24b" y="180.122729"/>
      </g>
     </g>
     <g id="text_18">
      <!-- 50 k -->
      <defs>
       <path d="M 10.796875 72.90625 
L 49.515625 72.90625 
L 49.515625 64.59375 
L 19.828125 64.59375 
L 19.828125 46.734375 
Q 21.96875 47.46875 24.109375 47.828125 
Q 26.265625 48.1875 28.421875 48.1875 
Q 40.625 48.1875 47.75 41.5 
Q 54.890625 34.8125 54.890625 23.390625 
Q 54.890625 11.625 47.5625 5.09375 
Q 40.234375 -1.421875 26.90625 -1.421875 
Q 22.3125 -1.421875 17.546875 -0.640625 
Q 12.796875 0.140625 7.71875 1.703125 
L 7.71875 11.625 
Q 12.109375 9.234375 16.796875 8.0625 
Q 21.484375 6.890625 26.703125 6.890625 
Q 35.15625 6.890625 40.078125 11.328125 
Q 45.015625 15.765625 45.015625 23.390625 
Q 45.015625 31 40.078125 35.4375 
Q 35.15625 39.890625 26.703125 39.890625 
Q 22.75 39.890625 18.8125 39.015625 
Q 14.890625 38.140625 10.796875 36.28125 
z
" id="DejaVuSans-53"/>
      </defs>
      <g transform="translate(34.4275 186.201479)scale(0.16 -0.16)">
       <use xlink:href="#DejaVuSans-53"/>
       <use x="63.623047" xlink:href="#DejaVuSans-48"/>
       <use x="127.246094" xlink:href="#DejaVuSans-32"/>
       <use x="159.033203" xlink:href="#DejaVuSans-107"/>
      </g>
     </g>
    </g>
    <g id="ytick_6">
     <g id="line2d_123">
      <path clip-path="url(#p98171acd82)" d="M 76.1375 93.916531 
L 968.9375 93.916531 
" style="fill:none;stroke:#b0b0b0;stroke-linecap:square;stroke-width:0.8;"/>
     </g>
     <g id="line2d_124">
      <g>
       <use style="stroke:#000000;stroke-width:0.8;" x="76.1375" xlink:href="#m8b3b4db24b" y="93.916531"/>
      </g>
     </g>
     <g id="text_19">
      <!-- 60 k -->
      <g transform="translate(34.4275 99.995281)scale(0.16 -0.16)">
       <use xlink:href="#DejaVuSans-54"/>
       <use x="63.623047" xlink:href="#DejaVuSans-48"/>
       <use x="127.246094" xlink:href="#DejaVuSans-32"/>
       <use x="159.033203" xlink:href="#DejaVuSans-107"/>
      </g>
     </g>
    </g>
    <g id="ytick_7">
     <g id="line2d_125">
      <path clip-path="url(#p98171acd82)" d="M 76.1375 507.70628 
L 968.9375 507.70628 
" style="fill:none;stroke:#999999;stroke-linecap:square;stroke-opacity:0.2;stroke-width:0.8;"/>
     </g>
     <g id="line2d_126">
      <defs>
       <path d="M 0 0 
L -2 0 
" id="m30fecfca94" style="stroke:#000000;stroke-width:0.6;"/>
      </defs>
      <g>
       <use style="stroke:#000000;stroke-width:0.6;" x="76.1375" xlink:href="#m30fecfca94" y="507.70628"/>
      </g>
     </g>
    </g>
    <g id="ytick_8">
     <g id="line2d_127">
      <path clip-path="url(#p98171acd82)" d="M 76.1375 490.465041 
L 968.9375 490.465041 
" style="fill:none;stroke:#999999;stroke-linecap:square;stroke-opacity:0.2;stroke-width:0.8;"/>
     </g>
     <g id="line2d_128">
      <g>
       <use style="stroke:#000000;stroke-width:0.6;" x="76.1375" xlink:href="#m30fecfca94" y="490.465041"/>
      </g>
     </g>
    </g>
    <g id="ytick_9">
     <g id="line2d_129">
      <path clip-path="url(#p98171acd82)" d="M 76.1375 473.223801 
L 968.9375 473.223801 
" style="fill:none;stroke:#999999;stroke-linecap:square;stroke-opacity:0.2;stroke-width:0.8;"/>
     </g>
     <g id="line2d_130">
      <g>
       <use style="stroke:#000000;stroke-width:0.6;" x="76.1375" xlink:href="#m30fecfca94" y="473.223801"/>
      </g>
     </g>
    </g>
    <g id="ytick_10">
     <g id="line2d_131">
      <path clip-path="url(#p98171acd82)" d="M 76.1375 455.982562 
L 968.9375 455.982562 
" style="fill:none;stroke:#999999;stroke-linecap:square;stroke-opacity:0.2;stroke-width:0.8;"/>
     </g>
     <g id="line2d_132">
      <g>
       <use style="stroke:#000000;stroke-width:0.6;" x="76.1375" xlink:href="#m30fecfca94" y="455.982562"/>
      </g>
     </g>
    </g>
    <g id="ytick_11">
     <g id="line2d_133">
      <path clip-path="url(#p98171acd82)" d="M 76.1375 421.500083 
L 968.9375 421.500083 
" style="fill:none;stroke:#999999;stroke-linecap:square;stroke-opacity:0.2;stroke-width:0.8;"/>
     </g>
     <g id="line2d_134">
      <g>
       <use style="stroke:#000000;stroke-width:0.6;" x="76.1375" xlink:href="#m30fecfca94" y="421.500083"/>
      </g>
     </g>
    </g>
    <g id="ytick_12">
     <g id="line2d_135">
      <path clip-path="url(#p98171acd82)" d="M 76.1375 404.258843 
L 968.9375 404.258843 
" style="fill:none;stroke:#999999;stroke-linecap:square;stroke-opacity:0.2;stroke-width:0.8;"/>
     </g>
     <g id="line2d_136">
      <g>
       <use style="stroke:#000000;stroke-width:0.6;" x="76.1375" xlink:href="#m30fecfca94" y="404.258843"/>
      </g>
     </g>
    </g>
    <g id="ytick_13">
     <g id="line2d_137">
      <path clip-path="url(#p98171acd82)" d="M 76.1375 387.017603 
L 968.9375 387.017603 
" style="fill:none;stroke:#999999;stroke-linecap:square;stroke-opacity:0.2;stroke-width:0.8;"/>
     </g>
     <g id="line2d_138">
      <g>
       <use style="stroke:#000000;stroke-width:0.6;" x="76.1375" xlink:href="#m30fecfca94" y="387.017603"/>
      </g>
     </g>
    </g>
    <g id="ytick_14">
     <g id="line2d_139">
      <path clip-path="url(#p98171acd82)" d="M 76.1375 369.776364 
L 968.9375 369.776364 
" style="fill:none;stroke:#999999;stroke-linecap:square;stroke-opacity:0.2;stroke-width:0.8;"/>
     </g>
     <g id="line2d_140">
      <g>
       <use style="stroke:#000000;stroke-width:0.6;" x="76.1375" xlink:href="#m30fecfca94" y="369.776364"/>
      </g>
     </g>
    </g>
    <g id="ytick_15">
     <g id="line2d_141">
      <path clip-path="url(#p98171acd82)" d="M 76.1375 335.293885 
L 968.9375 335.293885 
" style="fill:none;stroke:#999999;stroke-linecap:square;stroke-opacity:0.2;stroke-width:0.8;"/>
     </g>
     <g id="line2d_142">
      <g>
       <use style="stroke:#000000;stroke-width:0.6;" x="76.1375" xlink:href="#m30fecfca94" y="335.293885"/>
      </g>
     </g>
    </g>
    <g id="ytick_16">
     <g id="line2d_143">
      <path clip-path="url(#p98171acd82)" d="M 76.1375 318.052645 
L 968.9375 318.052645 
" style="fill:none;stroke:#999999;stroke-linecap:square;stroke-opacity:0.2;stroke-width:0.8;"/>
     </g>
     <g id="line2d_144">
      <g>
       <use style="stroke:#000000;stroke-width:0.6;" x="76.1375" xlink:href="#m30fecfca94" y="318.052645"/>
      </g>
     </g>
    </g>
    <g id="ytick_17">
     <g id="line2d_145">
      <path clip-path="url(#p98171acd82)" d="M 76.1375 300.811406 
L 968.9375 300.811406 
" style="fill:none;stroke:#999999;stroke-linecap:square;stroke-opacity:0.2;stroke-width:0.8;"/>
     </g>
     <g id="line2d_146">
      <g>
       <use style="stroke:#000000;stroke-width:0.6;" x="76.1375" xlink:href="#m30fecfca94" y="300.811406"/>
      </g>
     </g>
    </g>
    <g id="ytick_18">
     <g id="line2d_147">
      <path clip-path="url(#p98171acd82)" d="M 76.1375 283.570166 
L 968.9375 283.570166 
" style="fill:none;stroke:#999999;stroke-linecap:square;stroke-opacity:0.2;stroke-width:0.8;"/>
     </g>
     <g id="line2d_148">
      <g>
       <use style="stroke:#000000;stroke-width:0.6;" x="76.1375" xlink:href="#m30fecfca94" y="283.570166"/>
      </g>
     </g>
    </g>
    <g id="ytick_19">
     <g id="line2d_149">
      <path clip-path="url(#p98171acd82)" d="M 76.1375 249.087687 
L 968.9375 249.087687 
" style="fill:none;stroke:#999999;stroke-linecap:square;stroke-opacity:0.2;stroke-width:0.8;"/>
     </g>
     <g id="line2d_150">
      <g>
       <use style="stroke:#000000;stroke-width:0.6;" x="76.1375" xlink:href="#m30fecfca94" y="249.087687"/>
      </g>
     </g>
    </g>
    <g id="ytick_20">
     <g id="line2d_151">
      <path clip-path="url(#p98171acd82)" d="M 76.1375 231.846447 
L 968.9375 231.846447 
" style="fill:none;stroke:#999999;stroke-linecap:square;stroke-opacity:0.2;stroke-width:0.8;"/>
     </g>
     <g id="line2d_152">
      <g>
       <use style="stroke:#000000;stroke-width:0.6;" x="76.1375" xlink:href="#m30fecfca94" y="231.846447"/>
      </g>
     </g>
    </g>
    <g id="ytick_21">
     <g id="line2d_153">
      <path clip-path="url(#p98171acd82)" d="M 76.1375 214.605208 
L 968.9375 214.605208 
" style="fill:none;stroke:#999999;stroke-linecap:square;stroke-opacity:0.2;stroke-width:0.8;"/>
     </g>
     <g id="line2d_154">
      <g>
       <use style="stroke:#000000;stroke-width:0.6;" x="76.1375" xlink:href="#m30fecfca94" y="214.605208"/>
      </g>
     </g>
    </g>
    <g id="ytick_22">
     <g id="line2d_155">
      <path clip-path="url(#p98171acd82)" d="M 76.1375 197.363968 
L 968.9375 197.363968 
" style="fill:none;stroke:#999999;stroke-linecap:square;stroke-opacity:0.2;stroke-width:0.8;"/>
     </g>
     <g id="line2d_156">
      <g>
       <use style="stroke:#000000;stroke-width:0.6;" x="76.1375" xlink:href="#m30fecfca94" y="197.363968"/>
      </g>
     </g>
    </g>
    <g id="ytick_23">
     <g id="line2d_157">
      <path clip-path="url(#p98171acd82)" d="M 76.1375 162.881489 
L 968.9375 162.881489 
" style="fill:none;stroke:#999999;stroke-linecap:square;stroke-opacity:0.2;stroke-width:0.8;"/>
     </g>
     <g id="line2d_158">
      <g>
       <use style="stroke:#000000;stroke-width:0.6;" x="76.1375" xlink:href="#m30fecfca94" y="162.881489"/>
      </g>
     </g>
    </g>
    <g id="ytick_24">
     <g id="line2d_159">
      <path clip-path="url(#p98171acd82)" d="M 76.1375 145.64025 
L 968.9375 145.64025 
" style="fill:none;stroke:#999999;stroke-linecap:square;stroke-opacity:0.2;stroke-width:0.8;"/>
     </g>
     <g id="line2d_160">
      <g>
       <use style="stroke:#000000;stroke-width:0.6;" x="76.1375" xlink:href="#m30fecfca94" y="145.64025"/>
      </g>
     </g>
    </g>
    <g id="ytick_25">
     <g id="line2d_161">
      <path clip-path="url(#p98171acd82)" d="M 76.1375 128.39901 
L 968.9375 128.39901 
" style="fill:none;stroke:#999999;stroke-linecap:square;stroke-opacity:0.2;stroke-width:0.8;"/>
     </g>
     <g id="line2d_162">
      <g>
       <use style="stroke:#000000;stroke-width:0.6;" x="76.1375" xlink:href="#m30fecfca94" y="128.39901"/>
      </g>
     </g>
    </g>
    <g id="ytick_26">
     <g id="line2d_163">
      <path clip-path="url(#p98171acd82)" d="M 76.1375 111.15777 
L 968.9375 111.15777 
" style="fill:none;stroke:#999999;stroke-linecap:square;stroke-opacity:0.2;stroke-width:0.8;"/>
     </g>
     <g id="line2d_164">
      <g>
       <use style="stroke:#000000;stroke-width:0.6;" x="76.1375" xlink:href="#m30fecfca94" y="111.15777"/>
      </g>
     </g>
    </g>
    <g id="ytick_27">
     <g id="line2d_165">
      <path clip-path="url(#p98171acd82)" d="M 76.1375 76.675291 
L 968.9375 76.675291 
" style="fill:none;stroke:#999999;stroke-linecap:square;stroke-opacity:0.2;stroke-width:0.8;"/>
     </g>
     <g id="line2d_166">
      <g>
       <use style="stroke:#000000;stroke-width:0.6;" x="76.1375" xlink:href="#m30fecfca94" y="76.675291"/>
      </g>
     </g>
    </g>
    <g id="ytick_28">
     <g id="line2d_167">
      <path clip-path="url(#p98171acd82)" d="M 76.1375 59.434052 
L 968.9375 59.434052 
" style="fill:none;stroke:#999999;stroke-linecap:square;stroke-opacity:0.2;stroke-width:0.8;"/>
     </g>
     <g id="line2d_168">
      <g>
       <use style="stroke:#000000;stroke-width:0.6;" x="76.1375" xlink:href="#m30fecfca94" y="59.434052"/>
      </g>
     </g>
    </g>
    <g id="ytick_29">
     <g id="line2d_169">
      <path clip-path="url(#p98171acd82)" d="M 76.1375 42.192812 
L 968.9375 42.192812 
" style="fill:none;stroke:#999999;stroke-linecap:square;stroke-opacity:0.2;stroke-width:0.8;"/>
     </g>
     <g id="line2d_170">
      <g>
       <use style="stroke:#000000;stroke-width:0.6;" x="76.1375" xlink:href="#m30fecfca94" y="42.192812"/>
      </g>
     </g>
    </g>
    <g id="text_20">
     <!-- Experience [xp] -->
     <defs>
      <path d="M 9.1875 72.90625 
L 59.90625 72.90625 
L 59.90625 58.6875 
L 27.984375 58.6875 
L 27.984375 45.125 
L 58.015625 45.125 
L 58.015625 30.90625 
L 27.984375 30.90625 
L 27.984375 14.203125 
L 60.984375 14.203125 
L 60.984375 0 
L 9.1875 0 
z
" id="DejaVuSans-Bold-69"/>
      <path d="M 22.21875 27.984375 
L 2.484375 54.6875 
L 21 54.6875 
L 32.171875 38.484375 
L 43.5 54.6875 
L 62.015625 54.6875 
L 42.28125 28.078125 
L 62.984375 0 
L 44.484375 0 
L 32.171875 17.28125 
L 20.015625 0 
L 1.515625 0 
z
" id="DejaVuSans-Bold-120"/>
      <path d="M 25.875 7.90625 
L 25.875 -20.796875 
L 8.40625 -20.796875 
L 8.40625 54.6875 
L 25.875 54.6875 
L 25.875 46.6875 
Q 29.5 51.46875 33.890625 53.734375 
Q 38.28125 56 44 56 
Q 54.109375 56 60.59375 47.96875 
Q 67.09375 39.9375 67.09375 27.296875 
Q 67.09375 14.65625 60.59375 6.609375 
Q 54.109375 -1.421875 44 -1.421875 
Q 38.28125 -1.421875 33.890625 0.84375 
Q 29.5 3.125 25.875 7.90625 
z
M 37.5 43.3125 
Q 31.890625 43.3125 28.875 39.1875 
Q 25.875 35.0625 25.875 27.296875 
Q 25.875 19.53125 28.875 15.40625 
Q 31.890625 11.28125 37.5 11.28125 
Q 43.109375 11.28125 46.0625 15.375 
Q 49.03125 19.484375 49.03125 27.296875 
Q 49.03125 35.109375 46.0625 39.203125 
Q 43.109375 43.3125 37.5 43.3125 
z
" id="DejaVuSans-Bold-112"/>
      <path d="M 49.03125 39.796875 
Q 46.734375 40.875 44.453125 41.375 
Q 42.1875 41.890625 39.890625 41.890625 
Q 33.15625 41.890625 29.515625 37.5625 
Q 25.875 33.25 25.875 25.203125 
L 25.875 0 
L 8.40625 0 
L 8.40625 54.6875 
L 25.875 54.6875 
L 25.875 45.703125 
Q 29.25 51.078125 33.609375 53.53125 
Q 37.984375 56 44.09375 56 
Q 44.96875 56 45.984375 55.921875 
Q 47.015625 55.859375 48.96875 55.609375 
z
" id="DejaVuSans-Bold-114"/>
      <path d="M 63.375 33.296875 
L 63.375 0 
L 45.796875 0 
L 45.796875 5.421875 
L 45.796875 25.484375 
Q 45.796875 32.5625 45.484375 35.25 
Q 45.171875 37.9375 44.390625 39.203125 
Q 43.359375 40.921875 41.59375 41.875 
Q 39.84375 42.828125 37.59375 42.828125 
Q 32.125 42.828125 29 38.59375 
Q 25.875 34.375 25.875 26.90625 
L 25.875 0 
L 8.40625 0 
L 8.40625 54.6875 
L 25.875 54.6875 
L 25.875 46.6875 
Q 29.828125 51.46875 34.265625 53.734375 
Q 38.71875 56 44.09375 56 
Q 53.5625 56 58.46875 50.1875 
Q 63.375 44.390625 63.375 33.296875 
z
" id="DejaVuSans-Bold-110"/>
      <path d="M 52.59375 52.984375 
L 52.59375 38.71875 
Q 49.03125 41.15625 45.4375 42.328125 
Q 41.84375 43.5 37.984375 43.5 
Q 30.671875 43.5 26.59375 39.234375 
Q 22.515625 34.96875 22.515625 27.296875 
Q 22.515625 19.625 26.59375 15.34375 
Q 30.671875 11.078125 37.984375 11.078125 
Q 42.09375 11.078125 45.78125 12.296875 
Q 49.46875 13.53125 52.59375 15.921875 
L 52.59375 1.609375 
Q 48.484375 0.09375 44.265625 -0.65625 
Q 40.046875 -1.421875 35.796875 -1.421875 
Q 21 -1.421875 12.640625 6.171875 
Q 4.296875 13.765625 4.296875 27.296875 
Q 4.296875 40.828125 12.640625 48.40625 
Q 21 56 35.796875 56 
Q 40.09375 56 44.265625 55.25 
Q 48.4375 54.5 52.59375 52.984375 
z
" id="DejaVuSans-Bold-99"/>
      <path id="DejaVuSans-Bold-32"/>
      <path d="M 8.59375 75.984375 
L 38.921875 75.984375 
L 38.921875 64.984375 
L 25.203125 64.984375 
L 25.203125 -2.203125 
L 38.921875 -2.203125 
L 38.921875 -13.1875 
L 8.59375 -13.1875 
z
" id="DejaVuSans-Bold-91"/>
      <path d="M 37.109375 -13.1875 
L 6.78125 -13.1875 
L 6.78125 -2.203125 
L 20.515625 -2.203125 
L 20.515625 64.984375 
L 6.78125 64.984375 
L 6.78125 75.984375 
L 37.109375 75.984375 
z
" id="DejaVuSans-Bold-93"/>
     </defs>
     <g transform="translate(25.43625 388.898125)rotate(-90)scale(0.24 -0.24)">
      <use xlink:href="#DejaVuSans-Bold-69"/>
      <use x="68.310547" xlink:href="#DejaVuSans-Bold-120"/>
      <use x="132.8125" xlink:href="#DejaVuSans-Bold-112"/>
      <use x="204.394531" xlink:href="#DejaVuSans-Bold-101"/>
      <use x="272.216797" xlink:href="#DejaVuSans-Bold-114"/>
      <use x="321.533203" xlink:href="#DejaVuSans-Bold-105"/>
      <use x="355.810547" xlink:href="#DejaVuSans-Bold-101"/>
      <use x="423.632812" xlink:href="#DejaVuSans-Bold-110"/>
      <use x="494.824219" xlink:href="#DejaVuSans-Bold-99"/>
      <use x="554.101562" xlink:href="#DejaVuSans-Bold-101"/>
      <use x="621.923828" xlink:href="#DejaVuSans-Bold-32"/>
      <use x="656.738281" xlink:href="#DejaVuSans-Bold-91"/>
      <use x="702.441406" xlink:href="#DejaVuSans-Bold-120"/>
      <use x="766.943359" xlink:href="#DejaVuSans-Bold-112"/>
      <use x="838.525391" xlink:href="#DejaVuSans-Bold-93"/>
     </g>
    </g>
   </g>
   <g id="line2d_171">
    <path clip-path="url(#p98171acd82)" d="M 116.719318 505.171818 
L 117.145666 503.844243 
L 117.572014 503.551142 
L 117.998362 502.499426 
L 118.42471 502.068395 
L 119.703753 500.068411 
L 120.130101 500.042549 
L 120.556449 499.809793 
L 121.835493 501.361504 
L 125.672623 501.258057 
L 126.525319 501.154609 
L 126.951667 500.60289 
L 127.378015 500.542545 
L 130.788798 499.456347 
L 133.773233 498.861525 
L 136.757668 498.551182 
L 137.184016 497.663258 
L 137.610364 497.594293 
L 140.168451 495.033969 
L 141.447495 494.137425 
L 142.726538 492.689161 
L 146.563669 489.982286 
L 147.416365 491.344344 
L 148.695408 492.387439 
L 149.121756 492.016752 
L 150.4008 493.180536 
L 163.617584 491.508136 
L 165.749323 491.094346 
L 270.204551 476.172053 
L 303.886032 476.042744 
L 304.31238 475.861711 
L 306.444119 475.723781 
L 309.428554 474.542756 
L 312.839337 473.784142 
L 318.808208 472.456566 
L 321.366295 471.922088 
L 322.645338 471.861743 
L 323.498034 471.637607 
L 357.179516 465.146281 
L 363.841201 457.448067 
L 363.99664 455.853252 
L 364.245343 455.784287 
L 364.254226 452.999827 
L 366.421494 450.215367 
L 366.967752 450.206746 
L 366.976634 449.586062 
L 368.97514 449.542959 
L 368.984022 450.327435 
L 369.357077 450.318815 
L 369.365959 449.629165 
L 369.88557 448.534346 
L 370.169802 448.534346 
L 370.174243 450.11192 
L 407.781678 430.094841 
L 423.645372 427.758653 
L 435.552024 417.474253 
L 635.788965 383.448667 
L 643.232288 382.974533 
L 659.806562 382.836603 
L 660.241792 382.077988 
L 677.286824 343.061063 
L 680.19576 338.949028 
L 683.140225 333.776656 
L 682.909287 334.336996 
L 683.761983 329.138762 
L 826.419756 135.778261 
L 848.731961 129.019695 
L 850.459558 127.786946 
L 853.879223 126.692127 
L 856.423987 125.174898 
L 859.390657 124.157665 
L 861.113813 123.011123 
L 863.51202 121.649065 
L 868.25514 119.476669 
L 868.370609 118.571503 
L 870.413526 117.226687 
L 881.161045 107.881935 
L 883.932307 106.657807 
L 891.753125 100.597511 
L 895.918899 95.519966 
L 898.145679 91.864823 
L 898.429318 91.82172 
L 898.431391 91.235518 
L 898.637163 91.002761 
L 898.923467 90.916555 
L 899.025021 90.856211 
L 899.027686 90.57173 
L 899.290008 90.57173 
L 899.295337 90.166561 
L 899.469726 89.916563 
L 899.678458 89.821737 
L 899.679939 89.442429 
L 899.804882 89.399326 
L 900.227677 88.666573 
L 901.102579 88.657953 
L 901.113533 87.959683 
L 901.431518 87.51141 
L 902.019523 86.356247 
L 903.191683 85.657977 
L 903.748008 84.16661 
L 904.038457 83.804544 
L 904.48405 83.632132 
L 905.801287 83.485581 
L 905.862575 82.63214 
L 907.114676 80.795948 
L 907.485658 80.675259 
L 907.957009 79.30458 
L 908.23147 79.028721 
L 908.412076 78.218382 
L 908.84701 77.933902 
L 909.261219 75.82185 
L 909.698521 75.106339 
L 910.165136 74.071864 
L 910.446111 75.27013 
L 910.807322 75.037374 
L 913.082954 75.68392 
L 913.846235 74.416689 
L 916.102918 73.606351 
L 916.350436 73.296008 
L 916.353101 72.666703 
L 916.768198 72.34774 
L 917.36242 71.623608 
L 918.208603 71.287404 
L 918.462043 70.925338 
L 918.465003 70.727064 
L 919.71444 69.908105 
L 920.207108 69.796037 
L 920.623093 69.132249 
L 923.152165 66.882267 
L 923.745203 65.735725 
L 925.912176 64.925387 
L 928.355682 60.408182 
L 928.355682 60.408182 
" style="fill:none;stroke:#000000;stroke-linecap:square;stroke-width:1.5;"/>
   </g>
   <g id="patch_3">
    <path d="M 76.1375 527.41 
L 76.1375 38.17 
" style="fill:none;stroke:#000000;stroke-linecap:square;stroke-linejoin:miter;stroke-width:0.8;"/>
   </g>
   <g id="patch_4">
    <path d="M 968.9375 527.41 
L 968.9375 38.17 
" style="fill:none;stroke:#000000;stroke-linecap:square;stroke-linejoin:miter;stroke-width:0.8;"/>
   </g>
   <g id="patch_5">
    <path d="M 76.1375 527.41 
L 968.9375 527.41 
" style="fill:none;stroke:#000000;stroke-linecap:square;stroke-linejoin:miter;stroke-width:0.8;"/>
   </g>
   <g id="patch_6">
    <path d="M 76.1375 38.17 
L 968.9375 38.17 
" style="fill:none;stroke:#000000;stroke-linecap:square;stroke-linejoin:miter;stroke-width:0.8;"/>
   </g>
   <g id="text_21">
    <!-- All Data -->
    <defs>
     <path d="M 53.421875 13.28125 
L 24.03125 13.28125 
L 19.390625 0 
L 0.484375 0 
L 27.484375 72.90625 
L 49.90625 72.90625 
L 76.90625 0 
L 58.015625 0 
z
M 28.71875 26.8125 
L 48.6875 26.8125 
L 38.71875 55.8125 
z
" id="DejaVuSans-Bold-65"/>
     <path d="M 8.40625 75.984375 
L 25.875 75.984375 
L 25.875 0 
L 8.40625 0 
z
" id="DejaVuSans-Bold-108"/>
     <path d="M 27.984375 58.6875 
L 27.984375 14.203125 
L 34.71875 14.203125 
Q 46.234375 14.203125 52.3125 19.921875 
Q 58.40625 25.640625 58.40625 36.53125 
Q 58.40625 47.359375 52.34375 53.015625 
Q 46.296875 58.6875 34.71875 58.6875 
z
M 9.1875 72.90625 
L 29 72.90625 
Q 45.609375 72.90625 53.734375 70.53125 
Q 61.859375 68.171875 67.671875 62.5 
Q 72.796875 57.5625 75.28125 51.109375 
Q 77.78125 44.671875 77.78125 36.53125 
Q 77.78125 28.265625 75.28125 21.796875 
Q 72.796875 15.328125 67.671875 10.40625 
Q 61.8125 4.734375 53.609375 2.359375 
Q 45.40625 0 29 0 
L 9.1875 0 
z
" id="DejaVuSans-Bold-68"/>
     <path d="M 32.90625 24.609375 
Q 27.4375 24.609375 24.671875 22.75 
Q 21.921875 20.90625 21.921875 17.28125 
Q 21.921875 13.96875 24.140625 12.078125 
Q 26.375 10.203125 30.328125 10.203125 
Q 35.25 10.203125 38.625 13.734375 
Q 42 17.28125 42 22.609375 
L 42 24.609375 
z
M 59.625 31.203125 
L 59.625 0 
L 42 0 
L 42 8.109375 
Q 38.484375 3.125 34.078125 0.84375 
Q 29.6875 -1.421875 23.390625 -1.421875 
Q 14.890625 -1.421875 9.59375 3.53125 
Q 4.296875 8.5 4.296875 16.40625 
Q 4.296875 26.03125 10.90625 30.515625 
Q 17.53125 35.015625 31.6875 35.015625 
L 42 35.015625 
L 42 36.375 
Q 42 40.53125 38.71875 42.453125 
Q 35.453125 44.390625 28.515625 44.390625 
Q 22.90625 44.390625 18.0625 43.265625 
Q 13.234375 42.140625 9.078125 39.890625 
L 9.078125 53.21875 
Q 14.703125 54.59375 20.359375 55.296875 
Q 26.03125 56 31.6875 56 
Q 46.484375 56 53.046875 50.171875 
Q 59.625 44.34375 59.625 31.203125 
z
" id="DejaVuSans-Bold-97"/>
     <path d="M 27.484375 70.21875 
L 27.484375 54.6875 
L 45.515625 54.6875 
L 45.515625 42.1875 
L 27.484375 42.1875 
L 27.484375 19 
Q 27.484375 15.1875 29 13.84375 
Q 30.515625 12.5 35.015625 12.5 
L 44 12.5 
L 44 0 
L 29 0 
Q 18.65625 0 14.328125 4.3125 
Q 10.015625 8.640625 10.015625 19 
L 10.015625 42.1875 
L 1.3125 42.1875 
L 1.3125 54.6875 
L 10.015625 54.6875 
L 10.015625 70.21875 
z
" id="DejaVuSans-Bold-116"/>
    </defs>
    <g transform="translate(451.09 31.515)scale(0.32 -0.32)">
     <use xlink:href="#DejaVuSans-Bold-65"/>
     <use x="77.392578" xlink:href="#DejaVuSans-Bold-108"/>
     <use x="111.669922" xlink:href="#DejaVuSans-Bold-108"/>
     <use x="145.947266" xlink:href="#DejaVuSans-Bold-32"/>
     <use x="180.761719" xlink:href="#DejaVuSans-Bold-68"/>
     <use x="263.769531" xlink:href="#DejaVuSans-Bold-97"/>
     <use x="331.25" xlink:href="#DejaVuSans-Bold-116"/>
     <use x="379.052734" xlink:href="#DejaVuSans-Bold-97"/>
    </g>
   </g>
  </g>
  <g id="axes_2">
   <g id="matplotlib.axis_3">
    <g id="ytick_30">
     <g id="line2d_172">
      <defs>
       <path d="M 0 0 
L 3.5 0 
" id="m517190f0e9" style="stroke:#000000;stroke-width:0.8;"/>
      </defs>
      <g>
       <use style="stroke:#000000;stroke-width:0.8;" x="968.9375" xlink:href="#m517190f0e9" y="509.106215"/>
      </g>
     </g>
     <g id="text_22">
      <!-- 200 k -->
      <g style="fill:#ff0000;" transform="translate(975.9375 515.184965)scale(0.16 -0.16)">
       <use xlink:href="#DejaVuSans-50"/>
       <use x="63.623047" xlink:href="#DejaVuSans-48"/>
       <use x="127.246094" xlink:href="#DejaVuSans-48"/>
       <use x="190.869141" xlink:href="#DejaVuSans-32"/>
       <use x="222.65625" xlink:href="#DejaVuSans-107"/>
      </g>
     </g>
    </g>
    <g id="ytick_31">
     <g id="line2d_173">
      <g>
       <use style="stroke:#000000;stroke-width:0.8;" x="968.9375" xlink:href="#m517190f0e9" y="414.290056"/>
      </g>
     </g>
     <g id="text_23">
      <!-- 400 k -->
      <g style="fill:#ff0000;" transform="translate(975.9375 420.368806)scale(0.16 -0.16)">
       <use xlink:href="#DejaVuSans-52"/>
       <use x="63.623047" xlink:href="#DejaVuSans-48"/>
       <use x="127.246094" xlink:href="#DejaVuSans-48"/>
       <use x="190.869141" xlink:href="#DejaVuSans-32"/>
       <use x="222.65625" xlink:href="#DejaVuSans-107"/>
      </g>
     </g>
    </g>
    <g id="ytick_32">
     <g id="line2d_174">
      <g>
       <use style="stroke:#000000;stroke-width:0.8;" x="968.9375" xlink:href="#m517190f0e9" y="319.473898"/>
      </g>
     </g>
     <g id="text_24">
      <!-- 600 k -->
      <g style="fill:#ff0000;" transform="translate(975.9375 325.552648)scale(0.16 -0.16)">
       <use xlink:href="#DejaVuSans-54"/>
       <use x="63.623047" xlink:href="#DejaVuSans-48"/>
       <use x="127.246094" xlink:href="#DejaVuSans-48"/>
       <use x="190.869141" xlink:href="#DejaVuSans-32"/>
       <use x="222.65625" xlink:href="#DejaVuSans-107"/>
      </g>
     </g>
    </g>
    <g id="ytick_33">
     <g id="line2d_175">
      <g>
       <use style="stroke:#000000;stroke-width:0.8;" x="968.9375" xlink:href="#m517190f0e9" y="224.657739"/>
      </g>
     </g>
     <g id="text_25">
      <!-- 800 k -->
      <g style="fill:#ff0000;" transform="translate(975.9375 230.736489)scale(0.16 -0.16)">
       <use xlink:href="#DejaVuSans-56"/>
       <use x="63.623047" xlink:href="#DejaVuSans-48"/>
       <use x="127.246094" xlink:href="#DejaVuSans-48"/>
       <use x="190.869141" xlink:href="#DejaVuSans-32"/>
       <use x="222.65625" xlink:href="#DejaVuSans-107"/>
      </g>
     </g>
    </g>
    <g id="ytick_34">
     <g id="line2d_176">
      <g>
       <use style="stroke:#000000;stroke-width:0.8;" x="968.9375" xlink:href="#m517190f0e9" y="129.841581"/>
      </g>
     </g>
     <g id="text_26">
      <!-- 1 M -->
      <defs>
       <path d="M 9.8125 72.90625 
L 24.515625 72.90625 
L 43.109375 23.296875 
L 61.8125 72.90625 
L 76.515625 72.90625 
L 76.515625 0 
L 66.890625 0 
L 66.890625 64.015625 
L 48.09375 14.015625 
L 38.1875 14.015625 
L 19.390625 64.015625 
L 19.390625 0 
L 9.8125 0 
z
" id="DejaVuSans-77"/>
      </defs>
      <g style="fill:#ff0000;" transform="translate(975.9375 135.920331)scale(0.16 -0.16)">
       <use xlink:href="#DejaVuSans-49"/>
       <use x="63.623047" xlink:href="#DejaVuSans-32"/>
       <use x="95.410156" xlink:href="#DejaVuSans-77"/>
      </g>
     </g>
    </g>
    <g id="text_27">
     <!-- Total Assets [gm] -->
     <defs>
      <path d="M 34.421875 43.5 
Q 28.609375 43.5 25.5625 39.328125 
Q 22.515625 35.15625 22.515625 27.296875 
Q 22.515625 19.4375 25.5625 15.25 
Q 28.609375 11.078125 34.421875 11.078125 
Q 40.140625 11.078125 43.15625 15.25 
Q 46.1875 19.4375 46.1875 27.296875 
Q 46.1875 35.15625 43.15625 39.328125 
Q 40.140625 43.5 34.421875 43.5 
z
M 34.421875 56 
Q 48.53125 56 56.46875 48.375 
Q 64.40625 40.765625 64.40625 27.296875 
Q 64.40625 13.8125 56.46875 6.1875 
Q 48.53125 -1.421875 34.421875 -1.421875 
Q 20.265625 -1.421875 12.28125 6.1875 
Q 4.296875 13.8125 4.296875 27.296875 
Q 4.296875 40.765625 12.28125 48.375 
Q 20.265625 56 34.421875 56 
z
" id="DejaVuSans-Bold-111"/>
      <path d="M 51.125 52.984375 
L 51.125 39.703125 
Q 45.515625 42.046875 40.28125 43.21875 
Q 35.0625 44.390625 30.421875 44.390625 
Q 25.4375 44.390625 23.015625 43.140625 
Q 20.609375 41.890625 20.609375 39.3125 
Q 20.609375 37.203125 22.4375 36.078125 
Q 24.265625 34.96875 29 34.421875 
L 32.078125 33.984375 
Q 45.515625 32.28125 50.140625 28.375 
Q 54.78125 24.46875 54.78125 16.109375 
Q 54.78125 7.375 48.328125 2.96875 
Q 41.890625 -1.421875 29.109375 -1.421875 
Q 23.6875 -1.421875 17.890625 -0.5625 
Q 12.109375 0.296875 6 2 
L 6 15.28125 
Q 11.234375 12.75 16.71875 11.46875 
Q 22.21875 10.203125 27.875 10.203125 
Q 33.015625 10.203125 35.59375 11.609375 
Q 38.1875 13.03125 38.1875 15.828125 
Q 38.1875 18.171875 36.40625 19.3125 
Q 34.625 20.453125 29.296875 21.09375 
L 26.21875 21.484375 
Q 14.546875 22.953125 9.859375 26.90625 
Q 5.171875 30.859375 5.171875 38.921875 
Q 5.171875 47.609375 11.125 51.796875 
Q 17.09375 56 29.390625 56 
Q 34.234375 56 39.546875 55.265625 
Q 44.875 54.546875 51.125 52.984375 
z
" id="DejaVuSans-Bold-115"/>
      <path d="M 45.609375 9.28125 
Q 42 4.5 37.640625 2.25 
Q 33.296875 0 27.59375 0 
Q 17.578125 0 11.03125 7.875 
Q 4.5 15.765625 4.5 27.984375 
Q 4.5 40.234375 11.03125 48.0625 
Q 17.578125 55.90625 27.59375 55.90625 
Q 33.296875 55.90625 37.640625 53.65625 
Q 42 51.421875 45.609375 46.578125 
L 45.609375 54.6875 
L 63.1875 54.6875 
L 63.1875 5.515625 
Q 63.1875 -7.671875 54.859375 -14.625 
Q 46.53125 -21.578125 30.71875 -21.578125 
Q 25.59375 -21.578125 20.796875 -20.796875 
Q 16.015625 -20.015625 11.1875 -18.40625 
L 11.1875 -4.78125 
Q 15.765625 -7.421875 20.15625 -8.71875 
Q 24.5625 -10.015625 29 -10.015625 
Q 37.59375 -10.015625 41.59375 -6.25 
Q 45.609375 -2.484375 45.609375 5.515625 
z
M 34.078125 43.3125 
Q 28.65625 43.3125 25.625 39.296875 
Q 22.609375 35.296875 22.609375 27.984375 
Q 22.609375 20.453125 25.53125 16.578125 
Q 28.46875 12.703125 34.078125 12.703125 
Q 39.546875 12.703125 42.578125 16.703125 
Q 45.609375 20.703125 45.609375 27.984375 
Q 45.609375 35.296875 42.578125 39.296875 
Q 39.546875 43.3125 34.078125 43.3125 
z
" id="DejaVuSans-Bold-103"/>
     </defs>
     <g style="fill:#ff0000;" transform="translate(1043.06375 402.14875)rotate(-90)scale(0.24 -0.24)">
      <use xlink:href="#DejaVuSans-Bold-84"/>
      <use x="68.009766" xlink:href="#DejaVuSans-Bold-111"/>
      <use x="136.710938" xlink:href="#DejaVuSans-Bold-116"/>
      <use x="184.513672" xlink:href="#DejaVuSans-Bold-97"/>
      <use x="251.994141" xlink:href="#DejaVuSans-Bold-108"/>
      <use x="286.271484" xlink:href="#DejaVuSans-Bold-32"/>
      <use x="321.085938" xlink:href="#DejaVuSans-Bold-65"/>
      <use x="398.478516" xlink:href="#DejaVuSans-Bold-115"/>
      <use x="458" xlink:href="#DejaVuSans-Bold-115"/>
      <use x="517.521484" xlink:href="#DejaVuSans-Bold-101"/>
      <use x="585.34375" xlink:href="#DejaVuSans-Bold-116"/>
      <use x="633.146484" xlink:href="#DejaVuSans-Bold-115"/>
      <use x="692.667969" xlink:href="#DejaVuSans-Bold-32"/>
      <use x="727.482422" xlink:href="#DejaVuSans-Bold-91"/>
      <use x="773.185547" xlink:href="#DejaVuSans-Bold-103"/>
      <use x="844.767578" xlink:href="#DejaVuSans-Bold-109"/>
      <use x="948.966797" xlink:href="#DejaVuSans-Bold-93"/>
     </g>
    </g>
   </g>
   <g id="line2d_177">
    <path clip-path="url(#p98171acd82)" d="M 116.719318 260.501092 
L 117.145666 266.854722 
L 117.572014 248.540507 
L 117.998362 283.783199 
L 118.42471 283.456558 
L 118.851058 288.743981 
L 119.277405 280.021842 
L 119.703753 294.742999 
L 120.130101 293.130176 
L 120.556449 289.846219 
L 121.835493 299.227803 
L 122.26184 300.734906 
L 125.672623 277.826848 
L 126.525319 278.162023 
L 126.951667 263.374495 
L 127.378015 263.374495 
L 130.36245 267.076592 
L 130.788798 268.278387 
L 133.773233 254.03463 
L 136.757668 259.528278 
L 137.184016 239.761479 
L 137.610364 232.885885 
L 138.463059 248.046041 
L 140.168451 224.691399 
L 141.447495 232.766891 
L 142.726538 225.720154 
L 146.563669 229.271019 
L 147.416365 259.012478 
L 148.695408 219.89702 
L 149.121756 227.89097 
L 150.4008 220.830485 
L 163.617584 184.205847 
L 165.749323 196.993229 
L 270.204551 280.256038 
L 283.847682 238.889645 
L 284.27403 229.879739 
L 292.800988 229.963177 
L 294.080031 218.010652 
L 294.506379 211.189578 
L 296.638118 201.609827 
L 302.180641 194.243086 
L 303.886032 193.974282 
L 304.31238 197.396671 
L 305.165076 198.333455 
L 306.444119 215.21642 
L 306.870467 217.160625 
L 307.723163 205.356488 
L 309.428554 176.61771 
L 310.28125 171.4526 
L 312.839337 154.951744 
L 318.38186 155.335275 
L 318.808208 175.197364 
L 321.366295 177.926173 
L 322.645338 145.002684 
L 323.498034 156.041182 
L 357.179516 60.408182 
L 363.841201 102.227323 
L 363.992199 102.45583 
L 363.99664 103.108639 
L 364.245343 110.532744 
L 364.254226 126.698425 
L 366.408171 129.708838 
L 366.421494 130.903522 
L 366.972193 116.763588 
L 366.976634 119.89584 
L 368.984022 131.909047 
L 369.357077 138.365553 
L 369.365959 143.460025 
L 369.88557 125.489993 
L 370.169802 136.04635 
L 370.174243 135.523439 
L 407.781678 122.508499 
L 423.645372 152.22009 
L 435.552024 176.9325 
L 635.788965 237.916831 
L 643.232288 229.948481 
L 659.806562 201.159925 
L 660.241792 209.624637 
L 677.286824 367.341361 
L 680.191319 428.27544 
L 680.19576 437.315212 
L 683.140225 471.049379 
L 682.909287 395.328247 
L 683.761983 436.219137 
L 826.419756 426.653609 
L 848.731961 476.632154 
L 850.459558 470.346317 
L 852.560209 460.806389 
L 853.879223 457.898378 
L 856.423987 483.56369 
L 859.390657 483.310057 
L 861.113813 497.066933 
L 863.51202 488.366602 
L 868.25514 473.406509 
L 868.370609 469.474483 
L 870.413526 475.509531 
L 880.494877 487.717586 
L 881.161045 483.142706 
L 883.932307 466.997411 
L 891.753125 465.275549 
L 895.918899 477.868557 
L 897.682025 489.263563 
L 897.721403 488.938818 
L 898.145679 488.032375 
L 898.431391 488.169385 
L 898.637163 486.115667 
L 898.895636 485.422561 
L 898.977649 483.771337 
L 899.025021 483.55089 
L 899.027686 484.974554 
L 899.290008 484.81147 
L 899.295337 483.516756 
L 899.469726 480.06924 
L 899.678458 480.395408 
L 899.804882 459.406429 
L 900.166982 459.345747 
L 900.227677 458.816198 
L 901.102579 456.940735 
L 901.113533 454.695014 
L 902.019523 448.280701 
L 903.191683 442.397358 
L 903.748008 440.27395 
L 904.038457 437.624313 
L 904.415657 435.838925 
L 904.48405 436.325331 
L 905.862575 422.307236 
L 906.60365 418.543509 
L 907.114676 415.900035 
L 907.485658 414.915843 
L 907.957009 411.622404 
L 908.23147 412.857384 
L 908.412076 410.280755 
L 908.84701 408.999789 
L 909.261219 408.55273 
L 909.698521 406.255809 
L 910.165136 414.250707 
L 910.446111 412.590002 
L 910.807322 409.772066 
L 913.082954 433.469943 
L 913.434099 444.672472 
L 913.846235 438.92282 
L 916.098477 421.62456 
L 916.102918 465.024286 
L 916.350436 461.8451 
L 916.353101 490.060967 
L 916.768198 499.202667 
L 917.36242 494.344287 
L 918.208603 473.854041 
L 918.465003 470.013038 
L 919.71444 502.894808 
L 920.207108 498.269676 
L 920.623093 496.544496 
L 923.152165 485.446265 
L 923.745203 482.061802 
L 924.206784 480.997964 
L 925.912176 473.540674 
L 928.355682 505.171818 
L 928.355682 505.171818 
" style="fill:none;stroke:#ff0000;stroke-linecap:square;stroke-width:1.5;"/>
   </g>
   <g id="patch_7">
    <path d="M 76.1375 527.41 
L 76.1375 38.17 
" style="fill:none;stroke:#000000;stroke-linecap:square;stroke-linejoin:miter;stroke-width:0.8;"/>
   </g>
   <g id="patch_8">
    <path d="M 968.9375 527.41 
L 968.9375 38.17 
" style="fill:none;stroke:#000000;stroke-linecap:square;stroke-linejoin:miter;stroke-width:0.8;"/>
   </g>
   <g id="patch_9">
    <path d="M 76.1375 527.41 
L 968.9375 527.41 
" style="fill:none;stroke:#000000;stroke-linecap:square;stroke-linejoin:miter;stroke-width:0.8;"/>
   </g>
   <g id="patch_10">
    <path d="M 76.1375 38.17 
L 968.9375 38.17 
" style="fill:none;stroke:#000000;stroke-linecap:square;stroke-linejoin:miter;stroke-width:0.8;"/>
   </g>
  </g>
 </g>
 <defs>
  <clipPath id="p98171acd82">
   <rect height="489.24" width="892.8" x="76.1375" y="38.17"/>
  </clipPath>
 </defs>
</svg>
