<?xml version="1.0" encoding="utf-8" standalone="no"?>
<!DOCTYPE svg PUBLIC "-//W3C//DTD SVG 1.1//EN"
  "http://www.w3.org/Graphics/SVG/1.1/DTD/svg11.dtd">
<!-- Created with matplotlib (https://matplotlib.org/) -->
<svg height="634.069868pt" version="1.1" viewBox="0 0 1055.4425 634.069868" width="1055.4425pt" xmlns="http://www.w3.org/2000/svg" xmlns:xlink="http://www.w3.org/1999/xlink">
 <defs>
  <style type="text/css">
*{stroke-linecap:butt;stroke-linejoin:round;}
  </style>
 </defs>
 <g id="figure_1">
  <g id="patch_1">
   <path d="M 0 634.069868 
L 1055.4425 634.069868 
L 1055.4425 0 
L 0 0 
z
" style="fill:#ffffff;opacity:0.7;"/>
  </g>
  <g id="axes_1">
   <g id="patch_2">
    <path d="M 76.1375 527.41 
L 968.9375 527.41 
L 968.9375 38.17 
L 76.1375 38.17 
z
" style="fill:#ffffff;"/>
   </g>
   <g id="matplotlib.axis_1">
    <g id="xtick_1">
     <g id="line2d_1">
      <path clip-path="url(#p161bfb70ee)" d="M 135.557141 527.41 
L 135.557141 38.17 
" style="fill:none;stroke:#b0b0b0;stroke-linecap:square;stroke-width:0.8;"/>
     </g>
     <g id="line2d_2">
      <defs>
       <path d="M 0 0 
L 0 3.5 
" id="mff537163b5" style="stroke:#000000;stroke-width:0.8;"/>
      </defs>
      <g>
       <use style="stroke:#000000;stroke-width:0.8;" x="135.557141" xlink:href="#mff537163b5" y="527.41"/>
      </g>
     </g>
     <g id="text_1">
      <!-- Jun 2016 -->
      <defs>
       <path d="M 9.8125 72.90625 
L 19.671875 72.90625 
L 19.671875 5.078125 
Q 19.671875 -8.109375 14.671875 -14.0625 
Q 9.671875 -20.015625 -1.421875 -20.015625 
L -5.171875 -20.015625 
L -5.171875 -11.71875 
L -2.09375 -11.71875 
Q 4.4375 -11.71875 7.125 -8.046875 
Q 9.8125 -4.390625 9.8125 5.078125 
z
" id="DejaVuSans-74"/>
       <path d="M 8.5 21.578125 
L 8.5 54.6875 
L 17.484375 54.6875 
L 17.484375 21.921875 
Q 17.484375 14.15625 20.5 10.265625 
Q 23.53125 6.390625 29.59375 6.390625 
Q 36.859375 6.390625 41.078125 11.03125 
Q 45.3125 15.671875 45.3125 23.6875 
L 45.3125 54.6875 
L 54.296875 54.6875 
L 54.296875 0 
L 45.3125 0 
L 45.3125 8.40625 
Q 42.046875 3.421875 37.71875 1 
Q 33.40625 -1.421875 27.6875 -1.421875 
Q 18.265625 -1.421875 13.375 4.4375 
Q 8.5 10.296875 8.5 21.578125 
z
M 31.109375 56 
z
" id="DejaVuSans-117"/>
       <path d="M 54.890625 33.015625 
L 54.890625 0 
L 45.90625 0 
L 45.90625 32.71875 
Q 45.90625 40.484375 42.875 44.328125 
Q 39.84375 48.1875 33.796875 48.1875 
Q 26.515625 48.1875 22.3125 43.546875 
Q 18.109375 38.921875 18.109375 30.90625 
L 18.109375 0 
L 9.078125 0 
L 9.078125 54.6875 
L 18.109375 54.6875 
L 18.109375 46.1875 
Q 21.34375 51.125 25.703125 53.5625 
Q 30.078125 56 35.796875 56 
Q 45.21875 56 50.046875 50.171875 
Q 54.890625 44.34375 54.890625 33.015625 
z
" id="DejaVuSans-110"/>
       <path id="DejaVuSans-32"/>
       <path d="M 19.1875 8.296875 
L 53.609375 8.296875 
L 53.609375 0 
L 7.328125 0 
L 7.328125 8.296875 
Q 12.9375 14.109375 22.625 23.890625 
Q 32.328125 33.6875 34.8125 36.53125 
Q 39.546875 41.84375 41.421875 45.53125 
Q 43.3125 49.21875 43.3125 52.78125 
Q 43.3125 58.59375 39.234375 62.25 
Q 35.15625 65.921875 28.609375 65.921875 
Q 23.96875 65.921875 18.8125 64.3125 
Q 13.671875 62.703125 7.8125 59.421875 
L 7.8125 69.390625 
Q 13.765625 71.78125 18.9375 73 
Q 24.125 74.21875 28.421875 74.21875 
Q 39.75 74.21875 46.484375 68.546875 
Q 53.21875 62.890625 53.21875 53.421875 
Q 53.21875 48.921875 51.53125 44.890625 
Q 49.859375 40.875 45.40625 35.40625 
Q 44.1875 33.984375 37.640625 27.21875 
Q 31.109375 20.453125 19.1875 8.296875 
z
" id="DejaVuSans-50"/>
       <path d="M 31.78125 66.40625 
Q 24.171875 66.40625 20.328125 58.90625 
Q 16.5 51.421875 16.5 36.375 
Q 16.5 21.390625 20.328125 13.890625 
Q 24.171875 6.390625 31.78125 6.390625 
Q 39.453125 6.390625 43.28125 13.890625 
Q 47.125 21.390625 47.125 36.375 
Q 47.125 51.421875 43.28125 58.90625 
Q 39.453125 66.40625 31.78125 66.40625 
z
M 31.78125 74.21875 
Q 44.046875 74.21875 50.515625 64.515625 
Q 56.984375 54.828125 56.984375 36.375 
Q 56.984375 17.96875 50.515625 8.265625 
Q 44.046875 -1.421875 31.78125 -1.421875 
Q 19.53125 -1.421875 13.0625 8.265625 
Q 6.59375 17.96875 6.59375 36.375 
Q 6.59375 54.828125 13.0625 64.515625 
Q 19.53125 74.21875 31.78125 74.21875 
z
" id="DejaVuSans-48"/>
       <path d="M 12.40625 8.296875 
L 28.515625 8.296875 
L 28.515625 63.921875 
L 10.984375 60.40625 
L 10.984375 69.390625 
L 28.421875 72.90625 
L 38.28125 72.90625 
L 38.28125 8.296875 
L 54.390625 8.296875 
L 54.390625 0 
L 12.40625 0 
z
" id="DejaVuSans-49"/>
       <path d="M 33.015625 40.375 
Q 26.375 40.375 22.484375 35.828125 
Q 18.609375 31.296875 18.609375 23.390625 
Q 18.609375 15.53125 22.484375 10.953125 
Q 26.375 6.390625 33.015625 6.390625 
Q 39.65625 6.390625 43.53125 10.953125 
Q 47.40625 15.53125 47.40625 23.390625 
Q 47.40625 31.296875 43.53125 35.828125 
Q 39.65625 40.375 33.015625 40.375 
z
M 52.59375 71.296875 
L 52.59375 62.3125 
Q 48.875 64.0625 45.09375 64.984375 
Q 41.3125 65.921875 37.59375 65.921875 
Q 27.828125 65.921875 22.671875 59.328125 
Q 17.53125 52.734375 16.796875 39.40625 
Q 19.671875 43.65625 24.015625 45.921875 
Q 28.375 48.1875 33.59375 48.1875 
Q 44.578125 48.1875 50.953125 41.515625 
Q 57.328125 34.859375 57.328125 23.390625 
Q 57.328125 12.15625 50.6875 5.359375 
Q 44.046875 -1.421875 33.015625 -1.421875 
Q 20.359375 -1.421875 13.671875 8.265625 
Q 6.984375 17.96875 6.984375 36.375 
Q 6.984375 53.65625 15.1875 63.9375 
Q 23.390625 74.21875 37.203125 74.21875 
Q 40.921875 74.21875 44.703125 73.484375 
Q 48.484375 72.75 52.59375 71.296875 
z
" id="DejaVuSans-54"/>
      </defs>
      <g transform="translate(113.64567 593.073346)rotate(-45)scale(0.16 -0.16)">
       <use xlink:href="#DejaVuSans-74"/>
       <use x="29.492188" xlink:href="#DejaVuSans-117"/>
       <use x="92.871094" xlink:href="#DejaVuSans-110"/>
       <use x="156.25" xlink:href="#DejaVuSans-32"/>
       <use x="188.037109" xlink:href="#DejaVuSans-50"/>
       <use x="251.660156" xlink:href="#DejaVuSans-48"/>
       <use x="315.283203" xlink:href="#DejaVuSans-49"/>
       <use x="378.90625" xlink:href="#DejaVuSans-54"/>
      </g>
     </g>
    </g>
    <g id="xtick_2">
     <g id="line2d_3">
      <path clip-path="url(#p161bfb70ee)" d="M 215.727411 527.41 
L 215.727411 38.17 
" style="fill:none;stroke:#b0b0b0;stroke-linecap:square;stroke-width:0.8;"/>
     </g>
     <g id="line2d_4">
      <g>
       <use style="stroke:#000000;stroke-width:0.8;" x="215.727411" xlink:href="#mff537163b5" y="527.41"/>
      </g>
     </g>
     <g id="text_2">
      <!-- Dec 2016 -->
      <defs>
       <path d="M 19.671875 64.796875 
L 19.671875 8.109375 
L 31.59375 8.109375 
Q 46.6875 8.109375 53.6875 14.9375 
Q 60.6875 21.78125 60.6875 36.53125 
Q 60.6875 51.171875 53.6875 57.984375 
Q 46.6875 64.796875 31.59375 64.796875 
z
M 9.8125 72.90625 
L 30.078125 72.90625 
Q 51.265625 72.90625 61.171875 64.09375 
Q 71.09375 55.28125 71.09375 36.53125 
Q 71.09375 17.671875 61.125 8.828125 
Q 51.171875 0 30.078125 0 
L 9.8125 0 
z
" id="DejaVuSans-68"/>
       <path d="M 56.203125 29.59375 
L 56.203125 25.203125 
L 14.890625 25.203125 
Q 15.484375 15.921875 20.484375 11.0625 
Q 25.484375 6.203125 34.421875 6.203125 
Q 39.59375 6.203125 44.453125 7.46875 
Q 49.3125 8.734375 54.109375 11.28125 
L 54.109375 2.78125 
Q 49.265625 0.734375 44.1875 -0.34375 
Q 39.109375 -1.421875 33.890625 -1.421875 
Q 20.796875 -1.421875 13.15625 6.1875 
Q 5.515625 13.8125 5.515625 26.8125 
Q 5.515625 40.234375 12.765625 48.109375 
Q 20.015625 56 32.328125 56 
Q 43.359375 56 49.78125 48.890625 
Q 56.203125 41.796875 56.203125 29.59375 
z
M 47.21875 32.234375 
Q 47.125 39.59375 43.09375 43.984375 
Q 39.0625 48.390625 32.421875 48.390625 
Q 24.90625 48.390625 20.390625 44.140625 
Q 15.875 39.890625 15.1875 32.171875 
z
" id="DejaVuSans-101"/>
       <path d="M 48.78125 52.59375 
L 48.78125 44.1875 
Q 44.96875 46.296875 41.140625 47.34375 
Q 37.3125 48.390625 33.40625 48.390625 
Q 24.65625 48.390625 19.8125 42.84375 
Q 14.984375 37.3125 14.984375 27.296875 
Q 14.984375 17.28125 19.8125 11.734375 
Q 24.65625 6.203125 33.40625 6.203125 
Q 37.3125 6.203125 41.140625 7.25 
Q 44.96875 8.296875 48.78125 10.40625 
L 48.78125 2.09375 
Q 45.015625 0.34375 40.984375 -0.53125 
Q 36.96875 -1.421875 32.421875 -1.421875 
Q 20.0625 -1.421875 12.78125 6.34375 
Q 5.515625 14.109375 5.515625 27.296875 
Q 5.515625 40.671875 12.859375 48.328125 
Q 20.21875 56 33.015625 56 
Q 37.15625 56 41.109375 55.140625 
Q 45.0625 54.296875 48.78125 52.59375 
z
" id="DejaVuSans-99"/>
      </defs>
      <g transform="translate(191.707877 597.289471)rotate(-45)scale(0.16 -0.16)">
       <use xlink:href="#DejaVuSans-68"/>
       <use x="77.001953" xlink:href="#DejaVuSans-101"/>
       <use x="138.525391" xlink:href="#DejaVuSans-99"/>
       <use x="193.505859" xlink:href="#DejaVuSans-32"/>
       <use x="225.292969" xlink:href="#DejaVuSans-50"/>
       <use x="288.916016" xlink:href="#DejaVuSans-48"/>
       <use x="352.539062" xlink:href="#DejaVuSans-49"/>
       <use x="416.162109" xlink:href="#DejaVuSans-54"/>
      </g>
     </g>
    </g>
    <g id="xtick_3">
     <g id="line2d_5">
      <path clip-path="url(#p161bfb70ee)" d="M 295.459592 527.41 
L 295.459592 38.17 
" style="fill:none;stroke:#b0b0b0;stroke-linecap:square;stroke-width:0.8;"/>
     </g>
     <g id="line2d_6">
      <g>
       <use style="stroke:#000000;stroke-width:0.8;" x="295.459592" xlink:href="#mff537163b5" y="527.41"/>
      </g>
     </g>
     <g id="text_3">
      <!-- Jun 2017 -->
      <defs>
       <path d="M 8.203125 72.90625 
L 55.078125 72.90625 
L 55.078125 68.703125 
L 28.609375 0 
L 18.3125 0 
L 43.21875 64.59375 
L 8.203125 64.59375 
z
" id="DejaVuSans-55"/>
      </defs>
      <g transform="translate(273.54812 593.073346)rotate(-45)scale(0.16 -0.16)">
       <use xlink:href="#DejaVuSans-74"/>
       <use x="29.492188" xlink:href="#DejaVuSans-117"/>
       <use x="92.871094" xlink:href="#DejaVuSans-110"/>
       <use x="156.25" xlink:href="#DejaVuSans-32"/>
       <use x="188.037109" xlink:href="#DejaVuSans-50"/>
       <use x="251.660156" xlink:href="#DejaVuSans-48"/>
       <use x="315.283203" xlink:href="#DejaVuSans-49"/>
       <use x="378.90625" xlink:href="#DejaVuSans-55"/>
      </g>
     </g>
    </g>
    <g id="xtick_4">
     <g id="line2d_7">
      <path clip-path="url(#p161bfb70ee)" d="M 375.629862 527.41 
L 375.629862 38.17 
" style="fill:none;stroke:#b0b0b0;stroke-linecap:square;stroke-width:0.8;"/>
     </g>
     <g id="line2d_8">
      <g>
       <use style="stroke:#000000;stroke-width:0.8;" x="375.629862" xlink:href="#mff537163b5" y="527.41"/>
      </g>
     </g>
     <g id="text_4">
      <!-- Dec 2017 -->
      <g transform="translate(351.610328 597.289471)rotate(-45)scale(0.16 -0.16)">
       <use xlink:href="#DejaVuSans-68"/>
       <use x="77.001953" xlink:href="#DejaVuSans-101"/>
       <use x="138.525391" xlink:href="#DejaVuSans-99"/>
       <use x="193.505859" xlink:href="#DejaVuSans-32"/>
       <use x="225.292969" xlink:href="#DejaVuSans-50"/>
       <use x="288.916016" xlink:href="#DejaVuSans-48"/>
       <use x="352.539062" xlink:href="#DejaVuSans-49"/>
       <use x="416.162109" xlink:href="#DejaVuSans-55"/>
      </g>
     </g>
    </g>
    <g id="xtick_5">
     <g id="line2d_9">
      <path clip-path="url(#p161bfb70ee)" d="M 455.362042 527.41 
L 455.362042 38.17 
" style="fill:none;stroke:#b0b0b0;stroke-linecap:square;stroke-width:0.8;"/>
     </g>
     <g id="line2d_10">
      <g>
       <use style="stroke:#000000;stroke-width:0.8;" x="455.362042" xlink:href="#mff537163b5" y="527.41"/>
      </g>
     </g>
     <g id="text_5">
      <!-- Jun 2018 -->
      <defs>
       <path d="M 31.78125 34.625 
Q 24.75 34.625 20.71875 30.859375 
Q 16.703125 27.09375 16.703125 20.515625 
Q 16.703125 13.921875 20.71875 10.15625 
Q 24.75 6.390625 31.78125 6.390625 
Q 38.8125 6.390625 42.859375 10.171875 
Q 46.921875 13.96875 46.921875 20.515625 
Q 46.921875 27.09375 42.890625 30.859375 
Q 38.875 34.625 31.78125 34.625 
z
M 21.921875 38.8125 
Q 15.578125 40.375 12.03125 44.71875 
Q 8.5 49.078125 8.5 55.328125 
Q 8.5 64.0625 14.71875 69.140625 
Q 20.953125 74.21875 31.78125 74.21875 
Q 42.671875 74.21875 48.875 69.140625 
Q 55.078125 64.0625 55.078125 55.328125 
Q 55.078125 49.078125 51.53125 44.71875 
Q 48 40.375 41.703125 38.8125 
Q 48.828125 37.15625 52.796875 32.3125 
Q 56.78125 27.484375 56.78125 20.515625 
Q 56.78125 9.90625 50.3125 4.234375 
Q 43.84375 -1.421875 31.78125 -1.421875 
Q 19.734375 -1.421875 13.25 4.234375 
Q 6.78125 9.90625 6.78125 20.515625 
Q 6.78125 27.484375 10.78125 32.3125 
Q 14.796875 37.15625 21.921875 38.8125 
z
M 18.3125 54.390625 
Q 18.3125 48.734375 21.84375 45.5625 
Q 25.390625 42.390625 31.78125 42.390625 
Q 38.140625 42.390625 41.71875 45.5625 
Q 45.3125 48.734375 45.3125 54.390625 
Q 45.3125 60.0625 41.71875 63.234375 
Q 38.140625 66.40625 31.78125 66.40625 
Q 25.390625 66.40625 21.84375 63.234375 
Q 18.3125 60.0625 18.3125 54.390625 
z
" id="DejaVuSans-56"/>
      </defs>
      <g transform="translate(433.450571 593.073346)rotate(-45)scale(0.16 -0.16)">
       <use xlink:href="#DejaVuSans-74"/>
       <use x="29.492188" xlink:href="#DejaVuSans-117"/>
       <use x="92.871094" xlink:href="#DejaVuSans-110"/>
       <use x="156.25" xlink:href="#DejaVuSans-32"/>
       <use x="188.037109" xlink:href="#DejaVuSans-50"/>
       <use x="251.660156" xlink:href="#DejaVuSans-48"/>
       <use x="315.283203" xlink:href="#DejaVuSans-49"/>
       <use x="378.90625" xlink:href="#DejaVuSans-56"/>
      </g>
     </g>
    </g>
    <g id="xtick_6">
     <g id="line2d_11">
      <path clip-path="url(#p161bfb70ee)" d="M 535.532312 527.41 
L 535.532312 38.17 
" style="fill:none;stroke:#b0b0b0;stroke-linecap:square;stroke-width:0.8;"/>
     </g>
     <g id="line2d_12">
      <g>
       <use style="stroke:#000000;stroke-width:0.8;" x="535.532312" xlink:href="#mff537163b5" y="527.41"/>
      </g>
     </g>
     <g id="text_6">
      <!-- Dec 2018 -->
      <g transform="translate(511.512779 597.289471)rotate(-45)scale(0.16 -0.16)">
       <use xlink:href="#DejaVuSans-68"/>
       <use x="77.001953" xlink:href="#DejaVuSans-101"/>
       <use x="138.525391" xlink:href="#DejaVuSans-99"/>
       <use x="193.505859" xlink:href="#DejaVuSans-32"/>
       <use x="225.292969" xlink:href="#DejaVuSans-50"/>
       <use x="288.916016" xlink:href="#DejaVuSans-48"/>
       <use x="352.539062" xlink:href="#DejaVuSans-49"/>
       <use x="416.162109" xlink:href="#DejaVuSans-56"/>
      </g>
     </g>
    </g>
    <g id="xtick_7">
     <g id="line2d_13">
      <path clip-path="url(#p161bfb70ee)" d="M 615.264493 527.41 
L 615.264493 38.17 
" style="fill:none;stroke:#b0b0b0;stroke-linecap:square;stroke-width:0.8;"/>
     </g>
     <g id="line2d_14">
      <g>
       <use style="stroke:#000000;stroke-width:0.8;" x="615.264493" xlink:href="#mff537163b5" y="527.41"/>
      </g>
     </g>
     <g id="text_7">
      <!-- Jun 2019 -->
      <defs>
       <path d="M 10.984375 1.515625 
L 10.984375 10.5 
Q 14.703125 8.734375 18.5 7.8125 
Q 22.3125 6.890625 25.984375 6.890625 
Q 35.75 6.890625 40.890625 13.453125 
Q 46.046875 20.015625 46.78125 33.40625 
Q 43.953125 29.203125 39.59375 26.953125 
Q 35.25 24.703125 29.984375 24.703125 
Q 19.046875 24.703125 12.671875 31.3125 
Q 6.296875 37.9375 6.296875 49.421875 
Q 6.296875 60.640625 12.9375 67.421875 
Q 19.578125 74.21875 30.609375 74.21875 
Q 43.265625 74.21875 49.921875 64.515625 
Q 56.59375 54.828125 56.59375 36.375 
Q 56.59375 19.140625 48.40625 8.859375 
Q 40.234375 -1.421875 26.421875 -1.421875 
Q 22.703125 -1.421875 18.890625 -0.6875 
Q 15.09375 0.046875 10.984375 1.515625 
z
M 30.609375 32.421875 
Q 37.25 32.421875 41.125 36.953125 
Q 45.015625 41.5 45.015625 49.421875 
Q 45.015625 57.28125 41.125 61.84375 
Q 37.25 66.40625 30.609375 66.40625 
Q 23.96875 66.40625 20.09375 61.84375 
Q 16.21875 57.28125 16.21875 49.421875 
Q 16.21875 41.5 20.09375 36.953125 
Q 23.96875 32.421875 30.609375 32.421875 
z
" id="DejaVuSans-57"/>
      </defs>
      <g transform="translate(593.353022 593.073346)rotate(-45)scale(0.16 -0.16)">
       <use xlink:href="#DejaVuSans-74"/>
       <use x="29.492188" xlink:href="#DejaVuSans-117"/>
       <use x="92.871094" xlink:href="#DejaVuSans-110"/>
       <use x="156.25" xlink:href="#DejaVuSans-32"/>
       <use x="188.037109" xlink:href="#DejaVuSans-50"/>
       <use x="251.660156" xlink:href="#DejaVuSans-48"/>
       <use x="315.283203" xlink:href="#DejaVuSans-49"/>
       <use x="378.90625" xlink:href="#DejaVuSans-57"/>
      </g>
     </g>
    </g>
    <g id="xtick_8">
     <g id="line2d_15">
      <path clip-path="url(#p161bfb70ee)" d="M 695.434763 527.41 
L 695.434763 38.17 
" style="fill:none;stroke:#b0b0b0;stroke-linecap:square;stroke-width:0.8;"/>
     </g>
     <g id="line2d_16">
      <g>
       <use style="stroke:#000000;stroke-width:0.8;" x="695.434763" xlink:href="#mff537163b5" y="527.41"/>
      </g>
     </g>
     <g id="text_8">
      <!-- Dec 2019 -->
      <g transform="translate(671.415229 597.289471)rotate(-45)scale(0.16 -0.16)">
       <use xlink:href="#DejaVuSans-68"/>
       <use x="77.001953" xlink:href="#DejaVuSans-101"/>
       <use x="138.525391" xlink:href="#DejaVuSans-99"/>
       <use x="193.505859" xlink:href="#DejaVuSans-32"/>
       <use x="225.292969" xlink:href="#DejaVuSans-50"/>
       <use x="288.916016" xlink:href="#DejaVuSans-48"/>
       <use x="352.539062" xlink:href="#DejaVuSans-49"/>
       <use x="416.162109" xlink:href="#DejaVuSans-57"/>
      </g>
     </g>
    </g>
    <g id="xtick_9">
     <g id="line2d_17">
      <path clip-path="url(#p161bfb70ee)" d="M 775.605033 527.41 
L 775.605033 38.17 
" style="fill:none;stroke:#b0b0b0;stroke-linecap:square;stroke-width:0.8;"/>
     </g>
     <g id="line2d_18">
      <g>
       <use style="stroke:#000000;stroke-width:0.8;" x="775.605033" xlink:href="#mff537163b5" y="527.41"/>
      </g>
     </g>
     <g id="text_9">
      <!-- Jun 2020 -->
      <g transform="translate(753.693561 593.073346)rotate(-45)scale(0.16 -0.16)">
       <use xlink:href="#DejaVuSans-74"/>
       <use x="29.492188" xlink:href="#DejaVuSans-117"/>
       <use x="92.871094" xlink:href="#DejaVuSans-110"/>
       <use x="156.25" xlink:href="#DejaVuSans-32"/>
       <use x="188.037109" xlink:href="#DejaVuSans-50"/>
       <use x="251.660156" xlink:href="#DejaVuSans-48"/>
       <use x="315.283203" xlink:href="#DejaVuSans-50"/>
       <use x="378.90625" xlink:href="#DejaVuSans-48"/>
      </g>
     </g>
    </g>
    <g id="xtick_10">
     <g id="line2d_19">
      <path clip-path="url(#p161bfb70ee)" d="M 855.775302 527.41 
L 855.775302 38.17 
" style="fill:none;stroke:#b0b0b0;stroke-linecap:square;stroke-width:0.8;"/>
     </g>
     <g id="line2d_20">
      <g>
       <use style="stroke:#000000;stroke-width:0.8;" x="855.775302" xlink:href="#mff537163b5" y="527.41"/>
      </g>
     </g>
     <g id="text_10">
      <!-- Dec 2020 -->
      <g transform="translate(831.755769 597.289471)rotate(-45)scale(0.16 -0.16)">
       <use xlink:href="#DejaVuSans-68"/>
       <use x="77.001953" xlink:href="#DejaVuSans-101"/>
       <use x="138.525391" xlink:href="#DejaVuSans-99"/>
       <use x="193.505859" xlink:href="#DejaVuSans-32"/>
       <use x="225.292969" xlink:href="#DejaVuSans-50"/>
       <use x="288.916016" xlink:href="#DejaVuSans-48"/>
       <use x="352.539062" xlink:href="#DejaVuSans-50"/>
       <use x="416.162109" xlink:href="#DejaVuSans-48"/>
      </g>
     </g>
    </g>
    <g id="xtick_11">
     <g id="line2d_21">
      <path clip-path="url(#p161bfb70ee)" d="M 935.507483 527.41 
L 935.507483 38.17 
" style="fill:none;stroke:#b0b0b0;stroke-linecap:square;stroke-width:0.8;"/>
     </g>
     <g id="line2d_22">
      <g>
       <use style="stroke:#000000;stroke-width:0.8;" x="935.507483" xlink:href="#mff537163b5" y="527.41"/>
      </g>
     </g>
     <g id="text_11">
      <!-- Jun 2021 -->
      <g transform="translate(913.596012 593.073346)rotate(-45)scale(0.16 -0.16)">
       <use xlink:href="#DejaVuSans-74"/>
       <use x="29.492188" xlink:href="#DejaVuSans-117"/>
       <use x="92.871094" xlink:href="#DejaVuSans-110"/>
       <use x="156.25" xlink:href="#DejaVuSans-32"/>
       <use x="188.037109" xlink:href="#DejaVuSans-50"/>
       <use x="251.660156" xlink:href="#DejaVuSans-48"/>
       <use x="315.283203" xlink:href="#DejaVuSans-50"/>
       <use x="378.90625" xlink:href="#DejaVuSans-49"/>
      </g>
     </g>
    </g>
    <g id="xtick_12">
     <g id="line2d_23">
      <path clip-path="url(#p161bfb70ee)" d="M 95.472006 527.41 
L 95.472006 38.17 
" style="fill:none;stroke:#999999;stroke-linecap:square;stroke-opacity:0.2;stroke-width:0.8;"/>
     </g>
     <g id="line2d_24">
      <defs>
       <path d="M 0 0 
L 0 2 
" id="mfb0933b3c6" style="stroke:#000000;stroke-width:0.6;"/>
      </defs>
      <g>
       <use style="stroke:#000000;stroke-width:0.6;" x="95.472006" xlink:href="#mfb0933b3c6" y="527.41"/>
      </g>
     </g>
    </g>
    <g id="xtick_13">
     <g id="line2d_25">
      <path clip-path="url(#p161bfb70ee)" d="M 115.514574 527.41 
L 115.514574 38.17 
" style="fill:none;stroke:#999999;stroke-linecap:square;stroke-opacity:0.2;stroke-width:0.8;"/>
     </g>
     <g id="line2d_26">
      <g>
       <use style="stroke:#000000;stroke-width:0.6;" x="115.514574" xlink:href="#mfb0933b3c6" y="527.41"/>
      </g>
     </g>
    </g>
    <g id="xtick_14">
     <g id="line2d_27">
      <path clip-path="url(#p161bfb70ee)" d="M 155.599709 527.41 
L 155.599709 38.17 
" style="fill:none;stroke:#999999;stroke-linecap:square;stroke-opacity:0.2;stroke-width:0.8;"/>
     </g>
     <g id="line2d_28">
      <g>
       <use style="stroke:#000000;stroke-width:0.6;" x="155.599709" xlink:href="#mfb0933b3c6" y="527.41"/>
      </g>
     </g>
    </g>
    <g id="xtick_15">
     <g id="line2d_29">
      <path clip-path="url(#p161bfb70ee)" d="M 175.642276 527.41 
L 175.642276 38.17 
" style="fill:none;stroke:#999999;stroke-linecap:square;stroke-opacity:0.2;stroke-width:0.8;"/>
     </g>
     <g id="line2d_30">
      <g>
       <use style="stroke:#000000;stroke-width:0.6;" x="175.642276" xlink:href="#mfb0933b3c6" y="527.41"/>
      </g>
     </g>
    </g>
    <g id="xtick_16">
     <g id="line2d_31">
      <path clip-path="url(#p161bfb70ee)" d="M 195.684843 527.41 
L 195.684843 38.17 
" style="fill:none;stroke:#999999;stroke-linecap:square;stroke-opacity:0.2;stroke-width:0.8;"/>
     </g>
     <g id="line2d_32">
      <g>
       <use style="stroke:#000000;stroke-width:0.6;" x="195.684843" xlink:href="#mfb0933b3c6" y="527.41"/>
      </g>
     </g>
    </g>
    <g id="xtick_17">
     <g id="line2d_33">
      <path clip-path="url(#p161bfb70ee)" d="M 235.769978 527.41 
L 235.769978 38.17 
" style="fill:none;stroke:#999999;stroke-linecap:square;stroke-opacity:0.2;stroke-width:0.8;"/>
     </g>
     <g id="line2d_34">
      <g>
       <use style="stroke:#000000;stroke-width:0.6;" x="235.769978" xlink:href="#mfb0933b3c6" y="527.41"/>
      </g>
     </g>
    </g>
    <g id="xtick_18">
     <g id="line2d_35">
      <path clip-path="url(#p161bfb70ee)" d="M 255.812546 527.41 
L 255.812546 38.17 
" style="fill:none;stroke:#999999;stroke-linecap:square;stroke-opacity:0.2;stroke-width:0.8;"/>
     </g>
     <g id="line2d_36">
      <g>
       <use style="stroke:#000000;stroke-width:0.6;" x="255.812546" xlink:href="#mfb0933b3c6" y="527.41"/>
      </g>
     </g>
    </g>
    <g id="xtick_19">
     <g id="line2d_37">
      <path clip-path="url(#p161bfb70ee)" d="M 275.855113 527.41 
L 275.855113 38.17 
" style="fill:none;stroke:#999999;stroke-linecap:square;stroke-opacity:0.2;stroke-width:0.8;"/>
     </g>
     <g id="line2d_38">
      <g>
       <use style="stroke:#000000;stroke-width:0.6;" x="275.855113" xlink:href="#mfb0933b3c6" y="527.41"/>
      </g>
     </g>
    </g>
    <g id="xtick_20">
     <g id="line2d_39">
      <path clip-path="url(#p161bfb70ee)" d="M 295.897681 527.41 
L 295.897681 38.17 
" style="fill:none;stroke:#999999;stroke-linecap:square;stroke-opacity:0.2;stroke-width:0.8;"/>
     </g>
     <g id="line2d_40">
      <g>
       <use style="stroke:#000000;stroke-width:0.6;" x="295.897681" xlink:href="#mfb0933b3c6" y="527.41"/>
      </g>
     </g>
    </g>
    <g id="xtick_21">
     <g id="line2d_41">
      <path clip-path="url(#p161bfb70ee)" d="M 315.940248 527.41 
L 315.940248 38.17 
" style="fill:none;stroke:#999999;stroke-linecap:square;stroke-opacity:0.2;stroke-width:0.8;"/>
     </g>
     <g id="line2d_42">
      <g>
       <use style="stroke:#000000;stroke-width:0.6;" x="315.940248" xlink:href="#mfb0933b3c6" y="527.41"/>
      </g>
     </g>
    </g>
    <g id="xtick_22">
     <g id="line2d_43">
      <path clip-path="url(#p161bfb70ee)" d="M 335.982816 527.41 
L 335.982816 38.17 
" style="fill:none;stroke:#999999;stroke-linecap:square;stroke-opacity:0.2;stroke-width:0.8;"/>
     </g>
     <g id="line2d_44">
      <g>
       <use style="stroke:#000000;stroke-width:0.6;" x="335.982816" xlink:href="#mfb0933b3c6" y="527.41"/>
      </g>
     </g>
    </g>
    <g id="xtick_23">
     <g id="line2d_45">
      <path clip-path="url(#p161bfb70ee)" d="M 356.025383 527.41 
L 356.025383 38.17 
" style="fill:none;stroke:#999999;stroke-linecap:square;stroke-opacity:0.2;stroke-width:0.8;"/>
     </g>
     <g id="line2d_46">
      <g>
       <use style="stroke:#000000;stroke-width:0.6;" x="356.025383" xlink:href="#mfb0933b3c6" y="527.41"/>
      </g>
     </g>
    </g>
    <g id="xtick_24">
     <g id="line2d_47">
      <path clip-path="url(#p161bfb70ee)" d="M 376.06795 527.41 
L 376.06795 38.17 
" style="fill:none;stroke:#999999;stroke-linecap:square;stroke-opacity:0.2;stroke-width:0.8;"/>
     </g>
     <g id="line2d_48">
      <g>
       <use style="stroke:#000000;stroke-width:0.6;" x="376.06795" xlink:href="#mfb0933b3c6" y="527.41"/>
      </g>
     </g>
    </g>
    <g id="xtick_25">
     <g id="line2d_49">
      <path clip-path="url(#p161bfb70ee)" d="M 396.110518 527.41 
L 396.110518 38.17 
" style="fill:none;stroke:#999999;stroke-linecap:square;stroke-opacity:0.2;stroke-width:0.8;"/>
     </g>
     <g id="line2d_50">
      <g>
       <use style="stroke:#000000;stroke-width:0.6;" x="396.110518" xlink:href="#mfb0933b3c6" y="527.41"/>
      </g>
     </g>
    </g>
    <g id="xtick_26">
     <g id="line2d_51">
      <path clip-path="url(#p161bfb70ee)" d="M 416.153085 527.41 
L 416.153085 38.17 
" style="fill:none;stroke:#999999;stroke-linecap:square;stroke-opacity:0.2;stroke-width:0.8;"/>
     </g>
     <g id="line2d_52">
      <g>
       <use style="stroke:#000000;stroke-width:0.6;" x="416.153085" xlink:href="#mfb0933b3c6" y="527.41"/>
      </g>
     </g>
    </g>
    <g id="xtick_27">
     <g id="line2d_53">
      <path clip-path="url(#p161bfb70ee)" d="M 436.195653 527.41 
L 436.195653 38.17 
" style="fill:none;stroke:#999999;stroke-linecap:square;stroke-opacity:0.2;stroke-width:0.8;"/>
     </g>
     <g id="line2d_54">
      <g>
       <use style="stroke:#000000;stroke-width:0.6;" x="436.195653" xlink:href="#mfb0933b3c6" y="527.41"/>
      </g>
     </g>
    </g>
    <g id="xtick_28">
     <g id="line2d_55">
      <path clip-path="url(#p161bfb70ee)" d="M 456.23822 527.41 
L 456.23822 38.17 
" style="fill:none;stroke:#999999;stroke-linecap:square;stroke-opacity:0.2;stroke-width:0.8;"/>
     </g>
     <g id="line2d_56">
      <g>
       <use style="stroke:#000000;stroke-width:0.6;" x="456.23822" xlink:href="#mfb0933b3c6" y="527.41"/>
      </g>
     </g>
    </g>
    <g id="xtick_29">
     <g id="line2d_57">
      <path clip-path="url(#p161bfb70ee)" d="M 476.280788 527.41 
L 476.280788 38.17 
" style="fill:none;stroke:#999999;stroke-linecap:square;stroke-opacity:0.2;stroke-width:0.8;"/>
     </g>
     <g id="line2d_58">
      <g>
       <use style="stroke:#000000;stroke-width:0.6;" x="476.280788" xlink:href="#mfb0933b3c6" y="527.41"/>
      </g>
     </g>
    </g>
    <g id="xtick_30">
     <g id="line2d_59">
      <path clip-path="url(#p161bfb70ee)" d="M 496.323355 527.41 
L 496.323355 38.17 
" style="fill:none;stroke:#999999;stroke-linecap:square;stroke-opacity:0.2;stroke-width:0.8;"/>
     </g>
     <g id="line2d_60">
      <g>
       <use style="stroke:#000000;stroke-width:0.6;" x="496.323355" xlink:href="#mfb0933b3c6" y="527.41"/>
      </g>
     </g>
    </g>
    <g id="xtick_31">
     <g id="line2d_61">
      <path clip-path="url(#p161bfb70ee)" d="M 516.365923 527.41 
L 516.365923 38.17 
" style="fill:none;stroke:#999999;stroke-linecap:square;stroke-opacity:0.2;stroke-width:0.8;"/>
     </g>
     <g id="line2d_62">
      <g>
       <use style="stroke:#000000;stroke-width:0.6;" x="516.365923" xlink:href="#mfb0933b3c6" y="527.41"/>
      </g>
     </g>
    </g>
    <g id="xtick_32">
     <g id="line2d_63">
      <path clip-path="url(#p161bfb70ee)" d="M 536.40849 527.41 
L 536.40849 38.17 
" style="fill:none;stroke:#999999;stroke-linecap:square;stroke-opacity:0.2;stroke-width:0.8;"/>
     </g>
     <g id="line2d_64">
      <g>
       <use style="stroke:#000000;stroke-width:0.6;" x="536.40849" xlink:href="#mfb0933b3c6" y="527.41"/>
      </g>
     </g>
    </g>
    <g id="xtick_33">
     <g id="line2d_65">
      <path clip-path="url(#p161bfb70ee)" d="M 556.451057 527.41 
L 556.451057 38.17 
" style="fill:none;stroke:#999999;stroke-linecap:square;stroke-opacity:0.2;stroke-width:0.8;"/>
     </g>
     <g id="line2d_66">
      <g>
       <use style="stroke:#000000;stroke-width:0.6;" x="556.451057" xlink:href="#mfb0933b3c6" y="527.41"/>
      </g>
     </g>
    </g>
    <g id="xtick_34">
     <g id="line2d_67">
      <path clip-path="url(#p161bfb70ee)" d="M 576.493625 527.41 
L 576.493625 38.17 
" style="fill:none;stroke:#999999;stroke-linecap:square;stroke-opacity:0.2;stroke-width:0.8;"/>
     </g>
     <g id="line2d_68">
      <g>
       <use style="stroke:#000000;stroke-width:0.6;" x="576.493625" xlink:href="#mfb0933b3c6" y="527.41"/>
      </g>
     </g>
    </g>
    <g id="xtick_35">
     <g id="line2d_69">
      <path clip-path="url(#p161bfb70ee)" d="M 596.536192 527.41 
L 596.536192 38.17 
" style="fill:none;stroke:#999999;stroke-linecap:square;stroke-opacity:0.2;stroke-width:0.8;"/>
     </g>
     <g id="line2d_70">
      <g>
       <use style="stroke:#000000;stroke-width:0.6;" x="596.536192" xlink:href="#mfb0933b3c6" y="527.41"/>
      </g>
     </g>
    </g>
    <g id="xtick_36">
     <g id="line2d_71">
      <path clip-path="url(#p161bfb70ee)" d="M 616.57876 527.41 
L 616.57876 38.17 
" style="fill:none;stroke:#999999;stroke-linecap:square;stroke-opacity:0.2;stroke-width:0.8;"/>
     </g>
     <g id="line2d_72">
      <g>
       <use style="stroke:#000000;stroke-width:0.6;" x="616.57876" xlink:href="#mfb0933b3c6" y="527.41"/>
      </g>
     </g>
    </g>
    <g id="xtick_37">
     <g id="line2d_73">
      <path clip-path="url(#p161bfb70ee)" d="M 636.621327 527.41 
L 636.621327 38.17 
" style="fill:none;stroke:#999999;stroke-linecap:square;stroke-opacity:0.2;stroke-width:0.8;"/>
     </g>
     <g id="line2d_74">
      <g>
       <use style="stroke:#000000;stroke-width:0.6;" x="636.621327" xlink:href="#mfb0933b3c6" y="527.41"/>
      </g>
     </g>
    </g>
    <g id="xtick_38">
     <g id="line2d_75">
      <path clip-path="url(#p161bfb70ee)" d="M 656.663895 527.41 
L 656.663895 38.17 
" style="fill:none;stroke:#999999;stroke-linecap:square;stroke-opacity:0.2;stroke-width:0.8;"/>
     </g>
     <g id="line2d_76">
      <g>
       <use style="stroke:#000000;stroke-width:0.6;" x="656.663895" xlink:href="#mfb0933b3c6" y="527.41"/>
      </g>
     </g>
    </g>
    <g id="xtick_39">
     <g id="line2d_77">
      <path clip-path="url(#p161bfb70ee)" d="M 676.706462 527.41 
L 676.706462 38.17 
" style="fill:none;stroke:#999999;stroke-linecap:square;stroke-opacity:0.2;stroke-width:0.8;"/>
     </g>
     <g id="line2d_78">
      <g>
       <use style="stroke:#000000;stroke-width:0.6;" x="676.706462" xlink:href="#mfb0933b3c6" y="527.41"/>
      </g>
     </g>
    </g>
    <g id="xtick_40">
     <g id="line2d_79">
      <path clip-path="url(#p161bfb70ee)" d="M 696.74903 527.41 
L 696.74903 38.17 
" style="fill:none;stroke:#999999;stroke-linecap:square;stroke-opacity:0.2;stroke-width:0.8;"/>
     </g>
     <g id="line2d_80">
      <g>
       <use style="stroke:#000000;stroke-width:0.6;" x="696.74903" xlink:href="#mfb0933b3c6" y="527.41"/>
      </g>
     </g>
    </g>
    <g id="xtick_41">
     <g id="line2d_81">
      <path clip-path="url(#p161bfb70ee)" d="M 716.791597 527.41 
L 716.791597 38.17 
" style="fill:none;stroke:#999999;stroke-linecap:square;stroke-opacity:0.2;stroke-width:0.8;"/>
     </g>
     <g id="line2d_82">
      <g>
       <use style="stroke:#000000;stroke-width:0.6;" x="716.791597" xlink:href="#mfb0933b3c6" y="527.41"/>
      </g>
     </g>
    </g>
    <g id="xtick_42">
     <g id="line2d_83">
      <path clip-path="url(#p161bfb70ee)" d="M 736.834164 527.41 
L 736.834164 38.17 
" style="fill:none;stroke:#999999;stroke-linecap:square;stroke-opacity:0.2;stroke-width:0.8;"/>
     </g>
     <g id="line2d_84">
      <g>
       <use style="stroke:#000000;stroke-width:0.6;" x="736.834164" xlink:href="#mfb0933b3c6" y="527.41"/>
      </g>
     </g>
    </g>
    <g id="xtick_43">
     <g id="line2d_85">
      <path clip-path="url(#p161bfb70ee)" d="M 756.876732 527.41 
L 756.876732 38.17 
" style="fill:none;stroke:#999999;stroke-linecap:square;stroke-opacity:0.2;stroke-width:0.8;"/>
     </g>
     <g id="line2d_86">
      <g>
       <use style="stroke:#000000;stroke-width:0.6;" x="756.876732" xlink:href="#mfb0933b3c6" y="527.41"/>
      </g>
     </g>
    </g>
    <g id="xtick_44">
     <g id="line2d_87">
      <path clip-path="url(#p161bfb70ee)" d="M 776.919299 527.41 
L 776.919299 38.17 
" style="fill:none;stroke:#999999;stroke-linecap:square;stroke-opacity:0.2;stroke-width:0.8;"/>
     </g>
     <g id="line2d_88">
      <g>
       <use style="stroke:#000000;stroke-width:0.6;" x="776.919299" xlink:href="#mfb0933b3c6" y="527.41"/>
      </g>
     </g>
    </g>
    <g id="xtick_45">
     <g id="line2d_89">
      <path clip-path="url(#p161bfb70ee)" d="M 796.961867 527.41 
L 796.961867 38.17 
" style="fill:none;stroke:#999999;stroke-linecap:square;stroke-opacity:0.2;stroke-width:0.8;"/>
     </g>
     <g id="line2d_90">
      <g>
       <use style="stroke:#000000;stroke-width:0.6;" x="796.961867" xlink:href="#mfb0933b3c6" y="527.41"/>
      </g>
     </g>
    </g>
    <g id="xtick_46">
     <g id="line2d_91">
      <path clip-path="url(#p161bfb70ee)" d="M 817.004434 527.41 
L 817.004434 38.17 
" style="fill:none;stroke:#999999;stroke-linecap:square;stroke-opacity:0.2;stroke-width:0.8;"/>
     </g>
     <g id="line2d_92">
      <g>
       <use style="stroke:#000000;stroke-width:0.6;" x="817.004434" xlink:href="#mfb0933b3c6" y="527.41"/>
      </g>
     </g>
    </g>
    <g id="xtick_47">
     <g id="line2d_93">
      <path clip-path="url(#p161bfb70ee)" d="M 837.047002 527.41 
L 837.047002 38.17 
" style="fill:none;stroke:#999999;stroke-linecap:square;stroke-opacity:0.2;stroke-width:0.8;"/>
     </g>
     <g id="line2d_94">
      <g>
       <use style="stroke:#000000;stroke-width:0.6;" x="837.047002" xlink:href="#mfb0933b3c6" y="527.41"/>
      </g>
     </g>
    </g>
    <g id="xtick_48">
     <g id="line2d_95">
      <path clip-path="url(#p161bfb70ee)" d="M 857.089569 527.41 
L 857.089569 38.17 
" style="fill:none;stroke:#999999;stroke-linecap:square;stroke-opacity:0.2;stroke-width:0.8;"/>
     </g>
     <g id="line2d_96">
      <g>
       <use style="stroke:#000000;stroke-width:0.6;" x="857.089569" xlink:href="#mfb0933b3c6" y="527.41"/>
      </g>
     </g>
    </g>
    <g id="xtick_49">
     <g id="line2d_97">
      <path clip-path="url(#p161bfb70ee)" d="M 877.132137 527.41 
L 877.132137 38.17 
" style="fill:none;stroke:#999999;stroke-linecap:square;stroke-opacity:0.2;stroke-width:0.8;"/>
     </g>
     <g id="line2d_98">
      <g>
       <use style="stroke:#000000;stroke-width:0.6;" x="877.132137" xlink:href="#mfb0933b3c6" y="527.41"/>
      </g>
     </g>
    </g>
    <g id="xtick_50">
     <g id="line2d_99">
      <path clip-path="url(#p161bfb70ee)" d="M 897.174704 527.41 
L 897.174704 38.17 
" style="fill:none;stroke:#999999;stroke-linecap:square;stroke-opacity:0.2;stroke-width:0.8;"/>
     </g>
     <g id="line2d_100">
      <g>
       <use style="stroke:#000000;stroke-width:0.6;" x="897.174704" xlink:href="#mfb0933b3c6" y="527.41"/>
      </g>
     </g>
    </g>
    <g id="xtick_51">
     <g id="line2d_101">
      <path clip-path="url(#p161bfb70ee)" d="M 917.217271 527.41 
L 917.217271 38.17 
" style="fill:none;stroke:#999999;stroke-linecap:square;stroke-opacity:0.2;stroke-width:0.8;"/>
     </g>
     <g id="line2d_102">
      <g>
       <use style="stroke:#000000;stroke-width:0.6;" x="917.217271" xlink:href="#mfb0933b3c6" y="527.41"/>
      </g>
     </g>
    </g>
    <g id="xtick_52">
     <g id="line2d_103">
      <path clip-path="url(#p161bfb70ee)" d="M 937.259839 527.41 
L 937.259839 38.17 
" style="fill:none;stroke:#999999;stroke-linecap:square;stroke-opacity:0.2;stroke-width:0.8;"/>
     </g>
     <g id="line2d_104">
      <g>
       <use style="stroke:#000000;stroke-width:0.6;" x="937.259839" xlink:href="#mfb0933b3c6" y="527.41"/>
      </g>
     </g>
    </g>
    <g id="xtick_53">
     <g id="line2d_105">
      <path clip-path="url(#p161bfb70ee)" d="M 957.302406 527.41 
L 957.302406 38.17 
" style="fill:none;stroke:#999999;stroke-linecap:square;stroke-opacity:0.2;stroke-width:0.8;"/>
     </g>
     <g id="line2d_106">
      <g>
       <use style="stroke:#000000;stroke-width:0.6;" x="957.302406" xlink:href="#mfb0933b3c6" y="527.41"/>
      </g>
     </g>
    </g>
    <g id="text_12">
     <!-- Time -->
     <defs>
      <path d="M 0.484375 72.90625 
L 67.671875 72.90625 
L 67.671875 58.6875 
L 43.5 58.6875 
L 43.5 0 
L 24.703125 0 
L 24.703125 58.6875 
L 0.484375 58.6875 
z
" id="DejaVuSans-Bold-84"/>
      <path d="M 8.40625 54.6875 
L 25.875 54.6875 
L 25.875 0 
L 8.40625 0 
z
M 8.40625 75.984375 
L 25.875 75.984375 
L 25.875 61.71875 
L 8.40625 61.71875 
z
" id="DejaVuSans-Bold-105"/>
      <path d="M 59.078125 45.609375 
Q 62.40625 50.6875 66.96875 53.34375 
Q 71.53125 56 77 56 
Q 86.421875 56 91.359375 50.1875 
Q 96.296875 44.390625 96.296875 33.296875 
L 96.296875 0 
L 78.71875 0 
L 78.71875 28.515625 
Q 78.765625 29.15625 78.78125 29.828125 
Q 78.8125 30.515625 78.8125 31.78125 
Q 78.8125 37.59375 77.09375 40.203125 
Q 75.390625 42.828125 71.578125 42.828125 
Q 66.609375 42.828125 63.890625 38.71875 
Q 61.1875 34.625 61.078125 26.859375 
L 61.078125 0 
L 43.5 0 
L 43.5 28.515625 
Q 43.5 37.59375 41.9375 40.203125 
Q 40.375 42.828125 36.375 42.828125 
Q 31.34375 42.828125 28.609375 38.703125 
Q 25.875 34.578125 25.875 26.90625 
L 25.875 0 
L 8.296875 0 
L 8.296875 54.6875 
L 25.875 54.6875 
L 25.875 46.6875 
Q 29.109375 51.3125 33.28125 53.65625 
Q 37.453125 56 42.484375 56 
Q 48.140625 56 52.484375 53.265625 
Q 56.84375 50.53125 59.078125 45.609375 
z
" id="DejaVuSans-Bold-109"/>
      <path d="M 62.984375 27.484375 
L 62.984375 22.515625 
L 22.125 22.515625 
Q 22.75 16.359375 26.5625 13.28125 
Q 30.375 10.203125 37.203125 10.203125 
Q 42.71875 10.203125 48.5 11.84375 
Q 54.296875 13.484375 60.40625 16.796875 
L 60.40625 3.328125 
Q 54.203125 0.984375 48 -0.21875 
Q 41.796875 -1.421875 35.59375 -1.421875 
Q 20.75 -1.421875 12.515625 6.125 
Q 4.296875 13.671875 4.296875 27.296875 
Q 4.296875 40.671875 12.375 48.328125 
Q 20.453125 56 34.625 56 
Q 47.515625 56 55.25 48.234375 
Q 62.984375 40.484375 62.984375 27.484375 
z
M 45.015625 33.296875 
Q 45.015625 38.28125 42.109375 41.328125 
Q 39.203125 44.390625 34.515625 44.390625 
Q 29.4375 44.390625 26.265625 41.53125 
Q 23.09375 38.671875 22.3125 33.296875 
z
" id="DejaVuSans-Bold-101"/>
     </defs>
     <g transform="translate(489.59375 621.878618)scale(0.24 -0.24)">
      <use xlink:href="#DejaVuSans-Bold-84"/>
      <use x="68.212891" xlink:href="#DejaVuSans-Bold-105"/>
      <use x="102.490234" xlink:href="#DejaVuSans-Bold-109"/>
      <use x="206.689453" xlink:href="#DejaVuSans-Bold-101"/>
     </g>
    </g>
   </g>
   <g id="matplotlib.axis_2">
    <g id="ytick_1">
     <g id="line2d_107">
      <path clip-path="url(#p161bfb70ee)" d="M 76.1375 525.93554 
L 968.9375 525.93554 
" style="fill:none;stroke:#b0b0b0;stroke-linecap:square;stroke-width:0.8;"/>
     </g>
     <g id="line2d_108">
      <defs>
       <path d="M 0 0 
L -3.5 0 
" id="m577f7a1d2c" style="stroke:#000000;stroke-width:0.8;"/>
      </defs>
      <g>
       <use style="stroke:#000000;stroke-width:0.8;" x="76.1375" xlink:href="#m577f7a1d2c" y="525.93554"/>
      </g>
     </g>
     <g id="text_13">
      <!-- 10 k -->
      <defs>
       <path d="M 9.078125 75.984375 
L 18.109375 75.984375 
L 18.109375 31.109375 
L 44.921875 54.6875 
L 56.390625 54.6875 
L 27.390625 29.109375 
L 57.625 0 
L 45.90625 0 
L 18.109375 26.703125 
L 18.109375 0 
L 9.078125 0 
z
" id="DejaVuSans-107"/>
      </defs>
      <g transform="translate(34.4275 532.01429)scale(0.16 -0.16)">
       <use xlink:href="#DejaVuSans-49"/>
       <use x="63.623047" xlink:href="#DejaVuSans-48"/>
       <use x="127.246094" xlink:href="#DejaVuSans-32"/>
       <use x="159.033203" xlink:href="#DejaVuSans-107"/>
      </g>
     </g>
    </g>
    <g id="ytick_2">
     <g id="line2d_109">
      <path clip-path="url(#p161bfb70ee)" d="M 76.1375 435.422366 
L 968.9375 435.422366 
" style="fill:none;stroke:#b0b0b0;stroke-linecap:square;stroke-width:0.8;"/>
     </g>
     <g id="line2d_110">
      <g>
       <use style="stroke:#000000;stroke-width:0.8;" x="76.1375" xlink:href="#m577f7a1d2c" y="435.422366"/>
      </g>
     </g>
     <g id="text_14">
      <!-- 20 k -->
      <g transform="translate(34.4275 441.501116)scale(0.16 -0.16)">
       <use xlink:href="#DejaVuSans-50"/>
       <use x="63.623047" xlink:href="#DejaVuSans-48"/>
       <use x="127.246094" xlink:href="#DejaVuSans-32"/>
       <use x="159.033203" xlink:href="#DejaVuSans-107"/>
      </g>
     </g>
    </g>
    <g id="ytick_3">
     <g id="line2d_111">
      <path clip-path="url(#p161bfb70ee)" d="M 76.1375 344.909192 
L 968.9375 344.909192 
" style="fill:none;stroke:#b0b0b0;stroke-linecap:square;stroke-width:0.8;"/>
     </g>
     <g id="line2d_112">
      <g>
       <use style="stroke:#000000;stroke-width:0.8;" x="76.1375" xlink:href="#m577f7a1d2c" y="344.909192"/>
      </g>
     </g>
     <g id="text_15">
      <!-- 30 k -->
      <defs>
       <path d="M 40.578125 39.3125 
Q 47.65625 37.796875 51.625 33 
Q 55.609375 28.21875 55.609375 21.1875 
Q 55.609375 10.40625 48.1875 4.484375 
Q 40.765625 -1.421875 27.09375 -1.421875 
Q 22.515625 -1.421875 17.65625 -0.515625 
Q 12.796875 0.390625 7.625 2.203125 
L 7.625 11.71875 
Q 11.71875 9.328125 16.59375 8.109375 
Q 21.484375 6.890625 26.8125 6.890625 
Q 36.078125 6.890625 40.9375 10.546875 
Q 45.796875 14.203125 45.796875 21.1875 
Q 45.796875 27.640625 41.28125 31.265625 
Q 36.765625 34.90625 28.71875 34.90625 
L 20.21875 34.90625 
L 20.21875 43.015625 
L 29.109375 43.015625 
Q 36.375 43.015625 40.234375 45.921875 
Q 44.09375 48.828125 44.09375 54.296875 
Q 44.09375 59.90625 40.109375 62.90625 
Q 36.140625 65.921875 28.71875 65.921875 
Q 24.65625 65.921875 20.015625 65.03125 
Q 15.375 64.15625 9.8125 62.3125 
L 9.8125 71.09375 
Q 15.4375 72.65625 20.34375 73.4375 
Q 25.25 74.21875 29.59375 74.21875 
Q 40.828125 74.21875 47.359375 69.109375 
Q 53.90625 64.015625 53.90625 55.328125 
Q 53.90625 49.265625 50.4375 45.09375 
Q 46.96875 40.921875 40.578125 39.3125 
z
" id="DejaVuSans-51"/>
      </defs>
      <g transform="translate(34.4275 350.987942)scale(0.16 -0.16)">
       <use xlink:href="#DejaVuSans-51"/>
       <use x="63.623047" xlink:href="#DejaVuSans-48"/>
       <use x="127.246094" xlink:href="#DejaVuSans-32"/>
       <use x="159.033203" xlink:href="#DejaVuSans-107"/>
      </g>
     </g>
    </g>
    <g id="ytick_4">
     <g id="line2d_113">
      <path clip-path="url(#p161bfb70ee)" d="M 76.1375 254.396017 
L 968.9375 254.396017 
" style="fill:none;stroke:#b0b0b0;stroke-linecap:square;stroke-width:0.8;"/>
     </g>
     <g id="line2d_114">
      <g>
       <use style="stroke:#000000;stroke-width:0.8;" x="76.1375" xlink:href="#m577f7a1d2c" y="254.396017"/>
      </g>
     </g>
     <g id="text_16">
      <!-- 40 k -->
      <defs>
       <path d="M 37.796875 64.3125 
L 12.890625 25.390625 
L 37.796875 25.390625 
z
M 35.203125 72.90625 
L 47.609375 72.90625 
L 47.609375 25.390625 
L 58.015625 25.390625 
L 58.015625 17.1875 
L 47.609375 17.1875 
L 47.609375 0 
L 37.796875 0 
L 37.796875 17.1875 
L 4.890625 17.1875 
L 4.890625 26.703125 
z
" id="DejaVuSans-52"/>
      </defs>
      <g transform="translate(34.4275 260.474767)scale(0.16 -0.16)">
       <use xlink:href="#DejaVuSans-52"/>
       <use x="63.623047" xlink:href="#DejaVuSans-48"/>
       <use x="127.246094" xlink:href="#DejaVuSans-32"/>
       <use x="159.033203" xlink:href="#DejaVuSans-107"/>
      </g>
     </g>
    </g>
    <g id="ytick_5">
     <g id="line2d_115">
      <path clip-path="url(#p161bfb70ee)" d="M 76.1375 163.882843 
L 968.9375 163.882843 
" style="fill:none;stroke:#b0b0b0;stroke-linecap:square;stroke-width:0.8;"/>
     </g>
     <g id="line2d_116">
      <g>
       <use style="stroke:#000000;stroke-width:0.8;" x="76.1375" xlink:href="#m577f7a1d2c" y="163.882843"/>
      </g>
     </g>
     <g id="text_17">
      <!-- 50 k -->
      <defs>
       <path d="M 10.796875 72.90625 
L 49.515625 72.90625 
L 49.515625 64.59375 
L 19.828125 64.59375 
L 19.828125 46.734375 
Q 21.96875 47.46875 24.109375 47.828125 
Q 26.265625 48.1875 28.421875 48.1875 
Q 40.625 48.1875 47.75 41.5 
Q 54.890625 34.8125 54.890625 23.390625 
Q 54.890625 11.625 47.5625 5.09375 
Q 40.234375 -1.421875 26.90625 -1.421875 
Q 22.3125 -1.421875 17.546875 -0.640625 
Q 12.796875 0.140625 7.71875 1.703125 
L 7.71875 11.625 
Q 12.109375 9.234375 16.796875 8.0625 
Q 21.484375 6.890625 26.703125 6.890625 
Q 35.15625 6.890625 40.078125 11.328125 
Q 45.015625 15.765625 45.015625 23.390625 
Q 45.015625 31 40.078125 35.4375 
Q 35.15625 39.890625 26.703125 39.890625 
Q 22.75 39.890625 18.8125 39.015625 
Q 14.890625 38.140625 10.796875 36.28125 
z
" id="DejaVuSans-53"/>
      </defs>
      <g transform="translate(34.4275 169.961593)scale(0.16 -0.16)">
       <use xlink:href="#DejaVuSans-53"/>
       <use x="63.623047" xlink:href="#DejaVuSans-48"/>
       <use x="127.246094" xlink:href="#DejaVuSans-32"/>
       <use x="159.033203" xlink:href="#DejaVuSans-107"/>
      </g>
     </g>
    </g>
    <g id="ytick_6">
     <g id="line2d_117">
      <path clip-path="url(#p161bfb70ee)" d="M 76.1375 73.369668 
L 968.9375 73.369668 
" style="fill:none;stroke:#b0b0b0;stroke-linecap:square;stroke-width:0.8;"/>
     </g>
     <g id="line2d_118">
      <g>
       <use style="stroke:#000000;stroke-width:0.8;" x="76.1375" xlink:href="#m577f7a1d2c" y="73.369668"/>
      </g>
     </g>
     <g id="text_18">
      <!-- 60 k -->
      <g transform="translate(34.4275 79.448418)scale(0.16 -0.16)">
       <use xlink:href="#DejaVuSans-54"/>
       <use x="63.623047" xlink:href="#DejaVuSans-48"/>
       <use x="127.246094" xlink:href="#DejaVuSans-32"/>
       <use x="159.033203" xlink:href="#DejaVuSans-107"/>
      </g>
     </g>
    </g>
    <g id="ytick_7">
     <g id="line2d_119">
      <path clip-path="url(#p161bfb70ee)" d="M 76.1375 507.832906 
L 968.9375 507.832906 
" style="fill:none;stroke:#999999;stroke-linecap:square;stroke-opacity:0.2;stroke-width:0.8;"/>
     </g>
     <g id="line2d_120">
      <defs>
       <path d="M 0 0 
L -2 0 
" id="m4d8dc1f42a" style="stroke:#000000;stroke-width:0.6;"/>
      </defs>
      <g>
       <use style="stroke:#000000;stroke-width:0.6;" x="76.1375" xlink:href="#m4d8dc1f42a" y="507.832906"/>
      </g>
     </g>
    </g>
    <g id="ytick_8">
     <g id="line2d_121">
      <path clip-path="url(#p161bfb70ee)" d="M 76.1375 489.730271 
L 968.9375 489.730271 
" style="fill:none;stroke:#999999;stroke-linecap:square;stroke-opacity:0.2;stroke-width:0.8;"/>
     </g>
     <g id="line2d_122">
      <g>
       <use style="stroke:#000000;stroke-width:0.6;" x="76.1375" xlink:href="#m4d8dc1f42a" y="489.730271"/>
      </g>
     </g>
    </g>
    <g id="ytick_9">
     <g id="line2d_123">
      <path clip-path="url(#p161bfb70ee)" d="M 76.1375 471.627636 
L 968.9375 471.627636 
" style="fill:none;stroke:#999999;stroke-linecap:square;stroke-opacity:0.2;stroke-width:0.8;"/>
     </g>
     <g id="line2d_124">
      <g>
       <use style="stroke:#000000;stroke-width:0.6;" x="76.1375" xlink:href="#m4d8dc1f42a" y="471.627636"/>
      </g>
     </g>
    </g>
    <g id="ytick_10">
     <g id="line2d_125">
      <path clip-path="url(#p161bfb70ee)" d="M 76.1375 453.525001 
L 968.9375 453.525001 
" style="fill:none;stroke:#999999;stroke-linecap:square;stroke-opacity:0.2;stroke-width:0.8;"/>
     </g>
     <g id="line2d_126">
      <g>
       <use style="stroke:#000000;stroke-width:0.6;" x="76.1375" xlink:href="#m4d8dc1f42a" y="453.525001"/>
      </g>
     </g>
    </g>
    <g id="ytick_11">
     <g id="line2d_127">
      <path clip-path="url(#p161bfb70ee)" d="M 76.1375 417.319731 
L 968.9375 417.319731 
" style="fill:none;stroke:#999999;stroke-linecap:square;stroke-opacity:0.2;stroke-width:0.8;"/>
     </g>
     <g id="line2d_128">
      <g>
       <use style="stroke:#000000;stroke-width:0.6;" x="76.1375" xlink:href="#m4d8dc1f42a" y="417.319731"/>
      </g>
     </g>
    </g>
    <g id="ytick_12">
     <g id="line2d_129">
      <path clip-path="url(#p161bfb70ee)" d="M 76.1375 399.217096 
L 968.9375 399.217096 
" style="fill:none;stroke:#999999;stroke-linecap:square;stroke-opacity:0.2;stroke-width:0.8;"/>
     </g>
     <g id="line2d_130">
      <g>
       <use style="stroke:#000000;stroke-width:0.6;" x="76.1375" xlink:href="#m4d8dc1f42a" y="399.217096"/>
      </g>
     </g>
    </g>
    <g id="ytick_13">
     <g id="line2d_131">
      <path clip-path="url(#p161bfb70ee)" d="M 76.1375 381.114461 
L 968.9375 381.114461 
" style="fill:none;stroke:#999999;stroke-linecap:square;stroke-opacity:0.2;stroke-width:0.8;"/>
     </g>
     <g id="line2d_132">
      <g>
       <use style="stroke:#000000;stroke-width:0.6;" x="76.1375" xlink:href="#m4d8dc1f42a" y="381.114461"/>
      </g>
     </g>
    </g>
    <g id="ytick_14">
     <g id="line2d_133">
      <path clip-path="url(#p161bfb70ee)" d="M 76.1375 363.011826 
L 968.9375 363.011826 
" style="fill:none;stroke:#999999;stroke-linecap:square;stroke-opacity:0.2;stroke-width:0.8;"/>
     </g>
     <g id="line2d_134">
      <g>
       <use style="stroke:#000000;stroke-width:0.6;" x="76.1375" xlink:href="#m4d8dc1f42a" y="363.011826"/>
      </g>
     </g>
    </g>
    <g id="ytick_15">
     <g id="line2d_135">
      <path clip-path="url(#p161bfb70ee)" d="M 76.1375 326.806557 
L 968.9375 326.806557 
" style="fill:none;stroke:#999999;stroke-linecap:square;stroke-opacity:0.2;stroke-width:0.8;"/>
     </g>
     <g id="line2d_136">
      <g>
       <use style="stroke:#000000;stroke-width:0.6;" x="76.1375" xlink:href="#m4d8dc1f42a" y="326.806557"/>
      </g>
     </g>
    </g>
    <g id="ytick_16">
     <g id="line2d_137">
      <path clip-path="url(#p161bfb70ee)" d="M 76.1375 308.703922 
L 968.9375 308.703922 
" style="fill:none;stroke:#999999;stroke-linecap:square;stroke-opacity:0.2;stroke-width:0.8;"/>
     </g>
     <g id="line2d_138">
      <g>
       <use style="stroke:#000000;stroke-width:0.6;" x="76.1375" xlink:href="#m4d8dc1f42a" y="308.703922"/>
      </g>
     </g>
    </g>
    <g id="ytick_17">
     <g id="line2d_139">
      <path clip-path="url(#p161bfb70ee)" d="M 76.1375 290.601287 
L 968.9375 290.601287 
" style="fill:none;stroke:#999999;stroke-linecap:square;stroke-opacity:0.2;stroke-width:0.8;"/>
     </g>
     <g id="line2d_140">
      <g>
       <use style="stroke:#000000;stroke-width:0.6;" x="76.1375" xlink:href="#m4d8dc1f42a" y="290.601287"/>
      </g>
     </g>
    </g>
    <g id="ytick_18">
     <g id="line2d_141">
      <path clip-path="url(#p161bfb70ee)" d="M 76.1375 272.498652 
L 968.9375 272.498652 
" style="fill:none;stroke:#999999;stroke-linecap:square;stroke-opacity:0.2;stroke-width:0.8;"/>
     </g>
     <g id="line2d_142">
      <g>
       <use style="stroke:#000000;stroke-width:0.6;" x="76.1375" xlink:href="#m4d8dc1f42a" y="272.498652"/>
      </g>
     </g>
    </g>
    <g id="ytick_19">
     <g id="line2d_143">
      <path clip-path="url(#p161bfb70ee)" d="M 76.1375 236.293382 
L 968.9375 236.293382 
" style="fill:none;stroke:#999999;stroke-linecap:square;stroke-opacity:0.2;stroke-width:0.8;"/>
     </g>
     <g id="line2d_144">
      <g>
       <use style="stroke:#000000;stroke-width:0.6;" x="76.1375" xlink:href="#m4d8dc1f42a" y="236.293382"/>
      </g>
     </g>
    </g>
    <g id="ytick_20">
     <g id="line2d_145">
      <path clip-path="url(#p161bfb70ee)" d="M 76.1375 218.190747 
L 968.9375 218.190747 
" style="fill:none;stroke:#999999;stroke-linecap:square;stroke-opacity:0.2;stroke-width:0.8;"/>
     </g>
     <g id="line2d_146">
      <g>
       <use style="stroke:#000000;stroke-width:0.6;" x="76.1375" xlink:href="#m4d8dc1f42a" y="218.190747"/>
      </g>
     </g>
    </g>
    <g id="ytick_21">
     <g id="line2d_147">
      <path clip-path="url(#p161bfb70ee)" d="M 76.1375 200.088113 
L 968.9375 200.088113 
" style="fill:none;stroke:#999999;stroke-linecap:square;stroke-opacity:0.2;stroke-width:0.8;"/>
     </g>
     <g id="line2d_148">
      <g>
       <use style="stroke:#000000;stroke-width:0.6;" x="76.1375" xlink:href="#m4d8dc1f42a" y="200.088113"/>
      </g>
     </g>
    </g>
    <g id="ytick_22">
     <g id="line2d_149">
      <path clip-path="url(#p161bfb70ee)" d="M 76.1375 181.985478 
L 968.9375 181.985478 
" style="fill:none;stroke:#999999;stroke-linecap:square;stroke-opacity:0.2;stroke-width:0.8;"/>
     </g>
     <g id="line2d_150">
      <g>
       <use style="stroke:#000000;stroke-width:0.6;" x="76.1375" xlink:href="#m4d8dc1f42a" y="181.985478"/>
      </g>
     </g>
    </g>
    <g id="ytick_23">
     <g id="line2d_151">
      <path clip-path="url(#p161bfb70ee)" d="M 76.1375 145.780208 
L 968.9375 145.780208 
" style="fill:none;stroke:#999999;stroke-linecap:square;stroke-opacity:0.2;stroke-width:0.8;"/>
     </g>
     <g id="line2d_152">
      <g>
       <use style="stroke:#000000;stroke-width:0.6;" x="76.1375" xlink:href="#m4d8dc1f42a" y="145.780208"/>
      </g>
     </g>
    </g>
    <g id="ytick_24">
     <g id="line2d_153">
      <path clip-path="url(#p161bfb70ee)" d="M 76.1375 127.677573 
L 968.9375 127.677573 
" style="fill:none;stroke:#999999;stroke-linecap:square;stroke-opacity:0.2;stroke-width:0.8;"/>
     </g>
     <g id="line2d_154">
      <g>
       <use style="stroke:#000000;stroke-width:0.6;" x="76.1375" xlink:href="#m4d8dc1f42a" y="127.677573"/>
      </g>
     </g>
    </g>
    <g id="ytick_25">
     <g id="line2d_155">
      <path clip-path="url(#p161bfb70ee)" d="M 76.1375 109.574938 
L 968.9375 109.574938 
" style="fill:none;stroke:#999999;stroke-linecap:square;stroke-opacity:0.2;stroke-width:0.8;"/>
     </g>
     <g id="line2d_156">
      <g>
       <use style="stroke:#000000;stroke-width:0.6;" x="76.1375" xlink:href="#m4d8dc1f42a" y="109.574938"/>
      </g>
     </g>
    </g>
    <g id="ytick_26">
     <g id="line2d_157">
      <path clip-path="url(#p161bfb70ee)" d="M 76.1375 91.472303 
L 968.9375 91.472303 
" style="fill:none;stroke:#999999;stroke-linecap:square;stroke-opacity:0.2;stroke-width:0.8;"/>
     </g>
     <g id="line2d_158">
      <g>
       <use style="stroke:#000000;stroke-width:0.6;" x="76.1375" xlink:href="#m4d8dc1f42a" y="91.472303"/>
      </g>
     </g>
    </g>
    <g id="ytick_27">
     <g id="line2d_159">
      <path clip-path="url(#p161bfb70ee)" d="M 76.1375 55.267034 
L 968.9375 55.267034 
" style="fill:none;stroke:#999999;stroke-linecap:square;stroke-opacity:0.2;stroke-width:0.8;"/>
     </g>
     <g id="line2d_160">
      <g>
       <use style="stroke:#000000;stroke-width:0.6;" x="76.1375" xlink:href="#m4d8dc1f42a" y="55.267034"/>
      </g>
     </g>
    </g>
    <g id="text_19">
     <!-- Experience [xp] -->
     <defs>
      <path d="M 9.1875 72.90625 
L 59.90625 72.90625 
L 59.90625 58.6875 
L 27.984375 58.6875 
L 27.984375 45.125 
L 58.015625 45.125 
L 58.015625 30.90625 
L 27.984375 30.90625 
L 27.984375 14.203125 
L 60.984375 14.203125 
L 60.984375 0 
L 9.1875 0 
z
" id="DejaVuSans-Bold-69"/>
      <path d="M 22.21875 27.984375 
L 2.484375 54.6875 
L 21 54.6875 
L 32.171875 38.484375 
L 43.5 54.6875 
L 62.015625 54.6875 
L 42.28125 28.078125 
L 62.984375 0 
L 44.484375 0 
L 32.171875 17.28125 
L 20.015625 0 
L 1.515625 0 
z
" id="DejaVuSans-Bold-120"/>
      <path d="M 25.875 7.90625 
L 25.875 -20.796875 
L 8.40625 -20.796875 
L 8.40625 54.6875 
L 25.875 54.6875 
L 25.875 46.6875 
Q 29.5 51.46875 33.890625 53.734375 
Q 38.28125 56 44 56 
Q 54.109375 56 60.59375 47.96875 
Q 67.09375 39.9375 67.09375 27.296875 
Q 67.09375 14.65625 60.59375 6.609375 
Q 54.109375 -1.421875 44 -1.421875 
Q 38.28125 -1.421875 33.890625 0.84375 
Q 29.5 3.125 25.875 7.90625 
z
M 37.5 43.3125 
Q 31.890625 43.3125 28.875 39.1875 
Q 25.875 35.0625 25.875 27.296875 
Q 25.875 19.53125 28.875 15.40625 
Q 31.890625 11.28125 37.5 11.28125 
Q 43.109375 11.28125 46.0625 15.375 
Q 49.03125 19.484375 49.03125 27.296875 
Q 49.03125 35.109375 46.0625 39.203125 
Q 43.109375 43.3125 37.5 43.3125 
z
" id="DejaVuSans-Bold-112"/>
      <path d="M 49.03125 39.796875 
Q 46.734375 40.875 44.453125 41.375 
Q 42.1875 41.890625 39.890625 41.890625 
Q 33.15625 41.890625 29.515625 37.5625 
Q 25.875 33.25 25.875 25.203125 
L 25.875 0 
L 8.40625 0 
L 8.40625 54.6875 
L 25.875 54.6875 
L 25.875 45.703125 
Q 29.25 51.078125 33.609375 53.53125 
Q 37.984375 56 44.09375 56 
Q 44.96875 56 45.984375 55.921875 
Q 47.015625 55.859375 48.96875 55.609375 
z
" id="DejaVuSans-Bold-114"/>
      <path d="M 63.375 33.296875 
L 63.375 0 
L 45.796875 0 
L 45.796875 5.421875 
L 45.796875 25.484375 
Q 45.796875 32.5625 45.484375 35.25 
Q 45.171875 37.9375 44.390625 39.203125 
Q 43.359375 40.921875 41.59375 41.875 
Q 39.84375 42.828125 37.59375 42.828125 
Q 32.125 42.828125 29 38.59375 
Q 25.875 34.375 25.875 26.90625 
L 25.875 0 
L 8.40625 0 
L 8.40625 54.6875 
L 25.875 54.6875 
L 25.875 46.6875 
Q 29.828125 51.46875 34.265625 53.734375 
Q 38.71875 56 44.09375 56 
Q 53.5625 56 58.46875 50.1875 
Q 63.375 44.390625 63.375 33.296875 
z
" id="DejaVuSans-Bold-110"/>
      <path d="M 52.59375 52.984375 
L 52.59375 38.71875 
Q 49.03125 41.15625 45.4375 42.328125 
Q 41.84375 43.5 37.984375 43.5 
Q 30.671875 43.5 26.59375 39.234375 
Q 22.515625 34.96875 22.515625 27.296875 
Q 22.515625 19.625 26.59375 15.34375 
Q 30.671875 11.078125 37.984375 11.078125 
Q 42.09375 11.078125 45.78125 12.296875 
Q 49.46875 13.53125 52.59375 15.921875 
L 52.59375 1.609375 
Q 48.484375 0.09375 44.265625 -0.65625 
Q 40.046875 -1.421875 35.796875 -1.421875 
Q 21 -1.421875 12.640625 6.171875 
Q 4.296875 13.765625 4.296875 27.296875 
Q 4.296875 40.828125 12.640625 48.40625 
Q 21 56 35.796875 56 
Q 40.09375 56 44.265625 55.25 
Q 48.4375 54.5 52.59375 52.984375 
z
" id="DejaVuSans-Bold-99"/>
      <path id="DejaVuSans-Bold-32"/>
      <path d="M 8.59375 75.984375 
L 38.921875 75.984375 
L 38.921875 64.984375 
L 25.203125 64.984375 
L 25.203125 -2.203125 
L 38.921875 -2.203125 
L 38.921875 -13.1875 
L 8.59375 -13.1875 
z
" id="DejaVuSans-Bold-91"/>
      <path d="M 37.109375 -13.1875 
L 6.78125 -13.1875 
L 6.78125 -2.203125 
L 20.515625 -2.203125 
L 20.515625 64.984375 
L 6.78125 64.984375 
L 6.78125 75.984375 
L 37.109375 75.984375 
z
" id="DejaVuSans-Bold-93"/>
     </defs>
     <g transform="translate(25.43625 388.898125)rotate(-90)scale(0.24 -0.24)">
      <use xlink:href="#DejaVuSans-Bold-69"/>
      <use x="68.310547" xlink:href="#DejaVuSans-Bold-120"/>
      <use x="132.8125" xlink:href="#DejaVuSans-Bold-112"/>
      <use x="204.394531" xlink:href="#DejaVuSans-Bold-101"/>
      <use x="272.216797" xlink:href="#DejaVuSans-Bold-114"/>
      <use x="321.533203" xlink:href="#DejaVuSans-Bold-105"/>
      <use x="355.810547" xlink:href="#DejaVuSans-Bold-101"/>
      <use x="423.632812" xlink:href="#DejaVuSans-Bold-110"/>
      <use x="494.824219" xlink:href="#DejaVuSans-Bold-99"/>
      <use x="554.101562" xlink:href="#DejaVuSans-Bold-101"/>
      <use x="621.923828" xlink:href="#DejaVuSans-Bold-32"/>
      <use x="656.738281" xlink:href="#DejaVuSans-Bold-91"/>
      <use x="702.441406" xlink:href="#DejaVuSans-Bold-120"/>
      <use x="766.943359" xlink:href="#DejaVuSans-Bold-112"/>
      <use x="838.525391" xlink:href="#DejaVuSans-Bold-93"/>
     </g>
    </g>
   </g>
   <g id="line2d_161">
    <path clip-path="url(#p161bfb70ee)" d="M 116.719318 505.171818 
L 117.157407 503.777915 
L 117.595496 503.470171 
L 118.033585 502.36591 
L 118.471674 501.913344 
L 119.785941 499.813438 
L 120.224029 499.786284 
L 120.662118 499.541899 
L 121.976385 501.171136 
L 125.919185 501.06252 
L 126.795363 500.953904 
L 127.233452 500.37462 
L 127.671541 500.311261 
L 131.176252 499.170795 
L 134.242874 498.546254 
L 137.309497 498.220406 
L 137.747586 497.288121 
L 138.185675 497.21571 
L 140.814208 494.527469 
L 142.128475 493.586132 
L 143.442741 492.065511 
L 147.385542 489.223397 
L 148.261719 490.653505 
L 149.575986 491.748714 
L 150.014075 491.359508 
L 151.328342 492.581436 
L 164.909098 490.82548 
L 167.099542 490.391017 
L 274.431324 474.723186 
L 309.040348 474.587417 
L 309.478437 474.397339 
L 311.668881 474.252518 
L 314.735504 473.012487 
L 318.240215 472.215971 
L 323.935371 471.030249 
L 324.37346 470.822068 
L 327.001993 470.260887 
L 328.31626 470.197528 
L 329.192438 469.962193 
L 363.801461 463.146551 
L 370.6466 455.063725 
L 370.80632 453.389231 
L 371.061872 453.316821 
L 371.070999 450.393245 
L 373.297951 447.46967 
L 373.859252 447.460618 
L 373.868379 446.808923 
L 375.921921 446.763667 
L 375.931048 447.587337 
L 376.314375 447.578285 
L 376.323502 446.85418 
L 376.857423 445.704663 
L 377.149482 445.704663 
L 377.154046 447.361054 
L 415.797138 426.343895 
L 432.097696 423.890988 
L 444.332242 413.092766 
L 650.083434 377.367216 
L 657.731736 376.869393 
L 674.762443 376.724572 
L 675.209658 375.928056 
L 692.724088 334.961794 
L 695.713132 330.644315 
L 698.738683 325.213525 
L 698.501385 325.80186 
L 699.377563 320.343916 
L 845.963936 117.322866 
L 868.890589 110.226633 
L 870.665762 108.932295 
L 874.1796 107.782777 
L 876.794443 106.189745 
L 879.842812 105.12169 
L 881.613421 103.917865 
L 884.077671 102.487757 
L 888.95141 100.206825 
L 889.070059 99.256436 
L 891.169235 97.844431 
L 902.212726 88.032803 
L 905.060304 86.747516 
L 913.096498 80.384439 
L 917.376991 75.053213 
L 919.665093 71.215455 
L 919.956544 71.170198 
L 919.958674 70.554709 
L 920.170112 70.310323 
L 920.464301 70.21981 
L 920.568652 70.156451 
L 920.57139 69.857757 
L 920.840936 69.857757 
L 920.846412 69.432345 
L 921.025603 69.169857 
L 921.240084 69.070293 
L 921.241605 68.672035 
L 921.369989 68.626778 
L 921.804427 67.857416 
L 922.703422 67.848365 
L 922.714679 67.115208 
L 923.04142 66.64454 
L 923.645618 65.431663 
L 924.850058 64.698506 
L 925.421703 63.132628 
L 925.720151 62.752473 
L 926.178015 62.571447 
L 927.531527 62.417574 
L 927.594502 61.521494 
L 928.355682 60.408182 
L 928.355682 60.408182 
" style="fill:none;stroke:#000000;stroke-linecap:square;stroke-width:1.5;"/>
   </g>
   <g id="patch_3">
    <path d="M 76.1375 527.41 
L 76.1375 38.17 
" style="fill:none;stroke:#000000;stroke-linecap:square;stroke-linejoin:miter;stroke-width:0.8;"/>
   </g>
   <g id="patch_4">
    <path d="M 968.9375 527.41 
L 968.9375 38.17 
" style="fill:none;stroke:#000000;stroke-linecap:square;stroke-linejoin:miter;stroke-width:0.8;"/>
   </g>
   <g id="patch_5">
    <path d="M 76.1375 527.41 
L 968.9375 527.41 
" style="fill:none;stroke:#000000;stroke-linecap:square;stroke-linejoin:miter;stroke-width:0.8;"/>
   </g>
   <g id="patch_6">
    <path d="M 76.1375 38.17 
L 968.9375 38.17 
" style="fill:none;stroke:#000000;stroke-linecap:square;stroke-linejoin:miter;stroke-width:0.8;"/>
   </g>
   <g id="text_20">
    <!-- All Data -->
    <defs>
     <path d="M 53.421875 13.28125 
L 24.03125 13.28125 
L 19.390625 0 
L 0.484375 0 
L 27.484375 72.90625 
L 49.90625 72.90625 
L 76.90625 0 
L 58.015625 0 
z
M 28.71875 26.8125 
L 48.6875 26.8125 
L 38.71875 55.8125 
z
" id="DejaVuSans-Bold-65"/>
     <path d="M 8.40625 75.984375 
L 25.875 75.984375 
L 25.875 0 
L 8.40625 0 
z
" id="DejaVuSans-Bold-108"/>
     <path d="M 27.984375 58.6875 
L 27.984375 14.203125 
L 34.71875 14.203125 
Q 46.234375 14.203125 52.3125 19.921875 
Q 58.40625 25.640625 58.40625 36.53125 
Q 58.40625 47.359375 52.34375 53.015625 
Q 46.296875 58.6875 34.71875 58.6875 
z
M 9.1875 72.90625 
L 29 72.90625 
Q 45.609375 72.90625 53.734375 70.53125 
Q 61.859375 68.171875 67.671875 62.5 
Q 72.796875 57.5625 75.28125 51.109375 
Q 77.78125 44.671875 77.78125 36.53125 
Q 77.78125 28.265625 75.28125 21.796875 
Q 72.796875 15.328125 67.671875 10.40625 
Q 61.8125 4.734375 53.609375 2.359375 
Q 45.40625 0 29 0 
L 9.1875 0 
z
" id="DejaVuSans-Bold-68"/>
     <path d="M 32.90625 24.609375 
Q 27.4375 24.609375 24.671875 22.75 
Q 21.921875 20.90625 21.921875 17.28125 
Q 21.921875 13.96875 24.140625 12.078125 
Q 26.375 10.203125 30.328125 10.203125 
Q 35.25 10.203125 38.625 13.734375 
Q 42 17.28125 42 22.609375 
L 42 24.609375 
z
M 59.625 31.203125 
L 59.625 0 
L 42 0 
L 42 8.109375 
Q 38.484375 3.125 34.078125 0.84375 
Q 29.6875 -1.421875 23.390625 -1.421875 
Q 14.890625 -1.421875 9.59375 3.53125 
Q 4.296875 8.5 4.296875 16.40625 
Q 4.296875 26.03125 10.90625 30.515625 
Q 17.53125 35.015625 31.6875 35.015625 
L 42 35.015625 
L 42 36.375 
Q 42 40.53125 38.71875 42.453125 
Q 35.453125 44.390625 28.515625 44.390625 
Q 22.90625 44.390625 18.0625 43.265625 
Q 13.234375 42.140625 9.078125 39.890625 
L 9.078125 53.21875 
Q 14.703125 54.59375 20.359375 55.296875 
Q 26.03125 56 31.6875 56 
Q 46.484375 56 53.046875 50.171875 
Q 59.625 44.34375 59.625 31.203125 
z
" id="DejaVuSans-Bold-97"/>
     <path d="M 27.484375 70.21875 
L 27.484375 54.6875 
L 45.515625 54.6875 
L 45.515625 42.1875 
L 27.484375 42.1875 
L 27.484375 19 
Q 27.484375 15.1875 29 13.84375 
Q 30.515625 12.5 35.015625 12.5 
L 44 12.5 
L 44 0 
L 29 0 
Q 18.65625 0 14.328125 4.3125 
Q 10.015625 8.640625 10.015625 19 
L 10.015625 42.1875 
L 1.3125 42.1875 
L 1.3125 54.6875 
L 10.015625 54.6875 
L 10.015625 70.21875 
z
" id="DejaVuSans-Bold-116"/>
    </defs>
    <g transform="translate(451.09 31.515)scale(0.32 -0.32)">
     <use xlink:href="#DejaVuSans-Bold-65"/>
     <use x="77.392578" xlink:href="#DejaVuSans-Bold-108"/>
     <use x="111.669922" xlink:href="#DejaVuSans-Bold-108"/>
     <use x="145.947266" xlink:href="#DejaVuSans-Bold-32"/>
     <use x="180.761719" xlink:href="#DejaVuSans-Bold-68"/>
     <use x="263.769531" xlink:href="#DejaVuSans-Bold-97"/>
     <use x="331.25" xlink:href="#DejaVuSans-Bold-116"/>
     <use x="379.052734" xlink:href="#DejaVuSans-Bold-97"/>
    </g>
   </g>
  </g>
  <g id="axes_2">
   <g id="matplotlib.axis_3">
    <g id="ytick_28">
     <g id="line2d_162">
      <defs>
       <path d="M 0 0 
L 3.5 0 
" id="m090451297d" style="stroke:#000000;stroke-width:0.8;"/>
      </defs>
      <g>
       <use style="stroke:#000000;stroke-width:0.8;" x="968.9375" xlink:href="#m090451297d" y="517.434563"/>
      </g>
     </g>
     <g id="text_21">
      <!-- 200 k -->
      <g style="fill:#ff0000;" transform="translate(975.9375 523.513313)scale(0.16 -0.16)">
       <use xlink:href="#DejaVuSans-50"/>
       <use x="63.623047" xlink:href="#DejaVuSans-48"/>
       <use x="127.246094" xlink:href="#DejaVuSans-48"/>
       <use x="190.869141" xlink:href="#DejaVuSans-32"/>
       <use x="222.65625" xlink:href="#DejaVuSans-107"/>
      </g>
     </g>
    </g>
    <g id="ytick_29">
     <g id="line2d_163">
      <g>
       <use style="stroke:#000000;stroke-width:0.8;" x="968.9375" xlink:href="#m090451297d" y="420.858508"/>
      </g>
     </g>
     <g id="text_22">
      <!-- 400 k -->
      <g style="fill:#ff0000;" transform="translate(975.9375 426.937258)scale(0.16 -0.16)">
       <use xlink:href="#DejaVuSans-52"/>
       <use x="63.623047" xlink:href="#DejaVuSans-48"/>
       <use x="127.246094" xlink:href="#DejaVuSans-48"/>
       <use x="190.869141" xlink:href="#DejaVuSans-32"/>
       <use x="222.65625" xlink:href="#DejaVuSans-107"/>
      </g>
     </g>
    </g>
    <g id="ytick_30">
     <g id="line2d_164">
      <g>
       <use style="stroke:#000000;stroke-width:0.8;" x="968.9375" xlink:href="#m090451297d" y="324.282453"/>
      </g>
     </g>
     <g id="text_23">
      <!-- 600 k -->
      <g style="fill:#ff0000;" transform="translate(975.9375 330.361203)scale(0.16 -0.16)">
       <use xlink:href="#DejaVuSans-54"/>
       <use x="63.623047" xlink:href="#DejaVuSans-48"/>
       <use x="127.246094" xlink:href="#DejaVuSans-48"/>
       <use x="190.869141" xlink:href="#DejaVuSans-32"/>
       <use x="222.65625" xlink:href="#DejaVuSans-107"/>
      </g>
     </g>
    </g>
    <g id="ytick_31">
     <g id="line2d_165">
      <g>
       <use style="stroke:#000000;stroke-width:0.8;" x="968.9375" xlink:href="#m090451297d" y="227.706399"/>
      </g>
     </g>
     <g id="text_24">
      <!-- 800 k -->
      <g style="fill:#ff0000;" transform="translate(975.9375 233.785149)scale(0.16 -0.16)">
       <use xlink:href="#DejaVuSans-56"/>
       <use x="63.623047" xlink:href="#DejaVuSans-48"/>
       <use x="127.246094" xlink:href="#DejaVuSans-48"/>
       <use x="190.869141" xlink:href="#DejaVuSans-32"/>
       <use x="222.65625" xlink:href="#DejaVuSans-107"/>
      </g>
     </g>
    </g>
    <g id="ytick_32">
     <g id="line2d_166">
      <g>
       <use style="stroke:#000000;stroke-width:0.8;" x="968.9375" xlink:href="#m090451297d" y="131.130344"/>
      </g>
     </g>
     <g id="text_25">
      <!-- 1 M -->
      <defs>
       <path d="M 9.8125 72.90625 
L 24.515625 72.90625 
L 43.109375 23.296875 
L 61.8125 72.90625 
L 76.515625 72.90625 
L 76.515625 0 
L 66.890625 0 
L 66.890625 64.015625 
L 48.09375 14.015625 
L 38.1875 14.015625 
L 19.390625 64.015625 
L 19.390625 0 
L 9.8125 0 
z
" id="DejaVuSans-77"/>
      </defs>
      <g style="fill:#ff0000;" transform="translate(975.9375 137.209094)scale(0.16 -0.16)">
       <use xlink:href="#DejaVuSans-49"/>
       <use x="63.623047" xlink:href="#DejaVuSans-32"/>
       <use x="95.410156" xlink:href="#DejaVuSans-77"/>
      </g>
     </g>
    </g>
    <g id="text_26">
     <!-- Total Assets [gm] -->
     <defs>
      <path d="M 34.421875 43.5 
Q 28.609375 43.5 25.5625 39.328125 
Q 22.515625 35.15625 22.515625 27.296875 
Q 22.515625 19.4375 25.5625 15.25 
Q 28.609375 11.078125 34.421875 11.078125 
Q 40.140625 11.078125 43.15625 15.25 
Q 46.1875 19.4375 46.1875 27.296875 
Q 46.1875 35.15625 43.15625 39.328125 
Q 40.140625 43.5 34.421875 43.5 
z
M 34.421875 56 
Q 48.53125 56 56.46875 48.375 
Q 64.40625 40.765625 64.40625 27.296875 
Q 64.40625 13.8125 56.46875 6.1875 
Q 48.53125 -1.421875 34.421875 -1.421875 
Q 20.265625 -1.421875 12.28125 6.1875 
Q 4.296875 13.8125 4.296875 27.296875 
Q 4.296875 40.765625 12.28125 48.375 
Q 20.265625 56 34.421875 56 
z
" id="DejaVuSans-Bold-111"/>
      <path d="M 51.125 52.984375 
L 51.125 39.703125 
Q 45.515625 42.046875 40.28125 43.21875 
Q 35.0625 44.390625 30.421875 44.390625 
Q 25.4375 44.390625 23.015625 43.140625 
Q 20.609375 41.890625 20.609375 39.3125 
Q 20.609375 37.203125 22.4375 36.078125 
Q 24.265625 34.96875 29 34.421875 
L 32.078125 33.984375 
Q 45.515625 32.28125 50.140625 28.375 
Q 54.78125 24.46875 54.78125 16.109375 
Q 54.78125 7.375 48.328125 2.96875 
Q 41.890625 -1.421875 29.109375 -1.421875 
Q 23.6875 -1.421875 17.890625 -0.5625 
Q 12.109375 0.296875 6 2 
L 6 15.28125 
Q 11.234375 12.75 16.71875 11.46875 
Q 22.21875 10.203125 27.875 10.203125 
Q 33.015625 10.203125 35.59375 11.609375 
Q 38.1875 13.03125 38.1875 15.828125 
Q 38.1875 18.171875 36.40625 19.3125 
Q 34.625 20.453125 29.296875 21.09375 
L 26.21875 21.484375 
Q 14.546875 22.953125 9.859375 26.90625 
Q 5.171875 30.859375 5.171875 38.921875 
Q 5.171875 47.609375 11.125 51.796875 
Q 17.09375 56 29.390625 56 
Q 34.234375 56 39.546875 55.265625 
Q 44.875 54.546875 51.125 52.984375 
z
" id="DejaVuSans-Bold-115"/>
      <path d="M 45.609375 9.28125 
Q 42 4.5 37.640625 2.25 
Q 33.296875 0 27.59375 0 
Q 17.578125 0 11.03125 7.875 
Q 4.5 15.765625 4.5 27.984375 
Q 4.5 40.234375 11.03125 48.0625 
Q 17.578125 55.90625 27.59375 55.90625 
Q 33.296875 55.90625 37.640625 53.65625 
Q 42 51.421875 45.609375 46.578125 
L 45.609375 54.6875 
L 63.1875 54.6875 
L 63.1875 5.515625 
Q 63.1875 -7.671875 54.859375 -14.625 
Q 46.53125 -21.578125 30.71875 -21.578125 
Q 25.59375 -21.578125 20.796875 -20.796875 
Q 16.015625 -20.015625 11.1875 -18.40625 
L 11.1875 -4.78125 
Q 15.765625 -7.421875 20.15625 -8.71875 
Q 24.5625 -10.015625 29 -10.015625 
Q 37.59375 -10.015625 41.59375 -6.25 
Q 45.609375 -2.484375 45.609375 5.515625 
z
M 34.078125 43.3125 
Q 28.65625 43.3125 25.625 39.296875 
Q 22.609375 35.296875 22.609375 27.984375 
Q 22.609375 20.453125 25.53125 16.578125 
Q 28.46875 12.703125 34.078125 12.703125 
Q 39.546875 12.703125 42.578125 16.703125 
Q 45.609375 20.703125 45.609375 27.984375 
Q 45.609375 35.296875 42.578125 39.296875 
Q 39.546875 43.3125 34.078125 43.3125 
z
" id="DejaVuSans-Bold-103"/>
     </defs>
     <g style="fill:#ff0000;" transform="translate(1043.06375 402.14875)rotate(-90)scale(0.24 -0.24)">
      <use xlink:href="#DejaVuSans-Bold-84"/>
      <use x="68.009766" xlink:href="#DejaVuSans-Bold-111"/>
      <use x="136.710938" xlink:href="#DejaVuSans-Bold-116"/>
      <use x="184.513672" xlink:href="#DejaVuSans-Bold-97"/>
      <use x="251.994141" xlink:href="#DejaVuSans-Bold-108"/>
      <use x="286.271484" xlink:href="#DejaVuSans-Bold-32"/>
      <use x="321.085938" xlink:href="#DejaVuSans-Bold-65"/>
      <use x="398.478516" xlink:href="#DejaVuSans-Bold-115"/>
      <use x="458" xlink:href="#DejaVuSans-Bold-115"/>
      <use x="517.521484" xlink:href="#DejaVuSans-Bold-101"/>
      <use x="585.34375" xlink:href="#DejaVuSans-Bold-116"/>
      <use x="633.146484" xlink:href="#DejaVuSans-Bold-115"/>
      <use x="692.667969" xlink:href="#DejaVuSans-Bold-32"/>
      <use x="727.482422" xlink:href="#DejaVuSans-Bold-91"/>
      <use x="773.185547" xlink:href="#DejaVuSans-Bold-103"/>
      <use x="844.767578" xlink:href="#DejaVuSans-Bold-109"/>
      <use x="948.966797" xlink:href="#DejaVuSans-Bold-93"/>
     </g>
    </g>
   </g>
   <g id="line2d_167">
    <path clip-path="url(#p161bfb70ee)" d="M 116.719318 264.215045 
L 117.157407 270.686606 
L 117.595496 252.032458 
L 118.033585 287.929295 
L 118.471674 287.59659 
L 118.909763 292.982154 
L 119.347852 284.098123 
L 119.785941 299.092521 
L 120.224029 297.449762 
L 120.662118 294.104851 
L 121.976385 303.660568 
L 122.414474 305.195645 
L 125.919185 281.862387 
L 126.795363 282.203783 
L 127.233452 267.141782 
L 127.671541 267.141782 
L 130.738163 270.912594 
L 131.176252 272.136695 
L 134.242874 257.628558 
L 137.309497 263.224174 
L 137.747586 243.090481 
L 138.185675 236.087269 
L 139.061852 251.528814 
L 140.814208 227.740683 
L 142.128475 235.966066 
L 143.442741 228.788533 
L 147.385542 232.405306 
L 148.261719 262.6988 
L 149.575986 222.857315 
L 150.014075 230.999642 
L 151.328342 223.808106 
L 164.909098 186.503673 
L 167.099542 199.528403 
L 274.431324 284.336666 
L 288.450169 242.202464 
L 288.888258 233.025325 
L 297.650036 233.110312 
L 298.964303 220.935934 
L 299.402392 213.988253 
L 301.592836 204.230691 
L 307.287992 196.727215 
L 309.040348 196.453421 
L 309.478437 199.939334 
L 310.354615 200.893506 
L 311.668881 218.089838 
L 312.10697 220.07013 
L 312.983148 208.046894 
L 314.735504 178.774692 
L 315.611681 173.513711 
L 318.240215 156.70658 
L 323.935371 157.097231 
L 324.37346 177.327982 
L 327.001993 180.107441 
L 328.31626 146.572855 
L 329.192438 157.816239 
L 363.801461 60.408182 
L 370.6466 103.003534 
L 370.801757 103.236282 
L 370.80632 103.901208 
L 371.061872 111.463113 
L 371.070999 127.928848 
L 373.284261 130.995137 
L 373.297951 132.211996 
L 373.863816 117.809609 
L 373.868379 120.999999 
L 375.931048 133.236185 
L 376.314375 139.812531 
L 376.323502 145.001563 
L 376.857423 126.697986 
L 377.149482 137.450281 
L 377.154046 136.917664 
L 415.797138 123.661152 
L 432.097696 153.924224 
L 444.332242 179.095324 
L 650.083434 241.211594 
L 657.731736 233.095342 
L 674.762443 203.772438 
L 675.209658 212.394265 
L 692.724088 373.038392 
L 695.708568 435.103476 
L 695.713132 444.311037 
L 698.738683 478.671349 
L 698.501385 401.544746 
L 699.377563 443.194618 
L 845.963936 433.451543 
L 868.890589 484.357747 
L 870.665762 477.955237 
L 872.824262 468.238238 
L 874.1796 465.27625 
L 876.794443 491.417939 
L 879.842812 491.159598 
L 881.613421 505.171818 
L 884.077671 496.309999 
L 888.95141 481.072229 
L 889.070059 477.06722 
L 891.169235 483.214286 
L 901.528212 495.648936 
L 902.212726 490.989142 
L 905.060304 474.544171 
L 913.096498 472.79035 
L 917.376991 485.617099 
L 919.188671 497.223609 
L 919.229134 496.892836 
L 919.665093 495.969569 
L 919.958674 496.109121 
L 920.170112 494.017284 
L 920.435704 493.311313 
L 920.519975 491.629441 
L 920.568652 491.404902 
L 920.57139 492.854991 
L 920.840936 492.68888 
L 920.846412 491.370134 
L 921.025603 487.858629 
L 921.240084 488.19085 
L 921.369989 466.812292 
L 921.74206 466.750483 
L 921.804427 466.211106 
L 922.703422 464.300832 
L 922.714679 462.013428 
L 923.645618 455.480058 
L 924.850058 449.487514 
L 925.421703 447.324693 
L 925.720151 444.625875 
L 926.107738 442.807348 
L 926.178015 443.302783 
L 927.594502 429.024496 
L 928.355682 425.550656 
L 928.355682 425.550656 
" style="fill:none;stroke:#ff0000;stroke-linecap:square;stroke-width:1.5;"/>
   </g>
   <g id="patch_7">
    <path d="M 76.1375 527.41 
L 76.1375 38.17 
" style="fill:none;stroke:#000000;stroke-linecap:square;stroke-linejoin:miter;stroke-width:0.8;"/>
   </g>
   <g id="patch_8">
    <path d="M 968.9375 527.41 
L 968.9375 38.17 
" style="fill:none;stroke:#000000;stroke-linecap:square;stroke-linejoin:miter;stroke-width:0.8;"/>
   </g>
   <g id="patch_9">
    <path d="M 76.1375 527.41 
L 968.9375 527.41 
" style="fill:none;stroke:#000000;stroke-linecap:square;stroke-linejoin:miter;stroke-width:0.8;"/>
   </g>
   <g id="patch_10">
    <path d="M 76.1375 38.17 
L 968.9375 38.17 
" style="fill:none;stroke:#000000;stroke-linecap:square;stroke-linejoin:miter;stroke-width:0.8;"/>
   </g>
  </g>
 </g>
 <defs>
  <clipPath id="p161bfb70ee">
   <rect height="489.24" width="892.8" x="76.1375" y="38.17"/>
  </clipPath>
 </defs>
</svg>
