<?xml version="1.0" encoding="utf-8" standalone="no"?>
<!DOCTYPE svg PUBLIC "-//W3C//DTD SVG 1.1//EN"
  "http://www.w3.org/Graphics/SVG/1.1/DTD/svg11.dtd">
<!-- Created with matplotlib (https://matplotlib.org/) -->
<svg height="633.521861pt" version="1.1" viewBox="0 0 1055.4425 633.521861" width="1055.4425pt" xmlns="http://www.w3.org/2000/svg" xmlns:xlink="http://www.w3.org/1999/xlink">
 <defs>
  <style type="text/css">
*{stroke-linecap:butt;stroke-linejoin:round;}
  </style>
 </defs>
 <g id="figure_1">
  <g id="patch_1">
   <path d="M 0 633.521861 
L 1055.4425 633.521861 
L 1055.4425 0 
L 0 0 
z
" style="fill:#ffffff;opacity:0.7;"/>
  </g>
  <g id="axes_1">
   <g id="patch_2">
    <path d="M 76.1375 527.41 
L 968.9375 527.41 
L 968.9375 38.17 
L 76.1375 38.17 
z
" style="fill:#ffffff;"/>
   </g>
   <g id="matplotlib.axis_1">
    <g id="xtick_1">
     <g id="line2d_1">
      <path clip-path="url(#p31f0f451b1)" d="M 96.048544 527.41 
L 96.048544 38.17 
" style="fill:none;stroke:#b0b0b0;stroke-linecap:square;stroke-width:0.8;"/>
     </g>
     <g id="line2d_2">
      <defs>
       <path d="M 0 0 
L 0 3.5 
" id="m36d2c3a5bd" style="stroke:#000000;stroke-width:0.8;"/>
      </defs>
      <g>
       <use style="stroke:#000000;stroke-width:0.8;" x="96.048544" xlink:href="#m36d2c3a5bd" y="527.41"/>
      </g>
     </g>
     <g id="text_1">
      <!-- Mar 2016 -->
      <defs>
       <path d="M 9.8125 72.90625 
L 24.515625 72.90625 
L 43.109375 23.296875 
L 61.8125 72.90625 
L 76.515625 72.90625 
L 76.515625 0 
L 66.890625 0 
L 66.890625 64.015625 
L 48.09375 14.015625 
L 38.1875 14.015625 
L 19.390625 64.015625 
L 19.390625 0 
L 9.8125 0 
z
" id="DejaVuSans-77"/>
       <path d="M 34.28125 27.484375 
Q 23.390625 27.484375 19.1875 25 
Q 14.984375 22.515625 14.984375 16.5 
Q 14.984375 11.71875 18.140625 8.90625 
Q 21.296875 6.109375 26.703125 6.109375 
Q 34.1875 6.109375 38.703125 11.40625 
Q 43.21875 16.703125 43.21875 25.484375 
L 43.21875 27.484375 
z
M 52.203125 31.203125 
L 52.203125 0 
L 43.21875 0 
L 43.21875 8.296875 
Q 40.140625 3.328125 35.546875 0.953125 
Q 30.953125 -1.421875 24.3125 -1.421875 
Q 15.921875 -1.421875 10.953125 3.296875 
Q 6 8.015625 6 15.921875 
Q 6 25.140625 12.171875 29.828125 
Q 18.359375 34.515625 30.609375 34.515625 
L 43.21875 34.515625 
L 43.21875 35.40625 
Q 43.21875 41.609375 39.140625 45 
Q 35.0625 48.390625 27.6875 48.390625 
Q 23 48.390625 18.546875 47.265625 
Q 14.109375 46.140625 10.015625 43.890625 
L 10.015625 52.203125 
Q 14.9375 54.109375 19.578125 55.046875 
Q 24.21875 56 28.609375 56 
Q 40.484375 56 46.34375 49.84375 
Q 52.203125 43.703125 52.203125 31.203125 
z
" id="DejaVuSans-97"/>
       <path d="M 41.109375 46.296875 
Q 39.59375 47.171875 37.8125 47.578125 
Q 36.03125 48 33.890625 48 
Q 26.265625 48 22.1875 43.046875 
Q 18.109375 38.09375 18.109375 28.8125 
L 18.109375 0 
L 9.078125 0 
L 9.078125 54.6875 
L 18.109375 54.6875 
L 18.109375 46.1875 
Q 20.953125 51.171875 25.484375 53.578125 
Q 30.03125 56 36.53125 56 
Q 37.453125 56 38.578125 55.875 
Q 39.703125 55.765625 41.0625 55.515625 
z
" id="DejaVuSans-114"/>
       <path id="DejaVuSans-32"/>
       <path d="M 19.1875 8.296875 
L 53.609375 8.296875 
L 53.609375 0 
L 7.328125 0 
L 7.328125 8.296875 
Q 12.9375 14.109375 22.625 23.890625 
Q 32.328125 33.6875 34.8125 36.53125 
Q 39.546875 41.84375 41.421875 45.53125 
Q 43.3125 49.21875 43.3125 52.78125 
Q 43.3125 58.59375 39.234375 62.25 
Q 35.15625 65.921875 28.609375 65.921875 
Q 23.96875 65.921875 18.8125 64.3125 
Q 13.671875 62.703125 7.8125 59.421875 
L 7.8125 69.390625 
Q 13.765625 71.78125 18.9375 73 
Q 24.125 74.21875 28.421875 74.21875 
Q 39.75 74.21875 46.484375 68.546875 
Q 53.21875 62.890625 53.21875 53.421875 
Q 53.21875 48.921875 51.53125 44.890625 
Q 49.859375 40.875 45.40625 35.40625 
Q 44.1875 33.984375 37.640625 27.21875 
Q 31.109375 20.453125 19.1875 8.296875 
z
" id="DejaVuSans-50"/>
       <path d="M 31.78125 66.40625 
Q 24.171875 66.40625 20.328125 58.90625 
Q 16.5 51.421875 16.5 36.375 
Q 16.5 21.390625 20.328125 13.890625 
Q 24.171875 6.390625 31.78125 6.390625 
Q 39.453125 6.390625 43.28125 13.890625 
Q 47.125 21.390625 47.125 36.375 
Q 47.125 51.421875 43.28125 58.90625 
Q 39.453125 66.40625 31.78125 66.40625 
z
M 31.78125 74.21875 
Q 44.046875 74.21875 50.515625 64.515625 
Q 56.984375 54.828125 56.984375 36.375 
Q 56.984375 17.96875 50.515625 8.265625 
Q 44.046875 -1.421875 31.78125 -1.421875 
Q 19.53125 -1.421875 13.0625 8.265625 
Q 6.59375 17.96875 6.59375 36.375 
Q 6.59375 54.828125 13.0625 64.515625 
Q 19.53125 74.21875 31.78125 74.21875 
z
" id="DejaVuSans-48"/>
       <path d="M 12.40625 8.296875 
L 28.515625 8.296875 
L 28.515625 63.921875 
L 10.984375 60.40625 
L 10.984375 69.390625 
L 28.421875 72.90625 
L 38.28125 72.90625 
L 38.28125 8.296875 
L 54.390625 8.296875 
L 54.390625 0 
L 12.40625 0 
z
" id="DejaVuSans-49"/>
       <path d="M 33.015625 40.375 
Q 26.375 40.375 22.484375 35.828125 
Q 18.609375 31.296875 18.609375 23.390625 
Q 18.609375 15.53125 22.484375 10.953125 
Q 26.375 6.390625 33.015625 6.390625 
Q 39.65625 6.390625 43.53125 10.953125 
Q 47.40625 15.53125 47.40625 23.390625 
Q 47.40625 31.296875 43.53125 35.828125 
Q 39.65625 40.375 33.015625 40.375 
z
M 52.59375 71.296875 
L 52.59375 62.3125 
Q 48.875 64.0625 45.09375 64.984375 
Q 41.3125 65.921875 37.59375 65.921875 
Q 27.828125 65.921875 22.671875 59.328125 
Q 17.53125 52.734375 16.796875 39.40625 
Q 19.671875 43.65625 24.015625 45.921875 
Q 28.375 48.1875 33.59375 48.1875 
Q 44.578125 48.1875 50.953125 41.515625 
Q 57.328125 34.859375 57.328125 23.390625 
Q 57.328125 12.15625 50.6875 5.359375 
Q 44.046875 -1.421875 33.015625 -1.421875 
Q 20.359375 -1.421875 13.671875 8.265625 
Q 6.984375 17.96875 6.984375 36.375 
Q 6.984375 53.65625 15.1875 63.9375 
Q 23.390625 74.21875 37.203125 74.21875 
Q 40.921875 74.21875 44.703125 73.484375 
Q 48.484375 72.75 52.59375 71.296875 
z
" id="DejaVuSans-54"/>
      </defs>
      <g transform="translate(72.303014 596.741463)rotate(-45)scale(0.16 -0.16)">
       <use xlink:href="#DejaVuSans-77"/>
       <use x="86.279297" xlink:href="#DejaVuSans-97"/>
       <use x="147.558594" xlink:href="#DejaVuSans-114"/>
       <use x="188.671875" xlink:href="#DejaVuSans-32"/>
       <use x="220.458984" xlink:href="#DejaVuSans-50"/>
       <use x="284.082031" xlink:href="#DejaVuSans-48"/>
       <use x="347.705078" xlink:href="#DejaVuSans-49"/>
       <use x="411.328125" xlink:href="#DejaVuSans-54"/>
      </g>
     </g>
    </g>
    <g id="xtick_2">
     <g id="line2d_3">
      <path clip-path="url(#p31f0f451b1)" d="M 173.66941 527.41 
L 173.66941 38.17 
" style="fill:none;stroke:#b0b0b0;stroke-linecap:square;stroke-width:0.8;"/>
     </g>
     <g id="line2d_4">
      <g>
       <use style="stroke:#000000;stroke-width:0.8;" x="173.66941" xlink:href="#m36d2c3a5bd" y="527.41"/>
      </g>
     </g>
     <g id="text_2">
      <!-- Sep 2016 -->
      <defs>
       <path d="M 53.515625 70.515625 
L 53.515625 60.890625 
Q 47.90625 63.578125 42.921875 64.890625 
Q 37.9375 66.21875 33.296875 66.21875 
Q 25.25 66.21875 20.875 63.09375 
Q 16.5 59.96875 16.5 54.203125 
Q 16.5 49.359375 19.40625 46.890625 
Q 22.3125 44.4375 30.421875 42.921875 
L 36.375 41.703125 
Q 47.40625 39.59375 52.65625 34.296875 
Q 57.90625 29 57.90625 20.125 
Q 57.90625 9.515625 50.796875 4.046875 
Q 43.703125 -1.421875 29.984375 -1.421875 
Q 24.8125 -1.421875 18.96875 -0.25 
Q 13.140625 0.921875 6.890625 3.21875 
L 6.890625 13.375 
Q 12.890625 10.015625 18.65625 8.296875 
Q 24.421875 6.59375 29.984375 6.59375 
Q 38.421875 6.59375 43.015625 9.90625 
Q 47.609375 13.234375 47.609375 19.390625 
Q 47.609375 24.75 44.3125 27.78125 
Q 41.015625 30.8125 33.5 32.328125 
L 27.484375 33.5 
Q 16.453125 35.6875 11.515625 40.375 
Q 6.59375 45.0625 6.59375 53.421875 
Q 6.59375 63.09375 13.40625 68.65625 
Q 20.21875 74.21875 32.171875 74.21875 
Q 37.3125 74.21875 42.625 73.28125 
Q 47.953125 72.359375 53.515625 70.515625 
z
" id="DejaVuSans-83"/>
       <path d="M 56.203125 29.59375 
L 56.203125 25.203125 
L 14.890625 25.203125 
Q 15.484375 15.921875 20.484375 11.0625 
Q 25.484375 6.203125 34.421875 6.203125 
Q 39.59375 6.203125 44.453125 7.46875 
Q 49.3125 8.734375 54.109375 11.28125 
L 54.109375 2.78125 
Q 49.265625 0.734375 44.1875 -0.34375 
Q 39.109375 -1.421875 33.890625 -1.421875 
Q 20.796875 -1.421875 13.15625 6.1875 
Q 5.515625 13.8125 5.515625 26.8125 
Q 5.515625 40.234375 12.765625 48.109375 
Q 20.015625 56 32.328125 56 
Q 43.359375 56 49.78125 48.890625 
Q 56.203125 41.796875 56.203125 29.59375 
z
M 47.21875 32.234375 
Q 47.125 39.59375 43.09375 43.984375 
Q 39.0625 48.390625 32.421875 48.390625 
Q 24.90625 48.390625 20.390625 44.140625 
Q 15.875 39.890625 15.1875 32.171875 
z
" id="DejaVuSans-101"/>
       <path d="M 18.109375 8.203125 
L 18.109375 -20.796875 
L 9.078125 -20.796875 
L 9.078125 54.6875 
L 18.109375 54.6875 
L 18.109375 46.390625 
Q 20.953125 51.265625 25.265625 53.625 
Q 29.59375 56 35.59375 56 
Q 45.5625 56 51.78125 48.09375 
Q 58.015625 40.1875 58.015625 27.296875 
Q 58.015625 14.40625 51.78125 6.484375 
Q 45.5625 -1.421875 35.59375 -1.421875 
Q 29.59375 -1.421875 25.265625 0.953125 
Q 20.953125 3.328125 18.109375 8.203125 
z
M 48.6875 27.296875 
Q 48.6875 37.203125 44.609375 42.84375 
Q 40.53125 48.484375 33.40625 48.484375 
Q 26.265625 48.484375 22.1875 42.84375 
Q 18.109375 37.203125 18.109375 27.296875 
Q 18.109375 17.390625 22.1875 11.75 
Q 26.265625 6.109375 33.40625 6.109375 
Q 40.53125 6.109375 44.609375 11.75 
Q 48.6875 17.390625 48.6875 27.296875 
z
" id="DejaVuSans-112"/>
      </defs>
      <g transform="translate(149.933603 596.722017)rotate(-45)scale(0.16 -0.16)">
       <use xlink:href="#DejaVuSans-83"/>
       <use x="63.476562" xlink:href="#DejaVuSans-101"/>
       <use x="125" xlink:href="#DejaVuSans-112"/>
       <use x="188.476562" xlink:href="#DejaVuSans-32"/>
       <use x="220.263672" xlink:href="#DejaVuSans-50"/>
       <use x="283.886719" xlink:href="#DejaVuSans-48"/>
       <use x="347.509766" xlink:href="#DejaVuSans-49"/>
       <use x="411.132812" xlink:href="#DejaVuSans-54"/>
      </g>
     </g>
    </g>
    <g id="xtick_3">
     <g id="line2d_5">
      <path clip-path="url(#p31f0f451b1)" d="M 250.024719 527.41 
L 250.024719 38.17 
" style="fill:none;stroke:#b0b0b0;stroke-linecap:square;stroke-width:0.8;"/>
     </g>
     <g id="line2d_6">
      <g>
       <use style="stroke:#000000;stroke-width:0.8;" x="250.024719" xlink:href="#m36d2c3a5bd" y="527.41"/>
      </g>
     </g>
     <g id="text_3">
      <!-- Mar 2017 -->
      <defs>
       <path d="M 8.203125 72.90625 
L 55.078125 72.90625 
L 55.078125 68.703125 
L 28.609375 0 
L 18.3125 0 
L 43.21875 64.59375 
L 8.203125 64.59375 
z
" id="DejaVuSans-55"/>
      </defs>
      <g transform="translate(226.279189 596.741463)rotate(-45)scale(0.16 -0.16)">
       <use xlink:href="#DejaVuSans-77"/>
       <use x="86.279297" xlink:href="#DejaVuSans-97"/>
       <use x="147.558594" xlink:href="#DejaVuSans-114"/>
       <use x="188.671875" xlink:href="#DejaVuSans-32"/>
       <use x="220.458984" xlink:href="#DejaVuSans-50"/>
       <use x="284.082031" xlink:href="#DejaVuSans-48"/>
       <use x="347.705078" xlink:href="#DejaVuSans-49"/>
       <use x="411.328125" xlink:href="#DejaVuSans-55"/>
      </g>
     </g>
    </g>
    <g id="xtick_4">
     <g id="line2d_7">
      <path clip-path="url(#p31f0f451b1)" d="M 327.645585 527.41 
L 327.645585 38.17 
" style="fill:none;stroke:#b0b0b0;stroke-linecap:square;stroke-width:0.8;"/>
     </g>
     <g id="line2d_8">
      <g>
       <use style="stroke:#000000;stroke-width:0.8;" x="327.645585" xlink:href="#m36d2c3a5bd" y="527.41"/>
      </g>
     </g>
     <g id="text_4">
      <!-- Sep 2017 -->
      <g transform="translate(303.909778 596.722017)rotate(-45)scale(0.16 -0.16)">
       <use xlink:href="#DejaVuSans-83"/>
       <use x="63.476562" xlink:href="#DejaVuSans-101"/>
       <use x="125" xlink:href="#DejaVuSans-112"/>
       <use x="188.476562" xlink:href="#DejaVuSans-32"/>
       <use x="220.263672" xlink:href="#DejaVuSans-50"/>
       <use x="283.886719" xlink:href="#DejaVuSans-48"/>
       <use x="347.509766" xlink:href="#DejaVuSans-49"/>
       <use x="411.132812" xlink:href="#DejaVuSans-55"/>
      </g>
     </g>
    </g>
    <g id="xtick_5">
     <g id="line2d_9">
      <path clip-path="url(#p31f0f451b1)" d="M 404.000893 527.41 
L 404.000893 38.17 
" style="fill:none;stroke:#b0b0b0;stroke-linecap:square;stroke-width:0.8;"/>
     </g>
     <g id="line2d_10">
      <g>
       <use style="stroke:#000000;stroke-width:0.8;" x="404.000893" xlink:href="#m36d2c3a5bd" y="527.41"/>
      </g>
     </g>
     <g id="text_5">
      <!-- Mar 2018 -->
      <defs>
       <path d="M 31.78125 34.625 
Q 24.75 34.625 20.71875 30.859375 
Q 16.703125 27.09375 16.703125 20.515625 
Q 16.703125 13.921875 20.71875 10.15625 
Q 24.75 6.390625 31.78125 6.390625 
Q 38.8125 6.390625 42.859375 10.171875 
Q 46.921875 13.96875 46.921875 20.515625 
Q 46.921875 27.09375 42.890625 30.859375 
Q 38.875 34.625 31.78125 34.625 
z
M 21.921875 38.8125 
Q 15.578125 40.375 12.03125 44.71875 
Q 8.5 49.078125 8.5 55.328125 
Q 8.5 64.0625 14.71875 69.140625 
Q 20.953125 74.21875 31.78125 74.21875 
Q 42.671875 74.21875 48.875 69.140625 
Q 55.078125 64.0625 55.078125 55.328125 
Q 55.078125 49.078125 51.53125 44.71875 
Q 48 40.375 41.703125 38.8125 
Q 48.828125 37.15625 52.796875 32.3125 
Q 56.78125 27.484375 56.78125 20.515625 
Q 56.78125 9.90625 50.3125 4.234375 
Q 43.84375 -1.421875 31.78125 -1.421875 
Q 19.734375 -1.421875 13.25 4.234375 
Q 6.78125 9.90625 6.78125 20.515625 
Q 6.78125 27.484375 10.78125 32.3125 
Q 14.796875 37.15625 21.921875 38.8125 
z
M 18.3125 54.390625 
Q 18.3125 48.734375 21.84375 45.5625 
Q 25.390625 42.390625 31.78125 42.390625 
Q 38.140625 42.390625 41.71875 45.5625 
Q 45.3125 48.734375 45.3125 54.390625 
Q 45.3125 60.0625 41.71875 63.234375 
Q 38.140625 66.40625 31.78125 66.40625 
Q 25.390625 66.40625 21.84375 63.234375 
Q 18.3125 60.0625 18.3125 54.390625 
z
" id="DejaVuSans-56"/>
      </defs>
      <g transform="translate(380.255364 596.741463)rotate(-45)scale(0.16 -0.16)">
       <use xlink:href="#DejaVuSans-77"/>
       <use x="86.279297" xlink:href="#DejaVuSans-97"/>
       <use x="147.558594" xlink:href="#DejaVuSans-114"/>
       <use x="188.671875" xlink:href="#DejaVuSans-32"/>
       <use x="220.458984" xlink:href="#DejaVuSans-50"/>
       <use x="284.082031" xlink:href="#DejaVuSans-48"/>
       <use x="347.705078" xlink:href="#DejaVuSans-49"/>
       <use x="411.328125" xlink:href="#DejaVuSans-56"/>
      </g>
     </g>
    </g>
    <g id="xtick_6">
     <g id="line2d_11">
      <path clip-path="url(#p31f0f451b1)" d="M 481.621759 527.41 
L 481.621759 38.17 
" style="fill:none;stroke:#b0b0b0;stroke-linecap:square;stroke-width:0.8;"/>
     </g>
     <g id="line2d_12">
      <g>
       <use style="stroke:#000000;stroke-width:0.8;" x="481.621759" xlink:href="#m36d2c3a5bd" y="527.41"/>
      </g>
     </g>
     <g id="text_6">
      <!-- Sep 2018 -->
      <g transform="translate(457.885952 596.722017)rotate(-45)scale(0.16 -0.16)">
       <use xlink:href="#DejaVuSans-83"/>
       <use x="63.476562" xlink:href="#DejaVuSans-101"/>
       <use x="125" xlink:href="#DejaVuSans-112"/>
       <use x="188.476562" xlink:href="#DejaVuSans-32"/>
       <use x="220.263672" xlink:href="#DejaVuSans-50"/>
       <use x="283.886719" xlink:href="#DejaVuSans-48"/>
       <use x="347.509766" xlink:href="#DejaVuSans-49"/>
       <use x="411.132812" xlink:href="#DejaVuSans-56"/>
      </g>
     </g>
    </g>
    <g id="xtick_7">
     <g id="line2d_13">
      <path clip-path="url(#p31f0f451b1)" d="M 557.977068 527.41 
L 557.977068 38.17 
" style="fill:none;stroke:#b0b0b0;stroke-linecap:square;stroke-width:0.8;"/>
     </g>
     <g id="line2d_14">
      <g>
       <use style="stroke:#000000;stroke-width:0.8;" x="557.977068" xlink:href="#m36d2c3a5bd" y="527.41"/>
      </g>
     </g>
     <g id="text_7">
      <!-- Mar 2019 -->
      <defs>
       <path d="M 10.984375 1.515625 
L 10.984375 10.5 
Q 14.703125 8.734375 18.5 7.8125 
Q 22.3125 6.890625 25.984375 6.890625 
Q 35.75 6.890625 40.890625 13.453125 
Q 46.046875 20.015625 46.78125 33.40625 
Q 43.953125 29.203125 39.59375 26.953125 
Q 35.25 24.703125 29.984375 24.703125 
Q 19.046875 24.703125 12.671875 31.3125 
Q 6.296875 37.9375 6.296875 49.421875 
Q 6.296875 60.640625 12.9375 67.421875 
Q 19.578125 74.21875 30.609375 74.21875 
Q 43.265625 74.21875 49.921875 64.515625 
Q 56.59375 54.828125 56.59375 36.375 
Q 56.59375 19.140625 48.40625 8.859375 
Q 40.234375 -1.421875 26.421875 -1.421875 
Q 22.703125 -1.421875 18.890625 -0.6875 
Q 15.09375 0.046875 10.984375 1.515625 
z
M 30.609375 32.421875 
Q 37.25 32.421875 41.125 36.953125 
Q 45.015625 41.5 45.015625 49.421875 
Q 45.015625 57.28125 41.125 61.84375 
Q 37.25 66.40625 30.609375 66.40625 
Q 23.96875 66.40625 20.09375 61.84375 
Q 16.21875 57.28125 16.21875 49.421875 
Q 16.21875 41.5 20.09375 36.953125 
Q 23.96875 32.421875 30.609375 32.421875 
z
" id="DejaVuSans-57"/>
      </defs>
      <g transform="translate(534.231538 596.741463)rotate(-45)scale(0.16 -0.16)">
       <use xlink:href="#DejaVuSans-77"/>
       <use x="86.279297" xlink:href="#DejaVuSans-97"/>
       <use x="147.558594" xlink:href="#DejaVuSans-114"/>
       <use x="188.671875" xlink:href="#DejaVuSans-32"/>
       <use x="220.458984" xlink:href="#DejaVuSans-50"/>
       <use x="284.082031" xlink:href="#DejaVuSans-48"/>
       <use x="347.705078" xlink:href="#DejaVuSans-49"/>
       <use x="411.328125" xlink:href="#DejaVuSans-57"/>
      </g>
     </g>
    </g>
    <g id="xtick_8">
     <g id="line2d_15">
      <path clip-path="url(#p31f0f451b1)" d="M 635.597934 527.41 
L 635.597934 38.17 
" style="fill:none;stroke:#b0b0b0;stroke-linecap:square;stroke-width:0.8;"/>
     </g>
     <g id="line2d_16">
      <g>
       <use style="stroke:#000000;stroke-width:0.8;" x="635.597934" xlink:href="#m36d2c3a5bd" y="527.41"/>
      </g>
     </g>
     <g id="text_8">
      <!-- Sep 2019 -->
      <g transform="translate(611.862127 596.722017)rotate(-45)scale(0.16 -0.16)">
       <use xlink:href="#DejaVuSans-83"/>
       <use x="63.476562" xlink:href="#DejaVuSans-101"/>
       <use x="125" xlink:href="#DejaVuSans-112"/>
       <use x="188.476562" xlink:href="#DejaVuSans-32"/>
       <use x="220.263672" xlink:href="#DejaVuSans-50"/>
       <use x="283.886719" xlink:href="#DejaVuSans-48"/>
       <use x="347.509766" xlink:href="#DejaVuSans-49"/>
       <use x="411.132812" xlink:href="#DejaVuSans-57"/>
      </g>
     </g>
    </g>
    <g id="xtick_9">
     <g id="line2d_17">
      <path clip-path="url(#p31f0f451b1)" d="M 712.375095 527.41 
L 712.375095 38.17 
" style="fill:none;stroke:#b0b0b0;stroke-linecap:square;stroke-width:0.8;"/>
     </g>
     <g id="line2d_18">
      <g>
       <use style="stroke:#000000;stroke-width:0.8;" x="712.375095" xlink:href="#m36d2c3a5bd" y="527.41"/>
      </g>
     </g>
     <g id="text_9">
      <!-- Mar 2020 -->
      <g transform="translate(688.629565 596.741463)rotate(-45)scale(0.16 -0.16)">
       <use xlink:href="#DejaVuSans-77"/>
       <use x="86.279297" xlink:href="#DejaVuSans-97"/>
       <use x="147.558594" xlink:href="#DejaVuSans-114"/>
       <use x="188.671875" xlink:href="#DejaVuSans-32"/>
       <use x="220.458984" xlink:href="#DejaVuSans-50"/>
       <use x="284.082031" xlink:href="#DejaVuSans-48"/>
       <use x="347.705078" xlink:href="#DejaVuSans-50"/>
       <use x="411.328125" xlink:href="#DejaVuSans-48"/>
      </g>
     </g>
    </g>
    <g id="xtick_10">
     <g id="line2d_19">
      <path clip-path="url(#p31f0f451b1)" d="M 789.995961 527.41 
L 789.995961 38.17 
" style="fill:none;stroke:#b0b0b0;stroke-linecap:square;stroke-width:0.8;"/>
     </g>
     <g id="line2d_20">
      <g>
       <use style="stroke:#000000;stroke-width:0.8;" x="789.995961" xlink:href="#m36d2c3a5bd" y="527.41"/>
      </g>
     </g>
     <g id="text_10">
      <!-- Sep 2020 -->
      <g transform="translate(766.260154 596.722017)rotate(-45)scale(0.16 -0.16)">
       <use xlink:href="#DejaVuSans-83"/>
       <use x="63.476562" xlink:href="#DejaVuSans-101"/>
       <use x="125" xlink:href="#DejaVuSans-112"/>
       <use x="188.476562" xlink:href="#DejaVuSans-32"/>
       <use x="220.263672" xlink:href="#DejaVuSans-50"/>
       <use x="283.886719" xlink:href="#DejaVuSans-48"/>
       <use x="347.509766" xlink:href="#DejaVuSans-50"/>
       <use x="411.132812" xlink:href="#DejaVuSans-48"/>
      </g>
     </g>
    </g>
    <g id="xtick_11">
     <g id="line2d_21">
      <path clip-path="url(#p31f0f451b1)" d="M 866.351269 527.41 
L 866.351269 38.17 
" style="fill:none;stroke:#b0b0b0;stroke-linecap:square;stroke-width:0.8;"/>
     </g>
     <g id="line2d_22">
      <g>
       <use style="stroke:#000000;stroke-width:0.8;" x="866.351269" xlink:href="#m36d2c3a5bd" y="527.41"/>
      </g>
     </g>
     <g id="text_11">
      <!-- Mar 2021 -->
      <g transform="translate(842.60574 596.741463)rotate(-45)scale(0.16 -0.16)">
       <use xlink:href="#DejaVuSans-77"/>
       <use x="86.279297" xlink:href="#DejaVuSans-97"/>
       <use x="147.558594" xlink:href="#DejaVuSans-114"/>
       <use x="188.671875" xlink:href="#DejaVuSans-32"/>
       <use x="220.458984" xlink:href="#DejaVuSans-50"/>
       <use x="284.082031" xlink:href="#DejaVuSans-48"/>
       <use x="347.705078" xlink:href="#DejaVuSans-50"/>
       <use x="411.328125" xlink:href="#DejaVuSans-49"/>
      </g>
     </g>
    </g>
    <g id="xtick_12">
     <g id="line2d_23">
      <path clip-path="url(#p31f0f451b1)" d="M 943.972135 527.41 
L 943.972135 38.17 
" style="fill:none;stroke:#b0b0b0;stroke-linecap:square;stroke-width:0.8;"/>
     </g>
     <g id="line2d_24">
      <g>
       <use style="stroke:#000000;stroke-width:0.8;" x="943.972135" xlink:href="#m36d2c3a5bd" y="527.41"/>
      </g>
     </g>
     <g id="text_12">
      <!-- Sep 2021 -->
      <g transform="translate(920.236328 596.722017)rotate(-45)scale(0.16 -0.16)">
       <use xlink:href="#DejaVuSans-83"/>
       <use x="63.476562" xlink:href="#DejaVuSans-101"/>
       <use x="125" xlink:href="#DejaVuSans-112"/>
       <use x="188.476562" xlink:href="#DejaVuSans-32"/>
       <use x="220.263672" xlink:href="#DejaVuSans-50"/>
       <use x="283.886719" xlink:href="#DejaVuSans-48"/>
       <use x="347.509766" xlink:href="#DejaVuSans-50"/>
       <use x="411.132812" xlink:href="#DejaVuSans-49"/>
      </g>
     </g>
    </g>
    <g id="xtick_13">
     <g id="line2d_25">
      <path clip-path="url(#p31f0f451b1)" d="M 76.643328 527.41 
L 76.643328 38.17 
" style="fill:none;stroke:#999999;stroke-linecap:square;stroke-opacity:0.2;stroke-width:0.8;"/>
     </g>
     <g id="line2d_26">
      <defs>
       <path d="M 0 0 
L 0 2 
" id="m062b9d3214" style="stroke:#000000;stroke-width:0.6;"/>
      </defs>
      <g>
       <use style="stroke:#000000;stroke-width:0.6;" x="76.643328" xlink:href="#m062b9d3214" y="527.41"/>
      </g>
     </g>
    </g>
    <g id="xtick_14">
     <g id="line2d_27">
      <path clip-path="url(#p31f0f451b1)" d="M 115.453761 527.41 
L 115.453761 38.17 
" style="fill:none;stroke:#999999;stroke-linecap:square;stroke-opacity:0.2;stroke-width:0.8;"/>
     </g>
     <g id="line2d_28">
      <g>
       <use style="stroke:#000000;stroke-width:0.6;" x="115.453761" xlink:href="#m062b9d3214" y="527.41"/>
      </g>
     </g>
    </g>
    <g id="xtick_15">
     <g id="line2d_29">
      <path clip-path="url(#p31f0f451b1)" d="M 134.858977 527.41 
L 134.858977 38.17 
" style="fill:none;stroke:#999999;stroke-linecap:square;stroke-opacity:0.2;stroke-width:0.8;"/>
     </g>
     <g id="line2d_30">
      <g>
       <use style="stroke:#000000;stroke-width:0.6;" x="134.858977" xlink:href="#m062b9d3214" y="527.41"/>
      </g>
     </g>
    </g>
    <g id="xtick_16">
     <g id="line2d_31">
      <path clip-path="url(#p31f0f451b1)" d="M 154.264194 527.41 
L 154.264194 38.17 
" style="fill:none;stroke:#999999;stroke-linecap:square;stroke-opacity:0.2;stroke-width:0.8;"/>
     </g>
     <g id="line2d_32">
      <g>
       <use style="stroke:#000000;stroke-width:0.6;" x="154.264194" xlink:href="#m062b9d3214" y="527.41"/>
      </g>
     </g>
    </g>
    <g id="xtick_17">
     <g id="line2d_33">
      <path clip-path="url(#p31f0f451b1)" d="M 193.074627 527.41 
L 193.074627 38.17 
" style="fill:none;stroke:#999999;stroke-linecap:square;stroke-opacity:0.2;stroke-width:0.8;"/>
     </g>
     <g id="line2d_34">
      <g>
       <use style="stroke:#000000;stroke-width:0.6;" x="193.074627" xlink:href="#m062b9d3214" y="527.41"/>
      </g>
     </g>
    </g>
    <g id="xtick_18">
     <g id="line2d_35">
      <path clip-path="url(#p31f0f451b1)" d="M 212.479843 527.41 
L 212.479843 38.17 
" style="fill:none;stroke:#999999;stroke-linecap:square;stroke-opacity:0.2;stroke-width:0.8;"/>
     </g>
     <g id="line2d_36">
      <g>
       <use style="stroke:#000000;stroke-width:0.6;" x="212.479843" xlink:href="#m062b9d3214" y="527.41"/>
      </g>
     </g>
    </g>
    <g id="xtick_19">
     <g id="line2d_37">
      <path clip-path="url(#p31f0f451b1)" d="M 231.88506 527.41 
L 231.88506 38.17 
" style="fill:none;stroke:#999999;stroke-linecap:square;stroke-opacity:0.2;stroke-width:0.8;"/>
     </g>
     <g id="line2d_38">
      <g>
       <use style="stroke:#000000;stroke-width:0.6;" x="231.88506" xlink:href="#m062b9d3214" y="527.41"/>
      </g>
     </g>
    </g>
    <g id="xtick_20">
     <g id="line2d_39">
      <path clip-path="url(#p31f0f451b1)" d="M 251.290276 527.41 
L 251.290276 38.17 
" style="fill:none;stroke:#999999;stroke-linecap:square;stroke-opacity:0.2;stroke-width:0.8;"/>
     </g>
     <g id="line2d_40">
      <g>
       <use style="stroke:#000000;stroke-width:0.6;" x="251.290276" xlink:href="#m062b9d3214" y="527.41"/>
      </g>
     </g>
    </g>
    <g id="xtick_21">
     <g id="line2d_41">
      <path clip-path="url(#p31f0f451b1)" d="M 270.695493 527.41 
L 270.695493 38.17 
" style="fill:none;stroke:#999999;stroke-linecap:square;stroke-opacity:0.2;stroke-width:0.8;"/>
     </g>
     <g id="line2d_42">
      <g>
       <use style="stroke:#000000;stroke-width:0.6;" x="270.695493" xlink:href="#m062b9d3214" y="527.41"/>
      </g>
     </g>
    </g>
    <g id="xtick_22">
     <g id="line2d_43">
      <path clip-path="url(#p31f0f451b1)" d="M 290.100709 527.41 
L 290.100709 38.17 
" style="fill:none;stroke:#999999;stroke-linecap:square;stroke-opacity:0.2;stroke-width:0.8;"/>
     </g>
     <g id="line2d_44">
      <g>
       <use style="stroke:#000000;stroke-width:0.6;" x="290.100709" xlink:href="#m062b9d3214" y="527.41"/>
      </g>
     </g>
    </g>
    <g id="xtick_23">
     <g id="line2d_45">
      <path clip-path="url(#p31f0f451b1)" d="M 309.505926 527.41 
L 309.505926 38.17 
" style="fill:none;stroke:#999999;stroke-linecap:square;stroke-opacity:0.2;stroke-width:0.8;"/>
     </g>
     <g id="line2d_46">
      <g>
       <use style="stroke:#000000;stroke-width:0.6;" x="309.505926" xlink:href="#m062b9d3214" y="527.41"/>
      </g>
     </g>
    </g>
    <g id="xtick_24">
     <g id="line2d_47">
      <path clip-path="url(#p31f0f451b1)" d="M 328.911142 527.41 
L 328.911142 38.17 
" style="fill:none;stroke:#999999;stroke-linecap:square;stroke-opacity:0.2;stroke-width:0.8;"/>
     </g>
     <g id="line2d_48">
      <g>
       <use style="stroke:#000000;stroke-width:0.6;" x="328.911142" xlink:href="#m062b9d3214" y="527.41"/>
      </g>
     </g>
    </g>
    <g id="xtick_25">
     <g id="line2d_49">
      <path clip-path="url(#p31f0f451b1)" d="M 348.316359 527.41 
L 348.316359 38.17 
" style="fill:none;stroke:#999999;stroke-linecap:square;stroke-opacity:0.2;stroke-width:0.8;"/>
     </g>
     <g id="line2d_50">
      <g>
       <use style="stroke:#000000;stroke-width:0.6;" x="348.316359" xlink:href="#m062b9d3214" y="527.41"/>
      </g>
     </g>
    </g>
    <g id="xtick_26">
     <g id="line2d_51">
      <path clip-path="url(#p31f0f451b1)" d="M 367.721575 527.41 
L 367.721575 38.17 
" style="fill:none;stroke:#999999;stroke-linecap:square;stroke-opacity:0.2;stroke-width:0.8;"/>
     </g>
     <g id="line2d_52">
      <g>
       <use style="stroke:#000000;stroke-width:0.6;" x="367.721575" xlink:href="#m062b9d3214" y="527.41"/>
      </g>
     </g>
    </g>
    <g id="xtick_27">
     <g id="line2d_53">
      <path clip-path="url(#p31f0f451b1)" d="M 387.126792 527.41 
L 387.126792 38.17 
" style="fill:none;stroke:#999999;stroke-linecap:square;stroke-opacity:0.2;stroke-width:0.8;"/>
     </g>
     <g id="line2d_54">
      <g>
       <use style="stroke:#000000;stroke-width:0.6;" x="387.126792" xlink:href="#m062b9d3214" y="527.41"/>
      </g>
     </g>
    </g>
    <g id="xtick_28">
     <g id="line2d_55">
      <path clip-path="url(#p31f0f451b1)" d="M 406.532008 527.41 
L 406.532008 38.17 
" style="fill:none;stroke:#999999;stroke-linecap:square;stroke-opacity:0.2;stroke-width:0.8;"/>
     </g>
     <g id="line2d_56">
      <g>
       <use style="stroke:#000000;stroke-width:0.6;" x="406.532008" xlink:href="#m062b9d3214" y="527.41"/>
      </g>
     </g>
    </g>
    <g id="xtick_29">
     <g id="line2d_57">
      <path clip-path="url(#p31f0f451b1)" d="M 425.937225 527.41 
L 425.937225 38.17 
" style="fill:none;stroke:#999999;stroke-linecap:square;stroke-opacity:0.2;stroke-width:0.8;"/>
     </g>
     <g id="line2d_58">
      <g>
       <use style="stroke:#000000;stroke-width:0.6;" x="425.937225" xlink:href="#m062b9d3214" y="527.41"/>
      </g>
     </g>
    </g>
    <g id="xtick_30">
     <g id="line2d_59">
      <path clip-path="url(#p31f0f451b1)" d="M 445.342441 527.41 
L 445.342441 38.17 
" style="fill:none;stroke:#999999;stroke-linecap:square;stroke-opacity:0.2;stroke-width:0.8;"/>
     </g>
     <g id="line2d_60">
      <g>
       <use style="stroke:#000000;stroke-width:0.6;" x="445.342441" xlink:href="#m062b9d3214" y="527.41"/>
      </g>
     </g>
    </g>
    <g id="xtick_31">
     <g id="line2d_61">
      <path clip-path="url(#p31f0f451b1)" d="M 464.747658 527.41 
L 464.747658 38.17 
" style="fill:none;stroke:#999999;stroke-linecap:square;stroke-opacity:0.2;stroke-width:0.8;"/>
     </g>
     <g id="line2d_62">
      <g>
       <use style="stroke:#000000;stroke-width:0.6;" x="464.747658" xlink:href="#m062b9d3214" y="527.41"/>
      </g>
     </g>
    </g>
    <g id="xtick_32">
     <g id="line2d_63">
      <path clip-path="url(#p31f0f451b1)" d="M 484.152874 527.41 
L 484.152874 38.17 
" style="fill:none;stroke:#999999;stroke-linecap:square;stroke-opacity:0.2;stroke-width:0.8;"/>
     </g>
     <g id="line2d_64">
      <g>
       <use style="stroke:#000000;stroke-width:0.6;" x="484.152874" xlink:href="#m062b9d3214" y="527.41"/>
      </g>
     </g>
    </g>
    <g id="xtick_33">
     <g id="line2d_65">
      <path clip-path="url(#p31f0f451b1)" d="M 503.558091 527.41 
L 503.558091 38.17 
" style="fill:none;stroke:#999999;stroke-linecap:square;stroke-opacity:0.2;stroke-width:0.8;"/>
     </g>
     <g id="line2d_66">
      <g>
       <use style="stroke:#000000;stroke-width:0.6;" x="503.558091" xlink:href="#m062b9d3214" y="527.41"/>
      </g>
     </g>
    </g>
    <g id="xtick_34">
     <g id="line2d_67">
      <path clip-path="url(#p31f0f451b1)" d="M 522.963307 527.41 
L 522.963307 38.17 
" style="fill:none;stroke:#999999;stroke-linecap:square;stroke-opacity:0.2;stroke-width:0.8;"/>
     </g>
     <g id="line2d_68">
      <g>
       <use style="stroke:#000000;stroke-width:0.6;" x="522.963307" xlink:href="#m062b9d3214" y="527.41"/>
      </g>
     </g>
    </g>
    <g id="xtick_35">
     <g id="line2d_69">
      <path clip-path="url(#p31f0f451b1)" d="M 542.368524 527.41 
L 542.368524 38.17 
" style="fill:none;stroke:#999999;stroke-linecap:square;stroke-opacity:0.2;stroke-width:0.8;"/>
     </g>
     <g id="line2d_70">
      <g>
       <use style="stroke:#000000;stroke-width:0.6;" x="542.368524" xlink:href="#m062b9d3214" y="527.41"/>
      </g>
     </g>
    </g>
    <g id="xtick_36">
     <g id="line2d_71">
      <path clip-path="url(#p31f0f451b1)" d="M 561.77374 527.41 
L 561.77374 38.17 
" style="fill:none;stroke:#999999;stroke-linecap:square;stroke-opacity:0.2;stroke-width:0.8;"/>
     </g>
     <g id="line2d_72">
      <g>
       <use style="stroke:#000000;stroke-width:0.6;" x="561.77374" xlink:href="#m062b9d3214" y="527.41"/>
      </g>
     </g>
    </g>
    <g id="xtick_37">
     <g id="line2d_73">
      <path clip-path="url(#p31f0f451b1)" d="M 581.178957 527.41 
L 581.178957 38.17 
" style="fill:none;stroke:#999999;stroke-linecap:square;stroke-opacity:0.2;stroke-width:0.8;"/>
     </g>
     <g id="line2d_74">
      <g>
       <use style="stroke:#000000;stroke-width:0.6;" x="581.178957" xlink:href="#m062b9d3214" y="527.41"/>
      </g>
     </g>
    </g>
    <g id="xtick_38">
     <g id="line2d_75">
      <path clip-path="url(#p31f0f451b1)" d="M 600.584173 527.41 
L 600.584173 38.17 
" style="fill:none;stroke:#999999;stroke-linecap:square;stroke-opacity:0.2;stroke-width:0.8;"/>
     </g>
     <g id="line2d_76">
      <g>
       <use style="stroke:#000000;stroke-width:0.6;" x="600.584173" xlink:href="#m062b9d3214" y="527.41"/>
      </g>
     </g>
    </g>
    <g id="xtick_39">
     <g id="line2d_77">
      <path clip-path="url(#p31f0f451b1)" d="M 619.98939 527.41 
L 619.98939 38.17 
" style="fill:none;stroke:#999999;stroke-linecap:square;stroke-opacity:0.2;stroke-width:0.8;"/>
     </g>
     <g id="line2d_78">
      <g>
       <use style="stroke:#000000;stroke-width:0.6;" x="619.98939" xlink:href="#m062b9d3214" y="527.41"/>
      </g>
     </g>
    </g>
    <g id="xtick_40">
     <g id="line2d_79">
      <path clip-path="url(#p31f0f451b1)" d="M 639.394606 527.41 
L 639.394606 38.17 
" style="fill:none;stroke:#999999;stroke-linecap:square;stroke-opacity:0.2;stroke-width:0.8;"/>
     </g>
     <g id="line2d_80">
      <g>
       <use style="stroke:#000000;stroke-width:0.6;" x="639.394606" xlink:href="#m062b9d3214" y="527.41"/>
      </g>
     </g>
    </g>
    <g id="xtick_41">
     <g id="line2d_81">
      <path clip-path="url(#p31f0f451b1)" d="M 658.799823 527.41 
L 658.799823 38.17 
" style="fill:none;stroke:#999999;stroke-linecap:square;stroke-opacity:0.2;stroke-width:0.8;"/>
     </g>
     <g id="line2d_82">
      <g>
       <use style="stroke:#000000;stroke-width:0.6;" x="658.799823" xlink:href="#m062b9d3214" y="527.41"/>
      </g>
     </g>
    </g>
    <g id="xtick_42">
     <g id="line2d_83">
      <path clip-path="url(#p31f0f451b1)" d="M 678.20504 527.41 
L 678.20504 38.17 
" style="fill:none;stroke:#999999;stroke-linecap:square;stroke-opacity:0.2;stroke-width:0.8;"/>
     </g>
     <g id="line2d_84">
      <g>
       <use style="stroke:#000000;stroke-width:0.6;" x="678.20504" xlink:href="#m062b9d3214" y="527.41"/>
      </g>
     </g>
    </g>
    <g id="xtick_43">
     <g id="line2d_85">
      <path clip-path="url(#p31f0f451b1)" d="M 697.610256 527.41 
L 697.610256 38.17 
" style="fill:none;stroke:#999999;stroke-linecap:square;stroke-opacity:0.2;stroke-width:0.8;"/>
     </g>
     <g id="line2d_86">
      <g>
       <use style="stroke:#000000;stroke-width:0.6;" x="697.610256" xlink:href="#m062b9d3214" y="527.41"/>
      </g>
     </g>
    </g>
    <g id="xtick_44">
     <g id="line2d_87">
      <path clip-path="url(#p31f0f451b1)" d="M 717.015473 527.41 
L 717.015473 38.17 
" style="fill:none;stroke:#999999;stroke-linecap:square;stroke-opacity:0.2;stroke-width:0.8;"/>
     </g>
     <g id="line2d_88">
      <g>
       <use style="stroke:#000000;stroke-width:0.6;" x="717.015473" xlink:href="#m062b9d3214" y="527.41"/>
      </g>
     </g>
    </g>
    <g id="xtick_45">
     <g id="line2d_89">
      <path clip-path="url(#p31f0f451b1)" d="M 736.420689 527.41 
L 736.420689 38.17 
" style="fill:none;stroke:#999999;stroke-linecap:square;stroke-opacity:0.2;stroke-width:0.8;"/>
     </g>
     <g id="line2d_90">
      <g>
       <use style="stroke:#000000;stroke-width:0.6;" x="736.420689" xlink:href="#m062b9d3214" y="527.41"/>
      </g>
     </g>
    </g>
    <g id="xtick_46">
     <g id="line2d_91">
      <path clip-path="url(#p31f0f451b1)" d="M 755.825906 527.41 
L 755.825906 38.17 
" style="fill:none;stroke:#999999;stroke-linecap:square;stroke-opacity:0.2;stroke-width:0.8;"/>
     </g>
     <g id="line2d_92">
      <g>
       <use style="stroke:#000000;stroke-width:0.6;" x="755.825906" xlink:href="#m062b9d3214" y="527.41"/>
      </g>
     </g>
    </g>
    <g id="xtick_47">
     <g id="line2d_93">
      <path clip-path="url(#p31f0f451b1)" d="M 775.231122 527.41 
L 775.231122 38.17 
" style="fill:none;stroke:#999999;stroke-linecap:square;stroke-opacity:0.2;stroke-width:0.8;"/>
     </g>
     <g id="line2d_94">
      <g>
       <use style="stroke:#000000;stroke-width:0.6;" x="775.231122" xlink:href="#m062b9d3214" y="527.41"/>
      </g>
     </g>
    </g>
    <g id="xtick_48">
     <g id="line2d_95">
      <path clip-path="url(#p31f0f451b1)" d="M 794.636339 527.41 
L 794.636339 38.17 
" style="fill:none;stroke:#999999;stroke-linecap:square;stroke-opacity:0.2;stroke-width:0.8;"/>
     </g>
     <g id="line2d_96">
      <g>
       <use style="stroke:#000000;stroke-width:0.6;" x="794.636339" xlink:href="#m062b9d3214" y="527.41"/>
      </g>
     </g>
    </g>
    <g id="xtick_49">
     <g id="line2d_97">
      <path clip-path="url(#p31f0f451b1)" d="M 814.041555 527.41 
L 814.041555 38.17 
" style="fill:none;stroke:#999999;stroke-linecap:square;stroke-opacity:0.2;stroke-width:0.8;"/>
     </g>
     <g id="line2d_98">
      <g>
       <use style="stroke:#000000;stroke-width:0.6;" x="814.041555" xlink:href="#m062b9d3214" y="527.41"/>
      </g>
     </g>
    </g>
    <g id="xtick_50">
     <g id="line2d_99">
      <path clip-path="url(#p31f0f451b1)" d="M 833.446772 527.41 
L 833.446772 38.17 
" style="fill:none;stroke:#999999;stroke-linecap:square;stroke-opacity:0.2;stroke-width:0.8;"/>
     </g>
     <g id="line2d_100">
      <g>
       <use style="stroke:#000000;stroke-width:0.6;" x="833.446772" xlink:href="#m062b9d3214" y="527.41"/>
      </g>
     </g>
    </g>
    <g id="xtick_51">
     <g id="line2d_101">
      <path clip-path="url(#p31f0f451b1)" d="M 852.851988 527.41 
L 852.851988 38.17 
" style="fill:none;stroke:#999999;stroke-linecap:square;stroke-opacity:0.2;stroke-width:0.8;"/>
     </g>
     <g id="line2d_102">
      <g>
       <use style="stroke:#000000;stroke-width:0.6;" x="852.851988" xlink:href="#m062b9d3214" y="527.41"/>
      </g>
     </g>
    </g>
    <g id="xtick_52">
     <g id="line2d_103">
      <path clip-path="url(#p31f0f451b1)" d="M 872.257205 527.41 
L 872.257205 38.17 
" style="fill:none;stroke:#999999;stroke-linecap:square;stroke-opacity:0.2;stroke-width:0.8;"/>
     </g>
     <g id="line2d_104">
      <g>
       <use style="stroke:#000000;stroke-width:0.6;" x="872.257205" xlink:href="#m062b9d3214" y="527.41"/>
      </g>
     </g>
    </g>
    <g id="xtick_53">
     <g id="line2d_105">
      <path clip-path="url(#p31f0f451b1)" d="M 891.662421 527.41 
L 891.662421 38.17 
" style="fill:none;stroke:#999999;stroke-linecap:square;stroke-opacity:0.2;stroke-width:0.8;"/>
     </g>
     <g id="line2d_106">
      <g>
       <use style="stroke:#000000;stroke-width:0.6;" x="891.662421" xlink:href="#m062b9d3214" y="527.41"/>
      </g>
     </g>
    </g>
    <g id="xtick_54">
     <g id="line2d_107">
      <path clip-path="url(#p31f0f451b1)" d="M 911.067638 527.41 
L 911.067638 38.17 
" style="fill:none;stroke:#999999;stroke-linecap:square;stroke-opacity:0.2;stroke-width:0.8;"/>
     </g>
     <g id="line2d_108">
      <g>
       <use style="stroke:#000000;stroke-width:0.6;" x="911.067638" xlink:href="#m062b9d3214" y="527.41"/>
      </g>
     </g>
    </g>
    <g id="xtick_55">
     <g id="line2d_109">
      <path clip-path="url(#p31f0f451b1)" d="M 930.472854 527.41 
L 930.472854 38.17 
" style="fill:none;stroke:#999999;stroke-linecap:square;stroke-opacity:0.2;stroke-width:0.8;"/>
     </g>
     <g id="line2d_110">
      <g>
       <use style="stroke:#000000;stroke-width:0.6;" x="930.472854" xlink:href="#m062b9d3214" y="527.41"/>
      </g>
     </g>
    </g>
    <g id="xtick_56">
     <g id="line2d_111">
      <path clip-path="url(#p31f0f451b1)" d="M 949.878071 527.41 
L 949.878071 38.17 
" style="fill:none;stroke:#999999;stroke-linecap:square;stroke-opacity:0.2;stroke-width:0.8;"/>
     </g>
     <g id="line2d_112">
      <g>
       <use style="stroke:#000000;stroke-width:0.6;" x="949.878071" xlink:href="#m062b9d3214" y="527.41"/>
      </g>
     </g>
    </g>
    <g id="text_13">
     <!-- Time -->
     <defs>
      <path d="M 0.484375 72.90625 
L 67.671875 72.90625 
L 67.671875 58.6875 
L 43.5 58.6875 
L 43.5 0 
L 24.703125 0 
L 24.703125 58.6875 
L 0.484375 58.6875 
z
" id="DejaVuSans-Bold-84"/>
      <path d="M 8.40625 54.6875 
L 25.875 54.6875 
L 25.875 0 
L 8.40625 0 
z
M 8.40625 75.984375 
L 25.875 75.984375 
L 25.875 61.71875 
L 8.40625 61.71875 
z
" id="DejaVuSans-Bold-105"/>
      <path d="M 59.078125 45.609375 
Q 62.40625 50.6875 66.96875 53.34375 
Q 71.53125 56 77 56 
Q 86.421875 56 91.359375 50.1875 
Q 96.296875 44.390625 96.296875 33.296875 
L 96.296875 0 
L 78.71875 0 
L 78.71875 28.515625 
Q 78.765625 29.15625 78.78125 29.828125 
Q 78.8125 30.515625 78.8125 31.78125 
Q 78.8125 37.59375 77.09375 40.203125 
Q 75.390625 42.828125 71.578125 42.828125 
Q 66.609375 42.828125 63.890625 38.71875 
Q 61.1875 34.625 61.078125 26.859375 
L 61.078125 0 
L 43.5 0 
L 43.5 28.515625 
Q 43.5 37.59375 41.9375 40.203125 
Q 40.375 42.828125 36.375 42.828125 
Q 31.34375 42.828125 28.609375 38.703125 
Q 25.875 34.578125 25.875 26.90625 
L 25.875 0 
L 8.296875 0 
L 8.296875 54.6875 
L 25.875 54.6875 
L 25.875 46.6875 
Q 29.109375 51.3125 33.28125 53.65625 
Q 37.453125 56 42.484375 56 
Q 48.140625 56 52.484375 53.265625 
Q 56.84375 50.53125 59.078125 45.609375 
z
" id="DejaVuSans-Bold-109"/>
      <path d="M 62.984375 27.484375 
L 62.984375 22.515625 
L 22.125 22.515625 
Q 22.75 16.359375 26.5625 13.28125 
Q 30.375 10.203125 37.203125 10.203125 
Q 42.71875 10.203125 48.5 11.84375 
Q 54.296875 13.484375 60.40625 16.796875 
L 60.40625 3.328125 
Q 54.203125 0.984375 48 -0.21875 
Q 41.796875 -1.421875 35.59375 -1.421875 
Q 20.75 -1.421875 12.515625 6.125 
Q 4.296875 13.671875 4.296875 27.296875 
Q 4.296875 40.671875 12.375 48.328125 
Q 20.453125 56 34.625 56 
Q 47.515625 56 55.25 48.234375 
Q 62.984375 40.484375 62.984375 27.484375 
z
M 45.015625 33.296875 
Q 45.015625 38.28125 42.109375 41.328125 
Q 39.203125 44.390625 34.515625 44.390625 
Q 29.4375 44.390625 26.265625 41.53125 
Q 23.09375 38.671875 22.3125 33.296875 
z
" id="DejaVuSans-Bold-101"/>
     </defs>
     <g transform="translate(489.59375 621.330611)scale(0.24 -0.24)">
      <use xlink:href="#DejaVuSans-Bold-84"/>
      <use x="68.212891" xlink:href="#DejaVuSans-Bold-105"/>
      <use x="102.490234" xlink:href="#DejaVuSans-Bold-109"/>
      <use x="206.689453" xlink:href="#DejaVuSans-Bold-101"/>
     </g>
    </g>
   </g>
   <g id="matplotlib.axis_2">
    <g id="ytick_1">
     <g id="line2d_113">
      <path clip-path="url(#p31f0f451b1)" d="M 76.1375 524.30628 
L 968.9375 524.30628 
" style="fill:none;stroke:#b0b0b0;stroke-linecap:square;stroke-width:0.8;"/>
     </g>
     <g id="line2d_114">
      <defs>
       <path d="M 0 0 
L -3.5 0 
" id="mc9feed37f4" style="stroke:#000000;stroke-width:0.8;"/>
      </defs>
      <g>
       <use style="stroke:#000000;stroke-width:0.8;" x="76.1375" xlink:href="#mc9feed37f4" y="524.30628"/>
      </g>
     </g>
     <g id="text_14">
      <!-- 10 k -->
      <defs>
       <path d="M 9.078125 75.984375 
L 18.109375 75.984375 
L 18.109375 31.109375 
L 44.921875 54.6875 
L 56.390625 54.6875 
L 27.390625 29.109375 
L 57.625 0 
L 45.90625 0 
L 18.109375 26.703125 
L 18.109375 0 
L 9.078125 0 
z
" id="DejaVuSans-107"/>
      </defs>
      <g transform="translate(34.4275 530.38503)scale(0.16 -0.16)">
       <use xlink:href="#DejaVuSans-49"/>
       <use x="63.623047" xlink:href="#DejaVuSans-48"/>
       <use x="127.246094" xlink:href="#DejaVuSans-32"/>
       <use x="159.033203" xlink:href="#DejaVuSans-107"/>
      </g>
     </g>
    </g>
    <g id="ytick_2">
     <g id="line2d_115">
      <path clip-path="url(#p31f0f451b1)" d="M 76.1375 440.895374 
L 968.9375 440.895374 
" style="fill:none;stroke:#b0b0b0;stroke-linecap:square;stroke-width:0.8;"/>
     </g>
     <g id="line2d_116">
      <g>
       <use style="stroke:#000000;stroke-width:0.8;" x="76.1375" xlink:href="#mc9feed37f4" y="440.895374"/>
      </g>
     </g>
     <g id="text_15">
      <!-- 20 k -->
      <g transform="translate(34.4275 446.974124)scale(0.16 -0.16)">
       <use xlink:href="#DejaVuSans-50"/>
       <use x="63.623047" xlink:href="#DejaVuSans-48"/>
       <use x="127.246094" xlink:href="#DejaVuSans-32"/>
       <use x="159.033203" xlink:href="#DejaVuSans-107"/>
      </g>
     </g>
    </g>
    <g id="ytick_3">
     <g id="line2d_117">
      <path clip-path="url(#p31f0f451b1)" d="M 76.1375 357.484467 
L 968.9375 357.484467 
" style="fill:none;stroke:#b0b0b0;stroke-linecap:square;stroke-width:0.8;"/>
     </g>
     <g id="line2d_118">
      <g>
       <use style="stroke:#000000;stroke-width:0.8;" x="76.1375" xlink:href="#mc9feed37f4" y="357.484467"/>
      </g>
     </g>
     <g id="text_16">
      <!-- 30 k -->
      <defs>
       <path d="M 40.578125 39.3125 
Q 47.65625 37.796875 51.625 33 
Q 55.609375 28.21875 55.609375 21.1875 
Q 55.609375 10.40625 48.1875 4.484375 
Q 40.765625 -1.421875 27.09375 -1.421875 
Q 22.515625 -1.421875 17.65625 -0.515625 
Q 12.796875 0.390625 7.625 2.203125 
L 7.625 11.71875 
Q 11.71875 9.328125 16.59375 8.109375 
Q 21.484375 6.890625 26.8125 6.890625 
Q 36.078125 6.890625 40.9375 10.546875 
Q 45.796875 14.203125 45.796875 21.1875 
Q 45.796875 27.640625 41.28125 31.265625 
Q 36.765625 34.90625 28.71875 34.90625 
L 20.21875 34.90625 
L 20.21875 43.015625 
L 29.109375 43.015625 
Q 36.375 43.015625 40.234375 45.921875 
Q 44.09375 48.828125 44.09375 54.296875 
Q 44.09375 59.90625 40.109375 62.90625 
Q 36.140625 65.921875 28.71875 65.921875 
Q 24.65625 65.921875 20.015625 65.03125 
Q 15.375 64.15625 9.8125 62.3125 
L 9.8125 71.09375 
Q 15.4375 72.65625 20.34375 73.4375 
Q 25.25 74.21875 29.59375 74.21875 
Q 40.828125 74.21875 47.359375 69.109375 
Q 53.90625 64.015625 53.90625 55.328125 
Q 53.90625 49.265625 50.4375 45.09375 
Q 46.96875 40.921875 40.578125 39.3125 
z
" id="DejaVuSans-51"/>
      </defs>
      <g transform="translate(34.4275 363.563217)scale(0.16 -0.16)">
       <use xlink:href="#DejaVuSans-51"/>
       <use x="63.623047" xlink:href="#DejaVuSans-48"/>
       <use x="127.246094" xlink:href="#DejaVuSans-32"/>
       <use x="159.033203" xlink:href="#DejaVuSans-107"/>
      </g>
     </g>
    </g>
    <g id="ytick_4">
     <g id="line2d_119">
      <path clip-path="url(#p31f0f451b1)" d="M 76.1375 274.07356 
L 968.9375 274.07356 
" style="fill:none;stroke:#b0b0b0;stroke-linecap:square;stroke-width:0.8;"/>
     </g>
     <g id="line2d_120">
      <g>
       <use style="stroke:#000000;stroke-width:0.8;" x="76.1375" xlink:href="#mc9feed37f4" y="274.07356"/>
      </g>
     </g>
     <g id="text_17">
      <!-- 40 k -->
      <defs>
       <path d="M 37.796875 64.3125 
L 12.890625 25.390625 
L 37.796875 25.390625 
z
M 35.203125 72.90625 
L 47.609375 72.90625 
L 47.609375 25.390625 
L 58.015625 25.390625 
L 58.015625 17.1875 
L 47.609375 17.1875 
L 47.609375 0 
L 37.796875 0 
L 37.796875 17.1875 
L 4.890625 17.1875 
L 4.890625 26.703125 
z
" id="DejaVuSans-52"/>
      </defs>
      <g transform="translate(34.4275 280.15231)scale(0.16 -0.16)">
       <use xlink:href="#DejaVuSans-52"/>
       <use x="63.623047" xlink:href="#DejaVuSans-48"/>
       <use x="127.246094" xlink:href="#DejaVuSans-32"/>
       <use x="159.033203" xlink:href="#DejaVuSans-107"/>
      </g>
     </g>
    </g>
    <g id="ytick_5">
     <g id="line2d_121">
      <path clip-path="url(#p31f0f451b1)" d="M 76.1375 190.662654 
L 968.9375 190.662654 
" style="fill:none;stroke:#b0b0b0;stroke-linecap:square;stroke-width:0.8;"/>
     </g>
     <g id="line2d_122">
      <g>
       <use style="stroke:#000000;stroke-width:0.8;" x="76.1375" xlink:href="#mc9feed37f4" y="190.662654"/>
      </g>
     </g>
     <g id="text_18">
      <!-- 50 k -->
      <defs>
       <path d="M 10.796875 72.90625 
L 49.515625 72.90625 
L 49.515625 64.59375 
L 19.828125 64.59375 
L 19.828125 46.734375 
Q 21.96875 47.46875 24.109375 47.828125 
Q 26.265625 48.1875 28.421875 48.1875 
Q 40.625 48.1875 47.75 41.5 
Q 54.890625 34.8125 54.890625 23.390625 
Q 54.890625 11.625 47.5625 5.09375 
Q 40.234375 -1.421875 26.90625 -1.421875 
Q 22.3125 -1.421875 17.546875 -0.640625 
Q 12.796875 0.140625 7.71875 1.703125 
L 7.71875 11.625 
Q 12.109375 9.234375 16.796875 8.0625 
Q 21.484375 6.890625 26.703125 6.890625 
Q 35.15625 6.890625 40.078125 11.328125 
Q 45.015625 15.765625 45.015625 23.390625 
Q 45.015625 31 40.078125 35.4375 
Q 35.15625 39.890625 26.703125 39.890625 
Q 22.75 39.890625 18.8125 39.015625 
Q 14.890625 38.140625 10.796875 36.28125 
z
" id="DejaVuSans-53"/>
      </defs>
      <g transform="translate(34.4275 196.741404)scale(0.16 -0.16)">
       <use xlink:href="#DejaVuSans-53"/>
       <use x="63.623047" xlink:href="#DejaVuSans-48"/>
       <use x="127.246094" xlink:href="#DejaVuSans-32"/>
       <use x="159.033203" xlink:href="#DejaVuSans-107"/>
      </g>
     </g>
    </g>
    <g id="ytick_6">
     <g id="line2d_123">
      <path clip-path="url(#p31f0f451b1)" d="M 76.1375 107.251747 
L 968.9375 107.251747 
" style="fill:none;stroke:#b0b0b0;stroke-linecap:square;stroke-width:0.8;"/>
     </g>
     <g id="line2d_124">
      <g>
       <use style="stroke:#000000;stroke-width:0.8;" x="76.1375" xlink:href="#mc9feed37f4" y="107.251747"/>
      </g>
     </g>
     <g id="text_19">
      <!-- 60 k -->
      <g transform="translate(34.4275 113.330497)scale(0.16 -0.16)">
       <use xlink:href="#DejaVuSans-54"/>
       <use x="63.623047" xlink:href="#DejaVuSans-48"/>
       <use x="127.246094" xlink:href="#DejaVuSans-32"/>
       <use x="159.033203" xlink:href="#DejaVuSans-107"/>
      </g>
     </g>
    </g>
    <g id="ytick_7">
     <g id="line2d_125">
      <path clip-path="url(#p31f0f451b1)" d="M 76.1375 507.624099 
L 968.9375 507.624099 
" style="fill:none;stroke:#999999;stroke-linecap:square;stroke-opacity:0.2;stroke-width:0.8;"/>
     </g>
     <g id="line2d_126">
      <defs>
       <path d="M 0 0 
L -2 0 
" id="mbef1d7aa3d" style="stroke:#000000;stroke-width:0.6;"/>
      </defs>
      <g>
       <use style="stroke:#000000;stroke-width:0.6;" x="76.1375" xlink:href="#mbef1d7aa3d" y="507.624099"/>
      </g>
     </g>
    </g>
    <g id="ytick_8">
     <g id="line2d_127">
      <path clip-path="url(#p31f0f451b1)" d="M 76.1375 490.941918 
L 968.9375 490.941918 
" style="fill:none;stroke:#999999;stroke-linecap:square;stroke-opacity:0.2;stroke-width:0.8;"/>
     </g>
     <g id="line2d_128">
      <g>
       <use style="stroke:#000000;stroke-width:0.6;" x="76.1375" xlink:href="#mbef1d7aa3d" y="490.941918"/>
      </g>
     </g>
    </g>
    <g id="ytick_9">
     <g id="line2d_129">
      <path clip-path="url(#p31f0f451b1)" d="M 76.1375 474.259736 
L 968.9375 474.259736 
" style="fill:none;stroke:#999999;stroke-linecap:square;stroke-opacity:0.2;stroke-width:0.8;"/>
     </g>
     <g id="line2d_130">
      <g>
       <use style="stroke:#000000;stroke-width:0.6;" x="76.1375" xlink:href="#mbef1d7aa3d" y="474.259736"/>
      </g>
     </g>
    </g>
    <g id="ytick_10">
     <g id="line2d_131">
      <path clip-path="url(#p31f0f451b1)" d="M 76.1375 457.577555 
L 968.9375 457.577555 
" style="fill:none;stroke:#999999;stroke-linecap:square;stroke-opacity:0.2;stroke-width:0.8;"/>
     </g>
     <g id="line2d_132">
      <g>
       <use style="stroke:#000000;stroke-width:0.6;" x="76.1375" xlink:href="#mbef1d7aa3d" y="457.577555"/>
      </g>
     </g>
    </g>
    <g id="ytick_11">
     <g id="line2d_133">
      <path clip-path="url(#p31f0f451b1)" d="M 76.1375 424.213192 
L 968.9375 424.213192 
" style="fill:none;stroke:#999999;stroke-linecap:square;stroke-opacity:0.2;stroke-width:0.8;"/>
     </g>
     <g id="line2d_134">
      <g>
       <use style="stroke:#000000;stroke-width:0.6;" x="76.1375" xlink:href="#mbef1d7aa3d" y="424.213192"/>
      </g>
     </g>
    </g>
    <g id="ytick_12">
     <g id="line2d_135">
      <path clip-path="url(#p31f0f451b1)" d="M 76.1375 407.531011 
L 968.9375 407.531011 
" style="fill:none;stroke:#999999;stroke-linecap:square;stroke-opacity:0.2;stroke-width:0.8;"/>
     </g>
     <g id="line2d_136">
      <g>
       <use style="stroke:#000000;stroke-width:0.6;" x="76.1375" xlink:href="#mbef1d7aa3d" y="407.531011"/>
      </g>
     </g>
    </g>
    <g id="ytick_13">
     <g id="line2d_137">
      <path clip-path="url(#p31f0f451b1)" d="M 76.1375 390.84883 
L 968.9375 390.84883 
" style="fill:none;stroke:#999999;stroke-linecap:square;stroke-opacity:0.2;stroke-width:0.8;"/>
     </g>
     <g id="line2d_138">
      <g>
       <use style="stroke:#000000;stroke-width:0.6;" x="76.1375" xlink:href="#mbef1d7aa3d" y="390.84883"/>
      </g>
     </g>
    </g>
    <g id="ytick_14">
     <g id="line2d_139">
      <path clip-path="url(#p31f0f451b1)" d="M 76.1375 374.166648 
L 968.9375 374.166648 
" style="fill:none;stroke:#999999;stroke-linecap:square;stroke-opacity:0.2;stroke-width:0.8;"/>
     </g>
     <g id="line2d_140">
      <g>
       <use style="stroke:#000000;stroke-width:0.6;" x="76.1375" xlink:href="#mbef1d7aa3d" y="374.166648"/>
      </g>
     </g>
    </g>
    <g id="ytick_15">
     <g id="line2d_141">
      <path clip-path="url(#p31f0f451b1)" d="M 76.1375 340.802286 
L 968.9375 340.802286 
" style="fill:none;stroke:#999999;stroke-linecap:square;stroke-opacity:0.2;stroke-width:0.8;"/>
     </g>
     <g id="line2d_142">
      <g>
       <use style="stroke:#000000;stroke-width:0.6;" x="76.1375" xlink:href="#mbef1d7aa3d" y="340.802286"/>
      </g>
     </g>
    </g>
    <g id="ytick_16">
     <g id="line2d_143">
      <path clip-path="url(#p31f0f451b1)" d="M 76.1375 324.120104 
L 968.9375 324.120104 
" style="fill:none;stroke:#999999;stroke-linecap:square;stroke-opacity:0.2;stroke-width:0.8;"/>
     </g>
     <g id="line2d_144">
      <g>
       <use style="stroke:#000000;stroke-width:0.6;" x="76.1375" xlink:href="#mbef1d7aa3d" y="324.120104"/>
      </g>
     </g>
    </g>
    <g id="ytick_17">
     <g id="line2d_145">
      <path clip-path="url(#p31f0f451b1)" d="M 76.1375 307.437923 
L 968.9375 307.437923 
" style="fill:none;stroke:#999999;stroke-linecap:square;stroke-opacity:0.2;stroke-width:0.8;"/>
     </g>
     <g id="line2d_146">
      <g>
       <use style="stroke:#000000;stroke-width:0.6;" x="76.1375" xlink:href="#mbef1d7aa3d" y="307.437923"/>
      </g>
     </g>
    </g>
    <g id="ytick_18">
     <g id="line2d_147">
      <path clip-path="url(#p31f0f451b1)" d="M 76.1375 290.755742 
L 968.9375 290.755742 
" style="fill:none;stroke:#999999;stroke-linecap:square;stroke-opacity:0.2;stroke-width:0.8;"/>
     </g>
     <g id="line2d_148">
      <g>
       <use style="stroke:#000000;stroke-width:0.6;" x="76.1375" xlink:href="#mbef1d7aa3d" y="290.755742"/>
      </g>
     </g>
    </g>
    <g id="ytick_19">
     <g id="line2d_149">
      <path clip-path="url(#p31f0f451b1)" d="M 76.1375 257.391379 
L 968.9375 257.391379 
" style="fill:none;stroke:#999999;stroke-linecap:square;stroke-opacity:0.2;stroke-width:0.8;"/>
     </g>
     <g id="line2d_150">
      <g>
       <use style="stroke:#000000;stroke-width:0.6;" x="76.1375" xlink:href="#mbef1d7aa3d" y="257.391379"/>
      </g>
     </g>
    </g>
    <g id="ytick_20">
     <g id="line2d_151">
      <path clip-path="url(#p31f0f451b1)" d="M 76.1375 240.709198 
L 968.9375 240.709198 
" style="fill:none;stroke:#999999;stroke-linecap:square;stroke-opacity:0.2;stroke-width:0.8;"/>
     </g>
     <g id="line2d_152">
      <g>
       <use style="stroke:#000000;stroke-width:0.6;" x="76.1375" xlink:href="#mbef1d7aa3d" y="240.709198"/>
      </g>
     </g>
    </g>
    <g id="ytick_21">
     <g id="line2d_153">
      <path clip-path="url(#p31f0f451b1)" d="M 76.1375 224.027016 
L 968.9375 224.027016 
" style="fill:none;stroke:#999999;stroke-linecap:square;stroke-opacity:0.2;stroke-width:0.8;"/>
     </g>
     <g id="line2d_154">
      <g>
       <use style="stroke:#000000;stroke-width:0.6;" x="76.1375" xlink:href="#mbef1d7aa3d" y="224.027016"/>
      </g>
     </g>
    </g>
    <g id="ytick_22">
     <g id="line2d_155">
      <path clip-path="url(#p31f0f451b1)" d="M 76.1375 207.344835 
L 968.9375 207.344835 
" style="fill:none;stroke:#999999;stroke-linecap:square;stroke-opacity:0.2;stroke-width:0.8;"/>
     </g>
     <g id="line2d_156">
      <g>
       <use style="stroke:#000000;stroke-width:0.6;" x="76.1375" xlink:href="#mbef1d7aa3d" y="207.344835"/>
      </g>
     </g>
    </g>
    <g id="ytick_23">
     <g id="line2d_157">
      <path clip-path="url(#p31f0f451b1)" d="M 76.1375 173.980472 
L 968.9375 173.980472 
" style="fill:none;stroke:#999999;stroke-linecap:square;stroke-opacity:0.2;stroke-width:0.8;"/>
     </g>
     <g id="line2d_158">
      <g>
       <use style="stroke:#000000;stroke-width:0.6;" x="76.1375" xlink:href="#mbef1d7aa3d" y="173.980472"/>
      </g>
     </g>
    </g>
    <g id="ytick_24">
     <g id="line2d_159">
      <path clip-path="url(#p31f0f451b1)" d="M 76.1375 157.298291 
L 968.9375 157.298291 
" style="fill:none;stroke:#999999;stroke-linecap:square;stroke-opacity:0.2;stroke-width:0.8;"/>
     </g>
     <g id="line2d_160">
      <g>
       <use style="stroke:#000000;stroke-width:0.6;" x="76.1375" xlink:href="#mbef1d7aa3d" y="157.298291"/>
      </g>
     </g>
    </g>
    <g id="ytick_25">
     <g id="line2d_161">
      <path clip-path="url(#p31f0f451b1)" d="M 76.1375 140.61611 
L 968.9375 140.61611 
" style="fill:none;stroke:#999999;stroke-linecap:square;stroke-opacity:0.2;stroke-width:0.8;"/>
     </g>
     <g id="line2d_162">
      <g>
       <use style="stroke:#000000;stroke-width:0.6;" x="76.1375" xlink:href="#mbef1d7aa3d" y="140.61611"/>
      </g>
     </g>
    </g>
    <g id="ytick_26">
     <g id="line2d_163">
      <path clip-path="url(#p31f0f451b1)" d="M 76.1375 123.933928 
L 968.9375 123.933928 
" style="fill:none;stroke:#999999;stroke-linecap:square;stroke-opacity:0.2;stroke-width:0.8;"/>
     </g>
     <g id="line2d_164">
      <g>
       <use style="stroke:#000000;stroke-width:0.6;" x="76.1375" xlink:href="#mbef1d7aa3d" y="123.933928"/>
      </g>
     </g>
    </g>
    <g id="ytick_27">
     <g id="line2d_165">
      <path clip-path="url(#p31f0f451b1)" d="M 76.1375 90.569566 
L 968.9375 90.569566 
" style="fill:none;stroke:#999999;stroke-linecap:square;stroke-opacity:0.2;stroke-width:0.8;"/>
     </g>
     <g id="line2d_166">
      <g>
       <use style="stroke:#000000;stroke-width:0.6;" x="76.1375" xlink:href="#mbef1d7aa3d" y="90.569566"/>
      </g>
     </g>
    </g>
    <g id="ytick_28">
     <g id="line2d_167">
      <path clip-path="url(#p31f0f451b1)" d="M 76.1375 73.887384 
L 968.9375 73.887384 
" style="fill:none;stroke:#999999;stroke-linecap:square;stroke-opacity:0.2;stroke-width:0.8;"/>
     </g>
     <g id="line2d_168">
      <g>
       <use style="stroke:#000000;stroke-width:0.6;" x="76.1375" xlink:href="#mbef1d7aa3d" y="73.887384"/>
      </g>
     </g>
    </g>
    <g id="ytick_29">
     <g id="line2d_169">
      <path clip-path="url(#p31f0f451b1)" d="M 76.1375 57.205203 
L 968.9375 57.205203 
" style="fill:none;stroke:#999999;stroke-linecap:square;stroke-opacity:0.2;stroke-width:0.8;"/>
     </g>
     <g id="line2d_170">
      <g>
       <use style="stroke:#000000;stroke-width:0.6;" x="76.1375" xlink:href="#mbef1d7aa3d" y="57.205203"/>
      </g>
     </g>
    </g>
    <g id="ytick_30">
     <g id="line2d_171">
      <path clip-path="url(#p31f0f451b1)" d="M 76.1375 40.523022 
L 968.9375 40.523022 
" style="fill:none;stroke:#999999;stroke-linecap:square;stroke-opacity:0.2;stroke-width:0.8;"/>
     </g>
     <g id="line2d_172">
      <g>
       <use style="stroke:#000000;stroke-width:0.6;" x="76.1375" xlink:href="#mbef1d7aa3d" y="40.523022"/>
      </g>
     </g>
    </g>
    <g id="text_20">
     <!-- Experience [xp] -->
     <defs>
      <path d="M 9.1875 72.90625 
L 59.90625 72.90625 
L 59.90625 58.6875 
L 27.984375 58.6875 
L 27.984375 45.125 
L 58.015625 45.125 
L 58.015625 30.90625 
L 27.984375 30.90625 
L 27.984375 14.203125 
L 60.984375 14.203125 
L 60.984375 0 
L 9.1875 0 
z
" id="DejaVuSans-Bold-69"/>
      <path d="M 22.21875 27.984375 
L 2.484375 54.6875 
L 21 54.6875 
L 32.171875 38.484375 
L 43.5 54.6875 
L 62.015625 54.6875 
L 42.28125 28.078125 
L 62.984375 0 
L 44.484375 0 
L 32.171875 17.28125 
L 20.015625 0 
L 1.515625 0 
z
" id="DejaVuSans-Bold-120"/>
      <path d="M 25.875 7.90625 
L 25.875 -20.796875 
L 8.40625 -20.796875 
L 8.40625 54.6875 
L 25.875 54.6875 
L 25.875 46.6875 
Q 29.5 51.46875 33.890625 53.734375 
Q 38.28125 56 44 56 
Q 54.109375 56 60.59375 47.96875 
Q 67.09375 39.9375 67.09375 27.296875 
Q 67.09375 14.65625 60.59375 6.609375 
Q 54.109375 -1.421875 44 -1.421875 
Q 38.28125 -1.421875 33.890625 0.84375 
Q 29.5 3.125 25.875 7.90625 
z
M 37.5 43.3125 
Q 31.890625 43.3125 28.875 39.1875 
Q 25.875 35.0625 25.875 27.296875 
Q 25.875 19.53125 28.875 15.40625 
Q 31.890625 11.28125 37.5 11.28125 
Q 43.109375 11.28125 46.0625 15.375 
Q 49.03125 19.484375 49.03125 27.296875 
Q 49.03125 35.109375 46.0625 39.203125 
Q 43.109375 43.3125 37.5 43.3125 
z
" id="DejaVuSans-Bold-112"/>
      <path d="M 49.03125 39.796875 
Q 46.734375 40.875 44.453125 41.375 
Q 42.1875 41.890625 39.890625 41.890625 
Q 33.15625 41.890625 29.515625 37.5625 
Q 25.875 33.25 25.875 25.203125 
L 25.875 0 
L 8.40625 0 
L 8.40625 54.6875 
L 25.875 54.6875 
L 25.875 45.703125 
Q 29.25 51.078125 33.609375 53.53125 
Q 37.984375 56 44.09375 56 
Q 44.96875 56 45.984375 55.921875 
Q 47.015625 55.859375 48.96875 55.609375 
z
" id="DejaVuSans-Bold-114"/>
      <path d="M 63.375 33.296875 
L 63.375 0 
L 45.796875 0 
L 45.796875 5.421875 
L 45.796875 25.484375 
Q 45.796875 32.5625 45.484375 35.25 
Q 45.171875 37.9375 44.390625 39.203125 
Q 43.359375 40.921875 41.59375 41.875 
Q 39.84375 42.828125 37.59375 42.828125 
Q 32.125 42.828125 29 38.59375 
Q 25.875 34.375 25.875 26.90625 
L 25.875 0 
L 8.40625 0 
L 8.40625 54.6875 
L 25.875 54.6875 
L 25.875 46.6875 
Q 29.828125 51.46875 34.265625 53.734375 
Q 38.71875 56 44.09375 56 
Q 53.5625 56 58.46875 50.1875 
Q 63.375 44.390625 63.375 33.296875 
z
" id="DejaVuSans-Bold-110"/>
      <path d="M 52.59375 52.984375 
L 52.59375 38.71875 
Q 49.03125 41.15625 45.4375 42.328125 
Q 41.84375 43.5 37.984375 43.5 
Q 30.671875 43.5 26.59375 39.234375 
Q 22.515625 34.96875 22.515625 27.296875 
Q 22.515625 19.625 26.59375 15.34375 
Q 30.671875 11.078125 37.984375 11.078125 
Q 42.09375 11.078125 45.78125 12.296875 
Q 49.46875 13.53125 52.59375 15.921875 
L 52.59375 1.609375 
Q 48.484375 0.09375 44.265625 -0.65625 
Q 40.046875 -1.421875 35.796875 -1.421875 
Q 21 -1.421875 12.640625 6.171875 
Q 4.296875 13.765625 4.296875 27.296875 
Q 4.296875 40.828125 12.640625 48.40625 
Q 21 56 35.796875 56 
Q 40.09375 56 44.265625 55.25 
Q 48.4375 54.5 52.59375 52.984375 
z
" id="DejaVuSans-Bold-99"/>
      <path id="DejaVuSans-Bold-32"/>
      <path d="M 8.59375 75.984375 
L 38.921875 75.984375 
L 38.921875 64.984375 
L 25.203125 64.984375 
L 25.203125 -2.203125 
L 38.921875 -2.203125 
L 38.921875 -13.1875 
L 8.59375 -13.1875 
z
" id="DejaVuSans-Bold-91"/>
      <path d="M 37.109375 -13.1875 
L 6.78125 -13.1875 
L 6.78125 -2.203125 
L 20.515625 -2.203125 
L 20.515625 64.984375 
L 6.78125 64.984375 
L 6.78125 75.984375 
L 37.109375 75.984375 
z
" id="DejaVuSans-Bold-93"/>
     </defs>
     <g transform="translate(25.43625 388.898125)rotate(-90)scale(0.24 -0.24)">
      <use xlink:href="#DejaVuSans-Bold-69"/>
      <use x="68.310547" xlink:href="#DejaVuSans-Bold-120"/>
      <use x="132.8125" xlink:href="#DejaVuSans-Bold-112"/>
      <use x="204.394531" xlink:href="#DejaVuSans-Bold-101"/>
      <use x="272.216797" xlink:href="#DejaVuSans-Bold-114"/>
      <use x="321.533203" xlink:href="#DejaVuSans-Bold-105"/>
      <use x="355.810547" xlink:href="#DejaVuSans-Bold-101"/>
      <use x="423.632812" xlink:href="#DejaVuSans-Bold-110"/>
      <use x="494.824219" xlink:href="#DejaVuSans-Bold-99"/>
      <use x="554.101562" xlink:href="#DejaVuSans-Bold-101"/>
      <use x="621.923828" xlink:href="#DejaVuSans-Bold-32"/>
      <use x="656.738281" xlink:href="#DejaVuSans-Bold-91"/>
      <use x="702.441406" xlink:href="#DejaVuSans-Bold-120"/>
      <use x="766.943359" xlink:href="#DejaVuSans-Bold-112"/>
      <use x="838.525391" xlink:href="#DejaVuSans-Bold-93"/>
     </g>
    </g>
   </g>
   <g id="line2d_173">
    <path clip-path="url(#p31f0f451b1)" d="M 116.719318 505.171818 
L 117.141171 503.88729 
L 117.563023 503.603693 
L 117.984876 502.58608 
L 118.406728 502.169026 
L 119.672286 500.233893 
L 120.094138 500.208869 
L 120.515991 499.98366 
L 121.781549 501.485056 
L 125.578221 501.384963 
L 126.421926 501.28487 
L 126.843779 500.75104 
L 127.265632 500.692652 
L 130.640452 499.641675 
L 133.593419 499.06614 
L 136.546387 498.765861 
L 136.96824 497.906728 
L 137.390092 497.839999 
L 139.921207 495.362696 
L 141.186765 494.495222 
L 142.452323 493.093919 
L 146.248995 490.474816 
L 147.092701 491.792709 
L 148.358258 492.801981 
L 148.780111 492.443314 
L 150.045668 493.569361 
L 163.123097 491.951189 
L 165.232359 491.550817 
L 268.58623 477.112389 
L 301.91258 476.987273 
L 302.334433 476.81211 
L 304.443695 476.678652 
L 307.396663 475.535923 
L 310.771483 474.801907 
L 316.677419 473.517379 
L 319.208534 473.000231 
L 320.474092 472.941844 
L 321.317797 472.724976 
L 354.644147 466.444134 
L 361.235593 458.99554 
L 361.389393 457.452438 
L 361.635474 457.38571 
L 361.644262 454.691537 
L 363.788679 451.997365 
L 364.329178 451.989024 
L 364.337966 451.388466 
L 366.3154 451.34676 
L 366.324189 452.105799 
L 366.69331 452.097458 
L 366.702098 451.430171 
L 367.216231 450.370853 
L 367.497466 450.370853 
L 367.50186 451.897272 
L 404.712769 432.52926 
L 420.409199 430.268824 
L 432.19031 420.317903 
L 630.315988 387.395618 
L 637.680831 386.936858 
L 654.080348 386.803401 
L 654.510989 386.069385 
L 671.376302 348.317608 
L 674.254566 344.338908 
L 677.167985 339.334254 
L 676.939482 339.876425 
L 677.783187 334.846747 
L 818.936802 147.756083 
L 841.013751 141.216668 
L 842.723133 140.023892 
L 846.106742 138.964574 
L 848.624674 137.496542 
L 851.560065 136.512293 
L 853.265052 135.402928 
L 855.637973 134.085036 
L 860.331082 131.983081 
L 860.445334 131.107266 
L 862.46671 129.806056 
L 873.10091 120.764314 
L 875.842951 119.579879 
L 883.581309 113.716092 
L 887.703159 108.80319 
L 889.90646 105.266567 
L 890.187109 105.224862 
L 890.18916 104.657668 
L 890.392762 104.432458 
L 890.676048 104.349047 
L 890.776531 104.29066 
L 890.779167 104.015404 
L 891.038724 104.015404 
L 891.043997 103.623373 
L 891.216546 103.381481 
L 891.423078 103.289729 
L 891.424543 102.922721 
L 891.548169 102.881015 
L 891.966507 102.172023 
L 892.832183 102.163682 
L 892.843022 101.488053 
L 893.157654 101.054317 
L 893.739459 99.93661 
L 894.899261 99.260982 
L 895.449719 97.817973 
L 895.737107 97.467648 
L 896.178001 97.300826 
L 897.48135 97.159027 
L 897.541991 96.333259 
L 898.78089 94.556607 
L 899.14796 94.439832 
L 899.614341 93.113598 
L 899.885909 92.846683 
L 900.06461 92.062621 
L 900.494959 91.787365 
L 900.9048 89.743798 
L 901.337492 89.051487 
L 901.799186 88.050556 
L 902.077199 89.209968 
L 902.434601 88.984758 
L 904.686239 89.61034 
L 905.441472 88.3842 
L 907.674361 87.600137 
L 907.91927 87.299858 
L 907.921907 86.690958 
L 908.332627 86.382338 
L 908.920584 85.681687 
L 909.757844 85.356384 
L 910.011542 84.814213 
L 911.247804 84.021809 
L 911.735278 83.913375 
L 912.146877 83.271111 
L 914.649283 81.094087 
L 915.236068 79.984722 
L 917.380192 79.200659 
L 920.2151 73.895725 
L 923.29726 71.727042 
L 923.561211 71.293305 
L 923.570585 70.467537 
L 923.9649 70.467537 
L 925.226063 67.189489 
L 925.773886 65.237673 
L 928.355682 60.408182 
L 928.355682 60.408182 
" style="fill:none;stroke:#000000;stroke-linecap:square;stroke-width:1.5;"/>
   </g>
   <g id="patch_3">
    <path d="M 76.1375 527.41 
L 76.1375 38.17 
" style="fill:none;stroke:#000000;stroke-linecap:square;stroke-linejoin:miter;stroke-width:0.8;"/>
   </g>
   <g id="patch_4">
    <path d="M 968.9375 527.41 
L 968.9375 38.17 
" style="fill:none;stroke:#000000;stroke-linecap:square;stroke-linejoin:miter;stroke-width:0.8;"/>
   </g>
   <g id="patch_5">
    <path d="M 76.1375 527.41 
L 968.9375 527.41 
" style="fill:none;stroke:#000000;stroke-linecap:square;stroke-linejoin:miter;stroke-width:0.8;"/>
   </g>
   <g id="patch_6">
    <path d="M 76.1375 38.17 
L 968.9375 38.17 
" style="fill:none;stroke:#000000;stroke-linecap:square;stroke-linejoin:miter;stroke-width:0.8;"/>
   </g>
   <g id="text_21">
    <!-- All Data -->
    <defs>
     <path d="M 53.421875 13.28125 
L 24.03125 13.28125 
L 19.390625 0 
L 0.484375 0 
L 27.484375 72.90625 
L 49.90625 72.90625 
L 76.90625 0 
L 58.015625 0 
z
M 28.71875 26.8125 
L 48.6875 26.8125 
L 38.71875 55.8125 
z
" id="DejaVuSans-Bold-65"/>
     <path d="M 8.40625 75.984375 
L 25.875 75.984375 
L 25.875 0 
L 8.40625 0 
z
" id="DejaVuSans-Bold-108"/>
     <path d="M 27.984375 58.6875 
L 27.984375 14.203125 
L 34.71875 14.203125 
Q 46.234375 14.203125 52.3125 19.921875 
Q 58.40625 25.640625 58.40625 36.53125 
Q 58.40625 47.359375 52.34375 53.015625 
Q 46.296875 58.6875 34.71875 58.6875 
z
M 9.1875 72.90625 
L 29 72.90625 
Q 45.609375 72.90625 53.734375 70.53125 
Q 61.859375 68.171875 67.671875 62.5 
Q 72.796875 57.5625 75.28125 51.109375 
Q 77.78125 44.671875 77.78125 36.53125 
Q 77.78125 28.265625 75.28125 21.796875 
Q 72.796875 15.328125 67.671875 10.40625 
Q 61.8125 4.734375 53.609375 2.359375 
Q 45.40625 0 29 0 
L 9.1875 0 
z
" id="DejaVuSans-Bold-68"/>
     <path d="M 32.90625 24.609375 
Q 27.4375 24.609375 24.671875 22.75 
Q 21.921875 20.90625 21.921875 17.28125 
Q 21.921875 13.96875 24.140625 12.078125 
Q 26.375 10.203125 30.328125 10.203125 
Q 35.25 10.203125 38.625 13.734375 
Q 42 17.28125 42 22.609375 
L 42 24.609375 
z
M 59.625 31.203125 
L 59.625 0 
L 42 0 
L 42 8.109375 
Q 38.484375 3.125 34.078125 0.84375 
Q 29.6875 -1.421875 23.390625 -1.421875 
Q 14.890625 -1.421875 9.59375 3.53125 
Q 4.296875 8.5 4.296875 16.40625 
Q 4.296875 26.03125 10.90625 30.515625 
Q 17.53125 35.015625 31.6875 35.015625 
L 42 35.015625 
L 42 36.375 
Q 42 40.53125 38.71875 42.453125 
Q 35.453125 44.390625 28.515625 44.390625 
Q 22.90625 44.390625 18.0625 43.265625 
Q 13.234375 42.140625 9.078125 39.890625 
L 9.078125 53.21875 
Q 14.703125 54.59375 20.359375 55.296875 
Q 26.03125 56 31.6875 56 
Q 46.484375 56 53.046875 50.171875 
Q 59.625 44.34375 59.625 31.203125 
z
" id="DejaVuSans-Bold-97"/>
     <path d="M 27.484375 70.21875 
L 27.484375 54.6875 
L 45.515625 54.6875 
L 45.515625 42.1875 
L 27.484375 42.1875 
L 27.484375 19 
Q 27.484375 15.1875 29 13.84375 
Q 30.515625 12.5 35.015625 12.5 
L 44 12.5 
L 44 0 
L 29 0 
Q 18.65625 0 14.328125 4.3125 
Q 10.015625 8.640625 10.015625 19 
L 10.015625 42.1875 
L 1.3125 42.1875 
L 1.3125 54.6875 
L 10.015625 54.6875 
L 10.015625 70.21875 
z
" id="DejaVuSans-Bold-116"/>
    </defs>
    <g transform="translate(451.09 31.515)scale(0.32 -0.32)">
     <use xlink:href="#DejaVuSans-Bold-65"/>
     <use x="77.392578" xlink:href="#DejaVuSans-Bold-108"/>
     <use x="111.669922" xlink:href="#DejaVuSans-Bold-108"/>
     <use x="145.947266" xlink:href="#DejaVuSans-Bold-32"/>
     <use x="180.761719" xlink:href="#DejaVuSans-Bold-68"/>
     <use x="263.769531" xlink:href="#DejaVuSans-Bold-97"/>
     <use x="331.25" xlink:href="#DejaVuSans-Bold-116"/>
     <use x="379.052734" xlink:href="#DejaVuSans-Bold-97"/>
    </g>
   </g>
  </g>
  <g id="axes_2">
   <g id="matplotlib.axis_3">
    <g id="ytick_31">
     <g id="line2d_174">
      <defs>
       <path d="M 0 0 
L 3.5 0 
" id="mc083289361" style="stroke:#000000;stroke-width:0.8;"/>
      </defs>
      <g>
       <use style="stroke:#000000;stroke-width:0.8;" x="968.9375" xlink:href="#mc083289361" y="493.247972"/>
      </g>
     </g>
     <g id="text_22">
      <!-- 200 k -->
      <g style="fill:#ff0000;" transform="translate(975.9375 499.326722)scale(0.16 -0.16)">
       <use xlink:href="#DejaVuSans-50"/>
       <use x="63.623047" xlink:href="#DejaVuSans-48"/>
       <use x="127.246094" xlink:href="#DejaVuSans-48"/>
       <use x="190.869141" xlink:href="#DejaVuSans-32"/>
       <use x="222.65625" xlink:href="#DejaVuSans-107"/>
      </g>
     </g>
    </g>
    <g id="ytick_32">
     <g id="line2d_175">
      <g>
       <use style="stroke:#000000;stroke-width:0.8;" x="968.9375" xlink:href="#mc083289361" y="401.782881"/>
      </g>
     </g>
     <g id="text_23">
      <!-- 400 k -->
      <g style="fill:#ff0000;" transform="translate(975.9375 407.861631)scale(0.16 -0.16)">
       <use xlink:href="#DejaVuSans-52"/>
       <use x="63.623047" xlink:href="#DejaVuSans-48"/>
       <use x="127.246094" xlink:href="#DejaVuSans-48"/>
       <use x="190.869141" xlink:href="#DejaVuSans-32"/>
       <use x="222.65625" xlink:href="#DejaVuSans-107"/>
      </g>
     </g>
    </g>
    <g id="ytick_33">
     <g id="line2d_176">
      <g>
       <use style="stroke:#000000;stroke-width:0.8;" x="968.9375" xlink:href="#mc083289361" y="310.317791"/>
      </g>
     </g>
     <g id="text_24">
      <!-- 600 k -->
      <g style="fill:#ff0000;" transform="translate(975.9375 316.396541)scale(0.16 -0.16)">
       <use xlink:href="#DejaVuSans-54"/>
       <use x="63.623047" xlink:href="#DejaVuSans-48"/>
       <use x="127.246094" xlink:href="#DejaVuSans-48"/>
       <use x="190.869141" xlink:href="#DejaVuSans-32"/>
       <use x="222.65625" xlink:href="#DejaVuSans-107"/>
      </g>
     </g>
    </g>
    <g id="ytick_34">
     <g id="line2d_177">
      <g>
       <use style="stroke:#000000;stroke-width:0.8;" x="968.9375" xlink:href="#mc083289361" y="218.852701"/>
      </g>
     </g>
     <g id="text_25">
      <!-- 800 k -->
      <g style="fill:#ff0000;" transform="translate(975.9375 224.931451)scale(0.16 -0.16)">
       <use xlink:href="#DejaVuSans-56"/>
       <use x="63.623047" xlink:href="#DejaVuSans-48"/>
       <use x="127.246094" xlink:href="#DejaVuSans-48"/>
       <use x="190.869141" xlink:href="#DejaVuSans-32"/>
       <use x="222.65625" xlink:href="#DejaVuSans-107"/>
      </g>
     </g>
    </g>
    <g id="ytick_35">
     <g id="line2d_178">
      <g>
       <use style="stroke:#000000;stroke-width:0.8;" x="968.9375" xlink:href="#mc083289361" y="127.38761"/>
      </g>
     </g>
     <g id="text_26">
      <!-- 1 M -->
      <g style="fill:#ff0000;" transform="translate(975.9375 133.46636)scale(0.16 -0.16)">
       <use xlink:href="#DejaVuSans-49"/>
       <use x="63.623047" xlink:href="#DejaVuSans-32"/>
       <use x="95.410156" xlink:href="#DejaVuSans-77"/>
      </g>
     </g>
    </g>
    <g id="text_27">
     <!-- Total Assets [gm] -->
     <defs>
      <path d="M 34.421875 43.5 
Q 28.609375 43.5 25.5625 39.328125 
Q 22.515625 35.15625 22.515625 27.296875 
Q 22.515625 19.4375 25.5625 15.25 
Q 28.609375 11.078125 34.421875 11.078125 
Q 40.140625 11.078125 43.15625 15.25 
Q 46.1875 19.4375 46.1875 27.296875 
Q 46.1875 35.15625 43.15625 39.328125 
Q 40.140625 43.5 34.421875 43.5 
z
M 34.421875 56 
Q 48.53125 56 56.46875 48.375 
Q 64.40625 40.765625 64.40625 27.296875 
Q 64.40625 13.8125 56.46875 6.1875 
Q 48.53125 -1.421875 34.421875 -1.421875 
Q 20.265625 -1.421875 12.28125 6.1875 
Q 4.296875 13.8125 4.296875 27.296875 
Q 4.296875 40.765625 12.28125 48.375 
Q 20.265625 56 34.421875 56 
z
" id="DejaVuSans-Bold-111"/>
      <path d="M 51.125 52.984375 
L 51.125 39.703125 
Q 45.515625 42.046875 40.28125 43.21875 
Q 35.0625 44.390625 30.421875 44.390625 
Q 25.4375 44.390625 23.015625 43.140625 
Q 20.609375 41.890625 20.609375 39.3125 
Q 20.609375 37.203125 22.4375 36.078125 
Q 24.265625 34.96875 29 34.421875 
L 32.078125 33.984375 
Q 45.515625 32.28125 50.140625 28.375 
Q 54.78125 24.46875 54.78125 16.109375 
Q 54.78125 7.375 48.328125 2.96875 
Q 41.890625 -1.421875 29.109375 -1.421875 
Q 23.6875 -1.421875 17.890625 -0.5625 
Q 12.109375 0.296875 6 2 
L 6 15.28125 
Q 11.234375 12.75 16.71875 11.46875 
Q 22.21875 10.203125 27.875 10.203125 
Q 33.015625 10.203125 35.59375 11.609375 
Q 38.1875 13.03125 38.1875 15.828125 
Q 38.1875 18.171875 36.40625 19.3125 
Q 34.625 20.453125 29.296875 21.09375 
L 26.21875 21.484375 
Q 14.546875 22.953125 9.859375 26.90625 
Q 5.171875 30.859375 5.171875 38.921875 
Q 5.171875 47.609375 11.125 51.796875 
Q 17.09375 56 29.390625 56 
Q 34.234375 56 39.546875 55.265625 
Q 44.875 54.546875 51.125 52.984375 
z
" id="DejaVuSans-Bold-115"/>
      <path d="M 45.609375 9.28125 
Q 42 4.5 37.640625 2.25 
Q 33.296875 0 27.59375 0 
Q 17.578125 0 11.03125 7.875 
Q 4.5 15.765625 4.5 27.984375 
Q 4.5 40.234375 11.03125 48.0625 
Q 17.578125 55.90625 27.59375 55.90625 
Q 33.296875 55.90625 37.640625 53.65625 
Q 42 51.421875 45.609375 46.578125 
L 45.609375 54.6875 
L 63.1875 54.6875 
L 63.1875 5.515625 
Q 63.1875 -7.671875 54.859375 -14.625 
Q 46.53125 -21.578125 30.71875 -21.578125 
Q 25.59375 -21.578125 20.796875 -20.796875 
Q 16.015625 -20.015625 11.1875 -18.40625 
L 11.1875 -4.78125 
Q 15.765625 -7.421875 20.15625 -8.71875 
Q 24.5625 -10.015625 29 -10.015625 
Q 37.59375 -10.015625 41.59375 -6.25 
Q 45.609375 -2.484375 45.609375 5.515625 
z
M 34.078125 43.3125 
Q 28.65625 43.3125 25.625 39.296875 
Q 22.609375 35.296875 22.609375 27.984375 
Q 22.609375 20.453125 25.53125 16.578125 
Q 28.46875 12.703125 34.078125 12.703125 
Q 39.546875 12.703125 42.578125 16.703125 
Q 45.609375 20.703125 45.609375 27.984375 
Q 45.609375 35.296875 42.578125 39.296875 
Q 39.546875 43.3125 34.078125 43.3125 
z
" id="DejaVuSans-Bold-103"/>
     </defs>
     <g style="fill:#ff0000;" transform="translate(1043.06375 402.14875)rotate(-90)scale(0.24 -0.24)">
      <use xlink:href="#DejaVuSans-Bold-84"/>
      <use x="68.009766" xlink:href="#DejaVuSans-Bold-111"/>
      <use x="136.710938" xlink:href="#DejaVuSans-Bold-116"/>
      <use x="184.513672" xlink:href="#DejaVuSans-Bold-97"/>
      <use x="251.994141" xlink:href="#DejaVuSans-Bold-108"/>
      <use x="286.271484" xlink:href="#DejaVuSans-Bold-32"/>
      <use x="321.085938" xlink:href="#DejaVuSans-Bold-65"/>
      <use x="398.478516" xlink:href="#DejaVuSans-Bold-115"/>
      <use x="458" xlink:href="#DejaVuSans-Bold-115"/>
      <use x="517.521484" xlink:href="#DejaVuSans-Bold-101"/>
      <use x="585.34375" xlink:href="#DejaVuSans-Bold-116"/>
      <use x="633.146484" xlink:href="#DejaVuSans-Bold-115"/>
      <use x="692.667969" xlink:href="#DejaVuSans-Bold-32"/>
      <use x="727.482422" xlink:href="#DejaVuSans-Bold-91"/>
      <use x="773.185547" xlink:href="#DejaVuSans-Bold-103"/>
      <use x="844.767578" xlink:href="#DejaVuSans-Bold-109"/>
      <use x="948.966797" xlink:href="#DejaVuSans-Bold-93"/>
     </g>
    </g>
   </g>
   <g id="line2d_179">
    <path clip-path="url(#p31f0f451b1)" d="M 116.719318 253.429249 
L 117.141171 259.558324 
L 117.563023 241.891385 
L 117.984876 275.888502 
L 118.406728 275.573404 
L 118.828581 280.673955 
L 119.250433 272.260081 
L 119.672286 286.460951 
L 120.094138 284.90513 
L 120.515991 281.737237 
L 121.781549 290.78725 
L 122.203401 292.241088 
L 125.578221 270.142665 
L 126.421926 270.465994 
L 126.843779 256.201098 
L 127.265632 256.201098 
L 130.218599 259.772353 
L 130.640452 260.931673 
L 133.593419 247.19133 
L 136.546387 252.490817 
L 136.96824 233.422632 
L 137.390092 226.790041 
L 138.233797 241.414394 
L 139.921207 218.885171 
L 141.186765 226.675252 
L 142.452323 219.877567 
L 146.248995 223.302935 
L 147.092701 251.993247 
L 148.358258 214.260238 
L 148.780111 221.97166 
L 150.045668 215.160712 
L 163.123097 179.830492 
L 165.232359 192.165931 
L 268.58623 272.486 
L 282.085511 232.581611 
L 282.507364 223.89014 
L 290.944414 223.97063 
L 292.209972 212.44054 
L 292.631824 205.860542 
L 294.741087 196.619366 
L 300.22517 189.512986 
L 301.91258 189.253683 
L 302.334433 192.555115 
L 303.178138 193.45879 
L 304.443695 209.745064 
L 304.865548 211.620556 
L 305.709253 200.233609 
L 307.396663 172.510541 
L 308.240368 167.52798 
L 310.771483 151.61031 
L 316.255566 151.980286 
L 316.677419 171.140393 
L 319.208534 173.772759 
L 320.474092 142.012878 
L 321.317797 152.661244 
L 354.644147 60.408182 
L 361.235593 100.749317 
L 361.384999 100.969748 
L 361.389393 101.599485 
L 361.635474 108.761202 
L 361.644262 124.355542 
L 363.775496 127.259559 
L 363.788679 128.412019 
L 364.333572 114.77183 
L 364.337966 117.79338 
L 366.324189 129.382006 
L 366.69331 135.610322 
L 366.702098 140.524741 
L 367.216231 123.18982 
L 367.497466 133.373086 
L 367.50186 132.868656 
L 404.712769 120.3137 
L 420.409199 148.975201 
L 432.19031 172.814205 
L 630.315988 231.643179 
L 637.680831 223.956453 
L 654.080348 196.185365 
L 654.510989 204.35091 
L 671.376302 356.493484 
L 674.250172 415.273982 
L 674.254566 423.994264 
L 677.167985 456.536171 
L 676.939482 383.491235 
L 677.783187 422.936927 
L 818.936802 413.709472 
L 841.013751 461.921636 
L 842.723133 455.857957 
L 844.801636 446.655197 
L 846.106742 443.849963 
L 848.624674 468.608191 
L 851.560065 468.363522 
L 853.265052 481.634192 
L 855.637973 473.241355 
L 860.331082 458.809993 
L 860.445334 455.016936 
L 862.46671 460.838689 
L 872.441765 472.615277 
L 873.10091 468.202086 
L 875.842951 452.62741 
L 883.581309 450.966404 
L 887.703159 463.11434 
L 889.447695 474.106615 
L 889.486658 473.793347 
L 889.90646 472.918941 
L 890.18916 473.051108 
L 890.392762 471.069974 
L 890.64851 470.401364 
L 890.729658 468.8085 
L 890.776531 468.595843 
L 890.779167 469.969192 
L 891.038724 469.811872 
L 891.043997 468.562916 
L 891.216546 465.237245 
L 891.423078 465.551885 
L 891.548169 445.304715 
L 891.906451 445.246178 
L 891.966507 444.735345 
L 892.832183 442.926166 
L 892.843022 440.759815 
L 893.739459 434.572202 
L 894.899261 428.896793 
L 895.449719 426.848432 
L 895.737107 424.29244 
L 896.110329 422.570152 
L 896.178001 423.039368 
L 897.541991 409.516712 
L 898.275253 405.886005 
L 898.78089 403.335959 
L 899.14796 402.386551 
L 899.614341 399.209511 
L 899.885909 400.400844 
L 900.06461 397.91528 
L 900.494959 396.679587 
L 900.9048 396.248329 
L 901.337492 394.032587 
L 901.799186 401.744923 
L 902.077199 400.142912 
L 902.434601 397.42457 
L 904.686239 420.284897 
L 905.033682 431.091498 
L 905.441472 425.545054 
L 907.669967 408.858163 
L 907.674361 450.724022 
L 907.91927 447.657197 
L 907.921907 474.875836 
L 908.332627 483.694443 
L 908.920584 479.007772 
L 909.757844 459.241708 
L 910.011542 455.536458 
L 911.247804 487.256094 
L 911.735278 482.794426 
L 912.146877 481.130219 
L 914.649283 470.42423 
L 915.236068 467.159384 
L 915.692782 466.133146 
L 917.380192 458.939416 
L 919.797934 489.452628 
L 920.2151 485.658198 
L 923.294623 383.383764 
L 923.29726 505.171818 
L 923.566484 473.090895 
L 923.570585 500.590789 
L 923.9649 496.050919 
L 925.226063 484.902697 
L 925.773886 484.867483 
L 927.796434 472.863147 
L 928.355682 471.111133 
L 928.355682 471.111133 
" style="fill:none;stroke:#ff0000;stroke-linecap:square;stroke-width:1.5;"/>
   </g>
   <g id="patch_7">
    <path d="M 76.1375 527.41 
L 76.1375 38.17 
" style="fill:none;stroke:#000000;stroke-linecap:square;stroke-linejoin:miter;stroke-width:0.8;"/>
   </g>
   <g id="patch_8">
    <path d="M 968.9375 527.41 
L 968.9375 38.17 
" style="fill:none;stroke:#000000;stroke-linecap:square;stroke-linejoin:miter;stroke-width:0.8;"/>
   </g>
   <g id="patch_9">
    <path d="M 76.1375 527.41 
L 968.9375 527.41 
" style="fill:none;stroke:#000000;stroke-linecap:square;stroke-linejoin:miter;stroke-width:0.8;"/>
   </g>
   <g id="patch_10">
    <path d="M 76.1375 38.17 
L 968.9375 38.17 
" style="fill:none;stroke:#000000;stroke-linecap:square;stroke-linejoin:miter;stroke-width:0.8;"/>
   </g>
  </g>
 </g>
 <defs>
  <clipPath id="p31f0f451b1">
   <rect height="489.24" width="892.8" x="76.1375" y="38.17"/>
  </clipPath>
 </defs>
</svg>
